<svg id="42400a8c-690c-4b8f-9708-881c43931501" data-name="Layer 4" xmlns="http://www.w3.org/2000/svg" xmlns:xlink="http://www.w3.org/1999/xlink" viewBox="0 0 153.9 78.68"><defs><style>.a4b16e5d-bec5-4126-bb98-71330cdcc09f{fill:#5e514d;}.\36 9bdbf35-34aa-4916-91f3-13e81092b3bd{fill:#786a65;}.a05dd7be-bd44-497d-9a67-f4301f350134{fill:url(#e5313b97-8c19-4b54-b627-16277d93fc5e);}.\34 be835f3-a6a2-4aa2-8252-09b6fa9667ba{fill:#da291c;}</style><radialGradient id="e5313b97-8c19-4b54-b627-16277d93fc5e" cx="34.1" cy="56.25" r="14.67" gradientTransform="matrix(1, 0, 0, -1, 0, 80)" gradientUnits="userSpaceOnUse"><stop offset="0.16" stop-color="#d6d2d1"/><stop offset="0.91" stop-color="#837672"/><stop offset="1" stop-color="#786a65"/></radialGradient></defs><title>cnhs</title><path class="a4b16e5d-bec5-4126-bb98-71330cdcc09f" d="M26.4,16.9a0.36,0.36,0,0,1-.5-0.5l0.3-.8a2.38,2.38,0,0,0-1.7.5,1.93,1.93,0,0,0-.5,2.5,1.85,1.85,0,0,0,2.5-.1,1.88,1.88,0,0,0,.7-1.9Zm18.1,2.3a0.36,0.36,0,0,1-.5-0.5l0.3-.9a1.72,1.72,0,0,0-1.7,0,1.82,1.82,0,0,0-.1,2.5,1.65,1.65,0,0,0,2.4.6,1.51,1.51,0,0,0,.3-2Z" transform="translate(0 -0.12)"/><path class="69bdbf35-34aa-4916-91f3-13e81092b3bd" d="M22.1,35.4A27,27,0,0,1,19,32.6,26.46,26.46,0,0,1,12.9,22a2.92,2.92,0,0,1-.2-0.9c0-.1,0-0.1-0.1-0.1s-0.1,0-.1.1a18.72,18.72,0,0,0,.5,5.2,2.92,2.92,0,0,1,.2.9c0.2,0.6.4,1.1,0.6,1.7A10.92,10.92,0,0,0,22,35.7h0.1V35.4Z" transform="translate(0 -0.12)"/><path class="a05dd7be-bd44-497d-9a67-f4301f350134" d="M81.1,22.1a8.1,8.1,0,1,0-15.8,3.6,8.58,8.58,0,0,0,3.2,4.8c-0.6.8-1.3,1.6-1.9,2.3a3.51,3.51,0,0,0-.6-1.4l-0.1-.1a5,5,0,0,0-.7-0.8,6.47,6.47,0,0,0-.9-0.8,0.1,0.1,0,0,1-.1-0.1l-0.1-.1a4.18,4.18,0,0,0-1-.4,4.4,4.4,0,0,0-1.6-.2,5.87,5.87,0,0,0-4,1.7c-3.4,3-4,7.9-4.1,10.2a23.28,23.28,0,0,1-5.3.6,18.1,18.1,0,0,1-4-.4c-0.3-.1-0.6-0.1-0.9-0.2L42,40.6l0.9-.2a16.4,16.4,0,0,0,7.4-3.5,16.2,16.2,0,0,0,5.5-8.5,18.35,18.35,0,0,0,.6-4.7,19.11,19.11,0,0,0-.7-5.2c2.7-.8,5.4-3.1,5.7-6.2a7.34,7.34,0,0,0-6.6-8.2A7.81,7.81,0,0,0,47.9,7a24.27,24.27,0,0,0-5-2.9,23,23,0,0,0-6.7-1.8,23.77,23.77,0,0,0-7,.4,25.45,25.45,0,0,0-5.7,1.9A7.65,7.65,0,0,0,17.3.2,7.26,7.26,0,0,0,9,6.7c-0.3,2.8,1.6,5.6,3.9,7.1a15.48,15.48,0,0,0-.1,2.2c0,5.6,2.4,11.3,6.8,16.1a28.39,28.39,0,0,0,15.1,8.5c1.2,0.2,2.3.3,3.5,0.4a28.61,28.61,0,0,0,5.2,1.6,20.87,20.87,0,0,0,4.3.4,26.62,26.62,0,0,0,15.5-5.1,4.07,4.07,0,0,0,1.8-.5,30,30,0,0,1-3.7,2.5A31.16,31.16,0,0,1,53.7,43a0.1,0.1,0,0,0,0,.2,20.45,20.45,0,0,0,11.5,2.2c5.6-.4,8.2-4.1,8.5-6.2a5.17,5.17,0,0,0-1.4-4.6,3,3,0,0,0-2.1-.8,3.14,3.14,0,0,0-2.1.7,13.36,13.36,0,0,1-2.1,2,3.29,3.29,0,0,0,.7-1.6,22.51,22.51,0,0,0,3.1-3.7l0.2-.3c0.4-.4.7-0.4,0.8,0.2l0.1,0.7a8.11,8.11,0,0,0,4.1.1A8.28,8.28,0,0,0,81.1,22.1ZM42.4,16c1.1-.8,2.8-0.3,3.8,1s1,3.2-.1,4-2.8.3-3.8-1S41.3,16.8,42.4,16ZM23.5,14.6c1.3-1.1,3.1-1.2,4-.2s0.5,2.8-.8,3.9-3.1,1.2-4,.2A3,3,0,0,1,23.5,14.6ZM35,39.1A25.87,25.87,0,0,1,20.6,31a23.15,23.15,0,0,1-6.4-15.3V14.4a1.85,1.85,0,0,0,.7.2c-0.3,5.3,1.9,11.1,6.2,15.8a25.87,25.87,0,0,0,5.1,4.3,1.06,1.06,0,0,0,.2-1.4,11.81,11.81,0,0,1-1-8.7A10.27,10.27,0,0,1,28,19.9c1.7-1.7,4-1.9,6.3-1.7s4.5,1,5.8,3a10.59,10.59,0,0,1,1.6,5.1,11.77,11.77,0,0,1-2.9,8.2,1,1,0,0,0,.2,1.6,0.53,0.53,0,0,0,.3.2c0.2,0.1.4,0.3,0.6,0.4a7.62,7.62,0,0,0,4.2.9,14.25,14.25,0,0,0,9.5-9.9,17.62,17.62,0,0,0-.2-9.1h0.8a21.52,21.52,0,0,1,.7,5,20.24,20.24,0,0,1-.5,4.3,14.26,14.26,0,0,1-5,7.7,17,17,0,0,1-10.6,3.6A12.19,12.19,0,0,1,35,39.1Zm39.7-8.6c-0.3.1-.7,0.1-1,0.2a6.63,6.63,0,0,1-7-5.2,7.08,7.08,0,0,1,.8-5.1,6.53,6.53,0,0,1,4.2-3c0.3-.1.7-0.1,1-0.2a6.63,6.63,0,0,1,7,5.2A6.82,6.82,0,0,1,74.7,30.5Z" transform="translate(0 -0.12)"/><path class="a4b16e5d-bec5-4126-bb98-71330cdcc09f" d="M37.9,30.4a0.19,0.19,0,0,0-.3,0,1.38,1.38,0,0,1-.4.3,1.88,1.88,0,0,1-1.2.1,3.76,3.76,0,0,1-2.1-1,0.55,0.55,0,0,1-.2-0.6,14.93,14.93,0,0,1,.2-1.7A1.34,1.34,0,0,0,34,27c1-.2,3-1,3.1-2.1,0.1-1.4-1.2-2.6-3-2.8s-3.4.8-3.5,2.2c-0.1,1.2,1.7,2.4,2.6,2.7v0.5c0,0.4-.2,1.6-0.2,1.7a0.87,0.87,0,0,1-.4.6,3.63,3.63,0,0,1-2.2.4,2.54,2.54,0,0,1-1.2-.4c-0.1-.1-0.2-0.3-0.3-0.4a0.2,0.2,0,0,0-.2-0.1,0.37,0.37,0,0,0-.1.3,1.7,1.7,0,0,0,1.5,1.6,3.52,3.52,0,0,0,3-1.1h0.1a0.1,0.1,0,0,1,.1.1A3.65,3.65,0,0,0,36,32a1.58,1.58,0,0,0,1.8-1.2,0.25,0.25,0,0,0,.1-0.4h0Z" transform="translate(0 -0.12)"/><path class="4be835f3-a6a2-4aa2-8252-09b6fa9667ba" d="M67,51.3V48.5h2A3,3,0,0,1,67,51.3ZM6.7,47a6.45,6.45,0,0,1,4.8,1.9l-1.1,1.9a5.6,5.6,0,0,0-3.6-1.5c-2.8,0-4.4,2.2-4.4,4.9s1.7,5.1,4.4,5.1a5.4,5.4,0,0,0,3.8-1.8l1.2,1.9a6.79,6.79,0,0,1-5.1,2.3c-4,0-6.7-3.2-6.7-7.4S2.9,47,6.7,47Zm6.1,0.2h2.3V53a3.57,3.57,0,0,1,3.2-2c2.1,0,3.3,1.2,3.3,3.9v6.6H19.3v-6c0-1.2-.3-2.1-1.5-2.1a2.65,2.65,0,0,0-2.5,2.1,5.28,5.28,0,0,0-.1,1.3v4.7H12.9V47.2H12.8Zm10.3,4h2.3V61.4H23.1V51.2Zm0-4h2.3v1.9H23.1V47.2Zm83.6,0H109v1.9h-2.3V47.2ZM27,47.2h2.3V57.8c0,1.1.3,1.4,1,1.4h0.3v2.2a2.44,2.44,0,0,1-.7.1c-1.3,0-2.9-.4-2.9-3.3v-11ZM35,51a2.81,2.81,0,0,1,2.7,1.3V47.2H40V61.4H37.8V59.9a3.24,3.24,0,0,1-2.9,1.7c-2.5,0-4.2-2.2-4.2-5.3S32.5,51,35,51Zm0.5,8.5c1.2,0,2.4-1,2.4-3.2,0-1.6-.8-3.1-2.3-3.1-1.3,0-2.4,1.1-2.4,3.2C33.1,58.3,34.1,59.5,35.5,59.5Zm6.2-8.3H44v2.5a3.18,3.18,0,0,1,3-2.6h0.4v2.5H46.8a2.76,2.76,0,0,0-2.6,2.1,8.81,8.81,0,0,0-.2,1.7v4H41.7V51.2ZM52.1,51c2.7,0,4.2,2.1,4.2,4.8,0,0.3-.1,1-0.1,1H49.7a2.7,2.7,0,0,0,2.8,2.7,4.5,4.5,0,0,0,2.7-1.1l0.9,1.8a5.48,5.48,0,0,1-3.8,1.5c-3.1,0-5-2.4-5-5.3C47.4,53.2,49.3,51,52.1,51Zm1.8,4.1A1.85,1.85,0,0,0,52,53a2.19,2.19,0,0,0-2.2,2.1h4.1Zm3.4-3.9h2.2v1.9A3.49,3.49,0,0,1,62.8,51c2.1,0,3.3,1.2,3.3,3.9v6.6H63.8v-6c0-1.2-.3-2.1-1.5-2.1a2.65,2.65,0,0,0-2.5,2.1,5.9,5.9,0,0,0-.2,1.4v4.7H57.3V51.2Zm11.4,7.2a3.77,3.77,0,0,0,2.6,1.1,1,1,0,0,0,1.2-.9c0-1.5-4.6-1.3-4.6-4.6,0-1.9,1.6-3,3.6-3a4.12,4.12,0,0,1,3.1,1.2L73.8,54a3.49,3.49,0,0,0-2.3-.9,1,1,0,0,0-1.2.9c0,1.4,4.6,1.3,4.6,4.5,0,1.7-1.4,3.1-3.6,3.1a5,5,0,0,1-3.6-1.5ZM79.1,47.2h2.4l4.9,8.2a20.72,20.72,0,0,1,1.1,2.2s-0.1-1.4-.1-2.2V47.2h2.4V61.4H87.4l-4.9-8.2A20.72,20.72,0,0,1,81.4,51s0.1,1.4.1,2.2v8.2H79.1V47.2ZM96.3,55h0.3V54.9a1.63,1.63,0,0,0-1.8-1.8,5.06,5.06,0,0,0-2.6,1l-0.9-1.8A6.11,6.11,0,0,1,95,51c2.5,0,3.9,1.5,3.9,4.1v6.4H96.8V60a3.08,3.08,0,0,1-2.9,1.8,3,3,0,0,1-3.2-3.2C90.7,55.3,94.7,55,96.3,55Zm-1.8,4.7c1.2,0,2.1-1.4,2.1-2.7V56.8H96.2c-1.2,0-3.1.2-3.1,1.6A1.24,1.24,0,0,0,94.5,59.7Zm6.3-6.3H99.6v-2h1.3V48.5h2.3v2.9h2.1v2h-2.1v4a1.7,1.7,0,0,0,1.9,1.9h0.4v2.2a2.44,2.44,0,0,1-.7.1c-1.3,0-3.9-.4-3.9-3.8V53.4h-0.1Zm5.9-2.2H109V61.4h-2.3V51.2Zm8.4-.2a5.3,5.3,0,1,1-5.1,5.3A5.13,5.13,0,0,1,115.1,51Zm0.1,8.5a3.23,3.23,0,1,0-2.8-3.2A2.91,2.91,0,0,0,115.2,59.5Zm6.1-8.3h2.2v1.9a3.49,3.49,0,0,1,3.3-2.1c2.1,0,3.2,1.2,3.2,3.9v6.6h-2.3v-6c0-1.2-.3-2.1-1.5-2.1a2.65,2.65,0,0,0-2.5,2.1,5.9,5.9,0,0,0-.2,1.4v4.7h-2.3V51.2h0.1ZM136.4,55h0.3V54.9a1.63,1.63,0,0,0-1.8-1.8,5.06,5.06,0,0,0-2.6,1l-0.9-1.8a6.11,6.11,0,0,1,3.7-1.3c2.5,0,3.9,1.5,3.9,4.1v6.4h-2.2V60a3.08,3.08,0,0,1-2.9,1.8,3,3,0,0,1-3.2-3.2C130.8,55.3,134.9,55,136.4,55Zm-1.8,4.7c1.2,0,2.1-1.4,2.1-2.7V56.8h-0.4c-1.2,0-3.1.2-3.1,1.6A1.24,1.24,0,0,0,134.6,59.7Zm5.8-12.5h2.3V57.8c0,1.1.3,1.4,1,1.4H144v2.2a2.44,2.44,0,0,1-.7.1c-1.3,0-2.9-.4-2.9-3.3v-11h0Z" transform="translate(0 -0.12)"/><path class="4be835f3-a6a2-4aa2-8252-09b6fa9667ba" d="M148.6,58.3h-1.2V58h2.8v0.3H149v3.1h-0.3V58.3h-0.1Zm2.2-.3h0.3l0.9,2,0.2,0.4,0.2-.4,0.9-2h0.3l0.3,3.4h-0.3L153.4,59V58.5a4.71,4.71,0,0,1-.2.5l-0.8,1.7h-0.3L151.3,59a4.71,4.71,0,0,1-.2-0.5V59l-0.2,2.4h-0.3l0.2-3.4h0Z" transform="translate(0 -0.12)"/><path class="4be835f3-a6a2-4aa2-8252-09b6fa9667ba" d="M79.1,68.5h1V72H84V68.5h1v7.9H84V73H80.2v3.5h-1v-8H79.1Zm9.3,2.1c1.5,0,2.3,1.2,2.3,2.7v0.5H86.9a1.81,1.81,0,0,0,1.8,1.9,2.55,2.55,0,0,0,1.6-.7l0.4,0.8a3.06,3.06,0,0,1-2,.8,2.79,2.79,0,0,1-2.8-3A2.52,2.52,0,0,1,88.4,70.6ZM89.6,73a1.32,1.32,0,0,0-1.3-1.5A1.47,1.47,0,0,0,86.8,73h2.8Zm4.8-.1h0.2V72.8a1.06,1.06,0,0,0-1.2-1.2,2.65,2.65,0,0,0-1.5.6l-0.4-.8a3.27,3.27,0,0,1,2-.7,2,2,0,0,1,2.1,2.2v3.6H94.7v-1A1.8,1.8,0,0,1,93,76.6a1.71,1.71,0,0,1-1.8-1.7C91.2,73,93.5,72.9,94.4,72.9Zm-1.2,2.8a1.67,1.67,0,0,0,1.4-1.8V73.7H94.3c-0.8,0-2.1.1-2.1,1.1A0.87,0.87,0,0,0,93.2,75.7Zm3.6-7.2h1v6.2c0,0.7.3,0.8,0.6,0.8h0.2v1H98.3c-0.6,0-1.4-.2-1.4-1.6V68.5H96.8Zm2.6,3.2H98.7V70.8h0.7V69.2h1v1.6h1.3v0.9h-1.3v2.5a1.1,1.1,0,0,0,1.1,1.3h0.2v1h-0.4a1.83,1.83,0,0,1-2-2.1V71.7h0.1Zm3.2-3.2h1v3.4a2,2,0,0,1,1.9-1.3c1.2,0,1.8.7,1.8,2.2v3.6h-1V73c0-.8-0.2-1.4-1-1.4a1.9,1.9,0,0,0-1.7,1.4,2,2,0,0,0-.1.8v2.7h-1v-8h0.1Zm8.9,6.2a2.85,2.85,0,0,0,1.9.9,1.18,1.18,0,0,0,1.3-1.2c0-1.7-3.6-1.3-3.6-3.8a2.27,2.27,0,0,1,2.4-2.2,2.87,2.87,0,0,1,2.1.8l-0.5.9a2.55,2.55,0,0,0-1.6-.7,1.18,1.18,0,0,0-1.3,1.2c0,1.6,3.6,1.2,3.6,3.8a2.18,2.18,0,0,1-2.3,2.2,3.16,3.16,0,0,1-2.4-1Z" transform="translate(0 -0.12)"/><path class="4be835f3-a6a2-4aa2-8252-09b6fa9667ba" d="M116.1,77.7a1.27,1.27,0,0,0,.6.2,1.15,1.15,0,0,0,1-.8l0.3-.7-2.2-5.6h1.1l1.3,3.7c0.1,0.3.2,0.7,0.2,0.7s0.1-.4.2-0.7l1.3-3.7H121l-2.5,6.7a1.77,1.77,0,0,1-1.7,1.3,1.79,1.79,0,0,1-1-.3Zm5.4-2.7a2.17,2.17,0,0,0,1.5.7,0.8,0.8,0,0,0,.9-0.7c0-1-2.7-.8-2.7-2.7a1.72,1.72,0,0,1,1.9-1.6,2.23,2.23,0,0,1,1.7.6l-0.4.8a2,2,0,0,0-1.3-.5,0.8,0.8,0,0,0-.9.7c0,1,2.7.8,2.7,2.7a1.8,1.8,0,0,1-1.9,1.7,2.77,2.77,0,0,1-2-.8Zm4.6-3.3h-0.7V70.8h0.7V69.2h1v1.6h1.3v0.9h-1.3v2.5a1.1,1.1,0,0,0,1.1,1.3h0.2v1H128a1.83,1.83,0,0,1-2-2.1V71.7h0.1Zm5.3-1.1c1.5,0,2.3,1.2,2.3,2.7v0.5h-3.8a1.81,1.81,0,0,0,1.8,1.9,2.55,2.55,0,0,0,1.6-.7l0.4,0.8a3.06,3.06,0,0,1-2,.8,2.79,2.79,0,0,1-2.8-3A2.57,2.57,0,0,1,131.4,70.6Zm1.3,2.4a1.32,1.32,0,0,0-1.3-1.5,1.47,1.47,0,0,0-1.5,1.5h2.8Zm2-2.2h1V72a2.07,2.07,0,0,1,1.8-1.3,1.46,1.46,0,0,1,1.6,1.3,2.1,2.1,0,0,1,1.9-1.3c1.2,0,1.7.7,1.7,2.2v3.6h-1V73.1c0-.8-0.1-1.4-0.9-1.4a1.8,1.8,0,0,0-1.5,1.5,2,2,0,0,0-.1.8v2.6h-1V73.2c0-.7-0.1-1.4-0.9-1.4a2.27,2.27,0,0,0-1.6,2.2v2.6h-1V70.8h0Z" transform="translate(0 -0.12)"/></svg>