<?xml version="1.0" encoding="utf-8"?>
<!-- Generator: Adobe Illustrator 19.1.0, SVG Export Plug-In . SVG Version: 6.00 Build 0)  -->
<svg version="1.1" id="ICONS" xmlns="http://www.w3.org/2000/svg" xmlns:xlink="http://www.w3.org/1999/xlink" x="0px" y="0px"
	 viewBox="0 0 151.2 97.2" style="enable-background:new 0 0 151.2 97.2;" xml:space="preserve">
<style type="text/css">
	.st0{fill:#00AEEF;}
	.st1{fill:#FFFFFF;}
</style>
<g>
	<path class="st0" d="M13.6,13.8c0-6.3,6.8-6.3,6.8-6.3h108.9c0,0,6.8,0,6.8,6.3v69.3h7.7V13.9C143.7,0,129.9,0,129.9,0H19.8
		C19.8,0,6,0,6,13.9v69.3h7.5V13.8z"/>
	<path class="st0" d="M144.3,83.6H6.7c0,0-6.7,0-6.7,6.8c0,6.8,6.7,6.8,6.7,6.8h137.6c0,0,6.9,0,6.9-6.8
		C151.2,83.6,144.3,83.6,144.3,83.6z M89.4,94.1H61.6c0,0-3.5,0-3.5-3.8c0-3.8,3.5-3.8,3.5-3.8h27.8c0,0,3.5,0,3.5,3.8
		C92.9,94.1,89.4,94.1,89.4,94.1z"/>
</g>
<path class="st1" d="M89.5,94.1h-28c-1.9,0-3.4-1.5-3.4-3.4V90c0-1.9,1.5-3.4,3.4-3.4h28c1.9,0,3.4,1.5,3.4,3.4v0.7
	C92.9,92.6,91.3,94.1,89.5,94.1z"/>
<path class="st1" d="M136,83.2V38.6c0-0.1,0-0.2,0-0.4V13.7c0-3.4-2.7-6.1-6.1-6.1H19.7c-3.4,0-6.1,2.7-6.1,6.1v15.7v8.9v44.9H6v0.4
	h7.5h0.3h121.8h0.4h7.7v-0.4H136z"/>
</svg>
