<svg xmlns="http://www.w3.org/2000/svg" viewBox="0 0 151.2 97.2"><style>.computer-st0{fill:#00aeef}.computer-st1{fill:#FFF}</style><path class="computer-st0" d="M13.6 13.8c0-6.3 6.8-6.3 6.8-6.3h108.9s6.8 0 6.8 6.3v69.3h7.7V13.9C143.7 0 129.9 0 129.9 0H19.8S6 0 6 13.9v69.3h7.5V13.8zM144.3 83.6H6.7S0 83.6 0 90.4s6.7 6.8 6.7 6.8h137.6s6.9 0 6.9-6.8-6.9-6.8-6.9-6.8zM89.4 94.1H61.6s-3.5 0-3.5-3.8 3.5-3.8 3.5-3.8h27.8s3.5 0 3.5 3.8-3.5 3.8-3.5 3.8z"/><path class="computer-st1" d="M89.5 94.1h-28c-1.9 0-3.4-1.5-3.4-3.4V90c0-1.9 1.5-3.4 3.4-3.4h28c1.9 0 3.4 1.5 3.4 3.4v.7c0 1.9-1.6 3.4-3.4 3.4zM136 83.2V38.6 13.7c0-3.4-2.7-6.1-6.1-6.1H19.7c-3.4 0-6.1 2.7-6.1 6.1v69.5H6v.4h137.7v-.4H136z"/></svg>
