<svg xmlns="http://www.w3.org/2000/svg" viewBox="0 0 109.7 92.8"><style>.st0{fill:#FFF}</style><path class="st0" d="M109.7 50c0 7.3-1.3 14.2-4 20.7l-1.3 3.2-12.2 2.2c-1 3.6-3 6.6-6 9s-6.5 3.5-10.3 3.5v2.1c0 .6-.2 1.1-.6 1.5-.4.4-.9.6-1.5.6h-4.2c-.6 0-1.1-.2-1.5-.6-.4-.4-.6-.9-.6-1.5v-38c0-.6.2-1.1.6-1.5.4-.4.9-.6 1.5-.6h4.2c.6 0 1.1.2 1.5.6.4.4.6.9.6 1.5v2.1c3.1 0 6 .8 8.6 2.3 2.6 1.6 4.6 3.7 6.1 6.3l4.5-.8C96.4 58.5 97 54.3 97 50c0-6.5-1.9-12.6-5.8-18.4-3.9-5.8-9.1-10.4-15.6-13.8-6.5-3.4-13.5-5.1-20.8-5.1S40.5 14.4 34 17.8c-6.5 3.4-11.7 8-15.6 13.8-3.9 5.8-5.8 11.9-5.8 18.4 0 4.3.6 8.5 1.9 12.7l4.5.8c1.5-2.6 3.5-4.7 6.1-6.3 2.6-1.6 5.4-2.3 8.6-2.3v-2.1c0-.6.2-1.1.6-1.5.4-.4.9-.6 1.5-.6H40c.6 0 1.1.2 1.5.6.4.4.6.9.6 1.5v38c0 .6-.2 1.1-.6 1.5-.4.4-.9.6-1.5.6h-4.2c-.6 0-1.1-.2-1.5-.6-.4-.4-.6-.9-.6-1.5v-2.1c-3.9 0-7.3-1.2-10.3-3.5-3-2.4-5-5.4-6-9L5.3 73.9 4 70.7C1.3 64.2 0 57.3 0 50c0-6.6 1.5-13 4.4-19.2 2.9-6.2 6.9-11.5 11.8-16S27 6.7 33.8 4s13.8-4 21.1-4S69.2 1.3 76 4s12.6 6.3 17.5 10.8 8.9 9.8 11.8 16c2.9 6.1 4.4 12.5 4.4 19.2z"/></svg>
