<svg id="60b70597-42fd-45f1-a4f4-8fc3604a80c9" data-name="Layer 1" xmlns="http://www.w3.org/2000/svg" viewBox="0 0 549.56 123.89"><defs><style>.\35 66b0eea-7bdf-4086-b0c2-50df47a6d795{fill:#008851}.dcf9bedb-5759-441c-889b-85c203b9043a{fill:#a8996e}</style></defs><title>ja</title><path class="566b0eea-7bdf-4086-b0c2-50df47a6d795" d="M110 65.72l33.77 56.89.57.85H0l31.56-54.62 31.17-53.9L71.44 0h.26z"/><path class="dcf9bedb-5759-441c-889b-85c203b9043a" d="M95.51 40.94l-.69 1.14L79.6 68.24V40.91h16m-32 54.78V68.16c4.58.07 11.77 0 16.06 0l-16 27.5zm-10.81 19.1c-1.51 2.55-2.82 4.87-5 8.64v-27.7H63.49l-10.76 19.09z"/><path class="566b0eea-7bdf-4086-b0c2-50df47a6d795" d="M458.64 103.66v11.82a7.51 7.51 0 0 0 4.8 5.58 11.31 11.31 0 0 0 9.87-2.21 14.51 14.51 0 0 0 4.28-7.27 17.86 17.86 0 0 1 1.95-.13 14.14 14.14 0 0 1-6.88 10.26 15 15 0 0 1-14.94-.78 17.32 17.32 0 0 1-7.92-18.44c1.43-6 5.46-11.56 11.43-13.64 6.58-1.71 13.9.52 17.4 6.62a23.3 23.3 0 0 1 1.73 7.65c-3 0-5.89-.11-9.14 0l-14.48.13v-2.13c4.1 0 10.44-.07 15 0a28.41 28.41 0 0 0-.31-5.57 6.3 6.3 0 0 0-2.43-4.22 8.23 8.23 0 0 0-6.75-.52c-4.12 1.87-3.53 5.83-3.55 9.77v3.09zm-88.32-.16v11.82a7.5 7.5 0 0 0 4.8 5.59 11.32 11.32 0 0 0 9.88-2.21 14.52 14.52 0 0 0 4.29-7.28 18.06 18.06 0 0 1 1.95-.13 14.14 14.14 0 0 1-6.88 10.26 15 15 0 0 1-14.94-.78 17.33 17.33 0 0 1-7.92-18.44c1.43-6 5.46-11.56 11.43-13.64 6.58-1.7 13.89.52 17.4 6.63A23.3 23.3 0 0 1 392 103c-3 0-5.89-.11-9.14 0l-14.48.13V101c4.09 0 10.44-.08 15 0a28.49 28.49 0 0 0-.31-5.57 6.29 6.29 0 0 0-2.44-4.21 8.23 8.23 0 0 0-6.75-.52c-4.12 1.87-3.53 5.82-3.55 9.77v3.08zM197.54.39c.07.84-.11 1.7 0 2.35-2.66.07-4.3-.1-6.11 0V50c-.39 4.55-2.34 9.35-6.75 11.95a12.7 12.7 0 0 1-11.17 2.21 8.21 8.21 0 0 1-4.81-4 5.38 5.38 0 0 1 .91-6 4.57 4.57 0 0 1 4-1.17 4.44 4.44 0 0 1 3 3.25c1 2.47-3.51 5.19.26 6.36 2.08.13 3.51-1.17 4.54-2.73l.91-3.12V2.68h-8.25V.29l16.37.05h7zm156.78 25.29A5.89 5.89 0 0 1 353 31a3.72 3.72 0 0 1-4 .65c-2.65-1-1.7-3.5-3.07-5.08-2.74 1-5.47 7.77-5.38 9.32l-.39 5.11v14h6.63v1.77h-20.14v-1.63h5.71V25.68h-5.76v-1.82h13.57v6.89c1.56-3.25 4.55-7.79 8.7-8.05 2.24 0 4.55.65 5.45 3M269 28.83l.41 3.38v23h5.49V57h-17.29-.64v-1.72a34.6 34.6 0 0 0 4.29 0V29.74a7.26 7.26 0 0 0-1.3-3.12c-2.47-1.95-5.46-1.43-8.05 0-3.12 2.47-3.76 6.49-3.9 10.39v18.34a36.61 36.61 0 0 1 3.77 0c.52-.13 1.15.05 2.35 0 0 .26 0 .93-.07 1.75h-18.97v-1.7c2.5-.16 2.63 0 4.92 0V25.64h-5.57v-2h13.31a24.18 24.18 0 0 1 .06 3.25A15.36 15.36 0 0 1 265.09 24a10 10 0 0 1 3.88 4.8m20.91-4.29V55.1h5.83a6.31 6.31 0 0 1 0 1.8l-7.54.06L276 57v-1.8l6.07.07v-29.8c-1.8 0-4.4 0-6.51-.06v-1.94h14.29v1z"/><path class="566b0eea-7bdf-4086-b0c2-50df47a6d795" d="M206.38 51a4.25 4.25 0 0 0 2.47 3.76 8.55 8.55 0 0 0 7.54-.91c4.29-3.25 3.9-8.7 4.15-13.77V25.72h-7.42a12.37 12.37 0 0 0 0-1.51v-.39h15.19v31.51h5.38V57h-13.26c0-1.43.1-2.74 0-4.16-3 4.16-8.05 5.46-13.25 4.68-2.86-.65-6.9-2.47-8-5.67l-.42-2.39V25.78h-6.1c0-.76 0-1.33.07-2h13.72v27.34zM312 54.85a8.5 8.5 0 0 0 3.33-.71c2.26-1.3 2.89-2.16 3.05-4.55V29.7c.18-2.84-4-6.2-6.82-5.87-2.74-.33-7.64 2.29-7.63 6.06v19.58c.15 2.18.87 3.07 2.44 4.37.91.65 3.8 1.16 5.57 1.21l.06 2.55c-5.82 0-10.75-2.45-13.74-6.69-3.38-4.28-4.5-11.4-2.55-16.85 2.08-7 9-11.85 15.43-11.85 6.14 0 11 3.25 14.53 8.31 2.86 4.81 3.25 12.47.26 17.4-2.71 5.39-8.75 9.64-14.2 9.69l.27-2.76zm-58.65 39.43h.05a16.72 16.72 0 0 1 15.6-5.23c2.33.78 5.34 2.52 6.51 5l.41 1.77v25.39h5.88v1.88h-19.95v-1.67h6.22V95.74a4.4 4.4 0 0 0-2.5-3.64 8.33 8.33 0 0 0-7 .78 11.54 11.54 0 0 0-5.18 9.22l-.07 12.7.05 6.66h6.11c0 .34-.06 1.1 0 1.71h-18.05a13.08 13.08 0 0 0 0-1.64h4.08V68.66c-1.56-.06-2.55 0-4 0 0-.52 0-1.28.06-2h11.77l-.07 27.62zm277.09-17.65V89.8h8.43v2c-2.73.07-5.52 0-8.44.07v25.5a4.28 4.28 0 0 0 3.41 3.33 4.85 4.85 0 0 0 4-1.56c1.17-.91.42-3.54 2.86-2.86 0 1.82-1.25 3.74-2.47 5.11-3.51 2.08-7.14 2.81-10.78 1.25-1.82-.91-4.45-3-4.58-5.45V91.8c-1.85.05-2.81.05-5.15.05-.13-2.34 2.81-3.1 4.24-4.66a24.21 24.21 0 0 0 7.14-10.52c.63 0 .65 0 1.3-.05m-353 26.89h15.85l-7.05-19.89-.79-2.34-.17.55-12.13 39.2-.17.53h6.64v1.72h-14.45a4.89 4.89 0 0 0-.05-1.67h5.39l.67-1.95L187.68 67v-.11h2.74L205 109.1l4.53 12.34h6.29a7.53 7.53 0 0 1 .05 1.82h-23.41a9.72 9.72 0 0 1-.05-1.71h7.1l-5.32-15.67-.31-.52h-17l.57-1.78zM512.52 92.4a14.94 14.94 0 0 1 1.93 7.58v21.36c2.61 0 3.41 0 5.32-.07V123h-17.79c.06-.47 0-.91 0-1.51h4.48V97.01c-.26-1.69-.89-3.59-2.58-4.49a8.17 8.17 0 0 0-7.66 1c-3.64 3.25-2.54 8.44-3.06 12.86v15.1h5.4a13.72 13.72 0 0 0 0 1.59H480.2v-1.64l5.26-.05.07-.69-.07-29.21h-5.89v-1.93l1.12.07h12.23v3.81a16.07 16.07 0 0 1 14.16-4.15 11.83 11.83 0 0 1 5.46 3.25M445 94.12l.59 2.69v24.5h5a16.35 16.35 0 0 0 0 1.72h-17.35v-1.56l4.73-.07v-20.3c-.39-3.12.65-7.79-3.25-9a7.78 7.78 0 0 0-8.44 3.51c-1.17 2.6-1.35 5.92-1.48 8.78l.05 16.93c2.06 0 3.46.08 4.93.07V123H412v-1.66c1.93 0 3.39.08 5 0v-24.6a5.4 5.4 0 0 0-2.74-3.9c-2.08-1.17-4.81-.65-6.88.52-4.55 2.73-3.54 8.49-3.79 12.73v15.32h5.23a8.76 8.76 0 0 1 0 1.48h-17.7v-1.59h4.63V91.21h-5.49v-2l.39.07h12.62v4.5a16.88 16.88 0 0 1 14.94-3.9 8.85 8.85 0 0 1 5.45 4.15 16.51 16.51 0 0 1 15.07-4.68 9.7 9.7 0 0 1 6.27 4.76"/><path class="566b0eea-7bdf-4086-b0c2-50df47a6d795" d="M238.21 92.35c1.69 1.95 2.6 4.94 1.56 7.27a4.28 4.28 0 0 1-3.25 2.34 4.38 4.38 0 0 1-3.9-2.34c-.91-2.34 0-4.68 1.56-6.49-.65-1.82-2.86-2.21-4.29-2.47a7.77 7.77 0 0 0-8.18 3.9l-.78 2.08-.52 11.3c.26 4.94-.78 11.56 4.8 13.64 3.38 1.17 7.14 0 9.74-2.08a14.2 14.2 0 0 0 4.42-7.4 15.35 15.35 0 0 0 2.08-.26 15.2 15.2 0 0 1-9.09 11.3c-5.19 1.43-10 1-14.54-2.86a17.82 17.82 0 0 1-6-17.4c1.17-5.58 5.72-11.3 11.17-13.25 4.8-1.82 11.3-1.17 15.2 2.73m125.68-3.14a11.4 11.4 0 0 1 0 1.85L360 91l-3.69 9-8.9 23.12a16.13 16.13 0 0 0-2.55 0L332.5 90.94h-2.86a14.56 14.56 0 0 0 0-1.72h16.55v1.83h-5.83l8.64 21.58.1-.15 3.9-9.61 4.33-11.31a1.87 1.87 0 0 0 .18-.57h-6.36a6.64 6.64 0 0 0 0-1.72h12.71zm-67.28 31v1.09h5.65v1.8h-19.35v-1.8c1.82 0 3.67.05 5.65.05V91.83h-5.9v-1.82h14v30.27zm13.46-16.71v11.82a7.49 7.49 0 0 0 4.8 5.58 11.31 11.31 0 0 0 9.87-2.21 14.51 14.51 0 0 0 4.28-7.27 17.57 17.57 0 0 1 2-.13 14.15 14.15 0 0 1-6.88 10.26 15 15 0 0 1-14.94-.78 17.33 17.33 0 0 1-7.92-18.44c1.43-6 5.46-11.56 11.43-13.64 6.57-1.7 13.89.52 17.4 6.63a23.25 23.25 0 0 1 1.73 7.65c-3 0-5.89-.11-9.14 0l-14.48.13V101c4.09 0 10.44-.08 15 0a28.66 28.66 0 0 0-.3-5.57 6.31 6.31 0 0 0-2.44-4.21 8.23 8.23 0 0 0-6.75-.52c-4.12 1.87-3.53 5.82-3.55 9.77v3.08zm-18-25.81a4.79 4.79 0 1 0-4.8-4.79 4.79 4.79 0 0 0 4.8 4.79m-12-71.46a4.79 4.79 0 1 1 4.86 4.76 4.79 4.79 0 0 1-4.78-4.78m264.24 79.13a4.19 4.19 0 1 0-4.43-4.18 4.31 4.31 0 0 0 4.59 4.27l.09 1.08a5.12 5.12 0 1 0-.25 0v-1.17z"/><path class="566b0eea-7bdf-4086-b0c2-50df47a6d795" d="M543.28 79.4h1.23c1.35.25 1 1.61-1.67 1.28l.16 1.06c1.95-.52 1.45 2.53 3.4 2.29.24-.67-.78-1.83-1.18-2.61a1.65 1.65 0 0 0 .86-2.39l-1.08-.54a21.16 21.16 0 0 1-2.86 0v5.46h1.25z"/></svg>