<svg xmlns="http://www.w3.org/2000/svg" width="549.558" height="123.891" viewBox="0 0 549.558 123.891"><path fill="#008851" d="M110.01 65.72l33.77 56.89.57.846-43.22.047-51.386.016H0l31.56-54.682 31.172-53.9L71.436 0h.26z"/><path fill="#A8996E" d="M95.51 40.944l-.695 1.14-15.213 26.153-.048-.033v-27.29c5.583 0 10.424.047 15.956.03M63.546 95.723l-.05-27.534c4.578.065 11.77.03 16.057.03L63.546 95.722zM52.732 114.818c-1.51 2.547-2.824 4.87-5.033 8.638l-.05-27.7 1.574-.047h14.272l-10.764 19.108z"/><path fill="#008851" d="M458.645 103.664l-.033 11.82c.52 2.597 2.34 4.674 4.805 5.585 3.247.907 7.275 0 9.873-2.21 2.336-2.078 3.506-4.546 4.284-7.273.93-.097 1.43-.13 1.948-.13-.388 3.768-2.985 8.053-6.882 10.262-4.937 2.465-10.262 2.077-14.937-.782-6.235-4.026-9.482-10.908-7.925-18.442 1.43-5.974 5.456-11.56 11.43-13.638 6.58-1.705 13.897.52 17.405 6.624 1.038 2.34 1.606 5.31 1.735 7.648-2.952.033-5.893-.114-9.14.016l-14.485.132v-2.134c4.095-.01 10.44-.073 15.02-.043.052-2.287 0-3.426-.306-5.567-.18-1.834-1.137-3.036-2.436-4.206-1.818-1.17-4.936-1.3-6.752-.52-4.117 1.87-3.53 5.827-3.555 9.774l-.035 2.535-.013.55zM370.323 103.5l-.03 11.82c.52 2.598 2.336 4.678 4.802 5.586 3.247.908 7.275 0 9.873-2.207 2.337-2.08 3.506-4.547 4.285-7.276.928-.096 1.428-.13 1.948-.13-.387 3.768-2.984 8.056-6.88 10.262-4.94 2.468-10.26 2.078-14.94-.78-6.23-4.025-9.48-10.91-7.924-18.444 1.43-5.974 5.46-11.558 11.434-13.638 6.575-1.702 13.894.52 17.402 6.626 1.038 2.336 1.605 5.31 1.735 7.646-2.953.033-5.894-.114-9.14.015l-14.485.133v-2.13c4.094-.01 10.44-.08 15.02-.046.05-2.29 0-3.425-.307-5.568-.18-1.838-1.137-3.038-2.436-4.207-1.82-1.17-4.938-1.3-6.754-.52-4.117 1.872-3.528 5.824-3.55 9.774l-.04 2.532-.013.55zM197.535.39c.066.843-.11 1.703.018 2.353-2.664.066-4.303-.096-6.106 0v47.263c-.388 4.546-2.336 9.35-6.753 11.948-3.118 2.34-7.273 3.38-11.17 2.21-1.947-.65-3.895-2.08-4.806-4.027-.908-1.82-.65-4.417.91-5.977 1.04-1.167 2.6-1.3 4.027-1.167 1.558.388 2.598 1.816 2.988 3.247 1.038 2.466-3.508 5.195.26 6.362 2.077.132 3.505-1.167 4.545-2.727l.908-3.118V44.03l.036-41.318-1.073.015h-7.175c-.02-.683.03-1.738.03-2.387l16.365.05h6.995zM354.32 25.683c.407 1.497.13 3.896-1.298 5.325-1.17.974-2.727 1.3-4.025.65-2.646-.975-1.705-3.504-3.068-5.077-2.74 1.023-5.47 7.766-5.376 9.318l-.39 5.112v14.026l6.626.05v1.77h-20.134v-1.72l5.714.032V25.683c-1.93-.016-3.815.035-5.764.035v-1.854h13.574l-.018 6.887c1.56-3.246 4.546-7.792 8.704-8.053 2.243.017 4.547.65 5.455 2.986M268.97 28.833l.406 3.38-.03 23.003c1.997 0 3.33 0 5.487-.015v1.805l-17.29.045c.648-.015-.506-.045-.635-.045 0-.65.036-.845 0-1.723 1.51.063 2.97.114 4.287 0V29.744c-.13-.91-.65-2.34-1.3-3.118-2.467-1.948-5.456-1.428-8.053 0-3.115 2.468-3.765 6.494-3.896 10.39v18.33c1.705 0 2.34-.145 3.767-.015.52-.128 1.154.052 2.354-.032 0 .26-.046.926-.066 1.753h-18.91v-1.704c2.5-.16 2.63-.015 4.918-.048l.015-13.084-.015-16.576-5.568-.05v-1.95h13.313c.145 1.2.063 2.015.063 3.248 4.807-4.675 11.69-5.454 17.275-2.856 1.56.907 3.363 3.116 3.88 4.803M289.884 24.548l.016 30.586 5.83.05c.146.846.045 1.12.018 1.8l-7.537.065-12.206-.046.016-1.804 6.072.066.016-1.106.016-28.69c-1.8 0-4.396-.014-6.51-.062v-1.933c4.886-.015 9.756.018 14.287.033l-.016 1.04z"/><path fill="#008851" d="M206.383 51.045c.066 1.51.91 3.115 2.468 3.765 2.47.91 5.458.52 7.535-.908 4.285-3.247 3.896-8.7 4.155-13.767l-.015-14.417-7.418-.05c.063-.47.03-1.12.03-1.51l.016-.388h15.195l.02 12.727.014 17.89c0-.824-.033-.81.033.944h5.375v1.69h-13.364c0-1.428.1-2.745-.015-4.158-2.987 4.158-8.05 5.457-13.246 4.678-2.86-.65-6.9-2.468-8.02-5.667l-.422-2.387.015-23.704-1.055.016-5.05-.03c.02-.765.032-1.333.065-2.015 4.5-.018 9.175-.048 13.72-.048l-.034 27.34zM311.96 54.855c1.34-.066 2.576-.304 3.332-.71 2.256-1.3 2.888-2.162 3.053-4.546l-.03-19.892-.02-.015c.18-2.84-4.013-6.2-6.82-5.875-2.74-.325-7.644 2.288-7.628 6.055l.033 19.58c.146 2.176.873 3.068 2.436 4.367.908.65 3.797 1.157 5.57 1.208l.07 2.575c-5.818-.05-10.753-2.448-13.744-6.69-3.376-4.284-4.5-11.397-2.552-16.85 2.08-7.015 8.968-11.85 15.427-11.853 6.14-.002 11.024 3.247 14.53 8.313 2.856 4.805 3.247 12.47.26 17.405-2.713 5.39-8.75 9.642-14.204 9.69l.287-2.763zM253.352 94.28l.05-.033c3.897-4.546 10.263-6.236 15.587-5.196 2.335.78 5.34 2.518 6.508 4.986l.408 1.768-.035 24.71.036.684 5.876.033c-.016.717-.03 1.2.015 1.883l-4.366-.033h-15.585v-1.672c1.852-.015 4.4-.048 6.218-.048l.015-1.007.036-24.678c-.13-1.557-1.073-2.988-2.5-3.638-2.21-.908-5.067-.388-7.016.782-3.247 2.077-5.05 5.71-5.18 9.22l-.066 12.696.05 6.657c2.013.033 3.897-.033 6.105.015.036.342-.063 1.104-.03 1.705l-2.532.018-15.522-.035c.066-.388.03-1.12.03-1.64 1.413.016 2.958.016 4.077 0l.015-52.797c-1.558-.063-2.55 0-3.96-.03 0-.52.015-1.284.063-1.966h11.77l-.066 27.618zM530.442 76.63V89.8l8.428.046c-.018.796.048 1.365.016 1.966-2.728.066-5.52-.048-8.443.066l-.032 25.502c.26 1.69 1.853 3.072 3.41 3.33 1.43 0 2.988-.258 4.028-1.557 1.167-.91.42-3.54 2.856-2.86 0 1.82-1.25 3.735-2.468 5.115-3.506 2.078-7.144 2.81-10.78 1.25-1.818-.908-4.448-2.986-4.58-5.454l.035-25.393c-1.85.05-2.81.05-5.146.05-.132-2.34 2.81-3.1 4.236-4.66 3.377-3.117 5.975-6.625 7.144-10.52.634-.034.65 0 1.298-.05M177.446 103.524c4.647.036 10.368-.02 15.855.01l-7.05-19.89-.793-2.338-.167.55-12.13 39.2-.17.53 6.638-.016v1.72l-13.247-.03h-1.2c.064-.472.08-1.154-.05-1.674 1.64-.03 3.782-.048 5.39-.015l.666-1.947 16.497-52.603v-.13c1.038 0 1.687.015 2.743.015l14.53 42.197 4.53 12.34h6.285c.13.778.067 1.04.05 1.818l-17.746-.015h-5.617c-.066-.49-.05-.44-.05-1.708 2.013.033 4.66.018 7.095-.015l-5.325-15.667-.31-.52-16.986-.03.566-1.78zM512.52 92.397c1.43 2.207 1.802 4.85 1.932 7.58l.018 21.365c2.613 0 3.41 0 5.324-.066v1.674L502 122.92c.064-.475 0-.912.032-1.513 1.798.018 3.02-.015 4.482-.033l.015-24.483c-.262-1.686-.894-3.586-2.583-4.494-2.466-.91-5.325-.65-7.66 1.038-3.64 3.247-2.535 8.442-3.056 12.86l.02 15.098 5.405-.033c-.065.714-.033 1.07-.033 1.59l-6.232.015h-12.194c-.008-.487.027-1.137-.016-1.64l5.26-.05.065-.695-.066-29.208c-1.802-.015-3.702 0-5.894.015-.016-.794.033-1.283.033-1.933l1.12.066 12.225-.03-.018 3.814c3.767-3.767 9.353-5.066 14.157-4.155 1.948.65 4.026 1.558 5.457 3.247M445.044 94.118l.586 2.694.016 24.5c1.753.015 3.52-.036 4.952-.036-.066.88-.033 1.205-.033 1.723l-2.387-.017H433.24v-1.558l4.727-.066v-20.262c-.39-3.118.65-7.793-3.247-8.962-3.377-.65-6.623.52-8.442 3.508-1.17 2.598-1.353 5.923-1.48 8.782l.052 16.933c2.06-.02 3.458.08 4.935.065v1.624H411.99v-1.658c1.933.015 3.394.08 5.017.015l.05-2.385.017-22.212c-.264-1.558-1.314-3.247-2.745-3.896-2.078-1.167-4.806-.65-6.883.52-4.547 2.727-3.54 8.49-3.785 12.73l.018 15.324c2.256-.048 3.75-.048 5.227.018.065.6.018.827 0 1.476h-17.695l.033-1.59c1.64.033 3.034-.018 4.625-.033l.018-30.087c-1.818 0-3.2.035-5.49-.016.05-.634.036-1.443.036-1.963l.388.066 12.616-.035c-.033 1.365-.016 2.94-.016 4.5 4.026-3.508 9.61-5.195 14.937-3.896 2.206.648 4.413 2.077 5.454 4.154 4.025-4.155 9.74-5.715 15.065-4.675 2.334.52 4.98 2.353 6.164 4.708"/><path fill="#008851" d="M238.205 92.347c1.69 1.948 2.598 4.937 1.56 7.273-.78 1.3-1.624 2.063-3.247 2.34-1.56-.13-3.247-.78-3.896-2.34-.91-2.336 0-4.675 1.558-6.494-.65-1.816-2.856-2.207-4.285-2.466-3.638-.52-6.494 1.038-8.184 3.896l-.778 2.078-.52 11.3c.26 4.936-.78 11.56 4.805 13.637 3.38 1.17 7.144 0 9.74-2.077 2.47-2.078 3.64-4.675 4.418-7.402.893-.065 1.428-.13 2.078-.26-.908 4.936-4.285 9.353-9.092 11.3-5.194 1.43-10 1.04-14.545-2.858-5.066-4.285-7.273-10.65-5.974-17.405 1.17-5.583 5.716-11.3 11.17-13.247 4.804-1.82 11.298-1.17 15.195 2.727M363.885 89.214c.097.683-.032 1.332-.032 1.85l-3.897-.03-3.686 8.977-8.896 23.122c-.81-.066-1.267-.066-2.55 0l-12.32-32.197c-1.186 0-1.87-.015-2.86.016-.017-.55.036-1.2-.048-1.72h16.545v1.835l-5.34-.03-.49-.035 8.72 21.626.097-.147 3.896-9.613 4.335-11.314c.13-.26.033-.066.178-.568l-6.364-.035c.018-.845.13-1.07 0-1.72l.86-.015h11.853zM296.606 120.224l-.018 1.088h5.652v1.8l-19.354-.032c-.018-.47-.05-1.284-.05-1.804 1.817.02 3.667.05 5.648.05l-.015-29.532c-1.644-.03-3.688-.016-5.897-.016l.05-1.82h13.964l.02 30.266zM310.062 103.516l-.027 11.822c.518 2.598 2.336 4.675 4.802 5.583 3.247.912 7.275 0 9.873-2.206 2.337-2.078 3.506-4.546 4.284-7.273.927-.098 1.43-.13 1.95-.13-.39 3.766-2.987 8.054-6.884 10.26-4.934 2.47-10.262 2.08-14.937-.778-6.233-4.026-9.48-10.91-7.925-18.443 1.43-5.978 5.457-11.56 11.434-13.64 6.572-1.704 13.894.52 17.402 6.625 1.037 2.336 1.607 5.31 1.734 7.646-2.952.034-5.893-.113-9.14.02l-14.485.13v-2.133c4.092-.01 10.44-.076 15.02-.045.052-2.288 0-3.425-.303-5.568-.184-1.836-1.14-3.037-2.438-4.206-1.816-1.167-4.937-1.3-6.753-.518-4.118 1.87-3.532 5.822-3.552 9.772l-.04 2.532-.016.552zM292.09 77.702a4.79 4.79 0 0 0 4.788-4.792 4.79 4.79 0 0 0-9.584 0 4.793 4.793 0 0 0 4.795 4.792M280.13 6.243a4.792 4.792 0 0 1 9.584 0 4.792 4.792 0 0 1-9.584 0M544.367 85.353a4.194 4.194 0 0 0 3.947-4.183 4.19 4.19 0 0 0-8.38 0c0 2.313 1.954 4.434 4.592 4.27l.09 1.077c-3.337.1-5.85-2.18-5.85-5.388a5.396 5.396 0 1 1 5.6 5.39l.002-1.167z"/><path fill="#008851" d="M543.276 79.4l1.235-.034c1.35.246 1.008 1.608-1.673 1.283l.146 1.087c1.948-.52 1.446 2.534 3.395 2.288.243-.665-.78-1.834-1.185-2.613.924-.276 1.396-1.476.86-2.387l-1.056-.535c.264.053-3.166.076-2.86 0l.02 5.457h1.248l-.13-4.546z"/></svg>