<svg xmlns="http://www.w3.org/2000/svg" viewBox="-538 355.9 145.7 83.1"><style>.phone-st0{fill:#00aeef}.phone-st1{fill:#fff}</style><path class="phone-st0" d="M-392.3 428.5v-61.6c0-6.1-4.9-11-11-11h-126.4c-4.6 0-8.3 3.7-8.3 8.3v66.2c0 4.7 3.8 8.5 8.5 8.5h126.7c5.8.1 10.5-4.6 10.5-10.4zm-17-39.1c5.6-.9 10.3 3.8 9.4 9.4-.6 3.4-3.3 6.1-6.6 6.6-5.6.9-10.3-3.8-9.4-9.4.6-3.3 3.3-6 6.6-6.6zm-117.2-24.2c0-.3.3-.6.6-.6h100.8c.3 0 .6.3.6.6v64.5c0 .3-.3.6-.6.6h-100.8c-.3 0-.6-.3-.6-.6v-64.5z"/><path class="phone-st1" d="M-425.1 430.3h-100.7c-.4 0-.6-.3-.6-.6v-64.4c0-.4.3-.6.6-.6h100.7c.4 0 .6.3.6.6v64.4c0 .3-.3.6-.6.6z"/><ellipse class="phone-st1" cx="-407.9" cy="397.4" rx="8.1" ry="8.2"/></svg>
