<?xml version="1.0" encoding="utf-8"?>
<!-- Generator: Adobe Illustrator 19.1.0, SVG Export Plug-In . SVG Version: 6.00 Build 0)  -->
<svg version="1.1" id="ICONS" xmlns="http://www.w3.org/2000/svg" xmlns:xlink="http://www.w3.org/1999/xlink" x="0px" y="0px"
	 viewBox="-538 355.9 145.7 83.1" style="enable-background:new -538 355.9 145.7 83.1;" xml:space="preserve">
<style type="text/css">
	.st0{fill:#00AEEF;}
	.st1{fill:#FFFFFF;}
</style>
<path class="st0" d="M-392.3,428.5v-61.6c0-6.1-4.9-11-11-11h-126.4c-4.6,0-8.3,3.7-8.3,8.3v66.2c0,4.7,3.8,8.5,8.5,8.5h126.7
	C-397,439-392.3,434.3-392.3,428.5z M-409.3,389.4c5.6-0.9,10.3,3.8,9.4,9.4c-0.6,3.4-3.3,6.1-6.6,6.6c-5.6,0.9-10.3-3.8-9.4-9.4
	C-415.3,392.7-412.6,390-409.3,389.4z M-526.5,365.2c0-0.3,0.3-0.6,0.6-0.6h100.8c0.3,0,0.6,0.3,0.6,0.6v64.5c0,0.3-0.3,0.6-0.6,0.6
	h-100.8c-0.3,0-0.6-0.3-0.6-0.6V365.2z"/>
<path class="st1" d="M-425.1,430.3h-100.7c-0.4,0-0.6-0.3-0.6-0.6v-64.4c0-0.4,0.3-0.6,0.6-0.6h100.7c0.4,0,0.6,0.3,0.6,0.6v64.4
	C-424.5,430-424.8,430.3-425.1,430.3z"/>
<ellipse class="st1" cx="-407.9" cy="397.4" rx="8.1" ry="8.2"/>
</svg>
