<svg xmlns="http://www.w3.org/2000/svg" viewBox="-282 381.2 96.2 31.1"><style>.st0{fill:#FFF}</style><path class="st0" d="M-252 397.5c.2-.8.3-1.7.3-2.4 0-1.5-.3-2.8-.8-4.1-.9-2.2-2.5-4-4.7-5-1.3-.6-2.8-1-4.4-1h-.2c-3 0-5.6 1.3-7.3 3.3-1.2 1.4-2 3.2-2.3 5.1-.1.5-.1 1.1-.1 1.6v17.3h5v-17.9c0-1.3.6-2.6 1.6-3.5.9-.8 2.2-1.3 3.5-1.3 3 .1 5.3 2.5 5.3 5.5v.5c0 .4-.1.8-.2 1.1-.7 2.2-2.8 3.9-5.3 3.9h-.6l-2.3 3.7c1.1.6 2.3.8 3.7.8 2.3 0 4.3-.9 5.9-2.4 1.3-1.2 2.3-2.7 2.8-4.5l.1-.7zM-269.9 385h-1.2c.4 0 .7.1 1.1.1l.1-.1z"/><path class="st0" d="M-271.1 385c-1-.1-2-.1-2.8 0-2.2.2-3.9.9-5.1 1.9l-3-1.3v19.5h5.1v-11.3c0-2.7 1.1-4.4 4-4l.3-.5 2.6-4.2c-.3 0-.7-.1-1.1-.1zM-240 405.2c-5.6.6-8.6-2.8-8.6-8v-6.7h-2.3v-4.3h2.3v-4.9h4.9v4.9h3.4v4.3h-3.4v6.7c0 2.7 1.2 3.7 3.7 3.5v4.5zM-222 397.6c.6 2.3 2.5 3.8 4.8 3.8 1.6 0 3.2-.7 4-2.2h5.2c-1.1 3.9-4.5 6.5-9.2 6.5-5.4 0-9.8-4.4-9.8-10s4.4-10 9.8-10c5.6 0 10.3 4.4 9.6 11.9H-222zm9.6-4c-.6-2.2-2.4-3.6-4.8-3.6-2.2 0-4 1.4-4.7 3.6h9.5zM-200.3 397.6c.6 2.3 2.5 3.8 4.8 3.8 1.6 0 3.2-.7 4-2.2h5.2c-1.1 3.9-4.5 6.5-9.2 6.5-5.4 0-9.8-4.4-9.8-10s4.4-10 9.8-10c5.6 0 10.3 4.4 9.6 11.9h-14.4zm9.6-4c-.6-2.2-2.4-3.6-4.8-3.6-2.2 0-4 1.4-4.7 3.6h9.5z"/><g><path class="st0" d="M-224.9 384.7h-1.2c.4 0 .7.1 1.1.1l.1-.1z"/><path class="st0" d="M-226.1 384.7c-1-.1-2-.1-2.8 0-2.2.2-3.9.9-5.1 1.9l-3-1.3v19.5h5.1v-11.3c0-2.7 1.1-4.4 4-4l.3-.5 2.6-4.2c-.4 0-.7 0-1.1-.1z"/></g></svg>