<svg xmlns="http://www.w3.org/2000/svg" version="1.1" x="0" y="0" viewBox="-282 381.2 96.2 31.1" xml:space="preserve"><path class="st0" d="M-252 397.5c0.2-0.8 0.3-1.7 0.3-2.4 0-1.5-0.3-2.8-0.8-4.1 -0.9-2.2-2.5-4-4.7-5 -1.3-0.6-2.8-1-4.4-1 -0.1 0-0.1 0-0.2 0 -3 0-5.6 1.3-7.3 3.3 -1.2 1.4-2 3.2-2.3 5.1 -0.1 0.5-0.1 1.1-0.1 1.6v17.3h5c0 0 0-17.9 0-17.9 0-1.3 0.6-2.6 1.6-3.5 0.9-0.8 2.2-1.3 3.5-1.3 3 0.1 5.3 2.5 5.3 5.5 0 0.2 0 0.4 0 0.5 0 0.4-0.1 0.8-0.2 1.1 -0.7 2.2-2.8 3.9-5.3 3.9 -0.2 0-0.4 0-0.6 0l-2.3 3.7c1.1 0.6 2.3 0.8 3.7 0.8 2.3 0 4.3-0.9 5.9-2.4 1.3-1.2 2.3-2.7 2.8-4.5L-252 397.5C-252 397.5-252 397.5-252 397.5 -252 397.5-252 397.5-252 397.5 -252 397.5-252 397.5-252 397.5z"/><path class="st0" d="M-269.9 385h-1.2c0.4 0 0.7 0.1 1.1 0.1L-269.9 385zM-271.1 385c-1-0.1-2-0.1-2.8 0 -2.2 0.2-3.9 0.9-5.1 1.9l-3-1.3v19.5h5.1v-11.3c0-2.7 1.1-4.4 4-4l0.3-0.5 2.6-4.2C-270.3 385.1-270.7 385-271.1 385z"/><path class="st0" d="M-240 405.2c-5.6 0.6-8.6-2.8-8.6-8v-6.7h-2.3v-4.3h2.3v-4.9h4.9v4.9h3.4v4.3h-3.4v6.7c0 2.7 1.2 3.7 3.7 3.5V405.2zM-222 397.6c0.6 2.3 2.5 3.8 4.8 3.8 1.6 0 3.2-0.7 4-2.2h5.2c-1.1 3.9-4.5 6.5-9.2 6.5 -5.4 0-9.8-4.4-9.8-10s4.4-10 9.8-10c5.6 0 10.3 4.4 9.6 11.9H-222zM-212.4 393.6c-0.6-2.2-2.4-3.6-4.8-3.6 -2.2 0-4 1.4-4.7 3.6H-212.4zM-200.3 397.6c0.6 2.3 2.5 3.8 4.8 3.8 1.6 0 3.2-0.7 4-2.2h5.2c-1.1 3.9-4.5 6.5-9.2 6.5 -5.4 0-9.8-4.4-9.8-10s4.4-10 9.8-10c5.6 0 10.3 4.4 9.6 11.9H-200.3zM-190.7 393.6c-0.6-2.2-2.4-3.6-4.8-3.6 -2.2 0-4 1.4-4.7 3.6H-190.7z"/><path class="st0" d="M-224.9 384.7h-1.2c0.4 0 0.7 0.1 1.1 0.1L-224.9 384.7zM-226.1 384.7c-1-0.1-2-0.1-2.8 0 -2.2 0.2-3.9 0.9-5.1 1.9l-3-1.3v19.5h5.1v-11.3c0-2.7 1.1-4.4 4-4l0.3-0.5 2.6-4.2C-225.4 384.8-225.7 384.8-226.1 384.7z"/></svg>