<svg id="step-5-svg" xmlns="http://www.w3.org/2000/svg" xmlns:xlink="http://www.w3.org/1999/xlink" viewBox="0 0 18.6 22.9"><style>.st0{clip-path:url(#SVGID_2_)}.st0,.st1{}.st2{clip-path:url(#SVGID_4_);fill:#00aeef;}</style><defs><path id="SVGID_1_" d="M0 0h18.6v22.9H0z"/></defs><clipPath id="SVGID_2_"><use xlink:href="#SVGID_1_" overflow="visible"/></clipPath><path class="st0" d="M14.1 8.4c-1.5 0-2.7-1.2-2.7-2.7S12.6 3 14.1 3c1.5 0 2.7 1.2 2.7 2.7s-1.3 2.7-2.7 2.7m-9.7 0C3 8.4 1.8 7.2 1.8 5.7S3 3.1 4.4 3.1s2.7 1.2 2.7 2.7-1.2 2.6-2.7 2.6M18.3.3C17.8-.2.7-.1.3.3c-.4.4-.4 11.2 0 11.6.1.1 3 .2 6.3.2l.7-2.1s.5-2 1.9-2c1.5 0 2.2 2.3 2.2 2.3L12 12c3.3 0 6.1-.1 6.2-.2.5-.3.6-11 .1-11.5"/><path class="st1" d="M.2 11.3h18.1v11.5H.2z"/><g><defs><path id="SVGID_3_" d="M0 0h18.6v22.9H0z"/></defs><clipPath id="SVGID_4_"><use xlink:href="#SVGID_3_" overflow="visible"/></clipPath><path class="st2" d="M2.7 13.8s0-.1 0 0l10.9-.1s.1 0 .1.1v7s0 .1-.1.1H2.8s-.1 0-.1-.1v-7zm12.6 2.6c.6-.1 1.1.4 1 1-.1.4-.4.7-.7.7-.6.1-1.1-.4-1-1 .1-.3.4-.6.7-.7m1.9 4.2V14c0-.7-.5-1.2-1.2-1.2H2.3c-.5 0-.9.4-.9.9v7.1c0 .5.4.9.9.9H16c.7.1 1.2-.4 1.2-1.1"/></g></svg>