<svg id="step-2-svg" xmlns="http://www.w3.org/2000/svg" xmlns:xlink="http://www.w3.org/1999/xlink" viewBox="0 0 31.6 18.1"><style>.st0{clip-path:url(#SVGID_2_)}.st0,.st1{}</style><defs><path id="SVGID_1_" d="M0 0h31.6v18.1H0z"/></defs><clipPath id="SVGID_2_"><use xlink:href="#SVGID_1_" overflow="visible"/></clipPath><path class="st0" d="M19.8 7c-1.2 0-2.2-1-2.2-2.2 0-1.2 1-2.2 2.2-2.2s2.2 1 2.2 2.2C22 6 21 7 19.8 7m-8.1 0c-1.2 0-2.2-1-2.2-2.2 0-1.2 1-2.2 2.2-2.2 1.2 0 2.2 1 2.2 2.2C14 6 13 7 11.7 7M23.3.3c-.5-.4-14.7-.3-15 0-.3.3-.3 9.3 0 9.6.1.1 2.4.2 5.2.2l.6-1.7s.4-1.6 1.6-1.6c1.3 0 1.8 2 1.8 2l.5 1.4c2.7 0 5-.1 5.1-.2.5-.4.6-9.3.2-9.7"/><path class="st1" d="M0 .7h8.4v8.7H0zM23.2.7h8.4v8.7h-8.4zM8.1 9.4h15.5v8.7H8.1zM29.5 11.9l-.8-.7v.5h-2.5v.4h2.5v.6zM5.4 11.7H2.9v-.5l-.7.7.7.8v-.6h2.5z"/></svg>