<svg xmlns="http://www.w3.org/2000/svg" xmlns:xlink="http://www.w3.org/1999/xlink" viewBox="0 0 40.4 11.2"><style>.st0{clip-path:url(#SVGID_2_)}.st0,.st1{fill:#fff}</style><defs><path id="SVGID_1_" d="M0 0h40.4v11.2H0z"/></defs><clipPath id="SVGID_2_"><use xlink:href="#SVGID_1_" overflow="visible"/></clipPath><path class="st0" d="M36.7 7.5c-1.2 0-2.2-1-2.2-2.2 0-1.2 1-2.2 2.2-2.2s2.2 1 2.2 2.2c0 1.2-1 2.2-2.2 2.2m-8.1 0c-1.2 0-2.2-1-2.2-2.2 0-1.2 1-2.2 2.2-2.2 1.2 0 2.2 1 2.2 2.2 0 1.2-.9 2.2-2.2 2.2M40.1.8C39.7.4 25.5.5 25.2.8c-.3.3-.3 9.3 0 9.6.1.1 2.4.2 5.2.2l.6-1.7s.4-1.6 1.6-1.6c1.3 0 1.8 2 1.8 2l.5 1.4c2.7 0 5-.1 5.1-.2.5-.4.5-9.3.1-9.7"/><path class="st1" d="M0 0h18.8v11.2H0zM23.4 5.4l-.7-.7v.6h-2.5v.3h2.5v.6z"/></svg>