<svg id="step-3-svg" xmlns="http://www.w3.org/2000/svg" xmlns:xlink="http://www.w3.org/1999/xlink" viewBox="0 0 26.9 10.1"><style>.st0{clip-path:url(#SVGID_2_)}.st0,.st1{}</style><defs><path id="SVGID_1_" d="M0 0h26.9v10.1H0z"/></defs><clipPath id="SVGID_2_"><use xlink:href="#SVGID_1_" overflow="visible"/></clipPath><path class="st0" d="M17.4 7c-1.2 0-2.2-1-2.2-2.2 0-1.2 1-2.2 2.2-2.2s2.2 1 2.2 2.2c0 1.2-1 2.2-2.2 2.2m-8 0C8.1 7 7.1 6 7.1 4.8c0-1.2 1-2.2 2.2-2.2 1.2 0 2.2 1 2.2 2.2C11.6 6 10.6 7 9.4 7M20.9.3c-.5-.4-14.7-.3-15 0-.3.3-.3 9.3 0 9.6.1.1 2.4.2 5.2.2l.6-1.7s.4-1.6 1.6-1.6c1.3 0 1.8 2 1.8 2l.5 1.4c2.7 0 5-.1 5.1-.2.5-.4.6-9.3.2-9.7"/><path class="st0" d="M20.916.323l5.97 7.13-.766.643-5.97-7.13zM6.01.277l.766.64L.812 8.055l-.767-.642z"/><path class="st1" d="M5.2 8l-.7-.8v.6H2v.3h2.5v.6zM24.9 7.8h-2.4v-.6l-.8.8.8.7v-.6h2.4z"/></svg>