<svg id="Layer_1" xmlns="http://www.w3.org/2000/svg" xmlns:xlink="http://www.w3.org/1999/xlink" viewBox="0 0 9.9 17.4"><style>.st0{clip-path:url(#SVGID_2_)}.st1{fill:#FFF}</style><defs><path id="SVGID_1_" d="M0 0h9.9v17.4H0z"/></defs><clipPath id="SVGID_2_"><use xlink:href="#SVGID_1_" overflow="visible"/></clipPath><path class="st1" d="M8.8 1.4c.1 0 .1 0 0 0l.1 12.1s0 .1-.1.1H1.1s-.1 0-.1-.1v-12s0-.1.1-.1h7.7zm-2.9 14c.1.6-.4 1.2-1.1 1.1-.4-.1-.7-.4-.8-.8-.1-.7.5-1.2 1.1-1.1.4.1.8.4.8.8m-4.6 2h7.4c.7 0 1.3-.6 1.3-1.3V1c0-.5-.4-1-1-1H1C.5 0 0 .5 0 1v15.1c0 .7.6 1.3 1.3 1.3"/><path class="st1" d="M7.1 10.1L5.2 3.9l-1.9 6.2h1.5v.9h.8v-.9z"/></svg>