<svg id="trigger-svg" xmlns="http://www.w3.org/2000/svg" viewBox="0 0 20.9 15.4"><defs><style>.trigger{fill:#fff;}</style></defs><title>trigger</title><polygon class="trigger" points="20.6 0 17.3 2.7 16.6 2 16.5 3.8 18.3 3.9 17.6 3.2 20.9 0.4 20.6 0"/><path class="trigger" d="M18.6,5.8L16.8,4.6h0c-0.4-.4-14.3-0.3-14.9,0h0L0,5.8v9.5l1.8-1.1a38.9,38.9,0,0,0,5.2.2l0.6-1.7S8,11.1,9.2,11.1s1.8,2,1.8,2l0.5,1.4a36.83,36.83,0,0,0,5.1-.2h0l1.8,1.1V5.8h0.2ZM5.2,11.3A2.2,2.2,0,1,1,7.4,9.1,2.22,2.22,0,0,1,5.2,11.3Zm8,0a2.2,2.2,0,1,1,2.2-2.2A2.16,2.16,0,0,1,13.2,11.3Z"/></svg>