<svg id="trigger-svg" xmlns="http://www.w3.org/2000/svg" viewBox="0 0 18.8 13.8"><defs><style>.trigger{fill:#fff;}</style></defs><title>trigger</title><polygon class="trigger" points="18.6 0 16.7 1.6 16.3 1.1 16.2 2.2 17.3 2.3 16.9 1.8 18.8 0.2 18.6 0"/><path class="trigger" d="M18.6,4.1L16.7,3h0C16.3,2.6,2.4,2.7,1.8,3h0L0,4.2v9.5l1.8-1.1a38.9,38.9,0,0,0,5.2.2l0.6-1.7S8,9.5,9.2,9.5s1.8,2,1.8,2l0.5,1.4a36.83,36.83,0,0,0,5.1-.2h0l1.8,1.1V4.1h0.2ZM5.2,9.7A2.2,2.2,0,1,1,7.4,7.5,2.22,2.22,0,0,1,5.2,9.7Zm8,0a2.2,2.2,0,1,1,2.2-2.2A2.16,2.16,0,0,1,13.2,9.7Z"/></svg>