<svg xmlns="http://www.w3.org/2000/svg" viewBox="0 0 111.3 71.2"><style>.wawf-st0{fill:#b3be35}.wawf-st1{fill:#cbd82b}</style><path class="wawf-st0" d="M33 11.8s1.9 4.8-.2 10.7c-1.2 3.4-1.9 6.2 0 8.3 1.7 1.8 5 1.8 6.7 0 1.9-2 1.2-4.9 0-8.3-2-5.8-.2-10.7-.2-10.7C42.1 2.9 51.6-2 60.5.8c8.9 2.8 13.8 12.3 11 21.2-1.5 4.7-1.4 7.6 0 10.3 1.4 2.7 3.7 4.4 8.4 5.9 5.5 1.7 9.4 6 11 11 2.8 8.9-2.1 18.4-11 21.2-8.9 2.8-18.4-2.1-21.2-11 0 0-1.9-4.8.2-10.7 1.2-3.4 1.9-6.2 0-8.3-1.7-1.8-5-1.8-6.7 0-1.9 2-1.2 4.9 0 8.3 2 5.8.2 10.7.2 10.7-2.8 8.9-12.3 13.8-21.2 11-8.9-2.8-13.8-12.3-11-21.2 1.5-4.7 1.4-7.6 0-10.3-1.4-2.7-3.7-4.4-8.4-5.9C2.9 30.2-2 20.7.8 11.8 3.6 2.9 13.1-2 22 .8c5.4 1.7 9.4 6 11 11z"/><circle class="wawf-st1" cx="96.1" cy="15.2" r="15.2"/></svg>