<svg id="eb0ef277-6303-4b3a-be88-af37370b72c2" data-name="Layer 1" xmlns="http://www.w3.org/2000/svg" viewBox="0 0 306.28 71.71"><defs><style>.b85cdb17-6110-4040-8026-bb75d2daa1d4{fill:#b3be35}.\32 cc7f4c8-d620-4da7-91a7-0c232d78af86{fill:#cbd82b}.e6c396c7-8f3d-4161-991d-dc7f493d1aeb{fill:#8e9c9a}</style></defs><title>WAWF Logo</title><path class="b85cdb17-6110-4040-8026-bb75d2daa1d4" d="M33 12a16.75 16.75 0 0 1-.16 10.66c-1.18 3.39-1.92 6.25 0 8.27a4.81 4.81 0 0 0 6.66 0c1.9-2 1.18-4.88 0-8.27a16.89 16.89 0 1 1 32-.5c-1.48 4.69-1.42 7.57 0 10.3s3.75 4.4 8.43 5.9A16.89 16.89 0 1 1 58.8 59.53a16.74 16.74 0 0 1 .2-10.66c1.18-3.39 1.92-6.25 0-8.27a4.82 4.82 0 0 0-6.66 0c-1.9 2-1.18 4.88 0 8.27a16.89 16.89 0 1 1-32 .5c1.48-4.69 1.42-7.57 0-10.3s-3.74-4.42-8.43-5.9A16.89 16.89 0 1 1 33 12z"/><circle class="2cc7f4c8-d620-4da7-91a7-0c232d78af86" cx="96.06" cy="15.37" r="15.21"/><path class="e6c396c7-8f3d-4161-991d-dc7f493d1aeb" d="M140.87.6a.47.47 0 0 1 0 .15l-1.63 5.45a.44.44 0 0 1-.17.25.46.46 0 0 1-.27.08h-.25a.45.45 0 0 1-.28-.1.47.47 0 0 1-.16-.24L136.91 2l-1.12 4.16a.42.42 0 0 1-.17.25.48.48 0 0 1-.28.09H135a.46.46 0 0 1-.27-.08.46.46 0 0 1-.17-.25L133 .75a.15.15 0 0 1 0-.06V.62a.45.45 0 0 1 .13-.33.43.43 0 0 1 .32-.14.41.41 0 0 1 .21 0 .56.56 0 0 1 .14.11.5.5 0 0 1 .1.16l1.29 4.41 1.2-4.4a.43.43 0 0 1 .16-.24.44.44 0 0 1 .28-.09h.17a.47.47 0 0 1 .28.09.42.42 0 0 1 .17.24l1.23 4.4L140 .48a.86.86 0 0 1 .1-.16.45.45 0 0 1 .1-.12.41.41 0 0 1 .21 0 .46.46 0 0 1 .32.13.42.42 0 0 1 .14.27zM152.82 6.47a.42.42 0 0 1-.29.11h-.08a.43.43 0 0 1-.29-.11.39.39 0 0 1-.13-.3V3.93h-3.58v2.23a.39.39 0 0 1-.13.3.43.43 0 0 1-.29.11H148a.43.43 0 0 1-.29-.11.39.39 0 0 1-.13-.3V2.53a4.55 4.55 0 0 1 .09-.9 1.86 1.86 0 0 1 .33-.82 2.09 2.09 0 0 1 .82-.59 4.42 4.42 0 0 1 2.81 0 2.07 2.07 0 0 1 .82.59 1.86 1.86 0 0 1 .38.81 4.48 4.48 0 0 1 .09.9v3.64a.39.39 0 0 1-.1.31zM152 2.53a2.4 2.4 0 0 0 0-.65 1.18 1.18 0 0 0-.29-.51 1.39 1.39 0 0 0-.6-.37 3.12 3.12 0 0 0-1.74 0 1.39 1.39 0 0 0-.55.34 1.18 1.18 0 0 0-.29.51 2.44 2.44 0 0 0-.08.64V3H152v-.47zM165.78 4.67a1.57 1.57 0 0 1-.24.87 2 2 0 0 1-.66.62 3.2 3.2 0 0 1-1 .37 5.14 5.14 0 0 1-1.14.12 4.54 4.54 0 0 1-1-.11 4.36 4.36 0 0 1-.8-.26 3.53 3.53 0 0 1-.59-.33 2.88 2.88 0 0 1-.35-.32.42.42 0 0 1-.13-.31.42.42 0 0 1 .07-.25.37.37 0 0 1 .15-.13.6.6 0 0 1 .23-.06.51.51 0 0 1 .17 0 .44.44 0 0 1 .15.1l.36.27a3.26 3.26 0 0 0 .47.24 3.53 3.53 0 0 0 .61.18 3.76 3.76 0 0 0 .79.07 4 4 0 0 0 .67-.06 2.84 2.84 0 0 0 .66-.19 1.51 1.51 0 0 0 .49-.33.69.69 0 0 0 .2-.5.84.84 0 0 0-.2-.6 1.14 1.14 0 0 0-.5-.31 2.43 2.43 0 0 0-.64-.11H161.96a2.49 2.49 0 0 1-.66-.09 1.89 1.89 0 0 1-.6-.29 1.52 1.52 0 0 1-.44-.5 1.49 1.49 0 0 1-.2-.76 1.49 1.49 0 0 1 .26-.87 2.11 2.11 0 0 1 .68-.61 3.06 3.06 0 0 1 .87-.35 4 4 0 0 1 .87-.17 4.41 4.41 0 0 1 .88.08 3.87 3.87 0 0 1 .65.18 2.3 2.3 0 0 1 .44.22l.29.23a.45.45 0 0 1 .2.37.43.43 0 0 1-.14.32.43.43 0 0 1-.31.13.51.51 0 0 1-.26-.08l-.38-.22a2.28 2.28 0 0 0-.36-.15 2.37 2.37 0 0 0-.43-.08 4.61 4.61 0 0 0-.55 0 3.34 3.34 0 0 0-.61.06 2.2 2.2 0 0 0-.58.18 1.31 1.31 0 0 0-.43.32.71.71 0 0 0-.15.44q0 .72 1.08.72h.84a6.86 6.86 0 0 1 1.08.08 2.83 2.83 0 0 1 .92.3 1.72 1.72 0 0 1 .64.6 1.77 1.77 0 0 1 .22.97zM178.17 6.45a.4.4 0 0 1-.3.13h-.08a.43.43 0 0 1-.41-.42V3.64h-3.72v2.52a.41.41 0 0 1-.12.29.4.4 0 0 1-.29.13h-.08a.43.43 0 0 1-.41-.42V.57a.39.39 0 0 1 .13-.29.4.4 0 0 1 .29-.12h.08a.4.4 0 0 1 .29.12.39.39 0 0 1 .12.29v2.15h3.72V.57a.39.39 0 0 1 .11-.29.4.4 0 0 1 .29-.12h.08a.39.39 0 0 1 .3.13.41.41 0 0 1 .12.29v5.58a.41.41 0 0 1-.12.29zM186.55 6.45a.4.4 0 0 1-.29.13h-.08a.43.43 0 0 1-.42-.42V.57a.39.39 0 0 1 .13-.29.41.41 0 0 1 .29-.12h.08a.4.4 0 0 1 .29.12.4.4 0 0 1 .12.29v5.59a.41.41 0 0 1-.12.29zM199.62 6.45a.45.45 0 0 1-.33.13h-.15a.43.43 0 0 1-.36-.17l-3.71-4.72v4.47a.41.41 0 0 1-.12.29.4.4 0 0 1-.29.13h-.08a.43.43 0 0 1-.41-.42V.63a.44.44 0 0 1 .12-.33.45.45 0 0 1 .33-.14h.23a.43.43 0 0 1 .2 0 .5.5 0 0 1 .16.13L198.82 5V.57a.39.39 0 0 1 .18-.29.4.4 0 0 1 .29-.12h.08a.4.4 0 0 1 .29.12.4.4 0 0 1 .12.29v5.55a.44.44 0 0 1-.16.33zM212.94 5.51a2 2 0 0 1-.61.6 3.06 3.06 0 0 1-.9.38 4.35 4.35 0 0 1-1.11.14 3.78 3.78 0 0 1-1.25-.22 3.45 3.45 0 0 1-1.07-.63 3.13 3.13 0 0 1-.79-1 3.21 3.21 0 0 1-.3-1.42 3.23 3.23 0 0 1 1-2.33 3.37 3.37 0 0 1 1.1-.71 3.64 3.64 0 0 1 1.4-.26 3.68 3.68 0 0 1 1 .13 3.63 3.63 0 0 1 .78.31 1.94 1.94 0 0 1 .5.38.56.56 0 0 1 .18.34.45.45 0 0 1-.13.32.44.44 0 0 1-.32.13.43.43 0 0 1-.42-.15 2.31 2.31 0 0 0-.62-.41 2.37 2.37 0 0 0-1-.18 3.09 3.09 0 0 0-1.13.19 2.4 2.4 0 0 0-.83.52 2.24 2.24 0 0 0-.52.77 2.48 2.48 0 0 0-.18.94 2.28 2.28 0 0 0 .75 1.65 2.51 2.51 0 0 0 .81.52 2.84 2.84 0 0 0 1.08.2 3.12 3.12 0 0 0 .76-.09 2.2 2.2 0 0 0 .6-.23 1.28 1.28 0 0 0 .39-.34.65.65 0 0 0 .14-.39V4h-1.54a.45.45 0 0 1-.33-.13.44.44 0 0 1 0-.64.45.45 0 0 1 .33-.23h2a.45.45 0 0 1 .33.14.43.43 0 0 1 .14.32v1.26a1.43 1.43 0 0 1-.24.79zM224.91.62a.42.42 0 0 1-.14.32.46.46 0 0 1-.33.13h-1.76v5.1a.39.39 0 0 1-.13.3.43.43 0 0 1-.29.11h-.08a.42.42 0 0 1-.29-.11.39.39 0 0 1-.13-.3V1.06H220a.46.46 0 0 1-.33-.13.42.42 0 0 1-.14-.32.45.45 0 0 1 .14-.33.44.44 0 0 1 .33-.13h4.43a.44.44 0 0 1 .33.14.45.45 0 0 1 .15.33zM237.88 3.33a3.21 3.21 0 0 1-1 2.4 3.26 3.26 0 0 1-1.08.67 3.66 3.66 0 0 1-2.59 0 3.33 3.33 0 0 1-1.08-.67 3.2 3.2 0 0 1-.74-1 3.24 3.24 0 0 1-.28-1.36 3.27 3.27 0 0 1 .25-1.37 3.22 3.22 0 0 1 .74-1 3.29 3.29 0 0 1 1.08-.67 3.66 3.66 0 0 1 2.59 0 3.3 3.3 0 0 1 1.08.67 3.18 3.18 0 0 1 .74 1 3.27 3.27 0 0 1 .29 1.33zm-.92 0a2.31 2.31 0 0 0-.19-.92 2.39 2.39 0 0 0-.52-.76 2.46 2.46 0 0 0-.78-.52 2.66 2.66 0 0 0-2 0 2.48 2.48 0 0 0-.79.52 2.44 2.44 0 0 0-.52.76 2.38 2.38 0 0 0 0 1.85 2.44 2.44 0 0 0 .52.76 2.48 2.48 0 0 0 .79.52 2.67 2.67 0 0 0 2 0 2.46 2.46 0 0 0 .79-.54 2.39 2.39 0 0 0 .52-.76 2.31 2.31 0 0 0 .22-.91zM250.46 6.45a.45.45 0 0 1-.32.13H250a.43.43 0 0 1-.36-.17l-3.71-4.72v4.47a.41.41 0 0 1-.12.29.4.4 0 0 1-.29.13h-.08a.43.43 0 0 1-.44-.42V.63a.44.44 0 0 1 .13-.33.45.45 0 0 1 .33-.14h.23a.43.43 0 0 1 .19 0 .5.5 0 0 1 .16.13L249.67 5V.57a.39.39 0 0 1 .13-.29.4.4 0 0 1 .29-.12h.08a.4.4 0 0 1 .29.12.39.39 0 0 1 .12.29v5.55a.44.44 0 0 1-.12.33zM268.74 6.47a.43.43 0 0 1-.29.11h-.08a.43.43 0 0 1-.29-.11.39.39 0 0 1-.13-.3V3.93h-3.58v2.23a.39.39 0 0 1-.13.3.43.43 0 0 1-.29.11h-.08a.43.43 0 0 1-.29-.11.39.39 0 0 1-.12-.3V2.53a4.48 4.48 0 0 1 .09-.9 1.88 1.88 0 0 1 .38-.81 2.08 2.08 0 0 1 .82-.59 4.42 4.42 0 0 1 2.8 0 2.07 2.07 0 0 1 .82.59 1.89 1.89 0 0 1 .38.81 4.55 4.55 0 0 1 .09.9v3.63a.4.4 0 0 1-.1.31zM268 2.53a2.48 2.48 0 0 0-.08-.64 1.19 1.19 0 0 0-.29-.51A1.37 1.37 0 0 0 267 1a3.13 3.13 0 0 0-1.74 0 1.39 1.39 0 0 0-.55.34 1.17 1.17 0 0 0-.29.51 2.44 2.44 0 0 0-.08.64V3H268v-.47zM281.93 2a2.15 2.15 0 0 1-.15.86 1.76 1.76 0 0 1-.38.56 1.48 1.48 0 0 1-.48.31 1.68 1.68 0 0 1-.45.11l1 2.11a.44.44 0 0 1-.09.52.45.45 0 0 1-.33.13.44.44 0 0 1-.25-.07.47.47 0 0 1-.17-.19l-1.19-2.47h-2.35v2.29a.41.41 0 0 1-.12.29.4.4 0 0 1-.29.13h-.08a.42.42 0 0 1-.29-.12.39.39 0 0 1-.13-.29V.62a.44.44 0 0 1 .14-.33.44.44 0 0 1 .33-.14h3.28a2.66 2.66 0 0 1 .73.1 1.84 1.84 0 0 1 .64.32 1.55 1.55 0 0 1 .45.56 1.87 1.87 0 0 1 .18.87zM281 2a.94.94 0 0 0-.09-.44.74.74 0 0 0-.25-.28 1 1 0 0 0-.34-.14 1.92 1.92 0 0 0-.39 0h-2.82v1.8h2.82a1.13 1.13 0 0 0 .79-.25A.92.92 0 0 0 281 2zM294 6a.48.48 0 0 1-.14.32.43.43 0 0 1-.32.14h-2.87a2.06 2.06 0 0 1-.67-.08 1.72 1.72 0 0 1-.59-.38 1.65 1.65 0 0 1-.41-.53 1.86 1.86 0 0 1-.15-.79 1.53 1.53 0 0 1 .06-.45 1.81 1.81 0 0 1 .37-.68l.23-.24-.23-.24a1.76 1.76 0 0 1-.22-.3 1.79 1.79 0 0 1-.16-.37 1.53 1.53 0 0 1-.06-.4 1.86 1.86 0 0 1 .16-.83 1.65 1.65 0 0 1 .41-.57 1.72 1.72 0 0 1 .59-.34 2.09 2.09 0 0 1 .69-.12h2.87a.43.43 0 0 1 .32.14.47.47 0 0 1 .12.32.41.41 0 0 1-.13.32.46.46 0 0 1-.33.14h-2.87a.9.9 0 0 0-.7.3 1 1 0 0 0-.18.29.87.87 0 0 0-.06.31.89.89 0 0 0 .06.31.94.94 0 0 0 .18.29.9.9 0 0 0 .7.3h2.37a.49.49 0 0 1 .38.14.46.46 0 0 1 0 .64.49.49 0 0 1-.38.14h-2.37a.9.9 0 0 0-.7.3.93.93 0 0 0-.18.29.89.89 0 0 0-.06.31.87.87 0 0 0 .06.31 1 1 0 0 0 .18.29.92.92 0 0 0 .29.22.9.9 0 0 0 .41.08h2.87a.46.46 0 0 1 .33.14.41.41 0 0 1 .13.28zM306.15 6.47a.43.43 0 0 1-.29.11h-.08a.43.43 0 0 1-.29-.11.39.39 0 0 1-.12-.3V3.93h-3.58v2.23a.39.39 0 0 1-.12.3.43.43 0 0 1-.29.11h-.08a.43.43 0 0 1-.3-.1.39.39 0 0 1-.13-.3V2.53a4.55 4.55 0 0 1 .09-.9 1.88 1.88 0 0 1 .38-.81 2.08 2.08 0 0 1 .82-.59 4.42 4.42 0 0 1 2.81 0 2.08 2.08 0 0 1 .82.59 1.89 1.89 0 0 1 .38.81 4.55 4.55 0 0 1 .09.9v3.63a.39.39 0 0 1-.11.31zm-.78-3.94a2.44 2.44 0 0 0-.08-.64 1.19 1.19 0 0 0-.29-.52 1.39 1.39 0 0 0-.56-.37 3.13 3.13 0 0 0-1.74 0 1.4 1.4 0 0 0-.55.34 1.18 1.18 0 0 0-.29.51 2.4 2.4 0 0 0-.08.64V3h3.58v-.47zM154.38 49.68a8.2 8.2 0 0 1-5.93-2.33 8.2 8.2 0 0 1-5.93 2.33c-5.12 0-8.49-3.84-8.49-8.84v-25a2.53 2.53 0 0 1 5.06 0v25c0 2.21 1.16 3.78 3.43 3.78s3.37-1.57 3.37-3.78v-25a2.46 2.46 0 0 1 2.56-2.5 2.41 2.41 0 0 1 2.5 2.5v25c0 2.21 1.22 3.78 3.43 3.78s3.43-1.57 3.43-3.78v-25a2.53 2.53 0 0 1 5.06 0v25c-.01 5-3.38 8.84-8.49 8.84zM179.48 49.68c-5.12 0-8.49-3.84-8.49-8.84V22.16c0-4.94 3.37-8.78 8.49-8.78s8.43 3.83 8.43 8.78v18.68c0 5.06-3.25 8.84-8.43 8.84zm3.37-27.52c0-2.21-1-3.72-3.37-3.72s-3.43 1.51-3.43 3.72v18.68c0 2.27 1 3.78 3.43 3.78s3.37-1.51 3.37-3.78V22.16zM222.26 49.68a2.41 2.41 0 0 1-2.5-2.5v-25c0-2.21-1.1-3.72-3.43-3.72s-3.43 1.54-3.43 3.7v25a2.41 2.41 0 0 1-2.5 2.5 2.46 2.46 0 0 1-2.56-2.5v-25c0-2.21-1-3.72-3.37-3.72S201 20 201 22.16v25a2.53 2.53 0 0 1-5.06 0v-25c0-5 3.37-8.78 8.49-8.78a8.19 8.19 0 0 1 5.93 2.33 8.19 8.19 0 0 1 5.93-2.33c5.11 0 8.49 3.78 8.49 8.78v25a2.43 2.43 0 0 1-2.52 2.52zM245.15 18.44h-6.1c-.82 0-.87 1.16-.87 1.69v11.71h7a2.53 2.53 0 1 1 0 5.06h-7v6c0 .58.06 1.68.93 1.68h6a2.53 2.53 0 1 1 0 5.06h-6c-3.78 0-6-3.2-6-6.74V20.13c0-3.55 2.33-6.74 6.1-6.74h5.93a2.43 2.43 0 0 1 2.56 2.5 2.47 2.47 0 0 1-2.55 2.55zM269.91 49.68a2.46 2.46 0 0 1-2.56-2.5v-25c0-2.21-1-3.72-3.37-3.72s-3.43 1.51-3.43 3.72v25a2.53 2.53 0 0 1-5.06 0v-31.3a2.41 2.41 0 0 1 2.5-2.5 2.66 2.66 0 0 1 2 .87 8.42 8.42 0 0 1 4-.87c5.06 0 8.43 3.78 8.43 8.78v25a2.41 2.41 0 0 1-2.51 2.52zM283.21 20.41a2.46 2.46 0 0 1-2.42 1.89 2.55 2.55 0 0 1-2.61-2.48c0-1.24 1.11-4.57 1.5-5.88a2.39 2.39 0 0 1 2.41-1.94 2.5 2.5 0 0 1 2.61 2.42c.01 1.28-1.1 4.58-1.49 5.99zM297.83 49.68c-4.94 0-8.48-3.66-8.48-8.84a2.53 2.53 0 0 1 5.06 0c0 3.72 3 3.78 3.37 3.78h.06c.41 0 3.37-.06 3.37-3.78v-5.47c0-.64-.06-1.51-.81-1.69h-5c-3.72 0-6-3.08-6-6.74v-4.78c0-5.17 3.54-8.78 8.48-8.78s8.43 3.6 8.43 8.78a2.42 2.42 0 0 1-2.5 2.56 2.47 2.47 0 0 1-2.56-2.56c0-2.38-1.16-3.72-3.37-3.72h-.58c-2 .35-2.85 1.57-2.85 3.72v4.78c0 .81.06 1.51.93 1.69h4.88c3.78 0 6 3.2 6 6.74v5.48c-.01 5.15-3.49 8.83-8.43 8.83zM146.31 57.88a1.16 1.16 0 0 1-.11.56 1.51 1.51 0 0 1-.32.47 1.63 1.63 0 0 1-.46.32 1.27 1.27 0 0 1-.55.13h-6.26a1.59 1.59 0 0 0-.69.14 1.57 1.57 0 0 0-.49.37 1.69 1.69 0 0 0-.3.5 1.49 1.49 0 0 0-.11.52v1.57h5.77a1.45 1.45 0 0 1 1.17.46 1.5 1.5 0 0 1 0 2 1.45 1.45 0 0 1-1.17.45H137v4.8a1.31 1.31 0 0 1-.39.95 1.28 1.28 0 0 1-.94.4h-.17a1.28 1.28 0 0 1-.94-.4 1.31 1.31 0 0 1-.39-.95V60.9a4.62 4.62 0 0 1 .37-1.91 4.11 4.11 0 0 1 1-1.39 4.18 4.18 0 0 1 1.42-.85 5 5 0 0 1 1.67-.28h6.26a1.37 1.37 0 0 1 1 .43 1.45 1.45 0 0 1 .42.98zM164.75 64a7.58 7.58 0 0 1-.63 3.13 7.44 7.44 0 0 1-1.72 2.43 7.9 7.9 0 0 1-2.5 1.56 8 8 0 0 1-3 .56 8.16 8.16 0 0 1-3-.55 7.7 7.7 0 0 1-2.49-1.56 7.5 7.5 0 0 1-2.33-5.57 7.65 7.65 0 0 1 .64-3.15 7.36 7.36 0 0 1 1.72-2.43 7.88 7.88 0 0 1 2.49-1.56 8.2 8.2 0 0 1 6 0 7.86 7.86 0 0 1 2.5 1.56 7.42 7.42 0 0 1 1.72 2.43 7.65 7.65 0 0 1 .6 3.15zm-2.88 0a4.73 4.73 0 0 0-1.4-3.39 5.1 5.1 0 0 0-1.57-1 5.25 5.25 0 0 0-4 0 5.06 5.06 0 0 0-1.57 1A4.71 4.71 0 0 0 152 64a4.74 4.74 0 0 0 .37 1.85 4.66 4.66 0 0 0 1 1.54 5.07 5.07 0 0 0 7.1 0 4.77 4.77 0 0 0 1.4-3.39zM183.06 67.88a4.53 4.53 0 0 1-1 1.92 5 5 0 0 1-2 1.38 10.64 10.64 0 0 1-6.64 0 5 5 0 0 1-2-1.38 4.6 4.6 0 0 1-1-1.92 9.42 9.42 0 0 1-.25-2.12v-7.84a1.19 1.19 0 0 1 .11-.51 1.41 1.41 0 0 1 .3-.43 1.58 1.58 0 0 1 .43-.29 1.12 1.12 0 0 1 .5-.12h.19a1.14 1.14 0 0 1 .49.12 1.55 1.55 0 0 1 .44.29 1.4 1.4 0 0 1 .3.43 1.23 1.23 0 0 1 .11.51v7.84a4.49 4.49 0 0 0 .16 1.23 2.25 2.25 0 0 0 .58 1 2.75 2.75 0 0 0 1.11.64 6.94 6.94 0 0 0 3.55 0 2.75 2.75 0 0 0 1.11-.64 2.23 2.23 0 0 0 .58-1 4.53 4.53 0 0 0 .16-1.23v-7.84a1.2 1.2 0 0 1 .11-.51 1.36 1.36 0 0 1 .3-.43 1.58 1.58 0 0 1 .43-.29 1.12 1.12 0 0 1 .5-.12h.37a1.14 1.14 0 0 1 .49.12 1.56 1.56 0 0 1 .44.29 1.41 1.41 0 0 1 .3.43 1.21 1.21 0 0 1 .11.51v7.84a9.25 9.25 0 0 1-.28 2.12zM202.31 71.11a1.36 1.36 0 0 1-1 .43H201a1.37 1.37 0 0 1-1.13-.55L198 68.63l-1.78-2.25-1.79-2.27-1.9-2.4v8.48a1.31 1.31 0 0 1-.4.95 1.28 1.28 0 0 1-.94.4H191a1.28 1.28 0 0 1-.94-.4 1.3 1.3 0 0 1-.4-.95V58.05a1.43 1.43 0 0 1 .42-1 1.38 1.38 0 0 1 1-.43h.49a1.39 1.39 0 0 1 .63.15 1.5 1.5 0 0 1 .51.42l1.79 2.29 1.77 2.26L198 64c.59.76 1.2 1.55 1.83 2.34v-8.4a1.19 1.19 0 0 1 .17-.54 1.6 1.6 0 0 1 .29-.42 1.21 1.21 0 0 1 .42-.29 1.27 1.27 0 0 1 .51-.11h.17a1.28 1.28 0 0 1 1 .4 1.31 1.31 0 0 1 .39.95v12.2a1.38 1.38 0 0 1-.47.98zM223.3 64a7.68 7.68 0 0 1-.54 2.88 7.2 7.2 0 0 1-1.5 2.34 7 7 0 0 1-2.26 1.57 7.13 7.13 0 0 1-2.89.58h-5.35a1.27 1.27 0 0 1-.55-.12 1.54 1.54 0 0 1-.47-.32 1.47 1.47 0 0 1-.31-.46 1.39 1.39 0 0 1-.11-.55V58a1.48 1.48 0 0 1 1.44-1.46h5.35a7.24 7.24 0 0 1 3.3.69 6.7 6.7 0 0 1 2.21 1.77 7.07 7.07 0 0 1 1.27 2.39 8.63 8.63 0 0 1 .41 2.61zm-2.88 0a5.11 5.11 0 0 0-.32-1.84 4.34 4.34 0 0 0-.9-1.44 4 4 0 0 0-1.38-.94 4.46 4.46 0 0 0-1.73-.33h-3.91v9h3.91a4.11 4.11 0 0 0 2-.44A4.19 4.19 0 0 0 219.4 67a4.54 4.54 0 0 0 .77-1.45 5 5 0 0 0 .24-1.55zM241.21 71.17a1.35 1.35 0 0 1-.93.37h-.17a1.36 1.36 0 0 1-.92-.37 1.25 1.25 0 0 1-.41-1v-4.4h-6.94v4.42a1.24 1.24 0 0 1-.42 1 1.35 1.35 0 0 1-.92.37h-.17a1.34 1.34 0 0 1-.93-.37 1.26 1.26 0 0 1-.4-1v-8a12.15 12.15 0 0 1 .08-1.42 5.47 5.47 0 0 1 .34-1.38 5.17 5.17 0 0 1 .69-1.23 3.84 3.84 0 0 1 1.14-1 6.22 6.22 0 0 1 1.7-.67 11.46 11.46 0 0 1 4.72 0 6.23 6.23 0 0 1 1.7.67 3.85 3.85 0 0 1 1.14 1 5.21 5.21 0 0 1 .69 1.23 5.59 5.59 0 0 1 .34 1.38 11.91 11.91 0 0 1 .09 1.42v8a1.26 1.26 0 0 1-.42.98zm-2.44-9a4.5 4.5 0 0 0-.16-1.23 2.26 2.26 0 0 0-.56-1 2.67 2.67 0 0 0-1.07-.63 6.28 6.28 0 0 0-3.36 0 2.65 2.65 0 0 0-1.07.63 2.23 2.23 0 0 0-.56 1 4.42 4.42 0 0 0-.16 1.23v.74h6.94v-.74zM258.72 58a1.33 1.33 0 0 1-.44 1 1.42 1.42 0 0 1-1 .42h-3.4v10.77a1.25 1.25 0 0 1-.41 1 1.36 1.36 0 0 1-.94.37h-.19a1.36 1.36 0 0 1-.93-.37 1.24 1.24 0 0 1-.42-1V59.46h-3.38a1.42 1.42 0 0 1-1-.42 1.34 1.34 0 0 1-.44-1 1.39 1.39 0 0 1 .11-.55 1.46 1.46 0 0 1 .32-.49 1.52 1.52 0 0 1 .46-.32 1.3 1.3 0 0 1 .55-.12h9.66a1.23 1.23 0 0 1 .54.13 1.57 1.57 0 0 1 .46.32 1.61 1.61 0 0 1 .32.46 1.31 1.31 0 0 1 .13.53zM288.08 64a7.58 7.58 0 0 1-.64 3.13 7.38 7.38 0 0 1-1.72 2.43 7.89 7.89 0 0 1-2.5 1.56 8 8 0 0 1-3 .56 8.14 8.14 0 0 1-3-.55 7.7 7.7 0 0 1-2.5-1.56 7.51 7.51 0 0 1-2.31-5.57 7.65 7.65 0 0 1 .64-3.15 7.38 7.38 0 0 1 1.71-2.43 7.88 7.88 0 0 1 2.5-1.56 8.19 8.19 0 0 1 6 0 7.85 7.85 0 0 1 2.5 1.56 7.36 7.36 0 0 1 1.72 2.43 7.65 7.65 0 0 1 .6 3.15zm-2.88 0a4.72 4.72 0 0 0-1.4-3.39 5.11 5.11 0 0 0-1.56-1 5.25 5.25 0 0 0-4 0 5.07 5.07 0 0 0-1.57 1 4.72 4.72 0 0 0-1.4 3.39 4.75 4.75 0 0 0 .37 1.85 4.65 4.65 0 0 0 1 1.54 5.07 5.07 0 0 0 7.1 0 4.65 4.65 0 0 0 1-1.54 4.73 4.73 0 0 0 .46-1.85zM305.86 71.11a1.36 1.36 0 0 1-1 .43h-.34a1.37 1.37 0 0 1-1.13-.55l-1.87-2.36-1.78-2.25-1.79-2.27-1.9-2.4v8.48a1.31 1.31 0 0 1-.4.95 1.28 1.28 0 0 1-.94.4h-.17a1.28 1.28 0 0 1-.94-.4 1.31 1.31 0 0 1-.39-.95V58.05a1.42 1.42 0 0 1 .42-1 1.38 1.38 0 0 1 1-.43h.5a1.38 1.38 0 0 1 .63.15 1.49 1.49 0 0 1 .51.42l1.8 2.29 1.77 2.26L301.6 64c.59.76 1.2 1.55 1.83 2.34v-8.4a1.2 1.2 0 0 1 .11-.52 1.62 1.62 0 0 1 .29-.42 1.24 1.24 0 0 1 .42-.29 1.28 1.28 0 0 1 .51-.11h.17a1.27 1.27 0 0 1 1 .4 1.31 1.31 0 0 1 .39.95v12.2a1.38 1.38 0 0 1-.46.96zM267.21 71.23a1.29 1.29 0 0 1-.95.4h-.19a1.31 1.31 0 0 1-.94-.4 1.29 1.29 0 0 1-.41-.95V58a1.22 1.22 0 0 1 .11-.52 1.66 1.66 0 0 1 .29-.42 1.24 1.24 0 0 1 .43-.29 1.29 1.29 0 0 1 .51-.11h.19a1.36 1.36 0 0 1 1.36 1.34v12.28a1.3 1.3 0 0 1-.4.95z"/></svg>