<svg id="Layer_1" xmlns="http://www.w3.org/2000/svg" viewBox="0 0 306.3 71.7"><style>.st0{fill:#b3be35}.st1{fill:#cbd82b}.st2{fill:#8e9c9a}</style><path class="st0" d="M33 12s1.9 4.8-.2 10.7c-1.2 3.4-1.9 6.2 0 8.3 1.7 1.8 5 1.8 6.7 0 1.9-2 1.2-4.9 0-8.3-2-5.8-.2-10.7-.2-10.7C42.1 3.1 51.6-1.8 60.5 1c8.9 2.8 13.8 12.3 11 21.2-1.5 4.7-1.4 7.6 0 10.3 1.4 2.7 3.7 4.4 8.4 5.9 5.5 1.7 9.4 6 11 11 2.8 8.9-2.1 18.4-11 21.2-8.9 2.8-18.4-2.1-21.2-11 0 0-1.9-4.8.2-10.7 1.2-3.4 1.9-6.2 0-8.3-1.7-1.8-5-1.8-6.7 0-1.9 2-1.2 4.9 0 8.3 2 5.8.2 10.7.2 10.7-2.8 8.9-12.3 13.8-21.2 11-8.9-2.8-13.8-12.3-11-21.2 1.5-4.7 1.4-7.6 0-10.3-1.4-2.7-3.7-4.4-8.4-5.9C2.9 30.4-2 20.9.8 12 3.6 3.1 13.1-1.9 22 1c5.4 1.7 9.4 5.9 11 11z"/><circle class="st1" cx="96.1" cy="15.4" r="15.2"/><path class="st2" d="M140.9.6v.1l-1.6 5.4c0 .1-.1.2-.2.2-.1.1-.2.1-.3.1h-.3c-.1 0-.2 0-.3-.1l-.2-.2-1.1-4.1-1.1 4.2c0 .1-.1.2-.2.3-.1.1-.2.1-.3.1h-.3c-.1 0-.2 0-.3-.1l-.2-.2L133 .7V.6.5c0-.1 0-.2.1-.3.1-.1.2-.1.3-.1h.2c.1 0 .1.1.1.1s.1.1.1.2l1.3 4.4 1.2-4.4c0-.1.1-.2.2-.2.1-.1.2-.1.3-.1h.2c.1 0 .2 0 .3.1l.2.2 1.2 4.4L140 .4c0-.1.1-.1.1-.2l.1-.1h.2c.1 0 .2 0 .3.1.1.2.2.3.2.4zM152.8 6.5c-.1.1-.2.1-.3.1h-.1c-.1 0-.2 0-.3-.1-.1-.1-.1-.2-.1-.3V3.9h-3.6v2.2c0 .1 0 .2-.1.3-.1.1-.2.1-.3.1-.1 0-.2 0-.3-.1-.1-.1-.1-.2-.1-.3V2.5c0-.3 0-.6.1-.9.1-.3.2-.6.4-.8.2-.2.5-.4.8-.6.4-.2.8-.2 1.4-.2.6 0 1 .1 1.4.2.4.2.6.3.8.6.2.2.3.5.4.8.1.3.1.6.1.9v3.6c-.1.2-.1.3-.2.4zm-.8-4c0-.2 0-.4-.1-.6-.1-.2-.2-.4-.3-.5-.1-.1-.3-.3-.6-.3-.2-.1-.5-.1-.9-.1s-.6 0-.9.1c-.2.1-.4.2-.5.3-.1.1-.2.3-.3.5-.1.2-.1.4-.1.6V3h3.6v-.5zM165.8 4.7c0 .3-.1.6-.2.9-.2.2-.4.5-.7.6-.3.2-.6.3-1 .4-.4.1-.7.1-1.1.1-.4 0-.7 0-1-.1-.3-.1-.6-.2-.8-.3l-.6-.3c-.2-.1-.3-.2-.4-.3-.1-.1-.1-.2-.1-.3 0-.1 0-.2.1-.3 0-.1.1-.1.2-.1s.1-.1.2-.1h.2c.1 0 .1.1.1.1.1.1.2.2.4.2.1.1.3.2.5.2.2.1.4.1.6.2.2 0 .5.1.8.1.2 0 .4 0 .7-.1.2 0 .5-.1.7-.2.2-.1.4-.2.5-.3.1-.1.2-.3.2-.5 0-.3-.1-.5-.2-.6-.1-.1-.3-.2-.5-.3-.2-.1-.4-.1-.6-.1h-1.5c-.2 0-.4 0-.7-.1l-.6-.3c-.2-.1-.3-.3-.4-.5-.1-.2-.2-.4-.2-.7 0-.3.1-.6.3-.9.2-.2.4-.5.6-.6.3-.2.6-.3.9-.4.3-.1.6-.1.9-.1.3 0 .6 0 .9.1.3.1.5.1.7.2.2.1.3.1.4.2.1.1.2.1.3.2.1.1.2.2.2.4 0 .1 0 .2-.1.3-.1.1-.2.1-.3.1-.1 0-.2 0-.3-.1-.1-.1-.3-.2-.4-.2-.1-.1-.2-.1-.4-.2-.1 0-.3-.1-.4-.1h-.6c-.2 0-.4 0-.6.1-.2 0-.4.1-.6.2-.2.1-.3.2-.4.3-.5.2-.5.3-.5.5 0 .5.4.7 1.1.7h.8c.4 0 .7 0 1.1.1.3.1.7.2.9.3.3.1.5.3.6.6.2.3.3.6.3 1zM178.2 6.5c-.1.1-.2.1-.3.1h-.1c-.1 0-.2 0-.3-.1-.1-.1-.1-.2-.1-.3V3.6h-3.7v2.5c0 .1 0 .2-.1.3-.1.1-.2.1-.3.1h-.1c-.1 0-.2 0-.3-.1-.1-.1-.1-.2-.1-.3V.6c0-.1 0-.2.1-.3.1-.1.2-.1.3-.1h.1c.1 0 .2 0 .3.1.1.1.1.2.1.3v2.2h3.7V.6c0-.1 0-.2.1-.3.1-.1.2-.1.3-.1h.1c.1 0 .2 0 .3.1.1.1.1.2.1.3v5.6c0 .1-.1.2-.1.3zM186.6 6.5c-.1.1-.2.1-.3.1h-.1c-.1 0-.2 0-.3-.1-.1-.1-.1-.2-.1-.3V.6c0-.1 0-.2.1-.3.1-.1.2-.1.3-.1h.1c.1 0 .2 0 .3.1.1.1.1.2.1.3v5.6c0 .1-.1.2-.1.3zM199.6 6.4c-.1.1-.2.1-.3.1h-.2c-.2 0-.3-.1-.4-.2L195 1.6v4.5c0 .1 0 .2-.1.3-.1.1-.2.1-.3.1h-.1c-.1 0-.2 0-.3-.1-.1-.1-.1-.2-.1-.3V.6c0-.1 0-.2.1-.3.1-.1.2-.1.3-.1h.4c.1 0 .1.1.2.1l3.6 4.6V.6c0-.1 0-.2.1-.3.1-.1.2-.1.3-.1h.1c.1 0 .2 0 .3.1.1.1.1.2.1.3v5.6c.2 0 .1.2 0 .2zM212.9 5.5c-.1.2-.3.4-.6.6-.3.2-.6.3-.9.4-.3.1-.7.1-1.1.1-.4 0-.8-.1-1.3-.2-.4-.1-.8-.4-1.1-.6-.3-.3-.6-.6-.8-1-.2-.4-.3-.9-.3-1.4 0-.4.1-.9.3-1.3.2-.4.4-.8.7-1 .3-.3.7-.5 1.1-.7.4-.2.9-.3 1.4-.3.4 0 .7 0 1 .1.3.1.6.2.8.3.2.1.4.2.5.4.1.1.2.2.2.3 0 .1 0 .2-.1.3-.1.1-.2.1-.3.1-.1 0-.2 0-.3-.1-.2-.2-.4-.3-.6-.4-.3-.1-.6-.2-1-.2s-.8.1-1.1.2c-.3.1-.6.3-.8.5-.2.2-.4.5-.5.8-.1.3-.2.6-.2.9 0 .3.1.6.2.9.1.3.3.5.5.8.2.2.5.4.8.5.3.1.7.2 1.1.2.3 0 .5 0 .8-.1.2-.1.4-.1.6-.2.2-.1.3-.2.4-.3.1-.1.1-.3.1-.4V4h-1.5c-.1 0-.2 0-.3-.1-.1-.1-.1-.2-.1-.3 0-.1 0-.2.1-.3.1-.1.2-.1.3-.1h2c.1 0 .2 0 .3.1.1.1.1.2.1.3v1.2c-.1.2-.2.5-.4.7zM224.9.6c0 .1 0 .2-.1.3-.1.1-.2.1-.3.1h-1.8v5.1c0 .1 0 .2-.1.3-.1.1-.2.1-.3.1h-.1c-.1 0-.2 0-.3-.1-.1-.1-.1-.2-.1-.3v-5H220c-.1 0-.2 0-.3-.1-.1-.1-.1-.2-.1-.3 0-.1 0-.2.1-.3.1-.1.2-.1.3-.1h4.4c.1 0 .2 0 .3.1.2 0 .2.1.2.2zM237.9 3.3c0 .5-.1 1-.3 1.4-.2.4-.4.8-.7 1-.3.3-.7.5-1.1.7-.4.2-.8.2-1.3.2s-.9-.1-1.3-.2c-.4-.2-.8-.4-1.1-.7-.3-.3-.6-.6-.7-1-.2-.4-.3-.9-.3-1.4 0-.5.1-1 .3-1.4.2-.4.4-.8.7-1 .3-.3.7-.5 1.1-.7.4-.2.8-.2 1.3-.2s.9.1 1.3.2c.4.2.8.4 1.1.7.3.3.6.6.7 1 .2.5.3.9.3 1.4zm-.9 0c0-.3-.1-.6-.2-.9-.1-.3-.3-.5-.5-.8-.2-.2-.5-.4-.8-.5-.3-.1-.6-.2-1-.2s-.7.1-1 .2c-.3.1-.6.3-.8.5-.2.2-.4.5-.5.8-.1.3-.2.6-.2.9 0 .3.1.6.2.9.1.3.3.5.5.8.2.2.5.4.8.5.3.1.6.2 1 .2s.7-.1 1-.2c.3-.1.6-.3.8-.5.2-.2.4-.5.5-.8.1-.2.2-.5.2-.9zM250.5 6.4c-.1.1-.2.1-.3.1h-.2c-.2 0-.3-.1-.4-.2l-3.7-4.7v4.5c0 .1 0 .2-.1.3-.1.1-.2.1-.3.1h-.1c-.1 0-.2 0-.3-.1-.1 0-.1-.1-.1-.2V.6c0-.1 0-.2.1-.3.1-.1.2-.1.3-.1h.4c.1 0 .1.1.2.1l3.6 4.6V.6c0-.1 0-.2.1-.3.1-.1.2-.1.3-.1h.1c.1 0 .2 0 .3.1.1.1.1.2.1.3v5.6c.1 0 .1.2 0 .2zM268.7 6.5c-.1.1-.2.1-.3.1h-.1c-.1 0-.2 0-.3-.1V3.9h-3.6v2.2c0 .1 0 .2-.1.3-.1.1-.2.1-.3.1h-.1c-.1 0-.2 0-.3-.1-.1-.1-.1-.2-.1-.3V2.5c0-.3 0-.6.1-.9.1-.3.2-.6.4-.8.2-.2.5-.4.8-.6.4-.2.8-.2 1.4-.2.6 0 1 .1 1.4.2.4.2.6.3.8.6.2.2.3.5.4.8.1.3.1.6.1.9v3.6c0 .2-.1.3-.2.4zm-.7-4c0-.2 0-.4-.1-.6-.1-.2-.2-.4-.3-.5-.1-.1-.3-.3-.6-.3-.2-.1-.5-.1-.9-.1s-.6 0-.9.1c-.2.1-.4.2-.5.3-.1.1-.2.3-.3.5-.1.2-.1.4-.1.6V3h3.6v-.5zM281.9 2c0 .3-.1.6-.2.9-.1.2-.2.4-.4.6-.1.1-.3.2-.5.3-.2.1-.3.1-.4.1l1 2.1v.2c0 .1 0 .2-.1.3-.1.1-.2.1-.3.1-.1 0-.2 0-.3-.1-.1 0-.1-.1-.2-.2l-1.2-2.5h-2.4v2.3c0 .1 0 .2-.1.3-.1.1-.2.1-.3.1h-.1c-.1 0-.2 0-.3-.1-.1-.1-.1-.2-.1-.3V.6c0-.1 0-.2.1-.3.1-.1.2-.1.3-.1h3.3c.3 0 .5 0 .7.1.2.1.5.2.6.3.2.1.3.3.4.6.5.2.5.4.5.8zm-.9 0c0-.2 0-.3-.1-.4-.1-.1-.1-.2-.2-.3-.1-.1-.2-.1-.3-.1H277.2v1.9h2.8c.3 0 .6-.1.8-.3.1-.3.2-.5.2-.8zM294 6c0 .1-.1.2-.1.3-.1.1-.2.1-.3.1h-2.9c-.2 0-.5 0-.7-.1l-.6-.3c-.2-.2-.3-.3-.4-.6-.1-.2-.2-.5-.2-.8 0-.2 0-.3.1-.4 0-.1.1-.3.2-.4.1-.1.1-.2.2-.3l.2-.2c-.1-.1-.2-.1-.2-.2-.1-.1-.2-.2-.2-.3-.1-.1-.1-.2-.2-.4 0-.1-.1-.3-.1-.4 0-.3.1-.6.2-.8.1-.2.2-.4.4-.6.2-.2.4-.3.6-.3.2-.1.5-.1.7-.1h2.9c.1 0 .2 0 .3.1.1.1.1.2.1.3 0 .1 0 .2-.1.3-.1.1-.2.1-.3.1h-2.9c-.2 0-.3 0-.4.1-.1.1-.2.1-.3.2-.1.1-.1.2-.2.3 0 .1-.1.2-.1.3 0 .1 0 .2.1.3 0 .1.1.2.2.3.1.1.2.2.3.2.1.1.3.1.4.1h2.4c.2 0 .3 0 .4.1.1.1.1.2.1.3 0 .1 0 .2-.1.3-.1.1-.2.1-.4.1h-2.4c-.2 0-.3 0-.4.1-.1.1-.2.1-.3.2-.1.1-.1.2-.2.3 0 .1-.1.2-.1.3 0 .1 0 .2.1.3 0 .1.1.2.2.3.1.1.2.2.3.2.1.1.3.1.4.1h2.9c.1 0 .2 0 .3.1.1.3.1.4.1.5zM306.1 6.5c-.1.1-.2.1-.3.1h-.1c-.1 0-.2 0-.3-.1-.1-.1-.1-.2-.1-.3V3.9h-3.6v2.2c0 .1 0 .2-.1.3-.1.1-.2.1-.3.1h-.1c-.1 0-.2 0-.3-.1-.1-.1-.1-.2-.1-.3V2.5c0-.3 0-.6.1-.9.1-.3.2-.6.4-.8.2-.2.5-.4.8-.6.4-.2.8-.2 1.4-.2.6 0 1 .1 1.4.2.4.2.6.3.8.6.2.2.3.5.4.8.1.3.1.6.1.9v3.6c.1.2 0 .3-.1.4zm-.7-4c0-.2 0-.4-.1-.6-.1-.2-.2-.4-.3-.5-.1-.1-.3-.3-.6-.3-.2-.1-.5-.1-.9-.1s-.6 0-.9.1c-.2.1-.4.2-.5.3-.1.1-.2.3-.3.5-.1.2-.1.4-.1.6V3h3.6v-.5zM154.4 49.7c-2.4 0-4.5-.9-5.9-2.3-1.5 1.5-3.5 2.3-5.9 2.3-5.1 0-8.5-3.8-8.5-8.8v-25c0-1.5 1-2.5 2.5-2.5s2.6 1 2.6 2.5v25c0 2.2 1.2 3.8 3.4 3.8s3.4-1.6 3.4-3.8v-25c0-1.5 1.1-2.5 2.6-2.5s2.5 1 2.5 2.5v25c0 2.2 1.2 3.8 3.4 3.8 2.3 0 3.4-1.6 3.4-3.8v-25c0-1.5 1-2.5 2.5-2.5s2.6 1 2.6 2.5v25c-.1 4.9-3.5 8.8-8.6 8.8zM179.5 49.7c-5.1 0-8.5-3.8-8.5-8.8V22.2c0-4.9 3.4-8.8 8.5-8.8s8.4 3.8 8.4 8.8v18.7c0 5-3.2 8.8-8.4 8.8zm3.4-27.5c0-2.2-1-3.7-3.4-3.7s-3.4 1.5-3.4 3.7v18.7c0 2.3 1 3.8 3.4 3.8 2.3 0 3.4-1.5 3.4-3.8V22.2zM222.3 49.7c-1.5 0-2.5-1-2.5-2.5v-25c0-2.2-1.1-3.7-3.4-3.7S213 20 213 22.2v25c0 1.5-1 2.5-2.5 2.5s-2.6-1-2.6-2.5v-25c0-2.2-1-3.7-3.4-3.7s-3.4 1.5-3.4 3.7v25c0 1.5-1 2.5-2.6 2.5-1.5 0-2.5-1-2.5-2.5v-25c0-5 3.4-8.8 8.5-8.8 2.4 0 4.5.9 5.9 2.3 1.5-1.5 3.5-2.3 5.9-2.3 5.1 0 8.5 3.8 8.5 8.8v25c0 1.4-1 2.5-2.5 2.5zM245.2 18.4h-6.1c-.8 0-.9 1.2-.9 1.7v11.7h7c1.5 0 2.6 1 2.6 2.6 0 1.5-1 2.5-2.6 2.5h-7v6c0 .6.1 1.7.9 1.7h6c1.5 0 2.6 1 2.6 2.6 0 1.5-1 2.5-2.6 2.5h-6c-3.8 0-6-3.2-6-6.7V20.1c0-3.5 2.3-6.7 6.1-6.7h5.9c1.5 0 2.6 1 2.6 2.5 0 1.4-1 2.5-2.5 2.5zM269.9 49.7c-1.5 0-2.6-1-2.6-2.5v-25c0-2.2-1-3.7-3.4-3.7s-3.4 1.5-3.4 3.7v25c0 1.5-1 2.5-2.6 2.5-1.5 0-2.5-1-2.5-2.5V15.9c0-1.5 1-2.5 2.5-2.5.9 0 1.6.3 2 .9 1.1-.6 2.4-.9 4-.9 5.1 0 8.4 3.8 8.4 8.8v25c.1 1.4-.9 2.5-2.4 2.5zM283.2 20.4c-.3 1.1-1.2 1.9-2.4 1.9-1.4 0-2.6-1-2.6-2.5 0-1.2 1.1-4.6 1.5-5.9.3-1.2 1.2-1.9 2.4-1.9 1.4 0 2.6 1 2.6 2.4 0 1.3-1.1 4.6-1.5 6zM297.8 49.7c-4.9 0-8.5-3.7-8.5-8.8 0-1.7 1.3-2.5 2.5-2.5 1.3 0 2.6.8 2.6 2.5 0 3.7 3 3.8 3.4 3.8h.1c.4 0 3.4-.1 3.4-3.8v-5.5c0-.6-.1-1.5-.8-1.7h-5c-3.7 0-6-3.1-6-6.7v-4.8c0-5.2 3.5-8.8 8.5-8.8 4.9 0 8.4 3.6 8.4 8.8 0 1.7-1.2 2.6-2.5 2.6s-2.6-.9-2.6-2.6c0-2.4-1.2-3.7-3.4-3.7h-.6c-2 .4-2.8 1.6-2.8 3.7V27c0 .8.1 1.5.9 1.7h4.9c3.8 0 6 3.2 6 6.7v5.5c0 5.1-3.5 8.8-8.5 8.8zM146.3 57.9c0 .2 0 .4-.1.6-.1.2-.2.3-.3.5-.1.1-.3.2-.5.3-.2.1-.4.1-.6.1h-6.3c-.3 0-.5 0-.7.1-.2.1-.4.2-.5.4-.1.2-.2.3-.3.5-.1.2-.1.4-.1.5v1.6h5.8c.5 0 .9.2 1.2.5.3.3.4.6.4 1s-.1.7-.4 1c-.3.3-.6.5-1.2.5H137v4.8c0 .4-.1.7-.4.9-.3.3-.6.4-.9.4h-.2c-.4 0-.7-.1-.9-.4-.3-.3-.4-.6-.4-.9V61c0-.7.1-1.4.4-1.9.2-.6.6-1 1-1.4.4-.4.9-.7 1.4-.8.5-.2 1.1-.3 1.7-.3h6.3c.4 0 .7.1 1 .4.2.2.3.5.3.9zM164.7 64c0 1.1-.2 2.2-.6 3.1-.4.9-1 1.8-1.7 2.4-.7.7-1.6 1.2-2.5 1.6-.9.4-1.9.6-3 .6s-2-.2-3-.6c-.9-.4-1.8-.9-2.5-1.6-.7-.7-1.3-1.5-1.7-2.4-.4-.9-.6-2-.6-3.1 0-1.2.2-2.2.6-3.2.4-.9 1-1.8 1.7-2.4.7-.7 1.6-1.2 2.5-1.6.9-.4 1.9-.6 3-.6 1 0 2 .2 3 .6.9.4 1.8.9 2.5 1.6.7.7 1.3 1.5 1.7 2.4.4 1 .6 2 .6 3.2zm-2.8 0c0-.7-.1-1.3-.4-1.9-.2-.6-.6-1.1-1-1.5-.4-.4-1-.8-1.6-1-.6-.3-1.3-.4-2-.4s-1.4.1-2 .4c-.6.3-1.1.6-1.6 1-.4.4-.8.9-1 1.5-.2.6-.4 1.2-.4 1.9 0 .6.1 1.3.4 1.8.2.6.6 1.1 1 1.5.4.4 1 .8 1.6 1 .6.3 1.3.4 2 .4s1.4-.1 2-.4c.6-.3 1.1-.6 1.6-1 .4-.4.8-.9 1-1.5.2-.6.4-1.2.4-1.8zM183.1 67.9c-.2.7-.5 1.3-1 1.9-.5.6-1.1 1-2 1.4-.8.4-2 .5-3.3.5s-2.5-.2-3.3-.5c-.8-.4-1.5-.8-2-1.4-.5-.6-.8-1.2-1-1.9-.2-.7-.2-1.4-.2-2.1V58c0-.2 0-.3.1-.5s.2-.3.3-.4c.1-.1.3-.2.4-.3.2-.1.3-.1.5-.1h.2c.2 0 .3 0 .5.1s.3.2.4.3c.1.1.2.3.3.4.1.2.1.3.1.5v7.8c0 .4.1.9.2 1.2.1.4.3.7.6 1 .3.3.6.5 1.1.6.5.2 1.1.2 1.8.2s1.3-.1 1.8-.2c.5-.2.8-.4 1.1-.6.3-.3.5-.6.6-1 .1-.4.2-.8.2-1.2V58c0-.2 0-.3.1-.5s.2-.3.3-.4c.1-.1.3-.2.4-.3.2-.1.3-.1.5-.1h.2c.2 0 .3 0 .5.1s.3.2.4.3c.1.1.2.3.3.4.1.2.1.3.1.5v7.8c0 .7-.1 1.4-.2 2.1zM202.3 71.1c-.3.3-.6.4-1 .4h-.3c-.5 0-.8-.2-1.1-.5-.6-.8-1.3-1.6-1.9-2.4-.6-.8-1.2-1.5-1.8-2.2-.6-.7-1.2-1.5-1.8-2.3s-1.2-1.6-1.9-2.4v8.5c0 .4-.1.7-.4.9-.3.3-.6.4-.9.4h-.2c-.4 0-.7-.1-.9-.4-.3-.3-.4-.6-.4-.9V58.1c0-.4.1-.8.4-1 .3-.3.6-.4 1-.4h.5c.2 0 .4.1.6.2.2.1.4.2.5.4.6.8 1.2 1.5 1.8 2.3.6.8 1.2 1.5 1.8 2.3.6.8 1.2 1.5 1.8 2.3.6.8 1.2 1.5 1.8 2.3v-8.4c0-.2 0-.4.1-.5.1-.2.2-.3.3-.4.1-.1.3-.2.4-.3.2-.1.3-.1.5-.1h.2c.4 0 .7.1 1 .4.3.3.4.6.4.9v12.2c-.1.2-.2.5-.5.8zM223.3 64c0 1-.2 2-.5 2.9-.4.9-.9 1.7-1.5 2.3-.6.7-1.4 1.2-2.3 1.6-.9.4-1.8.6-2.9.6h-5.3c-.2 0-.4 0-.6-.1-.2-.1-.3-.2-.5-.3-.1-.1-.2-.3-.3-.5-.1-.2-.1-.4-.1-.5V58c0-.4.1-.8.4-1 .3-.3.6-.4 1-.4h5.3c1.3 0 2.4.2 3.3.7.9.5 1.7 1.1 2.2 1.8.6.7 1 1.5 1.3 2.4.4.8.5 1.7.5 2.5zm-2.9 0c0-.7-.1-1.3-.3-1.8-.2-.6-.5-1-.9-1.4-.4-.4-.8-.7-1.4-.9-.5-.2-1.1-.3-1.7-.3h-3.9v9h3.9c.8 0 1.4-.1 2-.4.5-.3 1-.7 1.3-1.1.3-.4.6-.9.8-1.5.1-.6.2-1.1.2-1.6zM241.2 71.2c-.3.2-.6.4-.9.4h-.2c-.3 0-.6-.1-.9-.4-.3-.2-.4-.6-.4-1v-4.4h-6.9v4.4c0 .4-.1.7-.4 1-.3.2-.6.4-.9.4h-.2c-.4 0-.7-.1-.9-.4-.3-.2-.4-.6-.4-1v-8c0-.5 0-.9.1-1.4.1-.5.2-.9.3-1.4.2-.4.4-.8.7-1.2.3-.4.7-.7 1.1-1 .5-.3 1-.5 1.7-.7.7-.2 1.5-.2 2.4-.2.9 0 1.7.1 2.4.2.7.2 1.2.4 1.7.7.5.3.8.6 1.1 1 .3.4.5.8.7 1.2.2.4.3.9.3 1.4.1.5.1 1 .1 1.4v8c-.1.4-.2.7-.5 1zm-2.4-9c0-.4-.1-.9-.2-1.2-.1-.4-.3-.7-.6-1-.3-.3-.6-.5-1.1-.6-.4-.2-1-.2-1.7-.2s-1.2.1-1.7.2c-.4.2-.8.4-1.1.6-.3.3-.5.6-.6 1-.1.4-.2.8-.2 1.2v.7h6.9v-.7zM258.7 58c0 .4-.1.7-.4 1-.3.3-.6.4-1 .4h-3.4v10.7c0 .4-.1.7-.4 1-.3.2-.6.4-.9.4h-.2c-.3 0-.7-.1-.9-.4-.3-.2-.4-.6-.4-1V59.5h-3.4c-.4 0-.7-.1-1-.4-.3-.3-.4-.6-.4-1 0-.2 0-.4.1-.6.1-.2.2-.3.3-.5.1-.1.3-.2.5-.3.2-.1.4-.1.6-.1h9.7c.2 0 .4 0 .5.1.2.1.3.2.5.3.1.1.2.3.3.5-.1.2-.1.3-.1.5zM266.4 71.1c-.3.3-.6.4-.9.4h-.2c-.4 0-.7-.1-.9-.4-.3-.3-.4-.6-.4-.9V57.9c0-.2 0-.4.1-.5.1-.2.2-.3.3-.4.1-.1.3-.2.4-.3.2-.1.3-.1.5-.1h.2c.4 0 .7.1.9.4.3.3.4.6.4.9v12.3c0 .4-.1.7-.4.9zM288.1 64c0 1.1-.2 2.2-.6 3.1-.4.9-1 1.8-1.7 2.4-.7.7-1.6 1.2-2.5 1.6-1 .4-1.9.6-3 .6-1 0-2-.2-3-.6-.9-.4-1.8-.9-2.5-1.6-.7-.7-1.3-1.5-1.7-2.4-.4-.9-.6-2-.6-3.1 0-1.2.2-2.2.6-3.2.4-.9 1-1.8 1.7-2.4.7-.7 1.6-1.2 2.5-1.6.9-.4 1.9-.6 3-.6 1 0 2 .2 3 .6.9.4 1.8.9 2.5 1.6.7.7 1.3 1.5 1.7 2.4.4 1 .6 2 .6 3.2zm-2.9 0c0-.7-.1-1.3-.4-1.9-.2-.6-.6-1.1-1-1.5-.4-.4-1-.8-1.6-1-.6-.3-1.3-.4-2-.4s-1.4.1-2 .4c-.6.3-1.1.6-1.6 1-.4.4-.8.9-1 1.5-.2.6-.4 1.2-.4 1.9 0 .6.1 1.3.4 1.8.2.6.6 1.1 1 1.5.4.4 1 .8 1.6 1 .6.3 1.3.4 2 .4s1.4-.1 2-.4c.6-.3 1.1-.6 1.6-1 .4-.4.8-.9 1-1.5.3-.6.4-1.2.4-1.8zM305.9 71.1c-.3.3-.6.4-1 .4h-.3c-.5 0-.8-.2-1.1-.5-.6-.8-1.3-1.6-1.9-2.4-.6-.8-1.2-1.5-1.8-2.2-.6-.7-1.2-1.5-1.8-2.3-.6-.8-1.2-1.6-1.9-2.4v8.5c0 .4-.1.7-.4.9-.3.3-.6.4-.9.4h-.2c-.4 0-.7-.1-.9-.4-.3-.3-.4-.6-.4-.9V58.1c0-.4.1-.8.4-1 .3-.3.6-.4 1-.4h.5c.2 0 .4.1.6.2.2.1.4.2.5.4.6.8 1.2 1.5 1.8 2.3.6.8 1.2 1.5 1.8 2.3.6.8 1.2 1.5 1.8 2.3.6.8 1.2 1.5 1.8 2.3v-8.4c0-.2 0-.4.1-.5.1-.2.2-.3.3-.4.1-.1.3-.2.4-.3.2-.1.3-.1.5-.1h.2c.4 0 .7.1 1 .4.3.3.4.6.4.9v12.2c-.1.2-.3.5-.5.8z"/></svg>