<?xml version="1.0" encoding="utf-8"?>
<!-- Generator: Adobe Illustrator 18.1.0, SVG Export Plug-In . SVG Version: 6.00 Build 0)  -->
<svg version="1.1" id="Layer_1" xmlns="http://www.w3.org/2000/svg" xmlns:xlink="http://www.w3.org/1999/xlink" x="0px" y="0px"
	 viewBox="0 0 285.3 95.1" enable-background="new 0 0 285.3 95.1" xml:space="preserve">
<g>
	<g>
		<path fill="#00B3E6" d="M92.7,49.1c0.5-2.3,0.9-5.2,0.9-7.5c0-4.5-0.9-8.8-2.5-12.7c-2.8-6.7-7.9-12.2-14.4-15.4
			c-4-2-8.6-3.1-13.6-3.1c-0.2,0-0.4,0-0.6,0c-9.4,0.2-17.3,4.1-22.6,10.3c-3.7,4.3-6.2,9.8-7.1,15.8c-0.2,1.6-0.4,3.3-0.4,5.1v53.5
			h15.4c0,0,0-55.3,0-55.4c0-4.1,1.9-8,4.9-10.8c2.7-2.5,6.8-4.1,10.7-4.2c9.1,0.4,16.4,7.8,16.4,17c0,0.6,0,1.1-0.1,1.6
			c-0.1,1.2-0.3,2.4-0.7,3.5c-2.2,6.9-8.6,12-16.3,12c-0.6,0-1.2,0-1.8-0.1l-7.2,11.5c3.4,1.7,7.2,2.6,11.4,2.6
			c7,0,13.3-2.8,18.2-7.4c3.9-3.8,7-8.5,8.7-13.8l0.7-2.4c0,0,0-0.1,0-0.1c0,0,0,0,0,0C92.7,49.2,92.7,49.2,92.7,49.1z"/>
		<g>
			<path fill="#00B3E6" d="M37.4,10.6h-3.7c1.1,0.1,2.3,0.2,3.5,0.4L37.4,10.6z"/>
			<path fill="#00B3E6" d="M33.7,10.6c-3.1-0.3-6-0.2-8.7,0c-6.7,0.6-11.9,2.8-15.8,6l-9.1-4v60.3h15.9V38.1
				c0-8.2,3.5-13.5,12.4-12.5l1-1.6L37.2,11C36,10.8,34.8,10.7,33.7,10.6z"/>
		</g>
	</g>
	<g>
		<path fill="#138149" stroke="#138149" stroke-width="2.232" stroke-miterlimit="10" d="M126.5,73c-13.8,1.6-23.3-6.6-23.3-21.6
			V1.1h9.7v12.7h13.5v9.3h-13.5v28.3c0,10.5,6.3,13.1,13.7,12.7V73z"/>
		<path fill="#138149" stroke="#138149" stroke-width="2.232" stroke-miterlimit="10" d="M162.1,12.6v9.1
			c-11.4-1-18.6,4.5-18.6,15.9V73h-9.7V37.8C133.8,19.9,146.6,10.8,162.1,12.6z"/>
		<path fill="#138149" stroke="#138149" stroke-width="2.232" stroke-miterlimit="10" d="M219.7,54.6c-4.6,12.7-14.5,19.8-28.2,19.8
			c-17,0-30.4-13.6-30.4-30.9c0-17.1,13.3-31.2,29.8-31.2c12.9,0,25.4,9,28.9,24.4l-45.4,19.2c3.8,6,10.4,9.3,17.1,9.3
			c8.4,0,14.3-3.7,18.1-10.6H219.7z M171.3,47.3l36.6-15.4c-3.7-6.4-10.2-10.5-16.9-10.5c-9.4,0-20,8.3-20,21.9
			C171,44.8,171.1,46.1,171.3,47.3z"/>
		<path fill="#138149" stroke="#138149" stroke-width="2.232" stroke-miterlimit="10" d="M283.7,54.6c-4.6,12.7-14.5,19.8-28.2,19.8
			c-17,0-30.4-13.6-30.4-30.9c0-17.1,13.3-31.2,29.8-31.2c12.9,0,25.4,9,28.9,24.4l-45.4,19.2c3.8,6,10.4,9.3,17.1,9.3
			c8.4,0,14.3-3.7,18.1-10.6H283.7z M235.3,47.3l36.6-15.4c-3.7-6.4-10.2-10.5-16.9-10.5c-9.4,0-20,8.3-20,21.9
			C234.9,44.8,235,46.1,235.3,47.3z"/>
	</g>
</g>
</svg>
