<?xml version="1.0" encoding="utf-8"?>
<!-- Generator: Adobe Illustrator 18.0.0, SVG Export Plug-In . SVG Version: 6.00 Build 0)  -->
<!DOCTYPE svg PUBLIC "-//W3C//DTD SVG 1.1//EN" "http://www.w3.org/Graphics/SVG/1.1/DTD/svg11.dtd">
<svg version="1.1" id="Layer_1" xmlns="http://www.w3.org/2000/svg" xmlns:xlink="http://www.w3.org/1999/xlink" x="0px" y="0px"
	 viewBox="0 0 250 100" enable-background="new 0 0 250 100" xml:space="preserve">
<g>
	<g>
		<defs>
			<rect id="SVGID_1_" x="0.6" y="0.5" width="249.4" height="99.9"/>
		</defs>
		<clipPath id="SVGID_2_">
			<use xlink:href="#SVGID_1_"  overflow="visible"/>
		</clipPath>
		<g clip-path="url(#SVGID_2_)">
			<g>
				<path fill="#B3BE35" d="M36.3,20.9c0,0,1.4,3.6-0.1,8c-0.9,2.6-1.4,4.7,0,6.2c1.2,1.3,3.7,1.3,4.9,0c1.4-1.5,0.9-3.7,0-6.2
					c-1.5-4.4-0.1-8-0.1-8c2.1-6.7,9.1-10.4,15.7-8.3s10.2,9.2,8.2,16c-1.1,3.5-1.1,5.7,0,7.7c1.1,2.1,2.8,3.3,6.2,4.4
					c4,1.3,7,4.5,8.2,8.3c2.1,6.7-1.6,13.9-8.2,16c-6.6,2.1-13.6-1.6-15.7-8.3c0,0-1.4-3.6,0.1-8c0.9-2.6,1.4-4.7,0-6.2
					c-1.2-1.3-3.7-1.3-4.9,0c-1.4,1.5-0.9,3.7,0,6.2c1.5,4.4,0.1,8,0.1,8c-2,6.9-9.1,10.6-15.7,8.5c-6.6-2.1-10.2-9.2-8.2-16
					c1.1-3.5,1.1-5.7,0-7.7c-1.1-2.1-2.8-3.3-6.2-4.4c-6.6-2.1-10.2-9.2-8.2-16c2.1-6.7,9.1-10.4,15.7-8.3
					C32.2,13.9,35.1,17.1,36.3,20.9z"/>
				<g>
					<g>
						<g>
							<ellipse fill="#CBD82B" cx="83" cy="23.5" rx="11.3" ry="11.4"/>
						</g>
					</g>
				</g>
			</g>
		</g>
	</g>
	<g>
		<defs>
			<rect id="SVGID_3_" x="0.6" y="0.5" width="249.4" height="99.9"/>
		</defs>
		<clipPath id="SVGID_4_">
			<use xlink:href="#SVGID_3_"  overflow="visible"/>
		</clipPath>
		<g clip-path="url(#SVGID_4_)">
			<path fill="#8E9C9A" d="M29.5,88.9"/>
			<path fill="#8E9C9A" d="M64.7,82.9"/>
			<path fill="#8E9C9A" d="M231.7,88.9"/>
			<path fill="#8E9C9A" d="M229.3,88.9"/>
		</g>
	</g>
	<g>
		<defs>
			<rect id="SVGID_5_" x="0.6" y="0.5" width="249.4" height="99.9"/>
		</defs>
		<clipPath id="SVGID_6_">
			<use xlink:href="#SVGID_5_"  overflow="visible"/>
		</clipPath>
		<g clip-path="url(#SVGID_6_)">
			<path fill="#8E9C9A" d="M116.2,12.3v0.1l-1.2,4.1c0,0.1-0.1,0.1-0.1,0.2c-0.1,0-0.1,0.1-0.2,0.1h-0.2c-0.1,0-0.1,0-0.2-0.1
				c-0.1,0-0.1-0.1-0.1-0.2l-0.9-3.1l0,0l-0.8,3.1c0,0.1-0.1,0.1-0.1,0.2c-0.1,0-0.1,0.1-0.2,0.1H112c-0.1,0-0.1,0-0.2-0.1
				c-0.1,0-0.1-0.1-0.1-0.2l-1.2-4.1l0,0l0,0c0-0.1,0-0.2,0.1-0.2c0.1-0.1,0.1-0.1,0.2-0.1s0.1,0,0.2,0l0.1,0.1l0.1,0.1l1,3.3l0,0
				l0.9-3.3c0-0.1,0.1-0.1,0.1-0.2c0.1,0,0.1-0.1,0.2-0.1h0.1c0.1,0,0.1,0,0.2,0.1c0.1,0,0.1,0.1,0.1,0.2l0.9,3.3l0,0l1-3.3
				c0,0,0-0.1,0.1-0.1l0.1-0.1c0,0,0.1,0,0.2,0s0.2,0,0.2,0.1C116.2,12.1,116.2,12.2,116.2,12.3z"/>
			<path fill="#8E9C9A" d="M125.1,16.8c-0.1,0.1-0.1,0.1-0.2,0.1h-0.1c-0.1,0-0.2,0-0.2-0.1c-0.1-0.1-0.1-0.1-0.1-0.2v-1.7h-2.7v1.7
				c0,0.1,0,0.2-0.1,0.2c-0.1,0.1-0.1,0.1-0.2,0.1h-0.1c-0.1,0-0.2,0-0.2-0.1c-0.1-0.1-0.1-0.1-0.1-0.2v-2.7c0-0.2,0-0.5,0.1-0.7
				c0-0.2,0.1-0.4,0.3-0.6c0.1-0.2,0.3-0.3,0.6-0.4c0.3-0.1,0.6-0.2,1-0.2s0.8,0.1,1,0.2c0.3,0.1,0.5,0.3,0.6,0.4
				c0.1,0.2,0.2,0.4,0.3,0.6c0,0.2,0.1,0.5,0.1,0.7v2.7C125.2,16.7,125.1,16.7,125.1,16.8z M124.5,13.8c0-0.2,0-0.3-0.1-0.5
				c0-0.1-0.1-0.3-0.2-0.4c-0.1-0.1-0.2-0.2-0.4-0.3c-0.2-0.1-0.4-0.1-0.6-0.1c-0.3,0-0.5,0-0.6,0.1c-0.2,0.1-0.3,0.1-0.4,0.3
				c-0.1,0.1-0.2,0.2-0.2,0.4c0,0.1-0.1,0.3-0.1,0.5v0.4h2.7v-0.4H124.5z"/>
			<path fill="#8E9C9A" d="M134.7,15.4c0,0.2-0.1,0.5-0.2,0.7c-0.1,0.2-0.3,0.3-0.5,0.5c-0.2,0.1-0.4,0.2-0.7,0.3
				c-0.3,0.1-0.5,0.1-0.8,0.1s-0.5,0-0.8-0.1c-0.2-0.1-0.4-0.1-0.6-0.2c-0.2-0.1-0.3-0.2-0.4-0.3c-0.1-0.1-0.2-0.2-0.3-0.2
				c-0.1-0.1-0.1-0.1-0.1-0.2c0-0.1,0-0.1,0-0.2l0.1-0.1c0,0,0.1,0,0.2,0h0.1c0,0,0.1,0,0.1,0.1c0.1,0.1,0.2,0.1,0.3,0.2
				c0.1,0.1,0.2,0.1,0.3,0.2s0.3,0.1,0.5,0.1s0.4,0.1,0.6,0.1c0.2,0,0.3,0,0.5,0s0.3-0.1,0.5-0.1c0.1-0.1,0.3-0.1,0.4-0.3
				c0.1-0.1,0.1-0.2,0.1-0.4s0-0.3-0.1-0.5c-0.1-0.1-0.2-0.2-0.4-0.2c-0.1,0-0.3-0.1-0.5-0.1s-0.3,0-0.5,0h-0.7
				c-0.2,0-0.3,0-0.5-0.1c-0.2,0-0.3-0.1-0.4-0.2c-0.1-0.1-0.2-0.2-0.3-0.4s-0.1-0.3-0.1-0.6s0.1-0.5,0.2-0.7
				c0.1-0.2,0.3-0.3,0.5-0.5c0.2-0.1,0.4-0.2,0.6-0.3c0.2-0.1,0.5-0.1,0.7-0.1s0.5,0,0.7,0.1c0.2,0,0.3,0.1,0.5,0.1
				c0.1,0.1,0.2,0.1,0.3,0.2c0.1,0.1,0.2,0.1,0.2,0.1c0.1,0.1,0.1,0.2,0.1,0.3s0,0.2-0.1,0.2c-0.1,0.1-0.1,0.1-0.2,0.1
				c-0.1,0-0.1,0-0.2-0.1c-0.1-0.1-0.2-0.1-0.3-0.2c-0.1,0-0.2-0.1-0.3-0.1s-0.2-0.1-0.3-0.1s-0.2,0-0.4,0c-0.1,0-0.3,0-0.5,0
				s-0.3,0.1-0.4,0.1c-0.1,0.1-0.2,0.1-0.3,0.2c-0.1,0.1-0.1,0.2-0.1,0.4c0,0.4,0.3,0.5,0.8,0.5h0.6c0.3,0,0.5,0,0.8,0.1
				c0.3,0,0.5,0.1,0.7,0.2c0.2,0.1,0.4,0.3,0.5,0.5C134.6,14.9,134.7,15.2,134.7,15.4z"/>
			<path fill="#8E9C9A" d="M143.9,16.8c-0.1,0.1-0.1,0.1-0.2,0.1h-0.1c-0.1,0-0.2,0-0.2-0.1c-0.1-0.1-0.1-0.1-0.1-0.2v-1.9h-2.8v1.9
				c0,0.1,0,0.2-0.1,0.2c-0.1,0.1-0.1,0.1-0.2,0.1h-0.1c-0.1,0-0.2,0-0.2-0.1c-0.1-0.1-0.1-0.1-0.1-0.2v-4.2c0-0.1,0-0.2,0.1-0.2
				C140,12,140,12,140.1,12h0.1c0.1,0,0.2,0,0.2,0.1c0.1,0.1,0.1,0.1,0.1,0.2V14h2.8v-1.6c0-0.1,0-0.2,0.1-0.2
				c0.1-0.1,0.1-0.1,0.2-0.1h0.1c0.1,0,0.2,0,0.2,0.1c0.1,0.1,0.1,0.1,0.1,0.2v4.2C143.9,16.7,143.9,16.7,143.9,16.8z"/>
			<path fill="#8E9C9A" d="M150.1,16.8c-0.1,0.1-0.1,0.1-0.2,0.1h-0.1c-0.1,0-0.2,0-0.2-0.1c-0.1-0.1-0.1-0.1-0.1-0.2v-4.2
				c0-0.1,0-0.2,0.1-0.2c0.1-0.1,0.1-0.1,0.2-0.1h0.1c0.1,0,0.2,0,0.2,0.1c0.1,0.1,0.1,0.1,0.1,0.2v4.2
				C150.2,16.7,150.1,16.7,150.1,16.8z"/>
			<path fill="#8E9C9A" d="M159.7,16.8c-0.1,0.1-0.1,0.1-0.2,0.1h-0.1c-0.1,0-0.2,0-0.3-0.1l-2.7-3.6l0,0v3.4c0,0.1,0,0.2-0.1,0.2
				c-0.1,0.1-0.1,0.1-0.2,0.1H156c-0.1,0-0.2,0-0.2-0.1c-0.1-0.1-0.1-0.1-0.1-0.2v-4.2c0-0.1,0-0.2,0.1-0.2c0.1-0.1,0.1-0.1,0.2-0.1
				h0.2h0.1l0.1,0.1l2.7,3.5l0,0v-3.3c0-0.1,0-0.2,0.1-0.2c0.1-0.1,0.1-0.1,0.2-0.1h0.1c0.1,0,0.2,0,0.2,0.1
				c0.1,0.1,0.1,0.1,0.1,0.2v4.2C159.9,16.6,159.8,16.7,159.7,16.8z"/>
			<path fill="#8E9C9A" d="M169.6,16.1c-0.1,0.2-0.3,0.3-0.4,0.5c-0.2,0.1-0.4,0.2-0.7,0.3c-0.3,0.1-0.5,0.1-0.8,0.1
				s-0.6-0.1-0.9-0.2c-0.3-0.1-0.6-0.3-0.8-0.5s-0.4-0.5-0.6-0.8c-0.1-0.3-0.2-0.7-0.2-1.1c0-0.3,0.1-0.7,0.2-1
				c0.1-0.3,0.3-0.6,0.5-0.8s0.5-0.4,0.8-0.5s0.7-0.2,1-0.2s0.5,0,0.7,0.1s0.4,0.1,0.6,0.2c0.2,0.1,0.3,0.2,0.4,0.3
				c0.1,0.1,0.1,0.2,0.1,0.3s0,0.2-0.1,0.2c-0.1,0.1-0.1,0.1-0.2,0.1c-0.1,0-0.2,0-0.2-0.1c-0.1-0.1-0.3-0.2-0.5-0.3
				s-0.4-0.1-0.7-0.1s-0.6,0-0.8,0.1s-0.4,0.2-0.6,0.4c-0.2,0.2-0.3,0.4-0.4,0.6c-0.1,0.2-0.1,0.5-0.1,0.7s0,0.5,0.1,0.7
				s0.2,0.4,0.4,0.6c0.2,0.2,0.4,0.3,0.6,0.4c0.2,0.1,0.5,0.1,0.8,0.1c0.2,0,0.4,0,0.6-0.1c0.2,0,0.3-0.1,0.4-0.2
				c0.1-0.1,0.2-0.2,0.3-0.3s0.1-0.2,0.1-0.3v-0.5H168c-0.1,0-0.2,0-0.2-0.1c-0.1-0.1-0.1-0.1-0.1-0.2c0-0.1,0-0.2,0.1-0.2
				c0.1-0.1,0.1-0.1,0.2-0.1h1.5c0.1,0,0.2,0,0.2,0.1c0.1,0.1,0.1,0.1,0.1,0.2v0.9C169.8,15.7,169.7,15.9,169.6,16.1z"/>
			<path fill="#8E9C9A" d="M178.5,12.3c0,0.1,0,0.2-0.1,0.2c-0.1,0.1-0.1,0.1-0.2,0.1h-1.3v3.8c0,0.1,0,0.2-0.1,0.2
				c-0.1,0.1-0.1,0.1-0.2,0.1h-0.1c-0.1,0-0.2,0-0.2-0.1c-0.1-0.1-0.1-0.1-0.1-0.2v-3.8h-1.3c-0.1,0-0.2,0-0.2-0.1
				c-0.1-0.1-0.1-0.1-0.1-0.2c0-0.1,0-0.2,0.1-0.2c0.1-0.1,0.1-0.1,0.2-0.1h3.3c0.1,0,0.2,0,0.2,0.1
				C178.4,12.1,178.5,12.2,178.5,12.3z"/>
			<path fill="#8E9C9A" d="M188.1,14.4c0,0.4-0.1,0.7-0.2,1c-0.1,0.3-0.3,0.6-0.6,0.8c-0.2,0.2-0.5,0.4-0.8,0.5s-0.6,0.2-1,0.2
				c-0.3,0-0.7-0.1-1-0.2s-0.6-0.3-0.8-0.5s-0.4-0.5-0.6-0.8c-0.1-0.3-0.2-0.6-0.2-1s0.1-0.7,0.2-1c0.1-0.3,0.3-0.6,0.6-0.8
				c0.2-0.2,0.5-0.4,0.8-0.5s0.6-0.2,1-0.2c0.3,0,0.7,0.1,1,0.2c0.3,0.1,0.6,0.3,0.8,0.5s0.4,0.5,0.6,0.8
				C188,13.7,188.1,14.1,188.1,14.4z M187.4,14.4c0-0.2,0-0.5-0.1-0.7s-0.2-0.4-0.4-0.6c-0.2-0.2-0.4-0.3-0.6-0.4
				c-0.2-0.1-0.5-0.1-0.7-0.1c-0.3,0-0.5,0-0.7,0.1s-0.4,0.2-0.6,0.4c-0.2,0.2-0.3,0.4-0.4,0.6c-0.1,0.2-0.1,0.5-0.1,0.7
				s0,0.5,0.1,0.7s0.2,0.4,0.4,0.6c0.2,0.2,0.4,0.3,0.6,0.4c0.2,0.1,0.5,0.1,0.7,0.1c0.3,0,0.5,0,0.7-0.1c0.2-0.1,0.4-0.2,0.6-0.4
				c0.2-0.2,0.3-0.4,0.4-0.6C187.4,14.9,187.4,14.7,187.4,14.4z"/>
			<path fill="#8E9C9A" d="M197.4,16.8c-0.1,0.1-0.1,0.1-0.2,0.1h-0.1c-0.1,0-0.2,0-0.3-0.1l-2.7-3.6l0,0v3.4c0,0.1,0,0.2-0.1,0.2
				c-0.1,0.1-0.1,0.1-0.2,0.1h-0.1c-0.1,0-0.2,0-0.2-0.1c-0.1-0.1-0.1-0.1-0.1-0.2v-4.2c0-0.1,0-0.2,0.1-0.2
				c0.1-0.1,0.1-0.1,0.2-0.1h0.2h0.1l0.1,0.1l2.7,3.5l0,0v-3.3c0-0.1,0-0.2,0.1-0.2C197,12,197,12,197.1,12h0.1c0.1,0,0.2,0,0.2,0.1
				c0.1,0.1,0.1,0.1,0.1,0.2v4.2C197.5,16.6,197.5,16.7,197.4,16.8z"/>
			<path fill="#8E9C9A" d="M211,16.8c-0.1,0.1-0.1,0.1-0.2,0.1h-0.1c-0.1,0-0.2,0-0.2-0.1c-0.1-0.1-0.1-0.1-0.1-0.2v-1.7h-2.7v1.7
				c0,0.1,0,0.2-0.1,0.2c-0.1,0.1-0.1,0.1-0.2,0.1h-0.1c-0.1,0-0.2,0-0.2-0.1c-0.1-0.1-0.1-0.1-0.1-0.2v-2.7c0-0.2,0-0.5,0.1-0.7
				c0-0.2,0.1-0.4,0.3-0.6c0.1-0.2,0.3-0.3,0.6-0.4c0.3-0.1,0.6-0.2,1-0.2s0.8,0.1,1,0.2c0.3,0.1,0.5,0.3,0.6,0.4
				c0.1,0.2,0.2,0.4,0.3,0.6c0,0.2,0.1,0.5,0.1,0.7v2.7C211,16.7,211,16.7,211,16.8z M210.4,13.8c0-0.2,0-0.3-0.1-0.5
				c0-0.1-0.1-0.3-0.2-0.4c-0.1-0.1-0.2-0.2-0.4-0.3s-0.4-0.1-0.6-0.1c-0.3,0-0.5,0-0.6,0.1c-0.2,0.1-0.3,0.1-0.4,0.3
				c-0.1,0.1-0.2,0.2-0.2,0.4c0,0.1-0.1,0.3-0.1,0.5v0.4h2.7L210.4,13.8L210.4,13.8z"/>
			<path fill="#8E9C9A" d="M220.7,13.4c0,0.3,0,0.5-0.1,0.6c-0.1,0.2-0.2,0.3-0.3,0.4c-0.1,0.1-0.2,0.2-0.4,0.2
				c-0.1,0-0.2,0.1-0.3,0.1l0.8,1.6c0,0,0,0.1,0,0.2s0,0.2-0.1,0.2c-0.1,0.1-0.1,0.1-0.2,0.1c-0.1,0-0.1,0-0.2-0.1
				c-0.1,0-0.1-0.1-0.1-0.1l-0.9-1.9h-1.7v1.7c0,0.1,0,0.2-0.1,0.2c-0.1,0.1-0.1,0.1-0.2,0.1h-0.1c-0.1,0-0.2,0-0.2-0.1
				c-0.1-0.1-0.1-0.1-0.1-0.2v-4.2c0-0.1,0-0.2,0.1-0.2c0.1-0.1,0.1-0.1,0.2-0.1h2.4c0.2,0,0.4,0,0.5,0.1c0.2,0.1,0.3,0.1,0.5,0.2
				c0.1,0.1,0.2,0.3,0.3,0.4C220.7,12.9,220.7,13.1,220.7,13.4z M220,13.4c0-0.1,0-0.2-0.1-0.3c0-0.1-0.1-0.2-0.2-0.2
				c-0.1-0.1-0.2-0.1-0.3-0.1s-0.2,0-0.3,0H217v1.3h2.1c0.3,0,0.4-0.1,0.6-0.2C220,13.8,220,13.6,220,13.4z"/>
			<path fill="#8E9C9A" d="M229.7,16.5c0,0.1,0,0.2-0.1,0.2c-0.1,0.1-0.1,0.1-0.2,0.1h-2.1c-0.2,0-0.3,0-0.5-0.1s-0.3-0.1-0.4-0.3
				c-0.1-0.1-0.2-0.3-0.3-0.4c-0.1-0.2-0.1-0.4-0.1-0.6c0-0.1,0-0.2,0-0.3s0.1-0.2,0.1-0.3s0.1-0.2,0.2-0.2c0.1-0.1,0.1-0.1,0.2-0.2
				c-0.1-0.1-0.1-0.1-0.2-0.2c-0.1-0.1-0.1-0.1-0.2-0.2c0-0.1-0.1-0.2-0.1-0.3s0-0.2,0-0.3c0-0.2,0-0.4,0.1-0.6
				c0.1-0.2,0.2-0.3,0.3-0.4c0.1-0.1,0.3-0.2,0.4-0.3c0.2-0.1,0.3-0.1,0.5-0.1h2.1c0.1,0,0.2,0,0.2,0.1c0.1,0.1,0.1,0.1,0.1,0.2
				c0,0.1,0,0.2-0.1,0.2c-0.1,0.1-0.2,0.1-0.2,0.1h-2.1c-0.1,0-0.2,0-0.3,0.1c-0.1,0-0.2,0.1-0.2,0.2c-0.1,0.1-0.1,0.1-0.1,0.2
				c0,0.1,0,0.2,0,0.2c0,0.1,0,0.2,0,0.2c0,0.1,0.1,0.2,0.1,0.2c0.1,0.1,0.1,0.1,0.2,0.2c0.1,0,0.2,0.1,0.3,0.1h1.8
				c0.1,0,0.2,0,0.3,0.1s0.1,0.2,0.1,0.2c0,0.1,0,0.2-0.1,0.2c-0.1,0.1-0.2,0.1-0.3,0.1h-1.8c-0.1,0-0.2,0-0.3,0.1
				c-0.1,0-0.2,0.1-0.2,0.2c-0.1,0.1-0.1,0.1-0.1,0.2c0,0.1,0,0.2,0,0.2c0,0.1,0,0.2,0,0.2c0,0.1,0.1,0.2,0.1,0.2
				c0.1,0.1,0.1,0.1,0.2,0.2c0.1,0,0.2,0.1,0.3,0.1h2.1c0.1,0,0.2,0,0.2,0.1C229.7,16.3,229.7,16.4,229.7,16.5z"/>
			<path fill="#8E9C9A" d="M238.7,16.8c-0.1,0.1-0.1,0.1-0.2,0.1h-0.1c-0.1,0-0.2,0-0.2-0.1c-0.1-0.1-0.1-0.1-0.1-0.2v-1.7h-2.7v1.7
				c0,0.1,0,0.2-0.1,0.2c-0.1,0.1-0.1,0.1-0.2,0.1H235c-0.1,0-0.2,0-0.2-0.1c-0.1-0.1-0.1-0.1-0.1-0.2v-2.7c0-0.2,0-0.5,0.1-0.7
				c0-0.2,0.1-0.4,0.3-0.6c0.1-0.2,0.3-0.3,0.6-0.4c0.3-0.1,0.6-0.2,1-0.2s0.8,0.1,1,0.2c0.3,0.1,0.5,0.3,0.6,0.4
				c0.1,0.2,0.2,0.4,0.3,0.6c0,0.2,0.1,0.5,0.1,0.7v2.7C238.8,16.7,238.7,16.7,238.7,16.8z M238.1,13.8c0-0.2,0-0.3-0.1-0.5
				c0-0.1-0.1-0.3-0.2-0.4c-0.1-0.1-0.2-0.2-0.4-0.3s-0.4-0.1-0.6-0.1c-0.3,0-0.5,0-0.6,0.1c-0.2,0.1-0.3,0.1-0.4,0.3
				c-0.1,0.1-0.2,0.2-0.2,0.4c0,0.1-0.1,0.3-0.1,0.5v0.4h2.7L238.1,13.8L238.1,13.8z"/>
			<path fill="#8E9C9A" d="M126.2,49.4c-1.8,0-3.3-0.7-4.4-1.7c-1.1,1.1-2.6,1.7-4.4,1.7c-3.8,0-6.3-2.9-6.3-6.6V23.9
				c0-1.1,0.8-1.9,1.9-1.9s1.9,0.8,1.9,1.9v18.9c0,1.7,0.9,2.8,2.5,2.8s2.5-1.2,2.5-2.8V23.9c0-1.1,0.8-1.9,1.9-1.9s1.9,0.8,1.9,1.9
				v18.9c0,1.7,0.9,2.8,2.5,2.8c1.7,0,2.5-1.2,2.5-2.8V23.9c0-1.1,0.8-1.9,1.9-1.9c1.1,0,1.9,0.8,1.9,1.9v18.9
				C132.5,46.5,130,49.4,126.2,49.4z"/>
			<path fill="#8E9C9A" d="M144.8,49.4c-3.8,0-6.3-2.9-6.3-6.6V28.6c0-3.7,2.5-6.6,6.3-6.6c3.7,0,6.2,2.9,6.2,6.6v14.2
				C151.1,46.6,148.7,49.4,144.8,49.4z M147.3,28.6c0-1.7-0.8-2.8-2.5-2.8c-1.8,0-2.5,1.1-2.5,2.8v14.2c0,1.7,0.8,2.8,2.5,2.8
				s2.5-1.1,2.5-2.8V28.6z"/>
			<path fill="#8E9C9A" d="M176.5,49.4c-1.1,0-1.9-0.8-1.9-1.9V28.6c0-1.7-0.8-2.8-2.5-2.8s-2.5,1.1-2.5,2.8v18.9
				c0,1.1-0.8,1.9-1.9,1.9c-1.1,0-1.9-0.8-1.9-1.9V28.6c0-1.7-0.8-2.8-2.5-2.8c-1.8,0-2.5,1.1-2.5,2.8v18.9c0,1.1-0.8,1.9-1.9,1.9
				c-1.1,0-1.9-0.8-1.9-1.9V28.6c0-3.8,2.5-6.6,6.3-6.6c1.8,0,3.3,0.7,4.4,1.7c1.1-1.1,2.6-1.7,4.4-1.7c3.8,0,6.3,2.8,6.3,6.6v18.9
				C178.4,48.6,177.6,49.4,176.5,49.4z"/>
			<path fill="#8E9C9A" d="M193.5,25.8H189c-0.6,0-0.6,0.9-0.6,1.3v8.8h5.2c1.1,0,1.9,0.8,1.9,1.9c0,1.1-0.8,1.9-1.9,1.9h-5.2v4.5
				c0,0.4,0,1.3,0.7,1.3h4.5c1.1,0,1.9,0.8,1.9,1.9c0,1.1-0.8,1.9-1.9,1.9H189c-2.8,0-4.5-2.4-4.5-5.1V27.1c0-2.7,1.7-5.1,4.5-5.1
				h4.4c1.1,0,1.9,0.8,1.9,1.9C195.4,25,194.6,25.8,193.5,25.8z"/>
			<path fill="#8E9C9A" d="M211.8,49.4c-1.1,0-1.9-0.8-1.9-1.9V28.6c0-1.7-0.8-2.8-2.5-2.8c-1.8,0-2.5,1.1-2.5,2.8v18.9
				c0,1.1-0.8,1.9-1.9,1.9c-1.1,0-1.9-0.8-1.9-1.9V28.6v-4.7c0-1.1,0.8-1.9,1.9-1.9c0.6,0,1.2,0.3,1.5,0.7c0.8-0.4,1.8-0.7,2.9-0.7
				c3.7,0,6.2,2.8,6.2,6.6v18.9C213.7,48.6,212.9,49.4,211.8,49.4z"/>
			<path fill="#8E9C9A" d="M221.7,27.3c-0.2,0.8-0.9,1.4-1.8,1.4c-1,0-1.9-0.8-1.9-1.9c0-0.9,0.8-3.4,1.1-4.4
				c0.2-0.9,0.9-1.4,1.8-1.4c1,0,1.9,0.7,1.9,1.8C222.8,23.7,222,26.3,221.7,27.3z"/>
			<path fill="#8E9C9A" d="M232.5,49.4c-3.7,0-6.3-2.8-6.3-6.6c0-1.3,0.9-1.9,1.8-1.9c0.9,0,1.9,0.6,1.9,1.9c0,2.8,2.2,2.8,2.5,2.8
				l0,0c0.3,0,2.5,0,2.5-2.8v-4.1c0-0.5,0-1.1-0.6-1.3h-3.7c-2.8,0-4.5-2.3-4.5-5.1v-3.6c0-3.9,2.6-6.6,6.3-6.6s6.2,2.7,6.2,6.6
				c0,1.3-0.9,1.9-1.9,1.9c-0.9,0-1.9-0.7-1.9-1.9c0-1.8-0.9-2.8-2.5-2.8c0,0-0.2,0-0.4,0c-1.5,0.3-2.1,1.2-2.1,2.8v3.6
				c0,0.6,0,1.1,0.7,1.3h3.6c2.8,0,4.5,2.4,4.5,5.1v4.1C238.7,46.7,236.2,49.4,232.5,49.4z"/>
			<path fill="#8E9C9A" d="M120.3,55.6c0,0.1,0,0.3-0.1,0.4c-0.1,0.1-0.1,0.3-0.2,0.4c-0.1,0.1-0.2,0.2-0.3,0.2
				c-0.1,0.1-0.3,0.1-0.4,0.1h-4.6c-0.2,0-0.4,0-0.5,0.1s-0.3,0.2-0.4,0.3s-0.2,0.2-0.2,0.4c-0.1,0.1-0.1,0.3-0.1,0.4
				c0,0.1,0,1.2,0,1.2h4.3c0.4,0,0.7,0.1,0.9,0.3c0.2,0.2,0.3,0.5,0.3,0.8s-0.1,0.5-0.3,0.8c-0.2,0.2-0.5,0.3-0.9,0.3h-4.3V65
				c0,0.3-0.1,0.5-0.3,0.7c-0.2,0.2-0.4,0.3-0.7,0.3h-0.1c-0.3,0-0.5-0.1-0.7-0.3c-0.2-0.2-0.3-0.4-0.3-0.7c0,0,0-6.7,0-7
				c0-0.5,0.1-1,0.3-1.4c0.2-0.4,0.4-0.8,0.7-1c0.3-0.3,0.7-0.5,1-0.6c0.4-0.1,0.8-0.2,1.2-0.2h4.6c0.3,0,0.5,0.1,0.7,0.3
				C120.1,55.1,120.2,55.3,120.3,55.6z"/>
			<path fill="#8E9C9A" d="M133.9,60.2c0,0.9-0.2,1.6-0.5,2.4c-0.3,0.7-0.7,1.3-1.3,1.8c-0.5,0.5-1.2,0.9-1.9,1.2
				c-0.7,0.3-1.4,0.4-2.2,0.4s-1.5-0.1-2.2-0.4s-1.3-0.7-1.8-1.2c-0.5-0.5-1-1.1-1.3-1.8s-0.5-1.5-0.5-2.4s0.2-1.7,0.5-2.4
				s0.7-1.3,1.3-1.8c0.5-0.5,1.2-0.9,1.8-1.2c0.7-0.3,1.4-0.4,2.2-0.4c0.8,0,1.5,0.1,2.2,0.4c0.7,0.3,1.3,0.7,1.9,1.2
				c0.5,0.5,1,1.1,1.3,1.8C133.8,58.5,133.9,59.3,133.9,60.2z M131.8,60.2c0-0.5-0.1-1-0.3-1.4s-0.4-0.8-0.8-1.1
				c-0.3-0.3-0.7-0.6-1.2-0.8c-0.4-0.2-0.9-0.3-1.5-0.3c-0.5,0-1,0.1-1.5,0.3c-0.4,0.2-0.8,0.5-1.2,0.8c-0.3,0.3-0.6,0.7-0.8,1.1
				c-0.2,0.4-0.3,0.9-0.3,1.4s0.1,0.9,0.3,1.4c0.2,0.4,0.4,0.8,0.8,1.2c0.3,0.3,0.7,0.6,1.2,0.8c0.4,0.2,0.9,0.3,1.5,0.3
				c0.5,0,1-0.1,1.5-0.3c0.4-0.2,0.8-0.5,1.2-0.8c0.3-0.3,0.6-0.7,0.8-1.2S131.8,60.6,131.8,60.2z"/>
			<path fill="#8E9C9A" d="M147.5,63.1c-0.1,0.5-0.4,1-0.7,1.4c-0.4,0.4-0.8,0.8-1.5,1c-0.6,0.3-1.4,0.4-2.5,0.4
				c-1,0-1.8-0.1-2.5-0.4c-0.6-0.3-1.1-0.6-1.5-1s-0.6-0.9-0.7-1.4c-0.1-0.5-0.2-1.1-0.2-1.6v-5.9c0-0.1,0-0.3,0.1-0.4
				c0.1-0.1,0.1-0.2,0.2-0.3c0.1-0.1,0.2-0.2,0.3-0.2c0.1-0.1,0.2-0.1,0.4-0.1h0.1c0.1,0,0.2,0,0.4,0.1c0.1,0.1,0.2,0.1,0.3,0.2
				c0.1,0.1,0.2,0.2,0.2,0.3c0.1,0.1,0.1,0.3,0.1,0.4v5.9c0,0.3,0,0.6,0.1,0.9c0.1,0.3,0.2,0.5,0.4,0.7s0.5,0.4,0.8,0.5
				s0.8,0.2,1.3,0.2s1-0.1,1.3-0.2c0.3-0.1,0.6-0.3,0.8-0.5s0.3-0.5,0.4-0.7c0.1-0.3,0.1-0.6,0.1-0.9v-5.9c0-0.1,0-0.3,0.1-0.4
				c0.1-0.1,0.1-0.2,0.2-0.3c0.1-0.1,0.2-0.2,0.3-0.2c0.1-0.1,0.2-0.1,0.4-0.1h0.1c0.1,0,0.2,0,0.4,0.1c0.1,0.1,0.2,0.1,0.3,0.2
				c0.1,0.1,0.2,0.2,0.2,0.3c0.1,0.1,0.1,0.3,0.1,0.4v5.9C147.7,62,147.6,62.6,147.5,63.1z"/>
			<path fill="#8E9C9A" d="M161.7,65.6c-0.2,0.2-0.5,0.3-0.8,0.3h-0.3c-0.3,0-0.6-0.1-0.8-0.4c-0.5-0.6-0.9-1.2-1.4-1.8
				c-0.4-0.6-0.9-1.1-1.3-1.7c-0.4-0.6-0.9-1.1-1.3-1.7c-0.4-0.6-0.9-1.2-1.4-1.8v6.4c0,0.3-0.1,0.5-0.3,0.7s-0.4,0.3-0.7,0.3h-0.1
				c-0.3,0-0.5-0.1-0.7-0.3c-0.2-0.2-0.3-0.4-0.3-0.7v-9.1c0-0.3,0.1-0.6,0.3-0.8s0.5-0.3,0.8-0.3h0.4c0.2,0,0.3,0,0.5,0.1
				s0.3,0.2,0.4,0.3c0.4,0.6,0.9,1.2,1.3,1.7c0.4,0.6,0.9,1.1,1.3,1.7c0.4,0.6,0.9,1.1,1.3,1.7c0.4,0.6,0.9,1.2,1.4,1.8v-6.3
				c0-0.1,0-0.3,0.1-0.4c0.1-0.1,0.1-0.2,0.2-0.3c0.1-0.1,0.2-0.2,0.3-0.2c0.1-0.1,0.2-0.1,0.4-0.1h0.1c0.3,0,0.5,0.1,0.7,0.3
				s0.3,0.4,0.3,0.7v9.2C162.1,65.2,161.9,65.4,161.7,65.6z"/>
			<path fill="#8E9C9A" d="M177.3,60.2c0,0.8-0.1,1.5-0.4,2.2c-0.3,0.7-0.6,1.3-1.1,1.8c-0.5,0.5-1,0.9-1.7,1.2
				c-0.7,0.3-1.4,0.4-2.1,0.4h-4c-0.1,0-0.3,0-0.4-0.1c-0.1-0.1-0.2-0.1-0.3-0.2s-0.2-0.2-0.2-0.3c-0.1-0.1-0.1-0.3-0.1-0.4v-8.9
				c0-0.3,0.1-0.6,0.3-0.8s0.5-0.3,0.7-0.3h4c1,0,1.8,0.2,2.4,0.5c0.7,0.3,1.2,0.8,1.7,1.3c0.4,0.5,0.7,1.1,0.9,1.8
				C177.2,58.9,177.3,59.5,177.3,60.2z M175.2,60.2c0-0.5-0.1-1-0.2-1.4c-0.2-0.4-0.4-0.8-0.7-1.1s-0.6-0.5-1-0.7s-0.8-0.2-1.3-0.2
				h-2.9v6.8h2.9c0.6,0,1.1-0.1,1.5-0.3s0.7-0.5,1-0.8s0.4-0.7,0.6-1.1C175.1,60.9,175.2,60.5,175.2,60.2z"/>
			<path fill="#8E9C9A" d="M190.6,65.7c-0.2,0.2-0.4,0.3-0.7,0.3h-0.1c-0.3,0-0.5-0.1-0.7-0.3c-0.2-0.2-0.3-0.4-0.3-0.7v-3.3h-5.1
				V65c0,0.3-0.1,0.5-0.3,0.7S183,66,182.7,66h-0.1c-0.3,0-0.5-0.1-0.7-0.3c-0.2-0.2-0.3-0.4-0.3-0.7v-6c0-0.3,0-0.7,0.1-1.1
				c0-0.4,0.1-0.7,0.3-1c0.1-0.3,0.3-0.6,0.5-0.9c0.2-0.3,0.5-0.5,0.8-0.7s0.8-0.4,1.3-0.5s1.1-0.2,1.8-0.2s1.3,0.1,1.7,0.2
				c0.5,0.1,0.9,0.3,1.3,0.5c0.3,0.2,0.6,0.5,0.8,0.7c0.2,0.3,0.4,0.6,0.5,0.9c0.1,0.3,0.2,0.7,0.3,1c0,0.4,0.1,0.7,0.1,1.1v6
				C190.9,65.2,190.8,65.5,190.6,65.7z M188.8,58.8c0-0.3,0-0.6-0.1-0.9c-0.1-0.3-0.2-0.5-0.4-0.7s-0.5-0.4-0.8-0.5
				s-0.7-0.2-1.2-0.2s-0.9,0.1-1.2,0.2c-0.3,0.1-0.6,0.3-0.8,0.5s-0.3,0.4-0.4,0.7c-0.1,0.3-0.1,0.6-0.1,0.9v0.6h5.1v-0.6H188.8z"/>
			<path fill="#8E9C9A" d="M203.5,55.7c0,0.3-0.1,0.5-0.3,0.8c-0.2,0.2-0.5,0.3-0.7,0.3H200V65c0,0.3-0.1,0.5-0.3,0.7
				S199.3,66,199,66h-0.1c-0.3,0-0.5-0.1-0.7-0.3c-0.2-0.2-0.3-0.4-0.3-0.7v-8.1h-2.5c-0.3,0-0.5-0.1-0.7-0.3s-0.3-0.5-0.3-0.8
				c0-0.1,0-0.3,0.1-0.4c0.1-0.1,0.1-0.2,0.2-0.3c0.1-0.1,0.2-0.2,0.3-0.2c0.1-0.1,0.3-0.1,0.4-0.1h7.2c0.1,0,0.3,0,0.4,0.1
				c0.1,0.1,0.2,0.1,0.3,0.2c0.1,0.1,0.2,0.2,0.2,0.3C203.5,55.4,203.5,55.6,203.5,55.7z"/>
			<path fill="#8E9C9A" d="M209.2,65.7c-0.2,0.2-0.4,0.3-0.7,0.3h-0.1c-0.3,0-0.5-0.1-0.7-0.3c-0.2-0.2-0.3-0.4-0.3-0.7v-9.2
				c0-0.1,0-0.3,0.1-0.4c0.1-0.1,0.1-0.2,0.2-0.3c0.1-0.1,0.2-0.2,0.3-0.2c0.1-0.1,0.2-0.1,0.4-0.1h0.1c0.3,0,0.5,0.1,0.7,0.3
				s0.3,0.4,0.3,0.7V65C209.5,65.2,209.4,65.5,209.2,65.7z"/>
			<path fill="#8E9C9A" d="M225.3,60.2c0,0.9-0.2,1.6-0.5,2.4c-0.3,0.7-0.7,1.3-1.3,1.8c-0.5,0.5-1.2,0.9-1.9,1.2
				c-0.7,0.3-1.4,0.4-2.2,0.4s-1.5-0.1-2.2-0.4s-1.3-0.7-1.9-1.2c-0.5-0.5-1-1.1-1.3-1.8s-0.5-1.5-0.5-2.4s0.2-1.7,0.5-2.4
				s0.7-1.3,1.3-1.8c0.5-0.5,1.2-0.9,1.9-1.2s1.4-0.4,2.2-0.4s1.5,0.1,2.2,0.4c0.7,0.3,1.3,0.7,1.9,1.2c0.5,0.5,1,1.1,1.3,1.8
				C225.1,58.5,225.3,59.3,225.3,60.2z M223.2,60.2c0-0.5-0.1-1-0.3-1.4s-0.4-0.8-0.8-1.1c-0.3-0.3-0.7-0.6-1.2-0.8
				c-0.4-0.2-0.9-0.3-1.5-0.3c-0.5,0-1,0.1-1.5,0.3c-0.4,0.2-0.8,0.5-1.2,0.8c-0.3,0.3-0.6,0.7-0.8,1.1c-0.2,0.4-0.3,0.9-0.3,1.4
				s0.1,0.9,0.3,1.4c0.2,0.4,0.4,0.8,0.8,1.2c0.3,0.3,0.7,0.6,1.2,0.8c0.4,0.2,0.9,0.3,1.5,0.3c0.5,0,1-0.1,1.5-0.3
				c0.4-0.2,0.8-0.5,1.2-0.8c0.3-0.3,0.6-0.7,0.8-1.2C223.1,61.1,223.2,60.6,223.2,60.2z"/>
			<path fill="#8E9C9A" d="M238.5,65.6c-0.2,0.2-0.5,0.3-0.8,0.3h-0.3c-0.3,0-0.6-0.1-0.8-0.4c-0.5-0.6-0.9-1.2-1.4-1.8
				c-0.4-0.6-0.9-1.1-1.3-1.7c-0.4-0.6-0.9-1.1-1.3-1.7c-0.4-0.6-0.9-1.2-1.4-1.8v6.4c0,0.3-0.1,0.5-0.3,0.7s-0.4,0.3-0.7,0.3h-0.1
				c-0.3,0-0.5-0.1-0.7-0.3c-0.2-0.2-0.3-0.4-0.3-0.7v-9.1c0-0.3,0.1-0.6,0.3-0.8s0.5-0.3,0.8-0.3h0.4c0.2,0,0.3,0,0.5,0.1
				c0.1,0.1,0.3,0.2,0.4,0.3c0.4,0.6,0.9,1.2,1.3,1.7c0.4,0.6,0.9,1.1,1.3,1.7c0.4,0.6,0.9,1.1,1.3,1.7c0.4,0.6,0.9,1.2,1.4,1.8
				v-6.3c0-0.1,0-0.3,0.1-0.4c0.1-0.1,0.1-0.2,0.2-0.3c0.1-0.1,0.2-0.2,0.3-0.2c0.1-0.1,0.2-0.1,0.4-0.1h0.1c0.3,0,0.5,0.1,0.7,0.3
				s0.3,0.4,0.3,0.7v9.2C238.8,65.2,238.7,65.4,238.5,65.6z"/>
		</g>
	</g>
</g>
</svg>
