<?xml version="1.0" encoding="utf-8"?>
<!-- Generator: Adobe Illustrator 19.1.0, SVG Export Plug-In . SVG Version: 6.00 Build 0)  -->
<svg version="1.1" id="Layer_2" xmlns="http://www.w3.org/2000/svg" xmlns:xlink="http://www.w3.org/1999/xlink" x="0px" y="0px"
	 width="221.8px" height="262.2px" viewBox="-368 149.8 221.8 262.2" enable-background="new -368 149.8 221.8 262.2"
	 xml:space="preserve">
<polygon points="-327.7,180 -317.6,180 -317.6,170 -307.5,170 -307.5,159.9 -297.4,159.9 -297.4,149.8 -226.8,149.8 -226.8,159.9 
	-216.7,159.9 -216.8,170 -206.7,170 -206.7,180 -196.6,180 -196.6,240.6 -186.5,240.5 -186.5,250.6 -176.4,250.6 -176.4,260.7 
	-166.3,260.7 -166.3,270.8 -156.2,270.8 -156.2,291 -146.2,291 -146.2,361.6 -156.3,361.5 -156.2,391.8 -186.5,391.8 -186.5,381.4 
	-196.6,381.7 -196.6,371.6 -216.8,371.6 -216.8,381.7 -206.7,381.7 -206.7,391.8 -196.6,391.8 -196.6,412 -247,412 -247,371.8 
	-267.2,371.8 -267.2,412 -317.6,412 -317.6,391.8 -307.5,391.8 -307.5,381.7 -297.4,381.7 -297.4,371.6 -317.6,371.6 -317.6,381.7 
	-327.7,381.7 -327.7,391.8 -357.9,391.8 -357.9,361.6 -368,361.6 -368,291 -357.9,291 -357.9,270.8 -347.8,270.8 -347.8,260.7 
	-337.8,260.7 -337.8,250.6 -327.7,250.6 -327.7,240.5 -317.6,240.5 -317.6,210.3 -327.7,210.3 "/>
</svg>
