<?xml version="1.0" encoding="utf-8"?>
<!-- Generator: Adobe Illustrator 19.1.0, SVG Export Plug-In . SVG Version: 6.00 Build 0)  -->
<svg version="1.1" id="Layer_1" xmlns="http://www.w3.org/2000/svg" xmlns:xlink="http://www.w3.org/1999/xlink" x="0px" y="0px"
	 width="241.9px" height="262.2px" viewBox="-184 265.8 241.9 262.2" enable-background="new -184 265.8 241.9 262.2"
	 xml:space="preserve">
<polygon fill="#726B6B" points="-103.4,265.8 -32.8,265.8 -32.8,275.9 -22.7,275.9 -22.8,286 -12.7,286 -12.7,296.1 -2.6,296 
	-2.6,356.6 7.5,356.5 7.5,366.6 17.6,366.6 17.6,376.7 27.7,376.7 27.7,386.8 37.8,386.8 37.8,407 47.8,407 47.8,417 57.9,417 
	57.9,427.1 47.8,427.1 47.8,467.5 37.8,467.5 37.8,497.7 7.5,497.7 7.5,477.6 -2.6,477.6 -2.6,487.6 -22.7,487.6 -22.7,497.7 
	-12.7,497.7 -12.7,507.8 -2.6,507.8 -2.6,528 -53,528 -53,487.6 -73.2,487.6 -73.2,528 -123.6,528 -123.6,507.8 -113.5,507.8 
	-113.5,497.7 -103.4,497.7 -103.4,487.6 -123.6,487.6 -123.6,407 -133.7,407 -133.6,447.3 -143.7,447.3 -143.7,457.4 -173.9,457.4 
	-173.9,427.1 -184,427.1 -184,407 -174,407 -174,396.9 -184,396.9 -184,386.8 -174,386.8 -174,376.7 -153.8,376.7 -153.8,366.6 
	-143.8,366.6 -143.8,356.5 -123.7,356.5 -123.6,326.3 -133.7,326.3 -133.7,296 -123.6,296 -123.6,286 -113.5,286 -113.5,275.9 
	-103.4,275.9 "/>
</svg>
