<?xml version="1.0" encoding="utf-8"?>
<!-- Generator: Adobe Illustrator 19.1.0, SVG Export Plug-In . SVG Version: 6.00 Build 0)  -->
<svg version="1.1" id="Layer_1" xmlns="http://www.w3.org/2000/svg" xmlns:xlink="http://www.w3.org/1999/xlink" x="0px" y="0px"
	 width="241.9px" height="262.2px" viewBox="-358 149.8 241.9 262.2" enable-background="new -358 149.8 241.9 262.2"
	 xml:space="preserve">
<path fill="#F3E8D4" d="M-307.8,240.5h10.1v10.1h-10.1V240.5z"/>
<path d="M-307.7,240.5h10.1v10.1h-10.1V240.5z"/>
<path d="M-317.8,240.5h10.1v10.1h-10.1V240.5z"/>
<path fill="#F3E8D4" d="M-307.8,270.8h10.1v10.1h-10.1V270.8z"/>
<path fill="#D8C6A3" d="M-307.7,250.6h10.1v10.1h-10.1V250.6z"/>
<path fill="#EEDDC2" d="M-317.8,270.8h10.1v10.1h-10.1V270.8z M-317.8,260.7h10.1v10.1h-10.1V260.7z M-317.8,250.6h10.1v10.1h-10.1
	V250.6z"/>
<path fill="#F3E8D4" d="M-327.8,270.8h10.1v10.1h-10.1V270.8z M-327.8,260.7h10.1v10.1h-10.1V260.7z"/>
<path d="M-327.8,250.6h10.1v10.1h-10.1V250.6z"/>
<path fill="#EEDDC2" d="M-337.9,270.8h10.1v10.1h-10.1V270.8z"/>
<path fill="#EEDDC2" d="M-347.9,270.8h10.1v10.1h-10.1V270.8z"/>
<path d="M-337.9,260.7h10.1v10.1h-10.1V260.7z M-358,270.8h10.1v10.1H-358V270.8z M-348,260.7h10.1v10.1H-348V260.7z"/>
<path fill="#BD4E9C" d="M-317.8,301h10.1v10.1h-10.1V301z"/>
<path fill="#659AC9" d="M-317.7,301h10.1v10.1h-10.1V301z"/>
<path d="M-317.8,291h10.1v10.1h-10.1V291z"/>
<path fill="#F3E8D4" d="M-327.8,301h10.1v10.1h-10.1V301z"/>
<path fill="#F3E8D4" d="M-327.8,291h10.1v10.1h-10.1V291z M-317.8,280.9h10.1V291h-10.1V280.9z"/>
<path fill="#518CC0" d="M-337.8,301h10.1v10.1h-10.1V301z"/>
<path fill="#F3E8D4" d="M-337.8,291h10.1v10.1h-10.1V291z M-327.8,280.9h10.1V291h-10.1V280.9z"/>
<path fill="#EEDDC2" d="M-347.9,301h10.1v10.1h-10.1V301z"/>
<path fill="#EEDDC2" d="M-347.9,291h10.1v10.1h-10.1V291z M-337.9,280.9h10.1V291h-10.1V280.9z"/>
<path d="M-358,301h10.1v10.1H-358V301z"/>
<path d="M-358,291h10.1v10.1H-358V291z M-348,280.9h10.1V291H-348V280.9z M-317.7,321.2h10.1v10.1h-10.1V321.2z M-327.8,331.3h10.1
	v10.1h-10.1V331.3z"/>
<path fill="#659AC9" d="M-327.8,321.2h10.1v10.1h-10.1V321.2z M-327.8,311.1h10.1v10.1h-10.1V311.1z"/>
<path d="M-337.8,331.3h10.1v10.1h-10.1V331.3z"/>
<path fill="#518CC0" d="M-337.8,321.2h10.1v10.1h-10.1V321.2z M-337.8,311.1h10.1v10.1h-10.1V311.1z M-317.7,311.1h10.1v10.1h-10.1
	V311.1z"/>
<path d="M-347.9,331.3h10.1v10.1h-10.1V331.3z M-347.9,321.2h10.1v10.1h-10.1V321.2z"/>
<path fill="#518CC0" d="M-347.9,311.1h10.1v10.1h-10.1V311.1z"/>
<path d="M-297.6,170h10.1v10.1h-10.1V170z"/>
<path fill="#EEDDC2" d="M-287.5,170h10.1v10.1h-10.1V170z"/>
<path fill="#F3E8D4" d="M-277.4,170h10.1v10.1h-10.1V170z M-267.3,170h10.1v10.1h-10.1V170z"/>
<path fill="#F3E8D4" d="M-257.3,170h10.1v10.1h-10.1V170z M-247.2,170h10.1v10.1h-10.1V170z M-237.1,170h10.1v10.1h-10.1V170z
	 M-227,170h10.1v10.1H-227V170z M-216.9,170h10.1v10.1h-10.1V170z"/>
<path fill="#EEDDC2" d="M-206.8,170h10.1v10.1h-10.1V170z"/>
<path d="M-196.8,170h10.1v10.1h-10.1V170z M-287.5,159.9h10.1V170h-10.1V159.9z"/>
<path fill="#EEDDC2" d="M-277.4,159.9h10.1V170h-10.1V159.9z M-267.3,159.9h10.1V170h-10.1V159.9z"/>
<path fill="#EEDDC2" d="M-257.3,159.9h10.1V170h-10.1V159.9z M-247.2,159.9h10.1V170h-10.1V159.9z M-237.1,159.9h10.1V170h-10.1
	V159.9z M-227,159.9h10.1V170H-227V159.9z M-216.9,159.9h10.1V170h-10.1V159.9z"/>
<path d="M-206.8,159.9h10.1V170h-10.1V159.9z M-277.4,149.8h10.1v10.1h-10.1V149.8z M-267.3,149.8h10.1v10.1h-10.1V149.8z"/>
<path d="M-257.3,149.8h10.1v10.1h-10.1V149.8z M-247.2,149.8h10.1v10.1h-10.1V149.8z M-237.1,149.8h10.1v10.1h-10.1V149.8z
	 M-227,149.8h10.1v10.1H-227V149.8z M-216.9,149.8h10.1v10.1h-10.1V149.8z M-297.6,200.2h10.1v10.1h-10.1V200.2z"/>
<path fill="#518CC0" d="M-287.5,200.2h10.1v10.1h-10.1V200.2z"/>
<path fill="#659AC9" d="M-277.4,200.2h10.1v10.1h-10.1V200.2z M-267.3,200.2h10.1v10.1h-10.1V200.2z"/>
<path fill="#659AC9" d="M-257.3,200.2h10.1v10.1h-10.1V200.2z M-247.2,200.2h10.1v10.1h-10.1V200.2z M-237.1,200.2h10.1v10.1h-10.1
	V200.2z M-227,200.2h10.1v10.1H-227V200.2z M-216.9,200.2h10.1v10.1h-10.1V200.2z"/>
<path fill="#EEDDC2" d="M-206.8,200.2h10.1v10.1h-10.1V200.2z"/>
<path fill="#F3E8D4" d="M-196.8,200.2h10.1v10.1h-10.1V200.2z"/>
<path fill="#EEDDC2" d="M-297.6,190.1h10.1v10.1h-10.1V190.1z M-287.5,190.1h10.1v10.1h-10.1V190.1z"/>
<path fill="#659AC9" d="M-267.3,190.1h10.1v10.1h-10.1V190.1z"/>
<path fill="#EEDDC2" d="M-277.4,190.1h10.1v10.1h-10.1V190.1z M-257.3,190.1h10.1v10.1h-10.1V190.1z"/>
<path fill="#F3E8D4" d="M-247.2,190.1h10.1v10.1h-10.1V190.1z"/>
<path fill="#659AC9" d="M-237.1,190.1h10.1v10.1h-10.1V190.1z M-227,190.1h10.1v10.1H-227V190.1z M-216.9,190.1h10.1v10.1h-10.1
	V190.1z"/>
<path fill="#EEDDC2" d="M-206.8,190.1h10.1v10.1h-10.1V190.1z"/>
<path fill="#F3E8D4" d="M-196.8,190.1h10.1v10.1h-10.1V190.1z"/>
<path fill="#EEDDC2" d="M-297.6,180h10.1v10.1h-10.1V180z"/>
<path d="M-307.7,200.2h10.1v10.1h-10.1V200.2z M-307.7,190.1h10.1v10.1h-10.1V190.1z M-307.7,180h10.1v10.1h-10.1V180z"/>
<path fill="#F3E8D4" d="M-287.5,180h10.1v10.1h-10.1V180z M-277.4,180h10.1v10.1h-10.1V180z M-267.3,180h10.1v10.1h-10.1V180z"/>
<path fill="#F3E8D4" d="M-257.3,180h10.1v10.1h-10.1V180z M-247.2,180h10.1v10.1h-10.1V180z M-237.1,180h10.1v10.1h-10.1V180z
	 M-227,180h10.1v10.1H-227V180z M-216.9,180h10.1v10.1h-10.1V180z M-206.8,180h10.1v10.1h-10.1V180z"/>
<path fill="#F3E8D4" d="M-196.8,180h10.1v10.1h-10.1V180z"/>
<path d="M-186.7,200.2h10.1v10.1h-10.1V200.2z M-186.7,190.1h10.1v10.1h-10.1V190.1z M-186.7,180h10.1v10.1h-10.1V180z
	 M-297.6,230.5h10.1v10.1h-10.1V230.5z"/>
<path fill="#F3E8D4" d="M-287.5,230.5h10.1v10.1h-10.1V230.5z M-277.4,230.5h10.1v10.1h-10.1V230.5z M-267.3,230.5h10.1v10.1h-10.1
	V230.5z"/>
<path fill="#F3E8D4" d="M-257.3,230.5h10.1v10.1h-10.1V230.5z M-247.2,230.5h10.1v10.1h-10.1V230.5z M-237.1,230.5h10.1v10.1h-10.1
	V230.5z M-227,230.5h10.1v10.1H-227V230.5z M-216.9,230.5h10.1v10.1h-10.1V230.5z M-206.8,230.5h10.1v10.1h-10.1V230.5z"/>
<path fill="#F3E8D4" d="M-196.8,230.5h10.1v10.1h-10.1V230.5z"/>
<path d="M-297.6,220.4h10.1v10.1h-10.1V220.4z"/>
<path fill="#518CC0" d="M-287.5,220.4h10.1v10.1h-10.1V220.4z"/>
<path fill="#659AC9" d="M-277.4,220.4h10.1v10.1h-10.1V220.4z"/>
<path fill="#518CC0" d="M-267.3,220.4h10.1v10.1h-10.1V220.4z"/>
<path fill="#304C66" d="M-257.3,220.4h10.1v10.1h-10.1V220.4z"/>
<path fill="#518CC0" d="M-247.2,220.4h10.1v10.1h-10.1V220.4z"/>
<path fill="#304C66" d="M-237.1,220.4h10.1v10.1h-10.1V220.4z"/>
<path fill="#518CC0" d="M-227,220.4h10.1v10.1H-227V220.4z"/>
<path fill="#659AC9" d="M-216.9,220.4h10.1v10.1h-10.1V220.4z M-206.8,220.4h10.1v10.1h-10.1V220.4z"/>
<path fill="#EEDDC2" d="M-196.8,220.4h10.1v10.1h-10.1V220.4z"/>
<path d="M-297.6,210.3h10.1v10.1h-10.1V210.3z"/>
<path fill="#518CC0" d="M-287.5,210.3h10.1v10.1h-10.1V210.3z"/>
<path d="M-277.4,210.3h10.1v10.1h-10.1V210.3z"/>
<path fill="#659AC9" d="M-267.3,210.3h10.1v10.1h-10.1V210.3z"/>
<path fill="#659AC9" d="M-257.3,210.3h10.1v10.1h-10.1V210.3z M-247.2,210.3h10.1v10.1h-10.1V210.3z M-237.1,210.3h10.1v10.1h-10.1
	V210.3z M-227,210.3h10.1v10.1H-227V210.3z"/>
<path d="M-216.9,210.3h10.1v10.1h-10.1V210.3z"/>
<path fill="#659AC9" d="M-206.8,210.3h10.1v10.1h-10.1V210.3z"/>
<path fill="#EEDDC2" d="M-196.8,210.3h10.1v10.1h-10.1V210.3z"/>
<path d="M-186.7,230.5h10.1v10.1h-10.1V230.5z M-186.7,220.4h10.1v10.1h-10.1V220.4z M-186.7,210.3h10.1v10.1h-10.1V210.3z"/>
<path fill="#F3E8D4" d="M-297.6,260.7h10.1v10.1h-10.1V260.7z M-307.7,260.7h10.1v10.1h-10.1V260.7z M-287.5,260.7h10.1v10.1h-10.1
	V260.7z M-277.4,260.7h10.1v10.1h-10.1V260.7z M-267.3,260.7h10.1v10.1h-10.1V260.7z"/>
<path fill="#F3E8D4" d="M-257.3,260.7h10.1v10.1h-10.1V260.7z M-247.2,260.7h10.1v10.1h-10.1V260.7z M-237.1,260.7h10.1v10.1h-10.1
	V260.7z M-227,260.7h10.1v10.1H-227V260.7z M-216.9,260.7h10.1v10.1h-10.1V260.7z M-206.8,260.7h10.1v10.1h-10.1V260.7z"/>
<path fill="#F3E8D4" d="M-196.8,260.7h10.1v10.1h-10.1V260.7z M-297.6,250.6h10.1v10.1h-10.1V250.6z M-287.5,250.6h10.1v10.1h-10.1
	V250.6z"/>
<path fill="#659AC9" d="M-277.4,250.6h10.1v10.1h-10.1V250.6z M-267.3,250.6h10.1v10.1h-10.1V250.6z"/>
<path fill="#659AC9" d="M-257.3,250.6h10.1v10.1h-10.1V250.6z M-247.2,250.6h10.1v10.1h-10.1V250.6z M-237.1,250.6h10.1v10.1h-10.1
	V250.6z M-227,250.6h10.1v10.1H-227V250.6z M-216.9,250.6h10.1v10.1h-10.1V250.6z"/>
<path fill="#F3E8D4" d="M-206.8,250.6h10.1v10.1h-10.1V250.6z"/>
<path fill="#F3E8D4" d="M-196.8,250.6h10.1v10.1h-10.1V250.6z M-297.6,240.5h10.1v10.1h-10.1V240.5z"/>
<path fill="#659AC9" d="M-287.5,240.5h10.1v10.1h-10.1V240.5z"/>
<path fill="#304C66" d="M-277.4,240.5h10.1v10.1h-10.1V240.5z M-267.3,240.5h10.1v10.1h-10.1V240.5z"/>
<path fill="#963436" d="M-257.3,240.5h10.1v10.1h-10.1V240.5z M-247.2,240.5h10.1v10.1h-10.1V240.5z M-237.1,240.5h10.1v10.1h-10.1
	V240.5z"/>
<path fill="#304C66" d="M-227,240.5h10.1v10.1H-227V240.5z M-216.9,240.5h10.1v10.1h-10.1V240.5z"/>
<path fill="#659AC9" d="M-206.8,240.5h10.1v10.1h-10.1V240.5z"/>
<path fill="#659AC9" d="M-206.8,230.5h10.1v10.1h-10.1V230.5z"/>
<path fill="#F3E8D4" d="M-196.8,240.5h10.1v10.1h-10.1V240.5z M-186.7,260.7h10.1v10.1h-10.1V260.7z"/>
<path fill="#EEDDC2" d="M-186.7,250.6h10.1v10.1h-10.1V250.6z M-186.7,240.5h10.1v10.1h-10.1V240.5z M-176.6,260.7h10.1v10.1h-10.1
	V260.7z M-176.6,250.6h10.1v10.1h-10.1V250.6z"/>
<path d="M-176.6,240.5h10.1v10.1h-10.1V240.5z"/>
<path fill="#EEDDC2" d="M-166.5,260.7h10.1v10.1h-10.1V260.7z"/>
<path d="M-166.5,250.6h10.1v10.1h-10.1V250.6z M-156.4,260.7h10.1v10.1h-10.1V260.7z"/>
<path fill="#F3E8D4" d="M-297.6,291h10.1v10.1h-10.1V291z M-287.5,291h10.1v10.1h-10.1V291z M-277.4,291h10.1v10.1h-10.1V291z
	 M-267.3,291h10.1v10.1h-10.1V291z"/>
<path fill="#F3E8D4" d="M-257.3,291h10.1v10.1h-10.1V291z M-227,291h10.1v10.1H-227V291z M-216.9,291h10.1v10.1h-10.1V291z
	 M-206.8,291h10.1v10.1h-10.1V291z"/>
<path fill="#F3E8D4" d="M-196.8,291h10.1v10.1h-10.1V291z M-297.6,280.9h10.1V291h-10.1V280.9z M-287.5,280.9h10.1V291h-10.1V280.9z
	 M-277.4,280.9h10.1V291h-10.1V280.9z M-267.3,280.9h10.1V291h-10.1V280.9z"/>
<path fill="#F3E8D4" d="M-257.3,280.9h10.1V291h-10.1V280.9z M-227,280.9h10.1V291H-227V280.9z M-216.9,280.9h10.1V291h-10.1V280.9z
	 M-206.8,280.9h10.1V291h-10.1V280.9z"/>
<path fill="#F3E8D4" d="M-196.8,280.9h10.1V291h-10.1V280.9z M-297.6,270.8h10.1v10.1h-10.1V270.8z M-287.5,270.8h10.1v10.1h-10.1
	V270.8z M-277.4,270.8h10.1v10.1h-10.1V270.8z M-267.3,270.8h10.1v10.1h-10.1V270.8z"/>
<path fill="#F3E8D4" d="M-257.3,270.8h10.1v10.1h-10.1V270.8z M-237.1,291h10.1v10.1h-10.1V291z M-237.1,280.9h10.1V291h-10.1V280.9
	z M-237.1,270.8h10.1v10.1h-10.1V270.8z"/>
<path fill="#D8C6A3" d="M-247.2,291h10.1v10.1h-10.1V291z M-247.2,280.9h10.1V291h-10.1V280.9z M-247.2,270.8h10.1v10.1h-10.1V270.8
	z"/>
<path fill="#F3E8D4" d="M-227,270.8h10.1v10.1H-227V270.8z M-216.9,270.8h10.1v10.1h-10.1V270.8z M-206.8,270.8h10.1v10.1h-10.1
	V270.8z"/>
<path fill="#F3E8D4" d="M-196.8,270.8h10.1v10.1h-10.1V270.8z M-186.7,291h10.1v10.1h-10.1V291z M-186.7,280.9h10.1V291h-10.1V280.9
	z M-186.7,270.8h10.1v10.1h-10.1V270.8z"/>
<path fill="#EEDDC2" d="M-176.6,291h10.1v10.1h-10.1V291z"/>
<path fill="#F3E8D4" d="M-176.6,280.9h10.1V291h-10.1V280.9z M-176.6,270.8h10.1v10.1h-10.1V270.8z"/>
<path fill="#EEDDC2" d="M-166.5,291h10.1v10.1h-10.1V291z M-166.5,280.9h10.1V291h-10.1V280.9z"/>
<path fill="#F3E8D4" d="M-166.5,270.8h10.1v10.1h-10.1V270.8z M-156.4,291h10.1v10.1h-10.1V291z M-156.4,280.9h10.1V291h-10.1V280.9
	z M-156.4,270.8h10.1v10.1h-10.1V270.8z M-146.3,291h10.1v10.1h-10.1V291z"/>
<path d="M-146.3,280.9h10.1V291h-10.1V280.9z M-146.3,270.8h10.1v10.1h-10.1V270.8z M-136.3,291h10.1v10.1h-10.1V291z"/>
<path fill="#EEDDC2" d="M-297.6,321.2h10.1v10.1h-10.1V321.2z"/>
<path fill="#F3E8D4" d="M-287.5,321.2h10.1v10.1h-10.1V321.2z M-277.4,321.2h10.1v10.1h-10.1V321.2z M-267.3,321.2h10.1v10.1h-10.1
	V321.2z"/>
<path fill="#F3E8D4" d="M-257.3,321.2h10.1v10.1h-10.1V321.2z M-247.2,321.2h10.1v10.1h-10.1V321.2z M-237.1,321.2h10.1v10.1h-10.1
	V321.2z M-227,321.2h10.1v10.1H-227V321.2z M-216.9,321.2h10.1v10.1h-10.1V321.2z M-206.8,321.2h10.1v10.1h-10.1V321.2z"/>
<path fill="#F3E8D4" d="M-196.8,321.2h10.1v10.1h-10.1V321.2z"/>
<path fill="#EEDDC2" d="M-297.6,311.1h10.1v10.1h-10.1V311.1z M-297.6,291.6h10.1v10.1h-10.1V291.6z"/>
<path fill="#F3E8D4" d="M-287.5,311.1h10.1v10.1h-10.1V311.1z M-277.4,311.1h10.1v10.1h-10.1V311.1z M-267.3,311.1h10.1v10.1h-10.1
	V311.1z"/>
<path fill="#F3E8D4" d="M-257.3,311.1h10.1v10.1h-10.1V311.1z M-247.2,311.1h10.1v10.1h-10.1V311.1z M-237.1,311.1h10.1v10.1h-10.1
	V311.1z M-227,311.1h10.1v10.1H-227V311.1z M-216.9,311.1h10.1v10.1h-10.1V311.1z M-206.8,311.1h10.1v10.1h-10.1V311.1z"/>
<path fill="#F3E8D4" d="M-196.8,311.1h10.1v10.1h-10.1V311.1z"/>
<path fill="#D8C6A3" d="M-297.6,301h10.1v10.1h-10.1V301z M-287.5,301h10.1v10.1h-10.1V301z M-277.4,301h10.1v10.1h-10.1V301z
	 M-267.3,301h10.1v10.1h-10.1V301z"/>
<path fill="#D8C6A3" d="M-257.3,301h10.1v10.1h-10.1V301z M-237.1,301h10.1v10.1h-10.1V301z"/>
<path fill="#F3E8D4" d="M-247.2,301h10.1v10.1h-10.1V301z"/>
<path fill="#D8C6A3" d="M-227,301h10.1v10.1H-227V301z M-216.9,301h10.1v10.1h-10.1V301z M-206.8,301h10.1v10.1h-10.1V301z"/>
<path fill="#D8C6A3" d="M-196.8,301h10.1v10.1h-10.1V301z M-186.7,321.2h10.1v10.1h-10.1V321.2z M-186.7,311.1h10.1v10.1h-10.1
	V311.1z M-166.5,301h10.1v10.1h-10.1V301z"/>
<path fill="#F3E8D4" d="M-186.7,301h10.1v10.1h-10.1V301z"/>
<path fill="#EEDDC2" d="M-176.6,321.2h10.1v10.1h-10.1V321.2z M-176.6,311.1h10.1v10.1h-10.1V311.1z M-176.6,301h10.1v10.1h-10.1
	V301z"/>
<path d="M-166.5,321.2h10.1v10.1h-10.1V321.2z M-166.5,311.1h10.1v10.1h-10.1V311.1z"/>
<path fill="#EEDDC2" d="M-156.4,321.2h10.1v10.1h-10.1V321.2z M-156.4,311.1h10.1v10.1h-10.1V311.1z M-156.4,301h10.1v10.1h-10.1
	V301z M-136.3,301h10.1v10.1h-10.1V301z"/>
<path fill="#F3E8D4" d="M-146.3,321.2h10.1v10.1h-10.1V321.2z M-146.3,311.1h10.1v10.1h-10.1V311.1z M-146.3,301h10.1v10.1h-10.1
	V301z"/>
<path d="M-136.3,321.2h10.1v10.1h-10.1V321.2z M-136.3,311.1h10.1v10.1h-10.1V311.1z M-126.2,301h10.1v10.1h-10.1V301z
	 M-297.6,351.5h10.1v10.1h-10.1V351.5z"/>
<path fill="#EEDDC2" d="M-287.5,351.5h10.1v10.1h-10.1V351.5z M-277.4,351.5h10.1v10.1h-10.1V351.5z"/>
<path fill="#F3E8D4" d="M-267.3,351.5h10.1v10.1h-10.1V351.5z"/>
<path fill="#D8C6A3" d="M-257.3,351.5h10.1v10.1h-10.1V351.5z M-247.2,351.5h10.1v10.1h-10.1V351.5z M-237.1,351.5h10.1v10.1h-10.1
	V351.5z"/>
<path fill="#F3E8D4" d="M-227,351.5h10.1v10.1H-227V351.5z M-216.9,351.5h10.1v10.1h-10.1V351.5z M-206.8,351.5h10.1v10.1h-10.1
	V351.5z"/>
<path fill="#D8C6A3" d="M-196.8,351.5h10.1v10.1h-10.1V351.5z"/>
<path d="M-297.6,341.4h10.1v10.1h-10.1V341.4z"/>
<path fill="#EEDDC2" d="M-287.5,341.4h10.1v10.1h-10.1V341.4z"/>
<path fill="#F3E8D4" d="M-277.4,341.4h10.1v10.1h-10.1V341.4z M-267.3,341.4h10.1v10.1h-10.1V341.4z"/>
<path fill="#F3E8D4" d="M-257.3,341.4h10.1v10.1h-10.1V341.4z M-247.2,341.4h10.1v10.1h-10.1V341.4z M-237.1,341.4h10.1v10.1h-10.1
	V341.4z M-227,341.4h10.1v10.1H-227V341.4z M-216.9,341.4h10.1v10.1h-10.1V341.4z M-206.8,341.4h10.1v10.1h-10.1V341.4z"/>
<path fill="#D8C6A3" d="M-196.8,341.4h10.1v10.1h-10.1V341.4z M-297.6,331.3h10.1v10.1h-10.1V331.3z"/>
<path fill="#EEDDC2" d="M-287.5,331.3h10.1v10.1h-10.1V331.3z"/>
<path fill="#F3E8D4" d="M-277.4,331.3h10.1v10.1h-10.1V331.3z M-267.3,331.3h10.1v10.1h-10.1V331.3z"/>
<path fill="#F3E8D4" d="M-257.3,331.3h10.1v10.1h-10.1V331.3z M-247.2,331.3h10.1v10.1h-10.1V331.3z M-237.1,331.3h10.1v10.1h-10.1
	V331.3z M-227,331.3h10.1v10.1H-227V331.3z M-216.9,331.3h10.1v10.1h-10.1V331.3z M-206.8,331.3h10.1v10.1h-10.1V331.3z"/>
<path fill="#D8C6A3" d="M-196.8,331.3h10.1v10.1h-10.1V331.3z"/>
<path d="M-186.7,351.5h10.1v10.1h-10.1V351.5z"/>
<path fill="#EEDDC2" d="M-186.7,341.4h10.1v10.1h-10.1V341.4z M-186.7,331.3h10.1v10.1h-10.1V331.3z"/>
<path fill="#518CC0" d="M-176.6,341.4h10.1v10.1h-10.1V341.4z M-176.6,351.5h10.1v10.1h-10.1V351.5z"/>
<path d="M-176.6,331.3h10.1v10.1h-10.1V331.3z"/>
<path fill="#EEDDC2" d="M-166.5,341.4h10.1v10.1h-10.1V341.4z M-166.5,331.3h10.1v10.1h-10.1V331.3z"/>
<path fill="#F3E8D4" d="M-156.4,331.3h10.1v10.1h-10.1V331.3z"/>
<path fill="#EEDDC2" d="M-146.3,341.4h10.1v10.1h-10.1V341.4z"/>
<path fill="#F3E8D4" d="M-146.3,331.3h10.1v10.1h-10.1V331.3z"/>
<path d="M-136.3,341.4h10.1v10.1h-10.1V341.4z M-136.3,331.3h10.1v10.1h-10.1V331.3z M-287.5,381.7h10.1v10.1h-10.1V381.7z"/>
<path fill="#EEDDC2" d="M-277.4,381.7h10.1v10.1h-10.1V381.7z"/>
<path fill="#F3E8D4" d="M-267.3,381.7h10.1v10.1h-10.1V381.7z"/>
<path d="M-257.3,381.7h10.1v10.1h-10.1V381.7z M-227,381.7h10.1v10.1H-227V381.7z"/>
<path fill="#EEDDC2" d="M-216.9,381.7h10.1v10.1h-10.1V381.7z"/>
<path fill="#F3E8D4" d="M-206.8,381.7h10.1v10.1h-10.1V381.7z"/>
<path d="M-196.8,381.7h10.1v10.1h-10.1V381.7z M-277.4,371.6h10.1v10.1h-10.1V371.6z"/>
<path fill="#F3E8D4" d="M-267.3,371.6h10.1v10.1h-10.1V371.6z"/>
<path d="M-257.3,371.6h10.1v10.1h-10.1V371.6z M-227,371.6h10.1v10.1H-227V371.6z"/>
<path fill="#EEDDC2" d="M-216.9,371.6h10.1v10.1h-10.1V371.6z"/>
<path d="M-206.8,371.6h10.1v10.1h-10.1V371.6z M-297.6,361.5h10.1v10.1h-10.1V361.5z M-287.5,361.5h10.1v10.1h-10.1V361.5z"/>
<path fill="#EEDDC2" d="M-277.4,361.5h10.1v10.1h-10.1V361.5z M-267.3,361.5h10.1v10.1h-10.1V361.5z"/>
<path fill="#D8C6A3" d="M-257.3,361.5h10.1v10.1h-10.1V361.5z"/>
<path d="M-247.2,361.5h10.1v10.1h-10.1V361.5z M-237.1,361.5h10.1v10.1h-10.1V361.5z"/>
<path fill="#D8C6A3" d="M-227,361.5h10.1v10.1H-227V361.5z"/>
<path fill="#EEDDC2" d="M-216.9,361.5h10.1v10.1h-10.1V361.5z M-206.8,361.5h10.1v10.1h-10.1V361.5z"/>
<path d="M-196.8,361.5h10.1v10.1h-10.1V361.5z M-186.7,361.5h10.1v10.1h-10.1V361.5z M-166.5,371.6h10.1v10.1h-10.1V371.6z"/>
<path fill="#518CC0" d="M-166.5,361.5h10.1v10.1h-10.1V361.5z"/>
<path fill="#518CC0" d="M-166.5,351.5h10.1v10.1h-10.1V351.5z"/>
<path d="M-156.4,371.6h10.1v10.1h-10.1V371.6z"/>
<path fill="#659AC9" d="M-156.4,361.5h10.1v10.1h-10.1V361.5z"/>
<path fill="#659AC9" d="M-156.4,351.5h10.1v10.1h-10.1V351.5z M-156.4,341.4h10.1v10.1h-10.1V341.4z"/>
<path d="M-146.3,371.6h10.1v10.1h-10.1V371.6z M-146.3,361.5h10.1v10.1h-10.1V361.5z"/>
<path d="M-146.3,351.5h10.1v10.1h-10.1V351.5z M-297.6,401.9h10.1V412h-10.1V401.9z M-287.5,401.9h10.1V412h-10.1V401.9z
	 M-277.4,401.9h10.1V412h-10.1V401.9z M-267.3,401.9h10.1V412h-10.1V401.9z"/>
<path d="M-257.3,401.9h10.1V412h-10.1V401.9z M-227,401.9h10.1V412H-227V401.9z M-216.9,401.9h10.1V412h-10.1V401.9z M-206.8,401.9
	h10.1V412h-10.1V401.9z"/>
<path d="M-196.8,401.9h10.1V412h-10.1V401.9z M-297.6,391.8h10.1v10.1h-10.1V391.8z"/>
<path fill="#518CC0" d="M-287.5,391.8h10.1v10.1h-10.1V391.8z"/>
<path fill="#659AC9" d="M-277.4,391.8h10.1v10.1h-10.1V391.8z"/>
<path fill="#F3E8D4" d="M-267.3,391.8h10.1v10.1h-10.1V391.8z"/>
<path d="M-257.3,391.8h10.1v10.1h-10.1V391.8z M-227,391.8h10.1v10.1H-227V391.8z"/>
<path fill="#EEDDC2" d="M-216.9,391.8h10.1v10.1h-10.1V391.8z"/>
<path fill="#518CC0" d="M-206.8,391.8h10.1v10.1h-10.1V391.8z"/>
<path fill="#659AC9" d="M-196.8,391.8h10.1v10.1h-10.1V391.8z"/>
<path d="M-186.7,401.9h10.1V412h-10.1V401.9z M-186.7,391.8h10.1v10.1h-10.1V391.8z"/>
<path fill="#EFDEC3" d="M-247.2,260.7h10.1v10.1h-10.1V260.7z"/>
<path fill="#EFDEC3" d="M-257.2,260.7h10.1v10.1h-10.1V260.7z M-237.1,260.7h10.1v10.1h-10.1V260.7z"/>
<path d="M-307.7,280.9h10.1V291h-10.1V280.9z M-297.6,291.6h10.1v10.1h-10.1V291.6z"/>
</svg>
