<?xml version="1.0" encoding="utf-8"?>
<!-- Generator: Adobe Illustrator 19.1.0, SVG Export Plug-In . SVG Version: 6.00 Build 0)  -->
<svg version="1.1" id="Layer_1" xmlns="http://www.w3.org/2000/svg" xmlns:xlink="http://www.w3.org/1999/xlink" x="0px" y="0px"
	 width="231.9px" height="292.3px" viewBox="-363 134.7 231.9 292.3" enable-background="new -363 134.7 231.9 292.3"
	 xml:space="preserve">
<path fill="#FC03F0" d="M-352.8,164.9h10.1V175h-10.1V164.9z"/>
<path fill="#659BCA" d="M-352.9,164.9h10.1V175h-10.1V164.9z"/>
<path fill="#F5EAD6" d="M-342.8,164.9h10.1V175h-10.1V164.9z"/>
<path fill="#518DC1" d="M-332.8,164.9h10.1V175h-10.1V164.9z"/>
<path fill="#EFDEC3" d="M-322.7,164.9h10.1V175h-10.1V164.9z"/>
<path d="M-312.6,164.9h10.1V175h-10.1V164.9z M-352.9,144.8h10.1v10.1h-10.1V144.8z M-352.9,154.9h10.1V165h-10.1V154.9z
	 M-342.8,134.7h10.1v10.1h-10.1V134.7z"/>
<path fill="#659BCA" d="M-342.8,144.8h10.1v10.1h-10.1V144.8z M-342.8,154.9h10.1V165h-10.1V154.9z"/>
<path d="M-332.8,134.7h10.1v10.1h-10.1V134.7z"/>
<path fill="#518DC1" d="M-332.8,144.8h10.1v10.1h-10.1V144.8z M-332.8,154.9h10.1V165h-10.1V154.9z"/>
<path d="M-322.7,134.7h10.1v10.1h-10.1V134.7z M-322.7,144.8h10.1v10.1h-10.1V144.8z"/>
<path fill="#518DC1" d="M-322.7,154.9h10.1V165h-10.1V154.9z"/>
<path fill="#FC03F0" d="M-322.8,265.6h10.1v10.1h-10.1V265.6z"/>
<path fill="#EFDEC3" d="M-322.7,265.6h10.1v10.1h-10.1V265.6z M-322.7,275.7h10.1v10.1h-10.1V275.7z M-322.7,285.8h10.1v10.1h-10.1
	V285.8z"/>
<path d="M-332.8,285.8h10.1v10.1h-10.1V285.8z M-322.7,295.8h10.1v10.1h-10.1V295.8z"/>
<path fill="#DAC8A5" d="M-332.8,265.6h10.1v10.1h-10.1V265.6z"/>
<path d="M-332.8,275.7h10.1v10.1h-10.1V275.7z M-342.8,265.6h10.1v10.1h-10.1V265.6z"/>
<path fill="#F5EAD6" d="M-322.8,235.4h10.1v10.1h-10.1V235.4z"/>
<path fill="#EFDEC3" d="M-322.7,235.4h10.1v10.1h-10.1V235.4z M-322.7,245.5h10.1v10.1h-10.1V245.5z"/>
<path fill="#DAC8A5" d="M-332.8,205.1h10.1v10.1h-10.1V205.1z"/>
<path fill="#DAC8A5" d="M-332.8,195.1h10.1v10.1h-10.1V195.1z M-332.8,215.2h10.1v10.1h-10.1V215.2z M-332.8,225.3h10.1v10.1h-10.1
	V225.3z M-332.8,245.5h10.1v10.1h-10.1V245.5z"/>
<path fill="#DAC8A5" d="M-332.8,255.5h10.1v10.1h-10.1V255.5z"/>
<path fill="#EFDEC3" d="M-342.8,235.4h10.1v10.1h-10.1V235.4z"/>
<path fill="#EFDEC3" d="M-332.8,235.4h10.1v10.1h-10.1V235.4z M-342.8,245.5h10.1v10.1h-10.1V245.5z"/>
<path fill="#EFDEC3" d="M-342.8,255.5h10.1v10.1h-10.1V255.5z M-352.9,235.4h10.1v10.1h-10.1V235.4z"/>
<path d="M-352.9,245.5h10.1v10.1h-10.1V245.5z"/>
<path d="M-352.9,255.5h10.1v10.1h-10.1V255.5z M-363,235.4h10.1v10.1H-363V235.4z"/>
<path fill="#DAC8A5" d="M-322.7,225.3h10.1v10.1h-10.1V225.3z"/>
<path fill="#F5EAD6" d="M-342.8,205.1h10.1v10.1h-10.1V205.1z M-342.8,215.2h10.1v10.1h-10.1V215.2z M-342.8,225.3h10.1v10.1h-10.1
	V225.3z"/>
<path fill="#EFDEC3" d="M-352.9,205.1h10.1v10.1h-10.1V205.1z M-352.9,215.2h10.1v10.1h-10.1V215.2z M-352.9,225.3h10.1v10.1h-10.1
	V225.3z"/>
<path d="M-363,205.1h10.1v10.1H-363V205.1z M-363,215.2h10.1v10.1H-363V215.2z M-363,225.3h10.1v10.1H-363V225.3z"/>
<path fill="#FC03F0" d="M-312.7,174.9h10.1V185h-10.1V174.9z"/>
<path fill="#659BCA" d="M-312.6,174.9h10.1V185h-10.1V174.9z"/>
<path fill="#EFDEC3" d="M-322.7,185h10.1v10.1h-10.1V185z"/>
<path fill="#F5EAD6" d="M-322.7,174.9h10.1V185h-10.1V174.9z M-332.8,185h10.1v10.1h-10.1V185z"/>
<path fill="#F5EAD6" d="M-332.8,174.9h10.1V185h-10.1V174.9z"/>
<path fill="#F5EAD6" d="M-342.8,185h10.1v10.1h-10.1V185z"/>
<path fill="#F5EAD6" d="M-342.8,195h10.1v10.1h-10.1V195z"/>
<path fill="#EFDEC3" d="M-342.8,174.9h10.1V185h-10.1V174.9z M-352.9,185h10.1v10.1h-10.1V185z"/>
<path fill="#EFDEC3" d="M-352.9,195h10.1v10.1h-10.1V195z"/>
<path d="M-362.9,164.8h10.1v10.1h-10.1V164.8z M-352.9,174.9h10.1V185h-10.1V174.9z M-363,185h10.1v10.1H-363V185z"/>
<path d="M-363,195h10.1v10.1H-363V195z M-312.6,185h10.1v10.1h-10.1V185z"/>
<path fill="#EEDDC2" d="M-302.5,185h10.1v10.1h-10.1V185z"/>
<path fill="#F3E8D4" d="M-292.4,185h10.1v10.1h-10.1V185z M-282.3,185h10.1v10.1h-10.1V185z"/>
<path fill="#F3E8D4" d="M-272.3,185h10.1v10.1h-10.1V185z M-262.2,185h10.1v10.1h-10.1V185z M-252.1,185h10.1v10.1h-10.1V185z
	 M-242,185h10.1v10.1H-242V185z M-231.9,185h10.1v10.1h-10.1V185z"/>
<path fill="#EEDDC2" d="M-221.8,185h10.1v10.1h-10.1V185z"/>
<path d="M-211.8,185h10.1v10.1h-10.1V185z M-302.5,175h10.1v10.1h-10.1V175z"/>
<path fill="#EEDDC2" d="M-292.4,175h10.1v10.1h-10.1V175z M-282.3,175h10.1v10.1h-10.1V175z"/>
<path fill="#EEDDC2" d="M-272.3,175h10.1v10.1h-10.1V175z M-262.2,175h10.1v10.1h-10.1V175z M-252.1,175h10.1v10.1h-10.1V175z
	 M-242,175h10.1v10.1H-242V175z M-231.9,175h10.1v10.1h-10.1V175z"/>
<path d="M-221.8,175h10.1v10.1h-10.1V175z M-292.4,164.9h10.1V175h-10.1V164.9z M-282.3,164.9h10.1V175h-10.1V164.9z"/>
<path d="M-272.3,164.9h10.1V175h-10.1V164.9z M-262.2,164.9h10.1V175h-10.1V164.9z M-252.1,164.9h10.1V175h-10.1V164.9z M-242,164.9
	h10.1V175H-242V164.9z M-231.9,164.9h10.1V175h-10.1V164.9z M-312.6,215.3h10.1v10.1h-10.1V215.3z"/>
<path fill="#518CC0" d="M-302.5,215.3h10.1v10.1h-10.1V215.3z"/>
<path fill="#659AC9" d="M-292.4,215.3h10.1v10.1h-10.1V215.3z M-282.3,215.3h10.1v10.1h-10.1V215.3z"/>
<path fill="#659AC9" d="M-272.3,215.3h10.1v10.1h-10.1V215.3z M-262.2,215.3h10.1v10.1h-10.1V215.3z M-252.1,215.3h10.1v10.1h-10.1
	V215.3z M-242,215.3h10.1v10.1H-242V215.3z M-231.9,215.3h10.1v10.1h-10.1V215.3z"/>
<path fill="#EEDDC2" d="M-221.8,215.3h10.1v10.1h-10.1V215.3z"/>
<path fill="#F3E8D4" d="M-211.8,215.3h10.1v10.1h-10.1V215.3z"/>
<path fill="#EEDDC2" d="M-312.6,205.2h10.1v10.1h-10.1V205.2z M-302.5,205.2h10.1v10.1h-10.1V205.2z"/>
<path fill="#659AC9" d="M-282.3,205.2h10.1v10.1h-10.1V205.2z"/>
<path fill="#EEDDC2" d="M-292.4,205.2h10.1v10.1h-10.1V205.2z M-272.3,205.2h10.1v10.1h-10.1V205.2z"/>
<path fill="#F3E8D4" d="M-262.2,205.2h10.1v10.1h-10.1V205.2z"/>
<path fill="#659AC9" d="M-252.1,205.2h10.1v10.1h-10.1V205.2z M-242,205.2h10.1v10.1H-242V205.2z M-231.9,205.2h10.1v10.1h-10.1
	V205.2z"/>
<path fill="#EEDDC2" d="M-221.8,205.2h10.1v10.1h-10.1V205.2z"/>
<path fill="#F3E8D4" d="M-211.8,205.2h10.1v10.1h-10.1V205.2z"/>
<path fill="#EEDDC2" d="M-312.6,195.1h10.1v10.1h-10.1V195.1z"/>
<path d="M-322.7,215.3h10.1v10.1h-10.1V215.3z M-322.7,205.2h10.1v10.1h-10.1V205.2z M-322.7,195.1h10.1v10.1h-10.1V195.1z"/>
<path fill="#F3E8D4" d="M-302.5,195.1h10.1v10.1h-10.1V195.1z M-292.4,195.1h10.1v10.1h-10.1V195.1z M-282.3,195.1h10.1v10.1h-10.1
	V195.1z"/>
<path fill="#F3E8D4" d="M-272.3,195.1h10.1v10.1h-10.1V195.1z M-262.2,195.1h10.1v10.1h-10.1V195.1z M-252.1,195.1h10.1v10.1h-10.1
	V195.1z M-242,195.1h10.1v10.1H-242V195.1z M-231.9,195.1h10.1v10.1h-10.1V195.1z M-221.8,195.1h10.1v10.1h-10.1V195.1z"/>
<path fill="#F3E8D4" d="M-211.8,195.1h10.1v10.1h-10.1V195.1z"/>
<path d="M-201.7,215.3h10.1v10.1h-10.1V215.3z M-201.7,205.2h10.1v10.1h-10.1V205.2z M-201.7,195.1h10.1v10.1h-10.1V195.1z
	 M-312.6,245.5h10.1v10.1h-10.1V245.5z"/>
<path fill="#F3E8D4" d="M-302.5,245.5h10.1v10.1h-10.1V245.5z M-292.4,245.5h10.1v10.1h-10.1V245.5z M-282.3,245.5h10.1v10.1h-10.1
	V245.5z"/>
<path fill="#F3E8D4" d="M-272.3,245.5h10.1v10.1h-10.1V245.5z M-262.2,245.5h10.1v10.1h-10.1V245.5z M-252.1,245.5h10.1v10.1h-10.1
	V245.5z M-242,245.5h10.1v10.1H-242V245.5z M-231.9,245.5h10.1v10.1h-10.1V245.5z M-221.8,245.5h10.1v10.1h-10.1V245.5z"/>
<path fill="#F3E8D4" d="M-211.8,245.5h10.1v10.1h-10.1V245.5z"/>
<path d="M-312.6,235.4h10.1v10.1h-10.1V235.4z"/>
<path fill="#518CC0" d="M-302.5,235.4h10.1v10.1h-10.1V235.4z"/>
<path fill="#659AC9" d="M-292.4,235.4h10.1v10.1h-10.1V235.4z"/>
<path fill="#518CC0" d="M-282.3,235.4h10.1v10.1h-10.1V235.4z"/>
<path fill="#304C66" d="M-272.3,235.4h10.1v10.1h-10.1V235.4z"/>
<path fill="#518CC0" d="M-262.2,235.4h10.1v10.1h-10.1V235.4z"/>
<path fill="#304C66" d="M-252.1,235.4h10.1v10.1h-10.1V235.4z"/>
<path fill="#518CC0" d="M-242,235.4h10.1v10.1H-242V235.4z"/>
<path fill="#659AC9" d="M-231.9,235.4h10.1v10.1h-10.1V235.4z M-221.8,235.4h10.1v10.1h-10.1V235.4z"/>
<path fill="#EEDDC2" d="M-211.8,235.4h10.1v10.1h-10.1V235.4z"/>
<path d="M-312.6,225.4h10.1v10.1h-10.1V225.4z"/>
<path fill="#518CC0" d="M-302.5,225.4h10.1v10.1h-10.1V225.4z"/>
<path d="M-292.4,225.4h10.1v10.1h-10.1V225.4z"/>
<path fill="#659AC9" d="M-282.3,225.4h10.1v10.1h-10.1V225.4z"/>
<path fill="#659AC9" d="M-272.3,225.4h10.1v10.1h-10.1V225.4z M-262.2,225.4h10.1v10.1h-10.1V225.4z M-252.1,225.4h10.1v10.1h-10.1
	V225.4z M-242,225.4h10.1v10.1H-242V225.4z"/>
<path d="M-231.9,225.4h10.1v10.1h-10.1V225.4z"/>
<path fill="#659AC9" d="M-221.8,225.4h10.1v10.1h-10.1V225.4z"/>
<path fill="#EEDDC2" d="M-211.8,225.4h10.1v10.1h-10.1V225.4z"/>
<path d="M-201.7,245.5h10.1v10.1h-10.1V245.5z M-201.7,235.4h10.1v10.1h-10.1V235.4z"/>
<path d="M-201.7,225.4h10.1v10.1h-10.1V225.4z"/>
<path fill="#F3E8D4" d="M-312.6,275.8h10.1v10.1h-10.1V275.8z M-302.5,275.8h10.1v10.1h-10.1V275.8z M-292.4,275.8h10.1v10.1h-10.1
	V275.8z M-282.3,275.8h10.1v10.1h-10.1V275.8z"/>
<path fill="#F3E8D4" d="M-272.3,275.8h10.1v10.1h-10.1V275.8z M-262.2,275.8h10.1v10.1h-10.1V275.8z M-252.1,275.8h10.1v10.1h-10.1
	V275.8z M-242,275.8h10.1v10.1H-242V275.8z M-231.9,275.8h10.1v10.1h-10.1V275.8z M-221.8,275.8h10.1v10.1h-10.1V275.8z"/>
<path fill="#F3E8D4" d="M-211.8,275.8h10.1v10.1h-10.1V275.8z M-312.6,265.7h10.1v10.1h-10.1V265.7z M-302.5,265.7h10.1v10.1h-10.1
	V265.7z"/>
<path fill="#659AC9" d="M-292.4,265.7h10.1v10.1h-10.1V265.7z M-282.3,265.7h10.1v10.1h-10.1V265.7z"/>
<path fill="#518CC0" d="M-272.3,265.7h10.1v10.1h-10.1V265.7z M-262.2,265.7h10.1v10.1h-10.1V265.7z M-252.1,265.7h10.1v10.1h-10.1
	V265.7z"/>
<path fill="#659AC9" d="M-242,265.7h10.1v10.1H-242V265.7z M-231.9,265.7h10.1v10.1h-10.1V265.7z"/>
<path fill="#F3E8D4" d="M-221.8,265.7h10.1v10.1h-10.1V265.7z"/>
<path fill="#F3E8D4" d="M-211.8,265.7h10.1v10.1h-10.1V265.7z M-312.6,255.6h10.1v10.1h-10.1V255.6z M-322.7,255.5h10.1v10.1h-10.1
	V255.5z"/>
<path fill="#659AC9" d="M-302.5,255.6h10.1v10.1h-10.1V255.6z"/>
<path fill="#304C66" d="M-292.4,255.6h10.1v10.1h-10.1V255.6z M-282.3,255.6h10.1v10.1h-10.1V255.6z M-252.1,265.6h10.1v10.1h-10.1
	V265.6z"/>
<path fill="#963436" d="M-272.3,255.6h10.1v10.1h-10.1V255.6z M-262.2,255.6h10.1v10.1h-10.1V255.6z M-252.1,255.6h10.1v10.1h-10.1
	V255.6z"/>
<path fill="#304C66" d="M-242,255.6h10.1v10.1H-242V255.6z M-231.9,255.6h10.1v10.1h-10.1V255.6z"/>
<path fill="#659AC9" d="M-221.8,255.6h10.1v10.1h-10.1V255.6z"/>
<path fill="#F3E8D4" d="M-211.8,255.6h10.1v10.1h-10.1V255.6z M-201.7,275.8h10.1v10.1h-10.1V275.8z"/>
<path fill="#EEDDC2" d="M-201.7,265.7h10.1v10.1h-10.1V265.7z M-201.7,255.6h10.1v10.1h-10.1V255.6z M-191.6,275.8h10.1v10.1h-10.1
	V275.8z M-191.6,265.7h10.1v10.1h-10.1V265.7z"/>
<path d="M-191.6,255.6h10.1v10.1h-10.1V255.6z"/>
<path fill="#EEDDC2" d="M-181.5,275.8h10.1v10.1h-10.1V275.8z"/>
<path d="M-181.5,265.7h10.1v10.1h-10.1V265.7z M-171.4,275.8h10.1v10.1h-10.1V275.8z"/>
<path fill="#F3E8D4" d="M-312.6,306h10.1v10.1h-10.1V306z M-302.5,306h10.1v10.1h-10.1V306z M-292.4,306h10.1v10.1h-10.1V306z
	 M-282.3,306h10.1v10.1h-10.1V306z M-262.2,306h10.1v10.1h-10.1V306z M-242,306h10.1v10.1H-242V306z M-231.9,306h10.1v10.1h-10.1
	V306z M-221.8,306h10.1v10.1h-10.1V306z"/>
<path fill="#F3E8D4" d="M-211.8,306h10.1v10.1h-10.1V306z M-312.6,295.9h10.1V306h-10.1V295.9z M-302.5,295.9h10.1V306h-10.1V295.9z
	 M-292.4,295.9h10.1V306h-10.1V295.9z M-282.3,295.9h10.1V306h-10.1V295.9z M-262.2,295.9h10.1V306h-10.1V295.9z M-242,295.9h10.1
	V306H-242V295.9z M-231.9,295.9h10.1V306h-10.1V295.9z M-221.8,295.9h10.1V306h-10.1V295.9z"/>
<path fill="#F3E8D4" d="M-211.8,295.9h10.1V306h-10.1V295.9z M-312.6,285.9h10.1V296h-10.1V285.9z M-302.5,285.9h10.1V296h-10.1
	V285.9z M-292.4,285.9h10.1V296h-10.1V285.9z M-282.3,285.9h10.1V296h-10.1V285.9z M-262.2,285.9h10.1V296h-10.1V285.9z M-252.1,306
	h10.1v10.1h-10.1V306z M-252.1,295.9h10.1V306h-10.1V295.9z"/>
<path fill="#F3E8D4" d="M-252.1,285.9h10.1V296h-10.1V285.9z"/>
<path fill="#D8C6A3" d="M-272.2,306h10.1v10.1h-10.1V306z M-272.2,295.9h10.1V306h-10.1V295.9z"/>
<path fill="#D8C6A3" d="M-272.2,285.9h10.1V296h-10.1V285.9z"/>
<path fill="#F3E8D4" d="M-242,285.9h10.1V296H-242V285.9z M-231.9,285.9h10.1V296h-10.1V285.9z M-221.8,285.9h10.1V296h-10.1V285.9z
	"/>
<path fill="#F3E8D4" d="M-211.8,285.9h10.1V296h-10.1V285.9z M-201.7,306h10.1v10.1h-10.1V306z M-201.7,295.9h10.1V306h-10.1V295.9z
	"/>
<path fill="#F3E8D4" d="M-201.7,285.9h10.1V296h-10.1V285.9z"/>
<path fill="#EEDDC2" d="M-191.6,306h10.1v10.1h-10.1V306z"/>
<path fill="#F3E8D4" d="M-191.6,295.9h10.1V306h-10.1V295.9z M-181.5,295.9h10.1V306h-10.1V295.9z M-181.5,306h10.1v10.1h-10.1V306z
	"/>
<path fill="#F3E8D4" d="M-191.6,285.9h10.1V296h-10.1V285.9z M-181.5,285.9h10.1V296h-10.1V285.9z M-171.4,306h10.1v10.1h-10.1V306z
	 M-171.4,295.9h10.1V306h-10.1V295.9z"/>
<path fill="#F3E8D4" d="M-171.4,285.9h10.1V296h-10.1V285.9z M-161.3,306h10.1v10.1h-10.1V306z"/>
<path d="M-161.3,295.9h10.1V306h-10.1V295.9z"/>
<path d="M-161.3,285.9h10.1V296h-10.1V285.9z M-151.3,306h10.1v10.1h-10.1V306z"/>
<path fill="#EEDDC2" d="M-312.6,336.3h10.1v10.1h-10.1V336.3z"/>
<path fill="#F3E8D4" d="M-302.5,336.3h10.1v10.1h-10.1V336.3z M-292.4,336.3h10.1v10.1h-10.1V336.3z M-282.3,336.3h10.1v10.1h-10.1
	V336.3z"/>
<path fill="#F3E8D4" d="M-272.3,336.3h10.1v10.1h-10.1V336.3z M-262.2,336.3h10.1v10.1h-10.1V336.3z M-252.1,336.3h10.1v10.1h-10.1
	V336.3z M-242,336.3h10.1v10.1H-242V336.3z M-231.9,336.3h10.1v10.1h-10.1V336.3z M-221.8,336.3h10.1v10.1h-10.1V336.3z"/>
<path fill="#F3E8D4" d="M-211.8,336.3h10.1v10.1h-10.1V336.3z"/>
<path fill="#EEDDC2" d="M-312.6,326.2h10.1v10.1h-10.1V326.2z"/>
<path fill="#F3E8D4" d="M-302.5,326.2h10.1v10.1h-10.1V326.2z M-292.4,326.2h10.1v10.1h-10.1V326.2z M-282.3,326.2h10.1v10.1h-10.1
	V326.2z"/>
<path fill="#F3E8D4" d="M-272.3,326.2h10.1v10.1h-10.1V326.2z M-262.2,326.2h10.1v10.1h-10.1V326.2z M-252.1,326.2h10.1v10.1h-10.1
	V326.2z M-242,326.2h10.1v10.1H-242V326.2z M-231.9,326.2h10.1v10.1h-10.1V326.2z M-221.8,326.2h10.1v10.1h-10.1V326.2z"/>
<path fill="#F3E8D4" d="M-211.8,326.2h10.1v10.1h-10.1V326.2z"/>
<path fill="#D8C6A3" d="M-312.6,316.1h10.1v10.1h-10.1V316.1z M-312.6,306h10.1v10.1h-10.1V306z M-302.5,316.1h10.1v10.1h-10.1
	V316.1z M-292.4,316.1h10.1v10.1h-10.1V316.1z M-282.3,316.1h10.1v10.1h-10.1V316.1z M-262.2,316.1h10.1v10.1h-10.1V316.1z
	 M-252.1,316.1h10.1v10.1h-10.1V316.1z"/>
<path fill="#F3E8D4" d="M-272.3,316.1h10.1v10.1h-10.1V316.1z"/>
<path fill="#D8C6A3" d="M-242,316.1h10.1v10.1H-242V316.1z M-231.9,316.1h10.1v10.1h-10.1V316.1z M-221.8,316.1h10.1v10.1h-10.1
	V316.1z"/>
<path fill="#D8C6A3" d="M-211.8,316.1h10.1v10.1h-10.1V316.1z M-201.7,306h10.1v10.1h-10.1V306z M-201.7,336.3h10.1v10.1h-10.1
	V336.3z M-201.7,326.2h10.1v10.1h-10.1V326.2z M-181.5,316.1h10.1v10.1h-10.1V316.1z"/>
<path fill="#F3E8D4" d="M-201.7,316.1h10.1v10.1h-10.1V316.1z"/>
<path fill="#EEDDC2" d="M-191.6,336.3h10.1v10.1h-10.1V336.3z M-191.6,326.2h10.1v10.1h-10.1V326.2z"/>
<path d="M-181.5,336.3h10.1v10.1h-10.1V336.3z M-181.5,326.2h10.1v10.1h-10.1V326.2z M-191.6,316.1h10.1v10.1h-10.1V316.1z"/>
<path fill="#EEDDC2" d="M-171.4,336.3h10.1v10.1h-10.1V336.3z M-171.4,346.4h10.1v10.1h-10.1V346.4z M-171.4,326.2h10.1v10.1h-10.1
	V326.2z M-171.4,316.1h10.1v10.1h-10.1V316.1z"/>
<path fill="#F3E8D4" d="M-161.3,336.3h10.1v10.1h-10.1V336.3z M-161.3,326.2h10.1v10.1h-10.1V326.2z M-161.3,316.1h10.1v10.1h-10.1
	V316.1z"/>
<path d="M-151.3,336.3h10.1v10.1h-10.1V336.3z"/>
<path fill="#EEDDC2" d="M-151.3,326.2h10.1v10.1h-10.1V326.2z M-151.3,316.1h10.1v10.1h-10.1V316.1z"/>
<path d="M-141.2,326.2h10.1v10.1h-10.1V326.2z M-141.2,316.1h10.1v10.1h-10.1V316.1z M-312.6,366.5h10.1v10.1h-10.1V366.5z"/>
<path fill="#EEDDC2" d="M-302.5,366.5h10.1v10.1h-10.1V366.5z M-292.4,366.5h10.1v10.1h-10.1V366.5z"/>
<path fill="#F3E8D4" d="M-282.3,366.5h10.1v10.1h-10.1V366.5z"/>
<path fill="#D8C6A3" d="M-272.3,366.5h10.1v10.1h-10.1V366.5z M-262.2,366.5h10.1v10.1h-10.1V366.5z M-252.1,366.5h10.1v10.1h-10.1
	V366.5z"/>
<path fill="#F3E8D4" d="M-242,366.5h10.1v10.1H-242V366.5z M-231.9,366.5h10.1v10.1h-10.1V366.5z M-221.8,366.5h10.1v10.1h-10.1
	V366.5z"/>
<path fill="#D8C6A3" d="M-211.8,366.5h10.1v10.1h-10.1V366.5z"/>
<path d="M-312.6,356.4h10.1v10.1h-10.1V356.4z M-322.7,346.4h10.1v10.1h-10.1V346.4z M-322.7,336.3h10.1v10.1h-10.1V336.3z
	 M-322.7,326.2h10.1v10.1h-10.1V326.2z M-322.7,316.1h10.1v10.1h-10.1V316.1z M-322.7,306h10.1v10.1h-10.1V306z"/>
<path fill="#EEDDC2" d="M-302.5,356.4h10.1v10.1h-10.1V356.4z"/>
<path fill="#F3E8D4" d="M-292.4,356.4h10.1v10.1h-10.1V356.4z M-282.3,356.4h10.1v10.1h-10.1V356.4z"/>
<path fill="#F3E8D4" d="M-272.3,356.4h10.1v10.1h-10.1V356.4z M-262.2,356.4h10.1v10.1h-10.1V356.4z M-252.1,356.4h10.1v10.1h-10.1
	V356.4z M-242,356.4h10.1v10.1H-242V356.4z M-231.9,356.4h10.1v10.1h-10.1V356.4z M-221.8,356.4h10.1v10.1h-10.1V356.4z"/>
<path fill="#D8C6A3" d="M-201.7,356.4h10.1v10.1h-10.1V356.4z M-312.6,346.4h10.1v10.1h-10.1V346.4z"/>
<path fill="#EEDDC2" d="M-302.5,346.4h10.1v10.1h-10.1V346.4z"/>
<path fill="#F3E8D4" d="M-292.4,346.4h10.1v10.1h-10.1V346.4z M-282.3,346.4h10.1v10.1h-10.1V346.4z"/>
<path fill="#F3E8D4" d="M-272.3,346.4h10.1v10.1h-10.1V346.4z M-262.2,346.4h10.1v10.1h-10.1V346.4z M-252.1,346.4h10.1v10.1h-10.1
	V346.4z M-242,346.4h10.1v10.1H-242V346.4z M-231.9,346.4h10.1v10.1h-10.1V346.4z M-221.8,346.4h10.1v10.1h-10.1V346.4z"/>
<path fill="#D8C6A3" d="M-201.7,346.4h10.1v10.1h-10.1V346.4z"/>
<path d="M-201.7,366.5h10.1v10.1h-10.1V366.5z M-201.7,356.4h10.1v10.1h-10.1V356.4z M-191.6,366.5h10.1v10.1h-10.1V366.5z"/>
<path fill="#EEDDC2" d="M-211.8,356.4h10.1v10.1h-10.1V356.4z"/>
<path fill="#EEDDC2" d="M-211.8,346.4h10.1v10.1h-10.1V346.4z"/>
<path fill="#518CC0" d="M-191.6,356.4h10.1v10.1h-10.1V356.4z"/>
<path d="M-191.6,346.4h10.1v10.1h-10.1V346.4z"/>
<path fill="#EEDDC2" d="M-181.5,346.4h10.1v10.1h-10.1V346.4z"/>
<path fill="#F3E8D4" d="M-161.3,346.4h10.1v10.1h-10.1V346.4z"/>
<path d="M-151.3,346.4h10.1v10.1h-10.1V346.4z M-302.5,396.8h10.1v10.1h-10.1V396.8z"/>
<path fill="#EEDDC2" d="M-292.4,396.8h10.1v10.1h-10.1V396.8z"/>
<path fill="#F3E8D4" d="M-282.3,396.8h10.1v10.1h-10.1V396.8z"/>
<path d="M-272.3,396.8h10.1v10.1h-10.1V396.8z M-242,396.8h10.1v10.1H-242V396.8z"/>
<path fill="#EEDDC2" d="M-231.9,396.8h10.1v10.1h-10.1V396.8z"/>
<path fill="#F3E8D4" d="M-221.8,396.8h10.1v10.1h-10.1V396.8z"/>
<path d="M-211.8,396.8h10.1v10.1h-10.1V396.8z M-292.4,386.7h10.1v10.1h-10.1V386.7z"/>
<path fill="#F3E8D4" d="M-282.3,386.7h10.1v10.1h-10.1V386.7z"/>
<path d="M-272.3,386.7h10.1v10.1h-10.1V386.7z M-242,386.7h10.1v10.1H-242V386.7z"/>
<path fill="#EEDDC2" d="M-231.9,386.7h10.1v10.1h-10.1V386.7z"/>
<path d="M-221.8,386.7h10.1v10.1h-10.1V386.7z M-312.6,376.6h10.1v10.1h-10.1V376.6z M-302.5,376.6h10.1v10.1h-10.1V376.6z"/>
<path fill="#EEDDC2" d="M-292.4,376.6h10.1v10.1h-10.1V376.6z M-282.3,376.6h10.1v10.1h-10.1V376.6z"/>
<path fill="#D8C6A3" d="M-272.3,376.6h10.1v10.1h-10.1V376.6z"/>
<path d="M-262.2,376.6h10.1v10.1h-10.1V376.6z M-252.1,376.6h10.1v10.1h-10.1V376.6z"/>
<path fill="#D8C6A3" d="M-242,376.6h10.1v10.1H-242V376.6z"/>
<path fill="#EEDDC2" d="M-231.9,376.6h10.1v10.1h-10.1V376.6z M-221.8,376.6h10.1v10.1h-10.1V376.6z"/>
<path d="M-211.8,376.6h10.1v10.1h-10.1V376.6z M-201.7,376.6h10.1v10.1h-10.1V376.6z M-181.5,376.6h10.1v10.1h-10.1V376.6z"/>
<path fill="#518CC0" d="M-181.5,366.5h10.1v10.1h-10.1V366.5z M-181.5,356.4h10.1v10.1h-10.1V356.4z"/>
<path fill="#518CC0" d="M-181.5,346.4h10.1v10.1h-10.1V346.4z"/>
<path d="M-171.4,376.6h10.1v10.1h-10.1V376.6z"/>
<path fill="#659AC9" d="M-171.4,366.5h10.1v10.1h-10.1V366.5z M-171.4,356.4h10.1v10.1h-10.1V356.4z"/>
<path d="M-161.3,376.6h10.1v10.1h-10.1V376.6z M-161.3,366.5h10.1v10.1h-10.1V366.5z M-161.3,356.4h10.1v10.1h-10.1V356.4z
	 M-312.6,416.9h10.1V427h-10.1V416.9z M-302.5,416.9h10.1V427h-10.1V416.9z M-292.4,416.9h10.1V427h-10.1V416.9z M-282.3,416.9h10.1
	V427h-10.1V416.9z"/>
<path d="M-272.3,416.9h10.1V427h-10.1V416.9z M-242,416.9h10.1V427H-242V416.9z M-231.9,416.9h10.1V427h-10.1V416.9z M-221.8,416.9
	h10.1V427h-10.1V416.9z"/>
<path d="M-211.8,416.9h10.1V427h-10.1V416.9z M-312.6,406.9h10.1V417h-10.1V406.9z"/>
<path fill="#518CC0" d="M-302.5,406.9h10.1V417h-10.1V406.9z"/>
<path fill="#659AC9" d="M-292.4,406.9h10.1V417h-10.1V406.9z"/>
<path fill="#F3E8D4" d="M-282.3,406.9h10.1V417h-10.1V406.9z"/>
<path d="M-272.3,406.9h10.1V417h-10.1V406.9z M-242,406.9h10.1V417H-242V406.9z"/>
<path fill="#EEDDC2" d="M-231.9,406.9h10.1V417h-10.1V406.9z"/>
<path fill="#518CC0" d="M-221.8,406.9h10.1V417h-10.1V406.9z"/>
<path fill="#659AC9" d="M-211.8,406.9h10.1V417h-10.1V406.9z"/>
<path d="M-201.7,416.9h10.1V427h-10.1V416.9z"/>
<path d="M-201.7,406.9h10.1V417h-10.1V406.9z"/>
<path fill="#EFDEC3" d="M-262.2,275.8h10.1v10.1h-10.1V275.8z"/>
<path fill="#EFDEC3" d="M-272.2,275.8h10.1v10.1h-10.1V275.8z M-252.1,275.8h10.1v10.1h-10.1V275.8z"/>
<path fill="#D8C6A3" d="M-272.3,356.4h10.1v10.1h-10.1V356.4z"/>
<path fill="#EFDEC3" d="M-342.8,215.3h10.1v10.1h-10.1V215.3z M-342.8,205.2h10.1v10.1h-10.1V205.2z M-342.8,195h10.1v10.1h-10.1
	V195z"/>
</svg>
