<?xml version="1.0" encoding="utf-8"?>
<!-- Generator: Adobe Illustrator 19.1.0, SVG Export Plug-In . SVG Version: 6.00 Build 0)  -->
<svg version="1.1" id="Layer_1" xmlns="http://www.w3.org/2000/svg" xmlns:xlink="http://www.w3.org/1999/xlink" x="0px" y="0px"
	 width="221.8px" height="262.2px" viewBox="-368 149.8 221.8 262.2" enable-background="new -368 149.8 221.8 262.2"
	 xml:space="preserve">
<path d="M-317.6,170h10.1v10.1h-10.1V170z"/>
<path fill="#EEDDC2" d="M-307.5,170h10.1v10.1h-10.1V170z"/>
<path fill="#F3E8D4" d="M-297.4,170h10.1v10.1h-10.1V170z M-287.3,170h10.1v10.1h-10.1V170z"/>
<path fill="#F3E8D4" d="M-277.3,170h10.1v10.1h-10.1V170z M-267.2,170h10.1v10.1h-10.1V170z M-257.1,170h10.1v10.1h-10.1V170z
	 M-247,170h10.1v10.1H-247V170z M-236.9,170h10.1v10.1h-10.1V170z"/>
<path fill="#EEDDC2" d="M-226.8,170h10.1v10.1h-10.1V170z"/>
<path d="M-216.8,170h10.1v10.1h-10.1V170z M-307.5,159.9h10.1V170h-10.1V159.9z"/>
<path fill="#EEDDC2" d="M-297.4,159.9h10.1V170h-10.1V159.9z M-287.3,159.9h10.1V170h-10.1V159.9z"/>
<path fill="#EEDDC2" d="M-277.3,159.9h10.1V170h-10.1V159.9z M-267.2,159.9h10.1V170h-10.1V159.9z M-257.1,159.9h10.1V170h-10.1
	V159.9z M-247,159.9h10.1V170H-247V159.9z M-236.9,159.9h10.1V170h-10.1V159.9z"/>
<path d="M-226.8,159.9h10.1V170h-10.1V159.9z M-297.4,149.8h10.1v10.1h-10.1V149.8z M-287.3,149.8h10.1v10.1h-10.1V149.8z"/>
<path d="M-277.3,149.8h10.1v10.1h-10.1V149.8z M-267.2,149.8h10.1v10.1h-10.1V149.8z M-257.1,149.8h10.1v10.1h-10.1V149.8z
	 M-247,149.8h10.1v10.1H-247V149.8z M-236.9,149.8h10.1v10.1h-10.1V149.8z M-317.6,200.2h10.1v10.1h-10.1V200.2z"/>
<path fill="#518CC0" d="M-307.5,200.2h10.1v10.1h-10.1V200.2z"/>
<path fill="#659AC9" d="M-297.4,200.2h10.1v10.1h-10.1V200.2z M-287.3,200.2h10.1v10.1h-10.1V200.2z"/>
<path fill="#659AC9" d="M-277.3,200.2h10.1v10.1h-10.1V200.2z M-267.2,200.2h10.1v10.1h-10.1V200.2z M-257.1,200.2h10.1v10.1h-10.1
	V200.2z M-247,200.2h10.1v10.1H-247V200.2z M-236.9,200.2h10.1v10.1h-10.1V200.2z"/>
<path fill="#EEDDC2" d="M-226.8,200.2h10.1v10.1h-10.1V200.2z"/>
<path fill="#F3E8D4" d="M-216.8,200.2h10.1v10.1h-10.1V200.2z"/>
<path fill="#EEDDC2" d="M-317.6,190.1h10.1v10.1h-10.1V190.1z M-307.5,190.1h10.1v10.1h-10.1V190.1z"/>
<path fill="#659AC9" d="M-297.4,190.1h10.1v10.1h-10.1V190.1z"/>
<path fill="#EEDDC2" d="M-287.3,190.1h10.1v10.1h-10.1V190.1z"/>
<path fill="#EEDDC2" d="M-277.3,190.1h10.1v10.1h-10.1V190.1z"/>
<path fill="#F3E8D4" d="M-267.2,190.1h10.1v10.1h-10.1V190.1z"/>
<path fill="#659AC9" d="M-257.1,190.1h10.1v10.1h-10.1V190.1z M-247,190.1h10.1v10.1H-247V190.1z M-236.9,190.1h10.1v10.1h-10.1
	V190.1z"/>
<path fill="#EEDDC2" d="M-226.8,190.1h10.1v10.1h-10.1V190.1z"/>
<path fill="#F3E8D4" d="M-216.8,190.1h10.1v10.1h-10.1V190.1z"/>
<path fill="#EEDDC2" d="M-317.6,180h10.1v10.1h-10.1V180z"/>
<path d="M-327.7,200.2h10.1v10.1h-10.1V200.2z M-327.7,190.1h10.1v10.1h-10.1V190.1z M-327.7,180h10.1v10.1h-10.1V180z"/>
<path fill="#F3E8D4" d="M-307.5,180h10.1v10.1h-10.1V180z M-297.4,180h10.1v10.1h-10.1V180z M-287.3,180h10.1v10.1h-10.1V180z"/>
<path fill="#F3E8D4" d="M-277.3,180h10.1v10.1h-10.1V180z M-267.2,180h10.1v10.1h-10.1V180z M-257.1,180h10.1v10.1h-10.1V180z
	 M-247,180h10.1v10.1H-247V180z M-236.9,180h10.1v10.1h-10.1V180z M-226.8,180h10.1v10.1h-10.1V180z"/>
<path fill="#F3E8D4" d="M-216.8,180h10.1v10.1h-10.1V180z"/>
<path d="M-206.7,200.2h10.1v10.1h-10.1V200.2z M-206.7,190.1h10.1v10.1h-10.1V190.1z M-206.7,180h10.1v10.1h-10.1V180z
	 M-317.6,230.5h10.1v10.1h-10.1V230.5z"/>
<path fill="#F3E8D4" d="M-307.5,230.5h10.1v10.1h-10.1V230.5z M-297.4,230.5h10.1v10.1h-10.1V230.5z M-287.3,230.5h10.1v10.1h-10.1
	V230.5z"/>
<path fill="#F3E8D4" d="M-277.3,230.5h10.1v10.1h-10.1V230.5z M-267.2,230.5h10.1v10.1h-10.1V230.5z M-257.1,230.5h10.1v10.1h-10.1
	V230.5z M-247,230.5h10.1v10.1H-247V230.5z M-236.9,230.5h10.1v10.1h-10.1V230.5z M-226.8,230.5h10.1v10.1h-10.1V230.5z"/>
<path fill="#F3E8D4" d="M-216.8,230.5h10.1v10.1h-10.1V230.5z"/>
<path d="M-317.6,220.4h10.1v10.1h-10.1V220.4z"/>
<path fill="#518CC0" d="M-307.5,220.4h10.1v10.1h-10.1V220.4z"/>
<path fill="#659AC9" d="M-297.4,220.4h10.1v10.1h-10.1V220.4z"/>
<path fill="#518CC0" d="M-287.3,220.4h10.1v10.1h-10.1V220.4z"/>
<path fill="#304C66" d="M-277.3,220.4h10.1v10.1h-10.1V220.4z"/>
<path fill="#518CC0" d="M-267.2,220.4h10.1v10.1h-10.1V220.4z"/>
<path fill="#304C66" d="M-257.1,220.4h10.1v10.1h-10.1V220.4z"/>
<path fill="#518CC0" d="M-247,220.4h10.1v10.1H-247V220.4z"/>
<path fill="#659AC9" d="M-236.9,220.4h10.1v10.1h-10.1V220.4z M-226.8,220.4h10.1v10.1h-10.1V220.4z"/>
<path fill="#EEDDC2" d="M-216.8,220.4h10.1v10.1h-10.1V220.4z"/>
<path d="M-317.6,210.3h10.1v10.1h-10.1V210.3z"/>
<path fill="#518CC0" d="M-307.5,210.3h10.1v10.1h-10.1V210.3z"/>
<path d="M-297.4,210.3h10.1v10.1h-10.1V210.3z"/>
<path fill="#659AC9" d="M-287.3,210.3h10.1v10.1h-10.1V210.3z"/>
<path fill="#659AC9" d="M-277.3,210.3h10.1v10.1h-10.1V210.3z M-267.2,210.3h10.1v10.1h-10.1V210.3z M-257.1,210.3h10.1v10.1h-10.1
	V210.3z M-247,210.3h10.1v10.1H-247V210.3z"/>
<path d="M-236.9,210.3h10.1v10.1h-10.1V210.3z"/>
<path fill="#659AC9" d="M-226.8,210.3h10.1v10.1h-10.1V210.3z"/>
<path fill="#EEDDC2" d="M-216.8,210.3h10.1v10.1h-10.1V210.3z"/>
<path d="M-206.7,230.5h10.1v10.1h-10.1V230.5z M-206.7,220.4h10.1v10.1h-10.1V220.4z M-206.7,210.3h10.1v10.1h-10.1V210.3z"/>
<path fill="#BD4E9C" d="M-327.8,260.7h10.1v10.1h-10.1V260.7z"/>
<path fill="#F3E8D4" d="M-317.6,260.7h10.1v10.1h-10.1V260.7z M-307.5,260.7h10.1v10.1h-10.1V260.7z M-297.4,260.7h10.1v10.1h-10.1
	V260.7z M-287.3,260.7h10.1v10.1h-10.1V260.7z"/>
<path fill="#F3E8D4" d="M-277.3,260.7h10.1v10.1h-10.1V260.7z M-267.2,260.7h10.1v10.1h-10.1V260.7z M-257.1,260.7h10.1v10.1h-10.1
	V260.7z M-247,260.7h10.1v10.1H-247V260.7z M-236.9,260.7h10.1v10.1h-10.1V260.7z M-226.8,260.7h10.1v10.1h-10.1V260.7z"/>
<path fill="#F3E8D4" d="M-216.8,260.7h10.1v10.1h-10.1V260.7z M-317.6,250.6h10.1v10.1h-10.1V250.6z M-307.5,250.6h10.1v10.1h-10.1
	V250.6z"/>
<path fill="#659AC9" d="M-297.4,250.6h10.1v10.1h-10.1V250.6z M-287.3,250.6h10.1v10.1h-10.1V250.6z"/>
<path fill="#659AC9" d="M-277.3,250.6h10.1v10.1h-10.1V250.6z M-267.2,250.6h10.1v10.1h-10.1V250.6z M-257.1,250.6h10.1v10.1h-10.1
	V250.6z M-247,250.6h10.1v10.1H-247V250.6z M-236.9,250.6h10.1v10.1h-10.1V250.6z"/>
<path fill="#F3E8D4" d="M-226.8,250.6h10.1v10.1h-10.1V250.6z"/>
<path fill="#F3E8D4" d="M-216.8,250.6h10.1v10.1h-10.1V250.6z M-317.6,240.5h10.1v10.1h-10.1V240.5z"/>
<path fill="#EEDDC2" d="M-327.7,260.7h10.1v10.1h-10.1V260.7z M-327.7,250.6h10.1v10.1h-10.1V250.6z"/>
<path d="M-327.7,240.5h10.1v10.1h-10.1V240.5z"/>
<path fill="#D8C6A3" d="M-337.8,260.7h10.1v10.1h-10.1V260.7z"/>
<path d="M-337.8,250.6h10.1v10.1h-10.1V250.6z M-347.8,260.7h10.1v10.1h-10.1V260.7z"/>
<path fill="#659AC9" d="M-307.5,240.5h10.1v10.1h-10.1V240.5z"/>
<path fill="#304C66" d="M-297.4,240.5h10.1v10.1h-10.1V240.5z M-287.3,240.5h10.1v10.1h-10.1V240.5z"/>
<path fill="#963436" d="M-277.3,240.5h10.1v10.1h-10.1V240.5z M-267.2,240.5h10.1v10.1h-10.1V240.5z M-257.1,240.5h10.1v10.1h-10.1
	V240.5z"/>
<path fill="#304C66" d="M-247,240.5h10.1v10.1H-247V240.5z M-236.9,240.5h10.1v10.1h-10.1V240.5z"/>
<path fill="#659AC9" d="M-226.8,240.5h10.1v10.1h-10.1V240.5z"/>
<path fill="#F3E8D4" d="M-216.8,240.5h10.1v10.1h-10.1V240.5z M-206.7,260.7h10.1v10.1h-10.1V260.7z"/>
<path fill="#EEDDC2" d="M-206.7,250.6h10.1v10.1h-10.1V250.6z M-206.7,240.5h10.1v10.1h-10.1V240.5z M-196.6,260.7h10.1v10.1h-10.1
	V260.7z M-196.6,250.6h10.1v10.1h-10.1V250.6z"/>
<path d="M-196.6,240.5h10.1v10.1h-10.1V240.5z"/>
<path fill="#EEDDC2" d="M-186.5,260.7h10.1v10.1h-10.1V260.7z"/>
<path d="M-186.5,250.6h10.1v10.1h-10.1V250.6z M-176.4,260.7h10.1v10.1h-10.1V260.7z"/>
<path fill="#F3E8D4" d="M-327.8,291h10.1v10.1h-10.1V291z M-317.6,291h10.1v10.1h-10.1V291z M-307.5,291h10.1v10.1h-10.1V291z
	 M-297.4,291h10.1v10.1h-10.1V291z M-287.3,291h10.1v10.1h-10.1V291z"/>
<path fill="#F3E8D4" d="M-277.3,291h10.1v10.1h-10.1V291z M-267.2,291h10.1v10.1h-10.1V291z"/>
<path fill="#D8C6A3" d="M-257.1,291h10.1v10.1h-10.1V291z"/>
<path fill="#F3E8D4" d="M-247,291h10.1v10.1H-247V291z M-236.9,291h10.1v10.1h-10.1V291z M-226.8,291h10.1v10.1h-10.1V291z"/>
<path fill="#F3E8D4" d="M-216.8,291h10.1v10.1h-10.1V291z M-317.6,280.9h10.1V291h-10.1V280.9z M-307.5,280.9h10.1V291h-10.1V280.9z
	 M-297.4,280.9h10.1V291h-10.1V280.9z M-287.3,280.9h10.1V291h-10.1V280.9z"/>
<path fill="#F3E8D4" d="M-277.3,280.9h10.1V291h-10.1V280.9z M-267.2,280.9h10.1V291h-10.1V280.9z"/>
<path fill="#D8C6A3" d="M-257.1,280.9h10.1V291h-10.1V280.9z"/>
<path fill="#F3E8D4" d="M-247,280.9h10.1V291H-247V280.9z M-236.9,280.9h10.1V291h-10.1V280.9z M-226.8,280.9h10.1V291h-10.1V280.9z
	"/>
<path fill="#F3E8D4" d="M-216.8,280.9h10.1V291h-10.1V280.9z M-317.6,270.8h10.1v10.1h-10.1V270.8z"/>
<path fill="#EEDDC2" d="M-327.7,291h10.1v10.1h-10.1V291z M-327.7,280.9h10.1V291h-10.1V280.9z M-327.7,270.8h10.1v10.1h-10.1V270.8
	z"/>
<path fill="#D8C6A3" d="M-337.8,291h10.1v10.1h-10.1V291z M-337.8,280.9h10.1V291h-10.1V280.9z M-337.8,270.8h10.1v10.1h-10.1V270.8
	z"/>
<path fill="#EEDDC2" d="M-347.8,291h10.1v10.1h-10.1V291z M-347.8,280.9h10.1V291h-10.1V280.9z M-347.8,270.8h10.1v10.1h-10.1V270.8
	z"/>
<path fill="#F3E8D4" d="M-307.5,270.8h10.1v10.1h-10.1V270.8z M-297.4,270.8h10.1v10.1h-10.1V270.8z M-287.3,270.8h10.1v10.1h-10.1
	V270.8z"/>
<path fill="#F3E8D4" d="M-277.3,270.8h10.1v10.1h-10.1V270.8z M-267.2,270.8h10.1v10.1h-10.1V270.8z"/>
<path fill="#D8C6A3" d="M-257.1,270.8h10.1v10.1h-10.1V270.8z"/>
<path fill="#F3E8D4" d="M-247,270.8h10.1v10.1H-247V270.8z M-236.9,270.8h10.1v10.1h-10.1V270.8z M-226.8,270.8h10.1v10.1h-10.1
	V270.8z"/>
<path fill="#F3E8D4" d="M-216.8,270.8h10.1v10.1h-10.1V270.8z M-206.7,291h10.1v10.1h-10.1V291z M-206.7,280.9h10.1V291h-10.1V280.9
	z M-206.7,270.8h10.1v10.1h-10.1V270.8z"/>
<path fill="#EEDDC2" d="M-196.6,291h10.1v10.1h-10.1V291z"/>
<path fill="#F3E8D4" d="M-196.6,280.9h10.1V291h-10.1V280.9z M-196.6,270.8h10.1v10.1h-10.1V270.8z"/>
<path fill="#EEDDC2" d="M-186.5,291h10.1v10.1h-10.1V291z M-186.5,280.9h10.1V291h-10.1V280.9z"/>
<path fill="#F3E8D4" d="M-186.5,270.8h10.1v10.1h-10.1V270.8z M-176.4,291h10.1v10.1h-10.1V291z M-176.4,280.9h10.1V291h-10.1V280.9
	z M-176.4,270.8h10.1v10.1h-10.1V270.8z M-166.3,291h10.1v10.1h-10.1V291z"/>
<path d="M-166.3,280.9h10.1V291h-10.1V280.9z M-166.3,270.8h10.1v10.1h-10.1V270.8z M-156.3,291h10.1v10.1h-10.1V291z"/>
<path fill="#EEDDC2" d="M-357.9,291h10.1v10.1h-10.1V291z"/>
<path d="M-357.9,280.9h10.1V291h-10.1V280.9z M-357.9,270.8h10.1v10.1h-10.1V270.8z M-368,291h10.1v10.1H-368V291z"/>
<path fill="#F3E8D4" d="M-327.8,321.2h10.1v10.1h-10.1V321.2z"/>
<path fill="#EEDDC2" d="M-317.6,321.2h10.1v10.1h-10.1V321.2z"/>
<path fill="#F3E8D4" d="M-307.5,321.2h10.1v10.1h-10.1V321.2z M-297.4,321.2h10.1v10.1h-10.1V321.2z M-287.3,321.2h10.1v10.1h-10.1
	V321.2z"/>
<path fill="#F3E8D4" d="M-277.3,321.2h10.1v10.1h-10.1V321.2z M-267.2,321.2h10.1v10.1h-10.1V321.2z M-257.1,321.2h10.1v10.1h-10.1
	V321.2z M-247,321.2h10.1v10.1H-247V321.2z M-236.9,321.2h10.1v10.1h-10.1V321.2z M-226.8,321.2h10.1v10.1h-10.1V321.2z"/>
<path fill="#F3E8D4" d="M-216.8,321.2h10.1v10.1h-10.1V321.2z"/>
<path fill="#EEDDC2" d="M-317.6,311.1h10.1v10.1h-10.1V311.1z"/>
<path fill="#F3E8D4" d="M-307.5,311.1h10.1v10.1h-10.1V311.1z M-297.4,311.1h10.1v10.1h-10.1V311.1z M-287.3,311.1h10.1v10.1h-10.1
	V311.1z"/>
<path fill="#F3E8D4" d="M-277.3,311.1h10.1v10.1h-10.1V311.1z M-267.2,311.1h10.1v10.1h-10.1V311.1z M-257.1,311.1h10.1v10.1h-10.1
	V311.1z M-247,311.1h10.1v10.1H-247V311.1z M-236.9,311.1h10.1v10.1h-10.1V311.1z M-226.8,311.1h10.1v10.1h-10.1V311.1z"/>
<path fill="#F3E8D4" d="M-216.8,311.1h10.1v10.1h-10.1V311.1z"/>
<path fill="#D8C6A3" d="M-317.6,301h10.1v10.1h-10.1V301z M-327.7,321.2h10.1v10.1h-10.1V321.2z M-327.7,311.1h10.1v10.1h-10.1
	V311.1z M-327.7,301h10.1v10.1h-10.1V301z"/>
<path fill="#EEDDC2" d="M-337.8,321.2h10.1v10.1h-10.1V321.2z M-337.8,311.1h10.1v10.1h-10.1V311.1z M-337.8,301h10.1v10.1h-10.1
	V301z"/>
<path fill="#F3E8D4" d="M-347.8,321.2h10.1v10.1h-10.1V321.2z M-347.8,311.1h10.1v10.1h-10.1V311.1z M-347.8,301h10.1v10.1h-10.1
	V301z"/>
<path fill="#D8C6A3" d="M-307.5,301h10.1v10.1h-10.1V301z M-297.4,301h10.1v10.1h-10.1V301z M-287.3,301h10.1v10.1h-10.1V301z"/>
<path fill="#D8C6A3" d="M-277.3,301h10.1v10.1h-10.1V301z M-267.2,301h10.1v10.1h-10.1V301z"/>
<path fill="#F3E8D4" d="M-257.1,301h10.1v10.1h-10.1V301z"/>
<path fill="#D8C6A3" d="M-247,301h10.1v10.1H-247V301z M-236.9,301h10.1v10.1h-10.1V301z M-226.8,301h10.1v10.1h-10.1V301z"/>
<path fill="#D8C6A3" d="M-216.8,301h10.1v10.1h-10.1V301z M-206.7,321.2h10.1v10.1h-10.1V321.2z M-206.7,311.1h10.1v10.1h-10.1
	V311.1z"/>
<path fill="#F3E8D4" d="M-206.7,301h10.1v10.1h-10.1V301z"/>
<path fill="#EEDDC2" d="M-196.6,321.2h10.1v10.1h-10.1V321.2z M-196.6,311.1h10.1v10.1h-10.1V311.1z M-196.6,301h10.1v10.1h-10.1
	V301z"/>
<path d="M-186.5,321.2h10.1v10.1h-10.1V321.2z M-186.5,311.1h10.1v10.1h-10.1V311.1z M-186.5,301h10.1v10.1h-10.1V301z"/>
<path fill="#EEDDC2" d="M-176.4,321.2h10.1v10.1h-10.1V321.2z M-176.4,311.1h10.1v10.1h-10.1V311.1z M-176.4,301h10.1v10.1h-10.1
	V301z"/>
<path fill="#F3E8D4" d="M-166.3,321.2h10.1v10.1h-10.1V321.2z M-166.3,311.1h10.1v10.1h-10.1V311.1z M-166.3,301h10.1v10.1h-10.1
	V301z"/>
<path d="M-156.3,321.2h10.1v10.1h-10.1V321.2z M-156.3,311.1h10.1v10.1h-10.1V311.1z M-156.3,301h10.1v10.1h-10.1V301z"/>
<path fill="#EEDDC2" d="M-357.9,321.2h10.1v10.1h-10.1V321.2z M-357.9,311.1h10.1v10.1h-10.1V311.1z M-357.9,301h10.1v10.1h-10.1
	V301z"/>
<path d="M-368,321.2h10.1v10.1H-368V321.2z M-368,311.1h10.1v10.1H-368V311.1z M-368,301h10.1v10.1H-368V301z"/>
<path fill="#BD4E9C" d="M-327.8,351.5h10.1v10.1h-10.1V351.5z"/>
<path d="M-317.6,351.5h10.1v10.1h-10.1V351.5z"/>
<path fill="#EEDDC2" d="M-307.5,351.5h10.1v10.1h-10.1V351.5z M-297.4,351.5h10.1v10.1h-10.1V351.5z"/>
<path fill="#F3E8D4" d="M-287.3,351.5h10.1v10.1h-10.1V351.5z"/>
<path fill="#D8C6A3" d="M-277.3,351.5h10.1v10.1h-10.1V351.5z M-267.2,351.5h10.1v10.1h-10.1V351.5z M-257.1,351.5h10.1v10.1h-10.1
	V351.5z"/>
<path fill="#F3E8D4" d="M-247,351.5h10.1v10.1H-247V351.5z M-236.9,351.5h10.1v10.1h-10.1V351.5z M-226.8,351.5h10.1v10.1h-10.1
	V351.5z"/>
<path fill="#D8C6A3" d="M-216.8,351.5h10.1v10.1h-10.1V351.5z"/>
<path d="M-317.6,341.4h10.1v10.1h-10.1V341.4z"/>
<path fill="#EEDDC2" d="M-307.5,341.4h10.1v10.1h-10.1V341.4z"/>
<path fill="#F3E8D4" d="M-297.4,341.4h10.1v10.1h-10.1V341.4z M-287.3,341.4h10.1v10.1h-10.1V341.4z"/>
<path fill="#F3E8D4" d="M-277.3,341.4h10.1v10.1h-10.1V341.4z M-267.2,341.4h10.1v10.1h-10.1V341.4z M-257.1,341.4h10.1v10.1h-10.1
	V341.4z M-247,341.4h10.1v10.1H-247V341.4z M-236.9,341.4h10.1v10.1h-10.1V341.4z M-226.8,341.4h10.1v10.1h-10.1V341.4z"/>
<path fill="#D8C6A3" d="M-216.8,341.4h10.1v10.1h-10.1V341.4z M-317.6,331.3h10.1v10.1h-10.1V331.3z"/>
<path fill="#659AC9" d="M-327.7,351.5h10.1v10.1h-10.1V351.5z"/>
<path fill="#EEDDC2" d="M-327.7,341.4h10.1v10.1h-10.1V341.4z M-327.7,331.3h10.1v10.1h-10.1V331.3z"/>
<path fill="#F3E8D4" d="M-337.8,351.5h10.1v10.1h-10.1V351.5z M-337.8,341.4h10.1v10.1h-10.1V341.4z M-337.8,331.3h10.1v10.1h-10.1
	V331.3z"/>
<path fill="#F3E8D4" d="M-347.8,351.5h10.1v10.1h-10.1V351.5z M-347.8,341.4h10.1v10.1h-10.1V341.4z M-347.8,331.3h10.1v10.1h-10.1
	V331.3z"/>
<path fill="#EEDDC2" d="M-307.5,331.3h10.1v10.1h-10.1V331.3z"/>
<path fill="#F3E8D4" d="M-297.4,331.3h10.1v10.1h-10.1V331.3z M-287.3,331.3h10.1v10.1h-10.1V331.3z"/>
<path fill="#F3E8D4" d="M-277.3,331.3h10.1v10.1h-10.1V331.3z M-267.2,331.3h10.1v10.1h-10.1V331.3z M-257.1,331.3h10.1v10.1h-10.1
	V331.3z M-247,331.3h10.1v10.1H-247V331.3z M-236.9,331.3h10.1v10.1h-10.1V331.3z M-226.8,331.3h10.1v10.1h-10.1V331.3z"/>
<path fill="#D8C6A3" d="M-216.8,331.3h10.1v10.1h-10.1V331.3z"/>
<path d="M-206.7,351.5h10.1v10.1h-10.1V351.5z"/>
<path fill="#EEDDC2" d="M-206.7,341.4h10.1v10.1h-10.1V341.4z M-206.7,331.3h10.1v10.1h-10.1V331.3z"/>
<path fill="#518CC0" d="M-196.6,351.5h10.1v10.1h-10.1V351.5z"/>
<path d="M-196.6,341.4h10.1v10.1h-10.1V341.4z M-196.6,331.3h10.1v10.1h-10.1V331.3z"/>
<path fill="#EEDDC2" d="M-186.5,351.5h10.1v10.1h-10.1V351.5z M-186.5,341.4h10.1v10.1h-10.1V341.4z M-186.5,331.3h10.1v10.1h-10.1
	V331.3z M-176.4,351.5h10.1v10.1h-10.1V351.5z"/>
<path fill="#F3E8D4" d="M-176.4,341.4h10.1v10.1h-10.1V341.4z M-176.4,331.3h10.1v10.1h-10.1V331.3z"/>
<path fill="#EEDDC2" d="M-166.3,351.5h10.1v10.1h-10.1V351.5z"/>
<path fill="#F3E8D4" d="M-166.3,341.4h10.1v10.1h-10.1V341.4z M-166.3,331.3h10.1v10.1h-10.1V331.3z"/>
<path d="M-156.3,351.5h10.1v10.1h-10.1V351.5z M-156.3,341.4h10.1v10.1h-10.1V341.4z M-156.3,331.3h10.1v10.1h-10.1V331.3z"/>
<path fill="#EEDDC2" d="M-357.9,351.5h10.1v10.1h-10.1V351.5z M-357.9,341.4h10.1v10.1h-10.1V341.4z M-357.9,331.3h10.1v10.1h-10.1
	V331.3z"/>
<path d="M-368,351.5h10.1v10.1H-368V351.5z M-368,341.4h10.1v10.1H-368V341.4z M-368,331.3h10.1v10.1H-368V331.3z M-307.5,381.7
	h10.1v10.1h-10.1V381.7z"/>
<path fill="#EEDDC2" d="M-297.4,381.7h10.1v10.1h-10.1V381.7z"/>
<path fill="#F3E8D4" d="M-287.3,381.7h10.1v10.1h-10.1V381.7z"/>
<path d="M-277.3,381.7h10.1v10.1h-10.1V381.7z M-247,381.7h10.1v10.1H-247V381.7z"/>
<path fill="#EEDDC2" d="M-236.9,381.7h10.1v10.1h-10.1V381.7z"/>
<path fill="#F3E8D4" d="M-226.8,381.7h10.1v10.1h-10.1V381.7z"/>
<path d="M-216.8,381.7h10.1v10.1h-10.1V381.7z M-297.4,371.6h10.1v10.1h-10.1V371.6z"/>
<path fill="#F3E8D4" d="M-287.3,371.6h10.1v10.1h-10.1V371.6z"/>
<path d="M-277.3,371.6h10.1v10.1h-10.1V371.6z M-247,371.6h10.1v10.1H-247V371.6z"/>
<path fill="#EEDDC2" d="M-236.9,371.6h10.1v10.1h-10.1V371.6z"/>
<path d="M-226.8,371.6h10.1v10.1h-10.1V371.6z M-317.6,361.5h10.1v10.1h-10.1V361.5z M-327.7,371.6h10.1v10.1h-10.1V371.6z
	 M-327.7,361.5h10.1v10.1h-10.1V361.5z M-337.8,381.7h10.1v10.1h-10.1V381.7z"/>
<path fill="#659AC9" d="M-337.8,371.6h10.1v10.1h-10.1V371.6z M-337.8,361.5h10.1v10.1h-10.1V361.5z"/>
<path d="M-347.8,381.7h10.1v10.1h-10.1V381.7z"/>
<path fill="#518CC0" d="M-347.8,371.6h10.1v10.1h-10.1V371.6z M-347.8,361.5h10.1v10.1h-10.1V361.5z"/>
<path d="M-307.5,361.5h10.1v10.1h-10.1V361.5z"/>
<path fill="#EEDDC2" d="M-297.4,361.5h10.1v10.1h-10.1V361.5z M-287.3,361.5h10.1v10.1h-10.1V361.5z"/>
<path fill="#D8C6A3" d="M-277.3,361.5h10.1v10.1h-10.1V361.5z"/>
<path d="M-267.2,361.5h10.1v10.1h-10.1V361.5z M-257.1,361.5h10.1v10.1h-10.1V361.5z"/>
<path fill="#D8C6A3" d="M-247,361.5h10.1v10.1H-247V361.5z"/>
<path fill="#EEDDC2" d="M-236.9,361.5h10.1v10.1h-10.1V361.5z M-226.8,361.5h10.1v10.1h-10.1V361.5z"/>
<path d="M-216.8,361.5h10.1v10.1h-10.1V361.5z M-206.7,361.5h10.1v10.1h-10.1V361.5z M-196.6,371.6h10.1v10.1h-10.1V371.6z
	 M-196.6,361.5h10.1v10.1h-10.1V361.5z M-186.5,381.7h10.1v10.1h-10.1V381.7z"/>
<path fill="#518CC0" d="M-186.5,371.6h10.1v10.1h-10.1V371.6z M-186.5,361.5h10.1v10.1h-10.1V361.5z"/>
<path d="M-176.4,381.7h10.1v10.1h-10.1V381.7z"/>
<path fill="#659AC9" d="M-176.4,371.6h10.1v10.1h-10.1V371.6z M-176.4,361.5h10.1v10.1h-10.1V361.5z"/>
<path d="M-166.3,381.7h10.1v10.1h-10.1V381.7z M-166.3,371.6h10.1v10.1h-10.1V371.6z M-166.3,361.5h10.1v10.1h-10.1V361.5z
	 M-357.9,381.7h10.1v10.1h-10.1V381.7z M-357.9,371.6h10.1v10.1h-10.1V371.6z M-357.9,361.5h10.1v10.1h-10.1V361.5z M-317.6,401.9
	h10.1V412h-10.1V401.9z M-307.5,401.9h10.1V412h-10.1V401.9z M-297.4,401.9h10.1V412h-10.1V401.9z M-287.3,401.9h10.1V412h-10.1
	V401.9z"/>
<path d="M-277.3,401.9h10.1V412h-10.1V401.9z M-247,401.9h10.1V412H-247V401.9z M-236.9,401.9h10.1V412h-10.1V401.9z M-226.8,401.9
	h10.1V412h-10.1V401.9z"/>
<path d="M-216.8,401.9h10.1V412h-10.1V401.9z M-317.6,391.8h10.1v10.1h-10.1V391.8z"/>
<path fill="#518CC0" d="M-307.5,391.8h10.1v10.1h-10.1V391.8z"/>
<path fill="#659AC9" d="M-297.4,391.8h10.1v10.1h-10.1V391.8z"/>
<path fill="#F3E8D4" d="M-287.3,391.8h10.1v10.1h-10.1V391.8z"/>
<path d="M-277.3,391.8h10.1v10.1h-10.1V391.8z M-247,391.8h10.1v10.1H-247V391.8z"/>
<path fill="#EEDDC2" d="M-236.9,391.8h10.1v10.1h-10.1V391.8z"/>
<path fill="#518CC0" d="M-226.8,391.8h10.1v10.1h-10.1V391.8z"/>
<path fill="#659AC9" d="M-216.8,391.8h10.1v10.1h-10.1V391.8z"/>
<path d="M-206.7,401.9h10.1V412h-10.1V401.9z M-206.7,391.8h10.1v10.1h-10.1V391.8z"/>
</svg>
