<?xml version="1.0" encoding="utf-8"?>
<!-- Generator: Adobe Illustrator 19.2.0, SVG Export Plug-In . SVG Version: 6.00 Build 0)  -->
<svg version="1.1" id="Layer_1" xmlns="http://www.w3.org/2000/svg" xmlns:xlink="http://www.w3.org/1999/xlink" x="0px" y="0px"
	 width="960px" height="560px" viewBox="0 0 960 560" enable-background="new 0 0 960 560" xml:space="preserve">
<polygon points="432,176 432,165.5 432,155 422,155 422,145.5 422,145 432,145 432,135 422,135 422,125.3 422,115 412,115 412,105 
	401.4,105 391.3,105 381,105 381,115.2 381,125.3 381,135 371,135 371,145.3 371,145.5 371,155 371.3,155 381,155 381,165 381,166 
	381,176 391,176 391,185.7 391,195.7 391,206 381,206 381,195.9 381,185.8 381,176 371.1,176 371,176 371,165.7 371,156 361,156 
	361,146 351,146 351,135 340.8,135 330.8,135 320.7,135 320.7,135 310.6,135 310.6,135 300.5,135 300.5,135 290.4,135 290.4,135 
	290.4,135 280.4,135 280,135 280,146 270,146 270,145.4 270,136 260,136 260,125.4 260,115.3 260,105 250.1,105 240,105 230,105 
	230,115 220,115 220,125.4 220,135 210,135 210,145 220,145 220,145.6 220,156 210,156 210,165.6 210,175.7 210,185.8 210,195.8 
	210,205.9 210,216 220,216 220,226.1 220,236 230,236 230,246 240,246 240,256.3 240,256.3 240,266 250,266 250,267 250,277 
	250,286.7 250,296.8 250,306.8 250,316.9 250,327 260,327 260,337.1 260,347.2 260,357 270.3,357 280,357 280,367 270,367 270,377 
	260,377 260,387.5 260,398 270.3,398 280.3,398 290.4,398 290.4,398 300.5,398 311,398 311,387.5 311,377.4 311,367.3 311,357 
	320.7,357 331,357 331,367.3 331,377.4 331,387.5 331,398 340.8,398 350.9,398 361,398 371.1,398 381,398 381,387.5 381,377 
	371,377 371,367 361,367 361,357 371.1,357 381,357 381,347.2 381,337.1 381,327 381,316.9 381,306.8 381,296.8 381,286.7 
	381,276.6 381,266.5 381,266 391,266 401,266 401,256.2 401.3,256 411,256 411,246 421,246 421,236 432,236 432,226 432,216 
	442,216 442,205.8 442,195.7 442,185.6 442,176 "/>
</svg>
