# Blender v2.76 (sub 0) OBJ File: 'snowytree.blend'
# www.blender.org
mtllib mound.mtl
o Mound_Plane.001
v -1.000000 0.000000 1.000000
v 1.000000 0.000000 1.000000
v -1.000000 0.000000 -1.000000
v 1.000000 0.000000 -1.000000
v -1.000000 0.000000 0.000000
v 0.000000 0.000000 1.000000
v 1.000000 0.000000 0.000000
v 0.000000 0.000000 -1.000000
v 0.000000 0.585572 0.000000
v -1.000000 0.000000 0.500000
v 0.500000 0.000000 1.000000
v 1.000000 0.000000 -0.500000
v -0.500000 0.000000 -1.000000
v -1.000000 0.000000 -0.500000
v -0.500000 0.000000 1.000000
v 1.000000 0.000000 0.500000
v 0.500000 0.000000 -1.000000
v 0.000000 0.267321 -0.587583
v 0.000000 0.267321 0.587583
v -0.587583 0.267321 0.000000
v 0.587583 0.267321 0.000000
v 0.516009 0.127263 0.516009
v -0.516009 0.127263 0.516009
v -0.516009 0.127263 -0.516009
v 0.516009 0.127263 -0.516009
v -1.000000 0.000000 0.750000
v 0.750000 0.000000 1.000000
v 1.000000 0.000000 -0.750000
v -0.750000 0.000000 -1.000000
v -1.000000 0.000000 -0.250000
v -0.250000 0.000000 1.000000
v 1.000000 0.000000 0.250000
v 0.250000 0.000000 -1.000000
v 0.000000 0.099705 -0.761156
v 0.000000 0.465702 0.341013
v -0.761156 0.099705 0.000000
v 0.341013 0.465702 0.000000
v -1.000000 0.000000 0.250000
v 0.250000 0.000000 1.000000
v 1.000000 0.000000 -0.250000
v -0.250000 0.000000 -1.000000
v -1.000000 0.000000 -0.750000
v -0.750000 0.000000 1.000000
v 1.000000 0.000000 0.750000
v 0.750000 0.000000 -1.000000
v 0.000000 0.465702 -0.341013
v 0.000000 0.099705 0.761156
v -0.341013 0.465702 0.000000
v 0.761156 0.099705 0.000000
v 0.563890 0.225209 0.281945
v 0.500000 0.018523 0.750000
v 0.281945 0.225209 0.563890
v 0.750000 0.018523 0.500000
v -0.563890 0.225209 0.281945
v -0.500000 0.018523 0.750000
v -0.750000 0.018523 0.500000
v -0.281945 0.225209 0.563890
v -0.500000 0.018523 -0.750000
v -0.563890 0.225209 -0.281945
v -0.750000 0.018523 -0.500000
v -0.281945 0.225209 -0.563890
v 0.500000 0.018523 -0.750000
v 0.563890 0.225209 -0.281945
v 0.281945 0.225209 -0.563890
v 0.750000 0.018523 -0.500000
v 0.753419 0.074635 -0.251140
v 0.323392 0.381786 -0.323392
v 0.251140 0.074635 -0.753419
v -0.323392 0.381786 -0.323392
v -0.753419 0.074635 -0.251140
v -0.750000 0.000000 -0.750000
v -0.251140 0.074635 0.753419
v -0.750000 0.000000 0.750000
v -0.753419 0.074635 0.251140
v 0.750000 0.000000 0.750000
v 0.251140 0.074635 0.753419
v 0.323392 0.381786 0.323392
v 0.753419 0.074635 0.251140
v -0.323392 0.381786 0.323392
v -0.251140 0.074635 -0.753419
v 0.750000 0.000000 -0.750000
v 0.875000 0.000000 -0.875000
v -0.125000 0.025362 -0.875000
v -0.175199 0.519253 0.175199
v 0.875000 0.025362 0.125000
v 0.472890 0.347956 0.157630
v 0.383462 0.113245 0.639103
v 0.875000 0.000000 0.625000
v -0.669589 0.172460 0.133918
v -0.625000 0.025362 0.625000
v -0.133918 0.172460 0.669589
v -0.625000 0.000000 -0.875000
v -0.639103 0.113245 -0.383462
v -0.157630 0.347956 -0.472890
v 0.375000 0.004553 -0.875000
v 0.431433 0.245383 -0.431433
v 0.875000 0.004553 -0.375000
v 0.639103 0.113245 -0.383462
v 0.669589 0.172460 -0.133918
v 0.875000 0.025362 -0.125000
v 0.157630 0.347956 -0.472890
v 0.175199 0.519253 -0.175199
v 0.472890 0.347956 -0.157630
v 0.125000 0.025362 -0.875000
v 0.133918 0.172460 -0.669589
v 0.383462 0.113245 -0.639103
v -0.431433 0.245383 -0.431433
v -0.472890 0.347956 -0.157630
v -0.175199 0.519253 -0.175199
v -0.875000 0.004553 -0.375000
v -0.875000 0.025362 -0.125000
v -0.669589 0.172460 -0.133918
v -0.875000 0.000000 -0.875000
v -0.875000 0.000000 -0.625000
v -0.625000 0.025362 -0.625000
v -0.383462 0.113245 0.639103
v -0.375000 0.004553 0.875000
v -0.125000 0.025362 0.875000
v -0.875000 0.000000 0.625000
v -0.875000 0.000000 0.875000
v -0.625000 0.000000 0.875000
v -0.875000 0.025362 0.125000
v -0.875000 0.004553 0.375000
v -0.639103 0.113245 0.383462
v 0.625000 0.025362 0.625000
v 0.625000 0.000000 0.875000
v 0.875000 0.000000 0.875000
v 0.133918 0.172460 0.669589
v 0.125000 0.025362 0.875000
v 0.375000 0.004553 0.875000
v 0.175199 0.519253 0.175199
v 0.157630 0.347956 0.472890
v 0.431433 0.245383 0.431433
v 0.669589 0.172460 0.133918
v 0.639103 0.113245 0.383462
v 0.875000 0.004553 0.375000
v -0.472890 0.347956 0.157630
v -0.431433 0.245383 0.431433
v -0.157630 0.347956 0.472890
v -0.375000 0.004553 -0.875000
v -0.383462 0.113245 -0.639103
v -0.133918 0.172460 -0.669589
v 0.625000 0.000000 -0.875000
v 0.625000 0.025362 -0.625000
v 0.875000 0.000000 -0.625000
vn -0.102200 0.880500 -0.462800
vn -0.241000 0.819800 0.519400
vn 0.288000 0.952900 -0.094600
vn 0.553200 0.758600 0.344100
vn 0.195900 0.837800 0.509700
vn 0.000000 1.000000 0.000000
vn -0.629700 0.755700 0.180300
vn -0.073300 0.989100 0.127400
vn -0.092300 0.709400 0.698700
vn -0.073700 0.994600 -0.073700
vn -0.619800 0.713200 -0.327400
vn -0.246000 0.850300 -0.465200
vn 0.212800 0.924500 -0.316100
vn 0.549100 0.741000 -0.386500
vn 0.281700 0.926900 -0.247900
vn 0.619800 0.713200 -0.327400
vn 0.692200 0.716800 -0.083900
vn 0.377900 0.905200 -0.194200
vn 0.246000 0.850300 -0.465200
vn 0.331500 0.943100 -0.025500
vn 0.625800 0.777800 -0.057500
vn 0.102200 0.880500 -0.462800
vn 0.166700 0.768900 -0.617200
vn 0.417100 0.736200 -0.533000
vn -0.549100 0.741000 -0.386500
vn -0.625800 0.777800 -0.057500
vn -0.331500 0.943100 -0.025500
vn -0.281700 0.926900 -0.247900
vn -0.377900 0.905200 -0.194200
vn -0.692200 0.716800 -0.083900
vn -0.412600 0.833800 -0.366900
vn -0.195900 0.837800 0.509700
vn 0.000000 0.999300 0.036400
vn 0.000000 0.980000 0.198800
vn -0.288000 0.952900 -0.094600
vn -0.073800 0.996600 -0.037500
vn -0.418900 0.857600 0.298400
vn 0.073300 0.989100 0.127400
vn 0.092300 0.709400 0.698700
vn 0.241000 0.819800 0.519400
vn 0.162200 0.688400 0.707000
vn 0.413200 0.706900 0.574000
vn 0.629700 0.755700 0.180300
vn 0.418900 0.857600 0.298400
vn 0.073800 0.996600 -0.037500
vn -0.553200 0.758600 0.344100
vn -0.413200 0.706900 0.574000
vn -0.162200 0.688400 0.707000
vn -0.212800 0.924500 -0.316100
vn -0.417100 0.736200 -0.533000
vn -0.166700 0.768900 -0.617200
vn 0.073700 0.994600 -0.073700
vn 0.412600 0.833800 -0.366900
vn -0.194200 0.905200 -0.377900
vn 0.000000 0.980000 -0.198800
vn 0.094600 0.952900 -0.288000
vn -0.025500 0.943100 0.331500
vn -0.331500 0.943100 0.025500
vn -0.519400 0.819800 0.241000
vn 0.198800 0.980000 0.000000
vn 0.377900 0.905200 0.194200
vn 0.462800 0.880500 0.102200
vn 0.707000 0.688400 0.162200
vn 0.625800 0.777800 0.057500
vn 0.465200 0.850300 0.246000
vn 0.298400 0.857600 0.418900
vn 0.417100 0.736200 0.533000
vn 0.327400 0.713200 0.619800
vn 0.073700 0.994600 0.073700
vn -0.617200 0.768900 0.166700
vn -0.692200 0.716800 0.083900
vn -0.698700 0.709400 0.092300
vn -0.366900 0.833800 0.412600
vn -0.412600 0.833800 0.366900
vn -0.127400 0.989100 0.073300
vn -0.083900 0.716800 0.692200
vn -0.166700 0.768900 0.617200
vn -0.180300 0.755700 0.629700
vn -0.533000 0.736200 -0.417100
vn -0.418900 0.857600 -0.298400
vn -0.509700 0.837800 -0.195900
vn -0.057500 0.777800 -0.625800
vn -0.162200 0.688400 -0.707000
vn -0.344100 0.758600 -0.553200
vn -0.037500 0.996600 -0.073800
vn 0.000000 0.999300 -0.036400
vn 0.247900 0.926900 -0.281700
vn 0.574000 0.706900 -0.413200
vn 0.413200 0.706900 -0.574000
vn 0.386500 0.741000 -0.549100
vn 0.036400 0.999300 0.000000
vn 0.073800 0.996600 0.037500
vn 0.316100 0.924500 -0.212800
vn 0.509700 0.837800 -0.195900
vn 0.418900 0.857600 -0.298400
vn 0.533000 0.736200 -0.417100
vn 0.698700 0.709400 -0.092300
vn 0.629700 0.755700 -0.180300
vn 0.617200 0.768900 -0.166700
vn 0.288000 0.952900 0.094600
vn 0.462800 0.880500 -0.102200
vn 0.344100 0.758600 -0.553200
vn 0.162200 0.688400 -0.707000
vn 0.057500 0.777800 -0.625800
vn 0.519400 0.819800 -0.241000
vn 0.241000 0.819800 -0.519400
vn 0.025500 0.943100 -0.331500
vn 0.707000 0.688400 -0.162200
vn 0.553200 0.758600 -0.344100
vn 0.465200 0.850300 -0.246000
vn -0.094600 0.952900 -0.288000
vn 0.194200 0.905200 -0.377900
vn 0.180300 0.755700 -0.629700
vn 0.092300 0.709400 -0.698700
vn 0.083900 0.716800 -0.692200
vn 0.298400 0.857600 -0.418900
vn 0.195900 0.837800 -0.509700
vn 0.327400 0.713200 -0.619800
vn -0.386500 0.741000 -0.549100
vn -0.413200 0.706900 -0.574000
vn -0.574000 0.706900 -0.413200
vn -0.465200 0.850300 -0.246000
vn -0.553200 0.758600 -0.344100
vn -0.707000 0.688400 -0.162200
vn -0.025500 0.943100 -0.331500
vn -0.241000 0.819800 -0.519400
vn -0.519400 0.819800 -0.241000
vn -0.316100 0.924500 -0.212800
vn -0.073800 0.996600 0.037500
vn -0.036400 0.999300 0.000000
vn -0.462800 0.880500 -0.102200
vn -0.288000 0.952900 0.094600
vn -0.198800 0.980000 0.000000
vn -0.617200 0.768900 -0.166700
vn -0.629700 0.755700 -0.180300
vn -0.698700 0.709400 -0.092300
vn -0.366900 0.833800 -0.412600
vn -0.073300 0.989100 -0.127400
vn -0.127400 0.989100 -0.073300
vn -0.327400 0.713200 0.619800
vn -0.417100 0.736200 0.533000
vn -0.298400 0.857600 0.418900
vn -0.247900 0.926900 0.281700
vn -0.212800 0.924500 0.316100
vn 0.037500 0.996600 0.073800
vn -0.194200 0.905200 0.377900
vn -0.102200 0.880500 0.462800
vn 0.094600 0.952900 0.288000
vn -0.073700 0.994600 0.073700
vn -0.462800 0.880500 0.102200
vn -0.377900 0.905200 0.194200
vn -0.316100 0.924500 0.212800
vn -0.281700 0.926900 0.247900
vn -0.533000 0.736200 0.417100
vn -0.619800 0.713200 0.327400
vn -0.509700 0.837800 0.195900
vn 0.127400 0.989100 0.073300
vn 0.412600 0.833800 0.366900
vn 0.366900 0.833800 0.412600
vn 0.180300 0.755700 0.629700
vn 0.166700 0.768900 0.617200
vn 0.083900 0.716800 0.692200
vn -0.094600 0.952900 0.288000
vn 0.102200 0.880500 0.462800
vn 0.194200 0.905200 0.377900
vn -0.037500 0.996600 0.073800
vn 0.212800 0.924500 0.316100
vn 0.247900 0.926900 0.281700
vn 0.519400 0.819800 0.241000
vn 0.331500 0.943100 0.025500
vn 0.025500 0.943100 0.331500
vn 0.344100 0.758600 0.553200
vn 0.246000 0.850300 0.465200
vn 0.057500 0.777800 0.625800
vn 0.574000 0.706900 0.413200
vn 0.549100 0.741000 0.386500
vn 0.386500 0.741000 0.549100
vn 0.698700 0.709400 0.092300
vn 0.692200 0.716800 0.083900
vn 0.617200 0.768900 0.166700
vn 0.509700 0.837800 0.195900
vn 0.619800 0.713200 0.327400
vn 0.533000 0.736200 0.417100
vn 0.281700 0.926900 0.247900
vn 0.316100 0.924500 0.212800
vn -0.465200 0.850300 0.246000
vn -0.625800 0.777800 0.057500
vn -0.707000 0.688400 0.162200
vn -0.386500 0.741000 0.549100
vn -0.549100 0.741000 0.386500
vn -0.574000 0.706900 0.413200
vn -0.057500 0.777800 0.625800
vn -0.246000 0.850300 0.465200
vn -0.344100 0.758600 0.553200
vn -0.247900 0.926900 -0.281700
vn 0.037500 0.996600 -0.073800
vn -0.327400 0.713200 -0.619800
vn -0.195900 0.837800 -0.509700
vn -0.298400 0.857600 -0.418900
vn -0.083900 0.716800 -0.692200
vn -0.092300 0.709400 -0.698700
vn -0.180300 0.755700 -0.629700
vn 0.127400 0.989100 -0.073300
vn 0.073300 0.989100 -0.127400
vn 0.366900 0.833800 -0.412600
usemtl None
s off
f 80//1 34//1 83//1
f 79//2 35//2 84//2
f 78//3 32//3 85//3
f 77//4 50//4 86//4
f 76//5 51//5 87//5
f 75//6 44//6 88//6
f 74//7 54//7 89//7
f 73//8 55//8 90//8
f 72//9 47//9 91//9
f 71//10 58//10 92//10
f 70//11 59//11 93//11
f 69//12 46//12 94//12
f 68//13 62//13 95//13
f 67//14 63//14 96//14
f 66//15 40//15 97//15
f 63//16 66//16 98//16
f 21//17 49//17 99//17
f 49//18 7//18 100//18
f 46//19 67//19 101//19
f 9//20 37//20 102//20
f 37//21 21//21 103//21
f 34//22 68//22 104//22
f 18//23 64//23 105//23
f 64//24 25//24 106//24
f 59//25 69//25 107//25
f 20//26 48//26 108//26
f 48//27 9//27 109//27
f 30//28 70//28 110//28
f 5//29 36//29 111//29
f 36//30 20//30 112//30
f 42//6 71//6 113//6
f 14//10 60//10 114//10
f 60//31 24//31 115//31
f 55//32 72//32 116//32
f 15//33 31//33 117//33
f 31//34 6//34 118//34
f 26//6 73//6 119//6
f 1//6 43//6 120//6
f 43//6 15//6 121//6
f 38//35 74//35 122//35
f 10//36 56//36 123//36
f 56//37 23//37 124//37
f 51//38 75//38 125//38
f 11//6 27//6 126//6
f 27//6 2//6 127//6
f 47//39 76//39 128//39
f 6//34 39//34 129//34
f 39//33 11//33 130//33
f 35//40 77//40 131//40
f 19//41 52//41 132//41
f 52//42 22//42 133//42
f 50//43 78//43 134//43
f 22//44 53//44 135//44
f 53//45 16//45 136//45
f 54//46 79//46 137//46
f 23//47 57//47 138//47
f 57//48 19//48 139//48
f 58//49 80//49 140//49
f 24//50 61//50 141//50
f 61//51 18//51 142//51
f 62//52 81//52 143//52
f 25//53 65//53 144//53
f 65//52 12//52 145//52
f 81//6 28//6 82//6
f 28//6 4//6 82//6
f 4//6 45//6 82//6
f 45//6 81//6 82//6
f 34//54 8//54 83//54
f 8//55 41//55 83//55
f 41//56 80//56 83//56
f 35//57 9//57 84//57
f 9//58 48//58 84//58
f 48//59 79//59 84//59
f 32//60 7//60 85//60
f 7//61 49//61 85//61
f 49//62 78//62 85//62
f 50//63 21//63 86//63
f 21//64 37//64 86//64
f 37//65 77//65 86//65
f 51//66 22//66 87//66
f 22//67 52//67 87//67
f 52//68 76//68 87//68
f 44//6 16//6 88//6
f 16//69 53//69 88//69
f 53//69 75//69 88//69
f 54//70 20//70 89//70
f 20//71 36//71 89//71
f 36//72 74//72 89//72
f 55//73 23//73 90//73
f 23//74 56//74 90//74
f 56//75 73//75 90//75
f 47//76 19//76 91//76
f 19//77 57//77 91//77
f 57//78 72//78 91//78
f 58//10 13//10 92//10
f 13//6 29//6 92//6
f 29//6 71//6 92//6
f 59//79 24//79 93//79
f 24//80 60//80 93//80
f 60//81 70//81 93//81
f 46//82 18//82 94//82
f 18//83 61//83 94//83
f 61//84 69//84 94//84
f 62//85 17//85 95//85
f 17//86 33//86 95//86
f 33//87 68//87 95//87
f 63//88 25//88 96//88
f 25//89 64//89 96//89
f 64//90 67//90 96//90
f 40//91 12//91 97//91
f 12//92 65//92 97//92
f 65//93 66//93 97//93
f 66//94 65//94 98//94
f 65//95 25//95 98//95
f 25//96 63//96 98//96
f 49//97 66//97 99//97
f 66//98 63//98 99//98
f 63//99 21//99 99//99
f 7//60 40//60 100//60
f 40//100 66//100 100//100
f 66//101 49//101 100//101
f 67//102 64//102 101//102
f 64//103 18//103 101//103
f 18//104 46//104 101//104
f 37//105 67//105 102//105
f 67//106 46//106 102//106
f 46//107 9//107 102//107
f 21//108 63//108 103//108
f 63//109 67//109 103//109
f 67//110 37//110 103//110
f 68//111 33//111 104//111
f 33//55 8//55 104//55
f 8//112 34//112 104//112
f 64//113 68//113 105//113
f 68//114 34//114 105//114
f 34//115 18//115 105//115
f 25//116 62//116 106//116
f 62//117 68//117 106//117
f 68//118 64//118 106//118
f 69//119 61//119 107//119
f 61//120 24//120 107//120
f 24//121 59//121 107//121
f 48//122 69//122 108//122
f 69//123 59//123 108//123
f 59//124 20//124 108//124
f 9//125 46//125 109//125
f 46//126 69//126 109//126
f 69//127 48//127 109//127
f 70//128 60//128 110//128
f 60//129 14//129 110//129
f 14//130 30//130 110//130
f 36//131 70//131 111//131
f 70//132 30//132 111//132
f 30//133 5//133 111//133
f 20//134 59//134 112//134
f 59//135 70//135 112//135
f 70//136 36//136 112//136
f 71//6 29//6 113//6
f 29//6 3//6 113//6
f 3//6 42//6 113//6
f 60//10 71//10 114//10
f 71//6 42//6 114//6
f 42//6 14//6 114//6
f 24//137 58//137 115//137
f 58//138 71//138 115//138
f 71//139 60//139 115//139
f 72//140 57//140 116//140
f 57//141 23//141 116//141
f 23//142 55//142 116//142
f 31//143 72//143 117//143
f 72//144 55//144 117//144
f 55//145 15//145 117//145
f 6//146 47//146 118//146
f 47//147 72//147 118//147
f 72//148 31//148 118//148
f 73//149 56//149 119//149
f 56//149 10//149 119//149
f 10//6 26//6 119//6
f 43//6 73//6 120//6
f 73//6 26//6 120//6
f 26//6 1//6 120//6
f 15//149 55//149 121//149
f 55//149 73//149 121//149
f 73//6 43//6 121//6
f 74//150 36//150 122//150
f 36//151 5//151 122//151
f 5//133 38//133 122//133
f 56//152 74//152 123//152
f 74//153 38//153 123//153
f 38//130 10//130 123//130
f 23//154 54//154 124//154
f 54//155 74//155 124//155
f 74//156 56//156 124//156
f 75//157 53//157 125//157
f 53//158 22//158 125//158
f 22//159 51//159 125//159
f 27//6 75//6 126//6
f 75//69 51//69 126//69
f 51//69 11//69 126//69
f 2//6 44//6 127//6
f 44//6 75//6 127//6
f 75//6 27//6 127//6
f 76//160 52//160 128//160
f 52//161 19//161 128//161
f 19//162 47//162 128//162
f 39//163 76//163 129//163
f 76//164 47//164 129//164
f 47//165 6//165 129//165
f 11//166 51//166 130//166
f 51//167 76//167 130//167
f 76//168 39//168 130//168
f 77//169 37//169 131//169
f 37//170 9//170 131//170
f 9//171 35//171 131//171
f 52//172 77//172 132//172
f 77//173 35//173 132//173
f 35//174 19//174 132//174
f 22//175 50//175 133//175
f 50//176 77//176 133//176
f 77//177 52//177 133//177
f 78//178 49//178 134//178
f 49//179 21//179 134//179
f 21//180 50//180 134//180
f 53//181 78//181 135//181
f 78//182 50//182 135//182
f 50//183 22//183 135//183
f 16//91 32//91 136//91
f 32//184 78//184 136//184
f 78//185 53//185 136//185
f 79//186 48//186 137//186
f 48//187 20//187 137//187
f 20//188 54//188 137//188
f 57//189 79//189 138//189
f 79//190 54//190 138//190
f 54//191 23//191 138//191
f 19//192 35//192 139//192
f 35//193 79//193 139//193
f 79//194 57//194 139//194
f 80//195 41//195 140//195
f 41//86 13//86 140//86
f 13//196 58//196 140//196
f 61//197 80//197 141//197
f 80//198 58//198 141//198
f 58//199 24//199 141//199
f 18//200 34//200 142//200
f 34//201 80//201 142//201
f 80//202 61//202 142//202
f 81//6 45//6 143//6
f 45//6 17//6 143//6
f 17//52 62//52 143//52
f 65//203 81//203 144//203
f 81//204 62//204 144//204
f 62//205 25//205 144//205
f 12//6 28//6 145//6
f 28//6 81//6 145//6
f 81//52 65//52 145//52
