# Blender v2.76 (sub 0) OBJ File: 'snowytree.blend'
# www.blender.org
mtllib rock1snow.mtl
o rock1_snow_Icosphere.001
v -2.738317 0.006257 0.304828
v -1.892215 0.033573 0.785679
v -3.062161 -0.001233 1.079898
v -3.768917 0.002239 0.310849
v -3.061493 0.006257 -0.462666
v -1.892215 0.006257 -0.181519
v -2.484825 0.791806 1.031352
v -3.273855 0.571483 0.826867
v -3.478738 0.684817 -0.038109
v -2.415141 0.710270 -0.418402
v -1.745446 0.840254 0.280610
v -2.916948 1.218751 0.309785
v -2.928746 0.003562 0.776528
v -2.240995 0.012638 0.586330
v -2.430949 0.006257 1.046868
v -1.743669 0.006257 0.302080
v -2.240995 0.006257 0.017830
v -3.345172 0.003485 0.303521
v -3.497263 -0.011734 0.758228
v -2.928274 0.006257 -0.153245
v -3.543005 0.006257 -0.157852
v -2.430949 0.006257 -0.442105
v -1.630035 0.415188 0.584293
v -1.626261 0.298886 0.017829
v -2.761548 0.274455 1.180367
v -2.064046 0.425977 1.038679
v -3.687842 0.244800 0.620876
v -3.320538 0.226823 0.993443
v -3.424822 0.298705 -0.372191
v -3.787563 0.284020 0.063283
v -2.051029 0.298886 -0.442110
v -2.738317 0.298886 -0.538903
v -2.146738 1.055110 0.674073
v -2.978167 0.635373 0.868822
v -3.387575 0.677474 0.457696
v -3.061913 0.780934 -0.166025
v -1.933629 0.782495 -0.157852
v -2.697570 1.097968 0.725516
v -2.265763 1.147854 0.266321
v -3.147762 1.000181 0.591975
v -3.226528 1.063664 0.141708
v -2.634750 1.081377 -0.105270
v -2.978167 0.635373 0.868822
v -2.738317 -0.294366 0.305067
v -1.818511 -0.264671 0.827805
v -3.090372 -0.302508 1.147654
v -3.858693 -0.298734 0.311613
v -3.089645 -0.294366 -0.529283
v -1.818511 -0.294366 -0.223645
v -2.462743 0.559613 1.094879
v -3.320506 0.320097 0.872582
v -3.543236 0.443304 -0.067743
v -2.386989 0.470974 -0.481164
v -1.658957 0.612281 0.278740
v -2.932508 1.023748 0.310456
v -2.945334 -0.297296 0.817857
v -2.197673 -0.287430 0.611091
v -2.404174 -0.294366 1.111746
v -1.657025 -0.294366 0.302080
v -2.197673 -0.294366 -0.006931
v -3.398035 -0.297379 0.303646
v -3.563375 -0.313924 0.797963
v -2.944821 -0.294366 -0.192908
v -3.613102 -0.294366 -0.197917
v -2.404174 -0.294366 -0.506932
v -1.533492 0.150187 0.608877
v -1.529390 0.023754 -0.006933
v -2.763571 -0.002805 1.256875
v -2.005310 0.161916 1.102845
v -3.770555 -0.035043 0.648646
v -3.371255 -0.054587 1.053667
v -3.484623 0.023557 -0.430927
v -3.878963 0.007593 0.042481
v -1.991160 0.023754 -0.506937
v -2.738317 0.023754 -0.612161
v -2.095206 0.845853 0.706477
v -2.999060 0.389553 0.918191
v -3.444132 0.435321 0.471252
v -3.090101 0.547794 -0.206802
v -1.863532 0.549490 -0.197917
v -2.694021 0.892444 0.762402
v -2.224598 0.946676 0.263206
v -3.183429 0.786139 0.617228
v -3.269056 0.855152 0.127738
v -2.625728 0.874408 -0.140754
v -2.999060 0.389553 0.918191
vn 0.013100 -0.999900 -0.000400
vn 0.023500 -0.997700 0.063600
vn 0.004600 -1.000000 -0.003900
vn 0.004600 -1.000000 -0.001900
vn 0.000000 -1.000000 0.000000
vn 0.853500 -0.435100 0.286700
vn 0.052700 -0.392200 0.918400
vn -0.807600 -0.343100 0.479700
vn -0.496100 -0.373900 -0.783700
vn 0.379100 -0.492100 -0.783700
vn 0.715500 -0.129300 0.686500
vn -0.317200 0.000200 0.948400
vn -0.978800 0.094900 0.181700
vn -0.236000 0.007500 -0.971700
vn 0.719600 -0.201300 -0.664600
vn 0.119300 0.742000 0.659700
vn -0.229000 0.518700 0.823700
vn -0.855300 0.491300 0.164500
vn -0.257500 0.529600 -0.808200
vn 0.489100 0.812600 -0.317000
vn 0.087400 0.961900 -0.258900
vn 0.317800 0.827100 -0.463600
vn 0.251700 0.706800 -0.661100
vn -0.206100 0.878500 -0.430900
vn -0.322000 0.605100 -0.728200
vn -0.358200 0.584200 -0.728300
vn -0.526100 0.824500 0.208300
vn -0.824600 0.522100 0.217900
vn -0.811500 0.445800 0.377900
vn -0.308400 0.857500 0.411900
vn -0.342900 0.461500 0.818200
vn -0.408700 0.487000 0.771900
vn 0.120000 0.968500 0.218100
vn 0.094100 0.976400 0.194600
vn 0.507400 0.860400 0.047600
vn 0.830700 0.380300 -0.406600
vn 0.717400 0.215300 -0.662600
vn 0.391000 0.394000 -0.831800
vn -0.277500 0.464300 -0.841100
vn -0.203100 0.510200 -0.835800
vn -0.358200 0.581800 -0.730200
vn -0.764500 0.627000 0.149900
vn -0.774600 0.605900 0.181200
vn -0.682100 0.619700 0.388100
vn -0.219800 0.448500 0.866300
vn -0.311900 0.506600 0.803800
vn -0.404500 0.446300 0.798300
vn 0.418000 0.496000 0.761100
vn 0.653900 0.441900 0.614100
vn 0.723400 0.520500 0.453600
vn 0.137200 0.177600 -0.974500
vn 0.137200 -0.178200 -0.974400
vn 0.031200 -0.284200 -0.958300
vn -0.710400 0.401100 -0.578300
vn -0.755800 -0.159900 -0.635000
vn -0.822000 -0.405600 -0.399700
vn -0.642200 0.402300 0.652500
vn -0.707100 -0.156100 0.689600
vn -0.553900 -0.339300 0.760300
vn 0.154000 0.196500 0.968300
vn 0.234300 -0.186200 0.954200
vn 0.422600 -0.353100 0.834700
vn 0.971300 0.234000 -0.041600
vn 0.947500 -0.311800 0.070300
vn 0.794600 -0.555900 -0.244100
vn 0.000000 -1.000000 -0.006000
vn 0.002800 -1.000000 -0.007200
vn 0.002400 -0.999500 -0.032700
vn 0.027700 -0.999300 -0.024200
vn 0.027000 -0.999600 -0.003900
vn -0.006400 -0.999900 0.011200
vn 0.006500 -0.999900 0.011200
vn 0.011300 -0.999900 -0.010800
vn 0.010600 -0.999900 -0.009500
vn 0.054900 -0.998500 0.008800
usemtl Rock
s off
f 44//1 57//1 56//1
f 45//2 57//2 59//2
f 44//3 56//3 61//3
f 44//4 61//4 63//4
f 44//5 63//5 60//5
f 45//6 59//6 66//6
f 46//7 58//7 68//7
f 47//8 62//8 70//8
f 48//9 64//9 72//9
f 49//10 65//10 74//10
f 45//11 66//11 69//11
f 46//12 68//12 71//12
f 47//13 70//13 73//13
f 48//14 72//14 75//14
f 49//15 74//15 67//15
f 50//16 76//16 81//16
f 51//17 77//17 83//17
f 52//18 78//18 84//18
f 53//19 79//19 85//19
f 54//20 80//20 82//20
f 82//21 85//21 55//21
f 82//22 80//22 85//22
f 80//23 53//23 85//23
f 85//24 84//24 55//24
f 85//25 79//25 84//25
f 79//26 52//26 84//26
f 84//27 83//27 55//27
f 84//28 78//28 83//28
f 78//29 51//29 83//29
f 83//30 81//30 55//30
f 83//31 77//31 81//31
f 77//32 50//32 81//32
f 81//33 82//33 55//33
f 81//34 76//34 82//34
f 76//35 54//35 82//35
f 67//36 80//36 54//36
f 67//37 74//37 80//37
f 74//38 53//38 80//38
f 75//39 79//39 53//39
f 75//40 72//40 79//40
f 72//41 52//41 79//41
f 73//42 78//42 52//42
f 73//43 70//43 78//43
f 70//44 51//44 78//44
f 71//45 77//45 51//45
f 71//46 68//46 77//46
f 68//47 50//47 77//47
f 69//48 76//48 50//48
f 69//49 66//49 76//49
f 66//50 54//50 76//50
f 74//51 75//51 53//51
f 74//52 65//52 75//52
f 65//53 48//53 75//53
f 72//54 73//54 52//54
f 72//55 64//55 73//55
f 64//56 47//56 73//56
f 70//57 71//57 51//57
f 70//58 62//58 71//58
f 62//59 46//59 71//59
f 68//60 69//60 50//60
f 68//61 58//61 69//61
f 58//62 45//62 69//62
f 66//63 67//63 54//63
f 66//64 59//64 67//64
f 59//65 49//65 67//65
f 60//5 65//5 49//5
f 60//5 63//5 65//5
f 63//5 48//5 65//5
f 63//5 64//5 48//5
f 63//66 61//66 64//66
f 61//67 47//67 64//67
f 61//68 62//68 47//68
f 61//69 56//69 62//69
f 56//70 46//70 62//70
f 59//5 60//5 49//5
f 59//71 57//71 60//71
f 57//72 44//72 60//72
f 56//73 58//73 46//73
f 56//74 57//74 58//74
f 57//75 45//75 58//75
usemtl Snow
f 1//1 14//1 13//1
f 2//2 14//2 16//2
f 1//3 13//3 18//3
f 1//4 18//4 20//4
f 1//5 20//5 17//5
f 2//6 16//6 23//6
f 3//7 15//7 25//7
f 4//8 19//8 27//8
f 5//9 21//9 29//9
f 6//10 22//10 31//10
f 2//11 23//11 26//11
f 3//12 25//12 28//12
f 4//13 27//13 30//13
f 5//14 29//14 32//14
f 6//15 31//15 24//15
f 7//16 33//16 38//16
f 8//17 34//17 40//17
f 9//18 35//18 41//18
f 10//19 36//19 42//19
f 11//20 37//20 39//20
f 39//21 42//21 12//21
f 39//22 37//22 42//22
f 37//23 10//23 42//23
f 42//24 41//24 12//24
f 42//25 36//25 41//25
f 36//26 9//26 41//26
f 41//27 40//27 12//27
f 41//28 35//28 40//28
f 35//29 8//29 40//29
f 40//30 38//30 12//30
f 40//31 34//31 38//31
f 34//32 7//32 38//32
f 38//33 39//33 12//33
f 38//34 33//34 39//34
f 33//35 11//35 39//35
f 24//36 37//36 11//36
f 24//37 31//37 37//37
f 31//38 10//38 37//38
f 32//39 36//39 10//39
f 32//40 29//40 36//40
f 29//41 9//41 36//41
f 30//42 35//42 9//42
f 30//43 27//43 35//43
f 27//44 8//44 35//44
f 28//45 34//45 8//45
f 28//46 25//46 34//46
f 25//47 7//47 34//47
f 26//48 33//48 7//48
f 26//49 23//49 33//49
f 23//50 11//50 33//50
f 31//51 32//51 10//51
f 31//52 22//52 32//52
f 22//53 5//53 32//53
f 29//54 30//54 9//54
f 29//55 21//55 30//55
f 21//56 4//56 30//56
f 27//57 28//57 8//57
f 27//58 19//58 28//58
f 19//59 3//59 28//59
f 25//60 26//60 7//60
f 25//61 15//61 26//61
f 15//62 2//62 26//62
f 23//63 24//63 11//63
f 23//64 16//64 24//64
f 16//65 6//65 24//65
f 17//5 22//5 6//5
f 17//5 20//5 22//5
f 20//5 5//5 22//5
f 20//5 21//5 5//5
f 20//66 18//66 21//66
f 18//67 4//67 21//67
f 18//68 19//68 4//68
f 18//69 13//69 19//69
f 13//70 3//70 19//70
f 16//5 17//5 6//5
f 16//71 14//71 17//71
f 14//72 1//72 17//72
f 13//73 15//73 3//73
f 13//74 14//74 15//74
f 14//75 2//75 15//75
