# Blender v2.76 (sub 0) OBJ File: 'snowytree.blend'
# www.blender.org
mtllib rock1snow.mtl
o Icosphere.002
v 0.049757 -0.100250 -0.027353
v 0.896564 -0.100250 0.477724
v -0.273688 -0.100250 0.783815
v -0.996952 -0.100250 -0.027354
v -0.273688 -0.100250 -0.867863
v 0.896564 -0.100250 -0.544959
v 0.284882 0.546002 0.540002
v -0.961852 0.677995 0.395725
v -0.853575 0.667101 -0.534270
v 0.315157 0.555609 -1.010569
v 1.038421 0.555605 -0.021575
v -0.140902 1.084174 -0.022183
v -0.140358 -0.100250 0.444972
v 0.547494 -0.100250 0.264935
v 0.357381 -0.100250 0.695148
v 1.045234 -0.100250 -0.027353
v 0.547494 -0.100250 -0.334798
v -0.565483 -0.100250 -0.027353
v -0.755602 -0.100250 0.456500
v -0.140358 -0.100250 -0.524631
v -0.755602 -0.100250 -0.514957
v 0.357381 -0.100250 -0.856003
v 1.104694 0.119474 0.279242
v 1.104694 0.119474 -0.323248
v -0.008289 0.119474 0.838298
v 0.679572 0.119474 0.652050
v -1.124566 0.145159 0.250860
v -0.699508 0.121865 0.750886
v -0.696149 0.119478 -0.810860
v -1.121271 0.120536 -0.322929
v 0.679572 0.119474 -0.879156
v -0.008289 0.119474 -1.065407
v 0.797070 0.629409 0.350688
v -0.463724 0.707942 0.602365
v -1.061231 0.813271 -0.064077
v -0.315913 0.673617 -0.879154
v 0.797070 0.632180 -0.577797
v 0.054734 0.889747 0.350182
v 0.606951 0.885274 -0.022444
v -0.733028 1.088663 0.233545
v -0.579368 1.125499 -0.324259
v 0.181826 0.933193 -0.577796
v 0.060274 -0.225308 -0.005925
v 0.928603 -0.225308 0.511989
v -0.271392 -0.225308 0.825860
v -1.013037 -0.225308 -0.005925
v -0.271392 -0.225308 -0.867797
v 0.928603 -0.225308 -0.536686
v 0.301375 0.437369 0.575850
v -0.977045 0.572716 0.427906
v -0.866016 0.561545 -0.525725
v 0.332419 0.447220 -1.014129
v 1.074065 0.447216 0.000000
v -0.135230 0.989218 -0.000623
v -0.134673 -0.225308 0.478405
v 0.570661 -0.225308 0.293792
v 0.375717 -0.225308 0.734939
v 1.081051 -0.225308 -0.005925
v 0.570661 -0.225308 -0.321183
v -0.570602 -0.225308 -0.005925
v -0.765553 -0.225308 0.490226
v -0.134673 -0.225308 -0.515841
v -0.765553 -0.225308 -0.505922
v 0.375717 -0.225308 -0.855635
v 1.142023 0.000000 0.308462
v 1.142023 0.000000 -0.309340
v 0.000754 0.000000 0.881727
v 0.706096 0.000000 0.690746
v -1.143895 0.026338 0.279359
v -0.708033 0.002452 0.792094
v -0.704589 0.000004 -0.809344
v -1.140516 0.001090 -0.309013
v 0.706096 0.000000 -0.879377
v 0.000754 0.000000 -1.070361
v 0.826581 0.522896 0.381724
v -0.466257 0.603424 0.639798
v -1.078950 0.711430 -0.043581
v -0.314689 0.568227 -0.879374
v 0.826581 0.525736 -0.570358
v 0.065378 0.789849 0.381206
v 0.631629 0.785263 -0.000890
v -0.742405 0.993821 0.261604
v -0.584840 1.031593 -0.310376
v 0.195700 0.834400 -0.570357
vn 0.000000 -1.000000 -0.000000
vn 0.803000 -0.547100 0.236400
vn 0.128600 -0.382200 0.915100
vn -0.641900 -0.696800 0.320200
vn -0.433400 -0.679700 -0.591800
vn 0.385600 -0.635900 -0.668500
vn 0.658400 0.054500 0.750700
vn -0.125200 -0.093600 0.987700
vn -0.879900 -0.474900 0.015300
vn -0.319500 -0.390300 -0.863400
vn 0.786700 -0.138100 -0.601600
vn 0.200400 0.573000 0.794700
vn -0.355900 0.508100 0.784300
vn -0.644600 0.601700 -0.471700
vn 0.004300 0.754200 -0.656700
vn 0.600200 0.785200 -0.152400
vn 0.255400 0.960300 -0.112600
vn 0.425400 0.869600 -0.250700
vn 0.368800 0.753700 -0.544000
vn 0.194800 0.969300 -0.150200
vn -0.017000 0.771300 -0.636200
vn -0.445100 0.579200 -0.683000
vn 0.040800 0.996200 0.077000
vn -0.580600 0.807200 -0.106600
vn -0.763900 0.555400 0.328500
vn 0.172400 0.907400 0.383200
vn 0.080700 0.722400 0.686800
vn 0.189700 0.568900 0.800200
vn 0.241200 0.906500 0.346600
vn 0.298200 0.851300 0.431800
vn 0.590600 0.773600 0.229500
vn 0.872800 0.360300 -0.329100
vn 0.782500 0.172400 -0.598400
vn 0.613200 0.291100 -0.734300
vn -0.155600 0.236000 -0.959200
vn -0.344500 0.121600 -0.930900
vn -0.523700 0.259300 -0.811500
vn -0.856800 0.244000 -0.454300
vn -0.995900 0.089900 -0.009600
vn -0.939700 0.214600 0.266200
vn -0.375200 0.366700 0.851300
vn -0.119100 0.288700 0.950000
vn 0.175500 0.480400 0.859300
vn 0.243800 0.451200 0.858500
vn 0.632800 0.280700 0.721600
vn 0.797200 0.420200 0.433500
vn 0.260700 -0.072300 -0.962700
vn 0.235200 -0.436300 -0.868500
vn 0.013800 -0.677700 -0.735200
vn -0.748900 0.114400 -0.652700
vn -0.624300 -0.561900 -0.542700
vn -0.603300 -0.739500 -0.298600
vn -0.759400 0.055700 0.648200
vn -0.654200 -0.538600 0.531000
vn -0.406400 -0.690500 0.598400
vn 0.234200 0.443900 0.864900
vn 0.256600 -0.190400 0.947600
vn 0.351100 -0.344100 0.870800
vn 0.988700 0.150200 0.000000
vn 0.965300 -0.261200 0.000000
vn 0.812500 -0.534200 -0.233400
usemtl Rock.001
s off
f 43//1 56//1 55//1
f 44//1 56//1 58//1
f 43//1 55//1 60//1
f 43//1 60//1 62//1
f 43//1 62//1 59//1
f 44//2 58//2 65//2
f 45//3 57//3 67//3
f 46//4 61//4 69//4
f 47//5 63//5 71//5
f 48//6 64//6 73//6
f 44//7 65//7 68//7
f 45//8 67//8 70//8
f 46//9 69//9 72//9
f 47//10 71//10 74//10
f 48//11 73//11 66//11
f 49//12 75//12 80//12
f 50//13 76//13 82//13
f 51//14 77//14 83//14
f 52//15 78//15 84//15
f 53//16 79//16 81//16
f 81//17 84//17 54//17
f 81//18 79//18 84//18
f 79//19 52//19 84//19
f 84//20 83//20 54//20
f 84//21 78//21 83//21
f 78//22 51//22 83//22
f 83//23 82//23 54//23
f 83//24 77//24 82//24
f 77//25 50//25 82//25
f 82//26 80//26 54//26
f 82//27 76//27 80//27
f 76//28 49//28 80//28
f 80//29 81//29 54//29
f 80//30 75//30 81//30
f 75//31 53//31 81//31
f 66//32 79//32 53//32
f 66//33 73//33 79//33
f 73//34 52//34 79//34
f 74//35 78//35 52//35
f 74//36 71//36 78//36
f 71//37 51//37 78//37
f 72//38 77//38 51//38
f 72//39 69//39 77//39
f 69//40 50//40 77//40
f 70//41 76//41 50//41
f 70//42 67//42 76//42
f 67//43 49//43 76//43
f 68//44 75//44 49//44
f 68//45 65//45 75//45
f 65//46 53//46 75//46
f 73//47 74//47 52//47
f 73//48 64//48 74//48
f 64//49 47//49 74//49
f 71//50 72//50 51//50
f 71//51 63//51 72//51
f 63//52 46//52 72//52
f 69//53 70//53 50//53
f 69//54 61//54 70//54
f 61//55 45//55 70//55
f 67//56 68//56 49//56
f 67//57 57//57 68//57
f 57//58 44//58 68//58
f 65//59 66//59 53//59
f 65//60 58//60 66//60
f 58//61 48//61 66//61
f 59//1 64//1 48//1
f 59//1 62//1 64//1
f 62//1 47//1 64//1
f 62//1 63//1 47//1
f 62//1 60//1 63//1
f 60//1 46//1 63//1
f 60//1 61//1 46//1
f 60//1 55//1 61//1
f 55//1 45//1 61//1
f 58//1 59//1 48//1
f 58//1 56//1 59//1
f 56//1 43//1 59//1
f 55//1 57//1 45//1
f 55//1 56//1 57//1
f 56//1 44//1 57//1
usemtl Snow
f 1//1 14//1 13//1
f 2//1 14//1 16//1
f 1//1 13//1 18//1
f 1//1 18//1 20//1
f 1//1 20//1 17//1
f 2//2 16//2 23//2
f 3//3 15//3 25//3
f 4//4 19//4 27//4
f 5//5 21//5 29//5
f 6//6 22//6 31//6
f 2//7 23//7 26//7
f 3//8 25//8 28//8
f 4//9 27//9 30//9
f 5//10 29//10 32//10
f 6//11 31//11 24//11
f 7//12 33//12 38//12
f 8//13 34//13 40//13
f 9//14 35//14 41//14
f 10//15 36//15 42//15
f 11//16 37//16 39//16
f 39//17 42//17 12//17
f 39//18 37//18 42//18
f 37//19 10//19 42//19
f 42//20 41//20 12//20
f 42//21 36//21 41//21
f 36//22 9//22 41//22
f 41//23 40//23 12//23
f 41//24 35//24 40//24
f 35//25 8//25 40//25
f 40//26 38//26 12//26
f 40//27 34//27 38//27
f 34//28 7//28 38//28
f 38//29 39//29 12//29
f 38//30 33//30 39//30
f 33//31 11//31 39//31
f 24//32 37//32 11//32
f 24//33 31//33 37//33
f 31//34 10//34 37//34
f 32//35 36//35 10//35
f 32//36 29//36 36//36
f 29//37 9//37 36//37
f 30//38 35//38 9//38
f 30//39 27//39 35//39
f 27//40 8//40 35//40
f 28//41 34//41 8//41
f 28//42 25//42 34//42
f 25//43 7//43 34//43
f 26//44 33//44 7//44
f 26//45 23//45 33//45
f 23//46 11//46 33//46
f 31//47 32//47 10//47
f 31//48 22//48 32//48
f 22//49 5//49 32//49
f 29//50 30//50 9//50
f 29//51 21//51 30//51
f 21//52 4//52 30//52
f 27//53 28//53 8//53
f 27//54 19//54 28//54
f 19//55 3//55 28//55
f 25//56 26//56 7//56
f 25//57 15//57 26//57
f 15//58 2//58 26//58
f 23//59 24//59 11//59
f 23//60 16//60 24//60
f 16//61 6//61 24//61
f 17//1 22//1 6//1
f 17//1 20//1 22//1
f 20//1 5//1 22//1
f 20//1 21//1 5//1
f 20//1 18//1 21//1
f 18//1 4//1 21//1
f 18//1 19//1 4//1
f 18//1 13//1 19//1
f 13//1 3//1 19//1
f 16//1 17//1 6//1
f 16//1 14//1 17//1
f 14//1 1//1 17//1
f 13//1 15//1 3//1
f 13//1 14//1 15//1
f 14//1 2//1 15//1
