# Blender v2.76 (sub 0) OBJ File: ''
# www.blender.org
mtllib sign.mtl
o Sign_Cube
v -0.777082 1.961799 0.112481
v -0.777082 1.961799 0.117335
v -0.773419 1.961438 0.117335
v -0.773419 1.961438 0.112481
v -0.769898 1.960370 0.117335
v -0.769898 1.960370 0.112481
v -0.766651 1.958635 0.117335
v -0.766651 1.958635 0.112481
v -0.763806 1.956300 0.117335
v -0.763806 1.956300 0.112481
v -0.761471 1.953455 0.117335
v -0.761471 1.953455 0.112481
v -0.759737 1.950209 0.117335
v -0.759737 1.950209 0.112481
v -0.758668 1.946687 0.117335
v -0.758668 1.946687 0.112481
v -0.758307 1.943024 0.117335
v -0.758307 1.943024 0.112481
v -0.758668 1.939361 0.117335
v -0.758668 1.939361 0.112481
v -0.759737 1.935839 0.117335
v -0.759737 1.935839 0.112481
v -0.761471 1.932593 0.117335
v -0.761471 1.932593 0.112481
v -0.763806 1.929748 0.117335
v -0.763806 1.929748 0.112481
v -0.766651 1.927413 0.117335
v -0.766651 1.927413 0.112481
v -0.769898 1.925678 0.117335
v -0.769898 1.925678 0.112481
v -0.773419 1.924609 0.117335
v -0.773419 1.924609 0.112481
v -0.777082 1.924249 0.117335
v -0.777082 1.924249 0.112481
v -0.780745 1.924609 0.117335
v -0.780745 1.924609 0.112481
v -0.784267 1.925678 0.117335
v -0.784267 1.925678 0.112481
v -0.787513 1.927413 0.117335
v -0.787513 1.927413 0.112481
v -0.790359 1.929748 0.117335
v -0.790359 1.929748 0.112481
v -0.792693 1.932593 0.117335
v -0.792693 1.932593 0.112481
v -0.794428 1.935839 0.117335
v -0.794428 1.935839 0.112481
v -0.795497 1.939361 0.117335
v -0.795497 1.939361 0.112481
v -0.795857 1.943024 0.117335
v -0.795857 1.943024 0.112481
v -0.795497 1.946687 0.117335
v -0.795497 1.946687 0.112481
v -0.794428 1.950209 0.117335
v -0.794428 1.950209 0.112481
v -0.792693 1.953455 0.117335
v -0.792693 1.953455 0.112481
v -0.790359 1.956300 0.117335
v -0.790359 1.956300 0.112481
v -0.787513 1.958635 0.117335
v -0.787513 1.958635 0.112481
v -0.784267 1.960370 0.117335
v -0.784267 1.960370 0.112481
v -0.780745 1.961438 0.117335
v -0.780745 1.961438 0.112481
v -0.752884 1.195041 0.112481
v -0.752884 1.195041 0.117335
v -0.749221 1.194680 0.117335
v -0.749221 1.194680 0.112481
v -0.745699 1.193612 0.117335
v -0.745699 1.193612 0.112481
v -0.742453 1.191877 0.117335
v -0.742453 1.191877 0.112481
v -0.739608 1.189542 0.117335
v -0.739608 1.189542 0.112481
v -0.737273 1.186697 0.117335
v -0.737273 1.186697 0.112481
v -0.735539 1.183450 0.117335
v -0.735539 1.183450 0.112481
v -0.734470 1.179928 0.117335
v -0.734470 1.179928 0.112481
v -0.734109 1.176266 0.117335
v -0.734109 1.176266 0.112481
v -0.734470 1.172603 0.117335
v -0.734470 1.172603 0.112481
v -0.735539 1.169081 0.117335
v -0.735539 1.169081 0.112481
v -0.737273 1.165835 0.117335
v -0.737273 1.165835 0.112481
v -0.739608 1.162990 0.117335
v -0.739608 1.162990 0.112481
v -0.742453 1.160655 0.117335
v -0.742453 1.160655 0.112481
v -0.745699 1.158920 0.117335
v -0.745699 1.158920 0.112481
v -0.749221 1.157851 0.117335
v -0.749221 1.157851 0.112481
v -0.752884 1.157490 0.117335
v -0.752884 1.157490 0.112481
v -0.756547 1.157851 0.117335
v -0.756547 1.157851 0.112481
v -0.760069 1.158920 0.117335
v -0.760069 1.158920 0.112481
v -0.763315 1.160655 0.117335
v -0.763315 1.160655 0.112481
v -0.766160 1.162990 0.117335
v -0.766160 1.162990 0.112481
v -0.768495 1.165835 0.117335
v -0.768495 1.165835 0.112481
v -0.770230 1.169081 0.117335
v -0.770230 1.169081 0.112481
v -0.771299 1.172603 0.117335
v -0.771299 1.172603 0.112481
v -0.771659 1.176266 0.117335
v -0.771659 1.176266 0.112481
v -0.771299 1.179929 0.117335
v -0.771299 1.179929 0.112481
v -0.770230 1.183451 0.117335
v -0.770230 1.183451 0.112481
v -0.768495 1.186697 0.117335
v -0.768495 1.186697 0.112481
v -0.766160 1.189542 0.117335
v -0.766160 1.189542 0.112481
v -0.763315 1.191877 0.117335
v -0.763315 1.191877 0.112481
v -0.760069 1.193612 0.117335
v -0.760069 1.193612 0.112481
v -0.756547 1.194680 0.117335
v -0.756547 1.194680 0.112481
v 0.806787 1.195041 0.112481
v 0.806787 1.195041 0.117335
v 0.810450 1.194680 0.117335
v 0.810450 1.194680 0.112481
v 0.813972 1.193612 0.117335
v 0.813972 1.193612 0.112481
v 0.817218 1.191877 0.117335
v 0.817218 1.191877 0.112481
v 0.820063 1.189542 0.117335
v 0.820063 1.189542 0.112481
v 0.822398 1.186697 0.117335
v 0.822398 1.186697 0.112481
v 0.824133 1.183450 0.117335
v 0.824133 1.183450 0.112481
v 0.825202 1.179928 0.117335
v 0.825202 1.179928 0.112481
v 0.825563 1.176266 0.117335
v 0.825563 1.176266 0.112481
v 0.825202 1.172603 0.117335
v 0.825202 1.172603 0.112481
v 0.824133 1.169081 0.117335
v 0.824133 1.169081 0.112481
v 0.822398 1.165835 0.117335
v 0.822398 1.165835 0.112481
v 0.820063 1.162990 0.117335
v 0.820063 1.162990 0.112481
v 0.817218 1.160655 0.117335
v 0.817218 1.160655 0.112481
v 0.813972 1.158920 0.117335
v 0.813972 1.158920 0.112481
v 0.810450 1.157851 0.117335
v 0.810450 1.157851 0.112481
v 0.806787 1.157490 0.117335
v 0.806787 1.157490 0.112481
v 0.803125 1.157851 0.117335
v 0.803125 1.157851 0.112481
v 0.799602 1.158920 0.117335
v 0.799602 1.158920 0.112481
v 0.796356 1.160655 0.117335
v 0.796356 1.160655 0.112481
v 0.793511 1.162990 0.117335
v 0.793511 1.162990 0.112481
v 0.791176 1.165835 0.117335
v 0.791176 1.165835 0.112481
v 0.789441 1.169081 0.117335
v 0.789441 1.169081 0.112481
v 0.788373 1.172603 0.117335
v 0.788373 1.172603 0.112481
v 0.788012 1.176266 0.117335
v 0.788012 1.176266 0.112481
v 0.788373 1.179929 0.117335
v 0.788373 1.179929 0.112481
v 0.789441 1.183451 0.117335
v 0.789441 1.183451 0.112481
v 0.791176 1.186697 0.117335
v 0.791176 1.186697 0.112481
v 0.793511 1.189542 0.117335
v 0.793511 1.189542 0.112481
v 0.796356 1.191877 0.117335
v 0.796356 1.191877 0.112481
v 0.799602 1.193612 0.117335
v 0.799602 1.193612 0.112481
v 0.803125 1.194680 0.117335
v 0.803125 1.194680 0.112481
v 0.806787 1.955221 0.112481
v 0.806787 1.955221 0.117335
v 0.810450 1.954860 0.117335
v 0.810450 1.954860 0.112481
v 0.813972 1.953792 0.117335
v 0.813972 1.953792 0.112481
v 0.817218 1.952057 0.117335
v 0.817218 1.952057 0.112481
v 0.820063 1.949722 0.117335
v 0.820063 1.949722 0.112481
v 0.822398 1.946877 0.117335
v 0.822398 1.946877 0.112481
v 0.824133 1.943631 0.117335
v 0.824133 1.943631 0.112481
v 0.825202 1.940109 0.117335
v 0.825202 1.940109 0.112481
v 0.825563 1.936446 0.117335
v 0.825563 1.936446 0.112481
v 0.825202 1.932783 0.117335
v 0.825202 1.932783 0.112481
v 0.824133 1.929261 0.117335
v 0.824133 1.929261 0.112481
v 0.822398 1.926015 0.117335
v 0.822398 1.926015 0.112481
v 0.820063 1.923170 0.117335
v 0.820063 1.923170 0.112481
v 0.817218 1.920835 0.117335
v 0.817218 1.920835 0.112481
v 0.813972 1.919100 0.117335
v 0.813972 1.919100 0.112481
v 0.810450 1.918032 0.117335
v 0.810450 1.918032 0.112481
v 0.806787 1.917671 0.117335
v 0.806787 1.917671 0.112481
v 0.803125 1.918032 0.117335
v 0.803125 1.918032 0.112481
v 0.799602 1.919100 0.117335
v 0.799602 1.919100 0.112481
v 0.796356 1.920835 0.117335
v 0.796356 1.920835 0.112481
v 0.793511 1.923170 0.117335
v 0.793511 1.923170 0.112481
v 0.791176 1.926015 0.117335
v 0.791176 1.926015 0.112481
v 0.789441 1.929261 0.117335
v 0.789441 1.929261 0.112481
v 0.788373 1.932783 0.117335
v 0.788373 1.932783 0.112481
v 0.788012 1.936446 0.117335
v 0.788012 1.936446 0.112481
v 0.788373 1.940109 0.117335
v 0.788373 1.940109 0.112481
v 0.789441 1.943631 0.117335
v 0.789441 1.943631 0.112481
v 0.791176 1.946877 0.117335
v 0.791176 1.946877 0.112481
v 0.793511 1.949722 0.117335
v 0.793511 1.949722 0.112481
v 0.796356 1.952057 0.117335
v 0.796356 1.952057 0.112481
v 0.799602 1.953792 0.117335
v 0.799602 1.953792 0.112481
v 0.803125 1.954860 0.117335
v 0.803125 1.954860 0.112481
v -0.601548 1.864664 0.098480
v -0.810542 1.867074 0.098480
v -0.812429 1.974343 0.098480
v -0.603251 1.971788 0.098480
v 0.233230 1.850802 0.098480
v 0.023649 1.853003 0.098480
v 0.023649 1.955227 0.098480
v 0.233230 1.953654 0.098480
v 0.233230 1.456868 0.098480
v 0.024289 1.462377 0.098480
v 0.024032 1.559023 0.098480
v 0.233230 1.554549 0.098480
v -0.594324 1.447734 0.098480
v -0.802482 1.441874 0.098480
v -0.804173 1.547488 0.098480
v -0.595835 1.551234 0.098480
v -0.182432 1.463702 0.098480
v -0.388140 1.457265 0.098480
v -0.389293 1.558690 0.098480
v -0.183143 1.562168 0.098480
v -0.181658 1.261457 0.098480
v -0.386974 1.250785 0.098480
v -0.387331 1.354706 0.098480
v -0.181912 1.363798 0.098480
v -0.592875 1.238916 0.098480
v -0.800891 1.230164 0.098480
v -0.801323 1.336230 0.098480
v -0.593286 1.343780 0.098480
v 0.652392 1.447727 0.098480
v 0.442811 1.451142 0.098480
v 0.442811 1.551230 0.098480
v 0.652392 1.550932 0.098480
v 0.652392 1.239285 0.098480
v 0.442811 1.247837 0.098480
v 0.442811 1.350191 0.098480
v 0.652392 1.344022 0.098480
v 0.233230 1.257816 0.098480
v 0.024606 1.264554 0.098480
v 0.024497 1.364746 0.098480
v 0.233230 1.358238 0.098480
v 0.652392 1.863905 0.098480
v 0.442811 1.853942 0.098480
v 0.442811 1.958619 0.098480
v 0.652392 1.971143 0.098480
v 0.652392 1.654254 0.098480
v 0.442811 1.651159 0.098480
v 0.442811 1.751770 0.098480
v 0.652392 1.758354 0.098480
v 0.233230 1.652160 0.098480
v 0.023792 1.655756 0.098480
v 0.023655 1.753457 0.098480
v 0.233230 1.750605 0.098480
v -0.185463 1.859311 0.098480
v -0.393506 1.863714 0.098480
v -0.394665 1.968612 0.098480
v -0.185882 1.962268 0.098480
v -0.183957 1.660224 0.098480
v -0.390663 1.659629 0.098480
v -0.392116 1.761006 0.098480
v -0.184771 1.758937 0.098480
v -0.597655 1.654818 0.098480
v -0.806210 1.653534 0.098480
v -0.808402 1.760160 0.098480
v -0.599617 1.759083 0.098480
v 0.861973 1.662573 0.098480
v 0.861973 1.770212 0.098480
v 0.861973 1.555374 0.098480
v 0.861973 1.877942 0.098480
v 0.861973 1.985582 0.098480
v 0.442811 1.143601 0.098480
v 0.233230 1.154779 0.098480
v 0.024582 1.160550 0.098480
v 0.861973 1.234025 0.098480
v 0.861973 1.341582 0.098480
v 0.861973 1.125537 0.098480
v 0.652392 1.133110 0.098480
v 0.861973 1.448549 0.098480
v -0.387137 1.145070 0.098480
v -0.593178 1.132787 0.098480
v -0.801329 1.123375 0.098480
v -0.181727 1.155960 0.098480
v 0.072988 2.046323 0.031325
v 0.072988 2.046323 -0.031325
v 0.072988 -0.024647 -0.031325
v 0.072988 -0.024647 0.031325
v -0.072988 2.046323 -0.031325
v -0.072988 -0.024647 -0.031325
v -0.072988 2.046323 0.031325
v -0.072988 -0.024647 0.031325
v -0.907514 1.952320 0.055222
v 0.933538 1.952320 0.055222
v 0.933538 1.876562 0.055222
v -0.907514 1.876562 0.055222
v -0.907514 1.952320 0.013517
v -0.907514 1.876562 0.013517
v 0.933538 1.876562 0.013517
v 0.933538 1.952320 0.013517
v -0.907514 2.037069 0.013517
v 0.933538 2.037069 0.013517
v 0.933538 2.037069 0.055223
v -0.907514 2.037069 0.055223
v -0.914606 1.875950 0.076186
v 0.926446 1.875950 0.076186
v 0.926446 1.715443 0.076186
v -0.914606 1.715443 0.076186
v -0.914606 1.875950 0.034481
v -0.914606 1.715443 0.034480
v 0.926446 1.715443 0.034480
v 0.926446 1.875950 0.034481
v -0.906990 1.717476 0.055223
v 0.934062 1.717476 0.055223
v 0.934062 1.556969 0.055222
v -0.906990 1.556969 0.055222
v -0.906990 1.717476 0.013517
v -0.906990 1.556969 0.013517
v 0.934062 1.556969 0.013517
v 0.934062 1.717476 0.013517
v -0.914606 1.557857 0.084010
v 0.926446 1.557857 0.084010
v 0.926446 1.397350 0.084010
v -0.914606 1.397350 0.084010
v -0.914606 1.557857 0.042304
v -0.914606 1.397350 0.042304
v 0.926446 1.397350 0.042304
v 0.926446 1.557857 0.042304
v -0.922462 1.404414 0.055223
v 0.918590 1.404414 0.055223
v 0.918590 1.243907 0.055222
v -0.922462 1.243907 0.055222
v -0.922462 1.404414 0.013517
v -0.922462 1.243907 0.013517
v 0.918590 1.243907 0.013517
v 0.918590 1.404414 0.013517
v 0.926446 1.238460 0.013517
v -0.914606 1.238460 0.013517
v -0.914606 1.238460 0.055222
v 0.926446 1.238460 0.055222
v -0.914606 1.245524 0.077111
v 0.926446 1.245524 0.077111
v 0.926446 1.085017 0.077111
v -0.914606 1.085017 0.077111
v -0.914606 1.245524 0.035405
v -0.914606 1.085017 0.035405
v 0.926446 1.085017 0.035405
v 0.926446 1.245524 0.035405
vn -1.000000 0.000000 0.000000
vn 0.000000 -0.000000 1.000000
vn 1.000000 0.000000 0.000000
vn 0.000000 0.000000 -1.000000
vn 0.000000 1.000000 0.000000
vn 0.000000 -1.000000 0.000000
vn 0.098100 0.995200 0.000000
vn 0.290200 0.957000 0.000000
vn 0.471300 0.882000 0.000000
vn 0.634400 0.773000 0.000000
vn 0.773000 0.634400 0.000000
vn 0.882000 0.471200 0.000000
vn 0.956900 0.290400 0.000000
vn 0.995200 0.098100 0.000000
vn 0.995200 -0.098100 0.000000
vn 0.956900 -0.290400 0.000000
vn 0.882000 -0.471200 0.000000
vn 0.773000 -0.634400 0.000000
vn 0.634400 -0.773000 0.000000
vn 0.471300 -0.882000 0.000000
vn 0.290500 -0.956900 0.000000
vn 0.098100 -0.995200 0.000000
vn -0.098100 -0.995200 -0.000000
vn -0.290500 -0.956900 0.000000
vn -0.471400 -0.881900 0.000000
vn -0.634300 -0.773100 0.000000
vn -0.773100 -0.634300 0.000000
vn -0.881900 -0.471400 0.000000
vn -0.956900 -0.290400 0.000000
vn -0.995200 -0.097800 0.000000
vn -0.995200 0.097800 0.000000
vn -0.956900 0.290400 0.000000
vn -0.881900 0.471400 0.000000
vn -0.773100 0.634200 0.000000
vn -0.634300 0.773100 0.000000
vn -0.471400 0.881900 0.000000
vn -0.098100 0.995200 0.000000
vn -0.290200 0.957000 0.000000
vn 0.471400 0.881900 0.000000
vn 0.882100 0.471100 0.000000
vn 0.471400 -0.881900 0.000000
vn -0.290100 -0.957000 0.000000
vn -0.634400 -0.773000 0.000000
vn -0.773000 -0.634400 0.000000
vn -0.956900 0.290500 0.000000
vn -0.773000 0.634400 0.000000
vn -0.634400 0.773000 0.000000
vn 0.882000 0.471300 0.000000
vn 0.881900 -0.471400 0.000000
vn -0.290400 -0.956900 0.000000
vn -0.957000 -0.290200 0.000000
vn -0.995200 -0.098100 0.000000
vn -0.995200 0.098100 0.000000
vn -0.957000 0.290200 0.000000
vn -0.290100 0.957000 0.000000
vn 0.881900 0.471400 0.000000
vn 0.290200 -0.957000 0.000000
usemtl Bark
s 1
f 338//1 339//1 340//1 341//1
f 339//2 342//2 343//2 340//2
f 342//3 344//3 345//3 343//3
f 344//4 338//4 341//4 345//4
f 341//5 340//5 343//5 345//5
f 344//6 342//6 339//6 338//6
f 346//4 347//4 348//4 349//4
f 350//2 351//2 352//2 353//2
f 354//6 355//6 356//6 357//6
f 353//1 352//1 348//1 347//1
f 352//5 351//5 349//5 348//5
f 350//3 354//3 357//3 346//3
f 358//4 359//4 360//4 361//4
f 362//2 363//2 364//2 365//2
f 362//6 365//6 359//6 358//6
f 365//1 364//1 360//1 359//1
f 364//5 363//5 361//5 360//5
f 363//3 362//3 358//3 361//3
f 366//4 367//4 368//4 369//4
f 370//2 371//2 372//2 373//2
f 370//6 373//6 367//6 366//6
f 373//1 372//1 368//1 367//1
f 372//5 371//5 369//5 368//5
f 371//3 370//3 366//3 369//3
f 374//4 375//4 376//4 377//4
f 378//2 379//2 380//2 381//2
f 378//6 381//6 375//6 374//6
f 381//1 380//1 376//1 375//1
f 380//5 379//5 377//5 376//5
f 379//3 378//3 374//3 377//3
f 382//4 383//4 384//4 385//4
f 386//2 387//2 388//2 389//2
f 386//6 389//6 383//6 382//6
f 389//1 388//1 384//1 383//1
f 388//5 387//5 385//5 384//5
f 387//3 386//3 382//3 385//3
f 390//5 391//5 392//5 393//5
f 394//4 395//4 396//4 397//4
f 398//2 399//2 400//2 401//2
f 398//6 401//6 395//6 394//6
f 401//1 400//1 396//1 395//1
f 400//5 399//5 397//5 396//5
f 399//3 398//3 394//3 397//3
f 351//3 350//3 346//3 349//3
f 355//1 353//1 347//1 356//1
f 354//2 350//2 353//2 355//2
f 357//4 356//4 347//4 346//4
usemtl Snow
f 1//7 2//7 3//7 4//7
f 4//8 3//8 5//8 6//8
f 6//9 5//9 7//9 8//9
f 8//10 7//10 9//10 10//10
f 10//11 9//11 11//11 12//11
f 12//12 11//12 13//12 14//12
f 14//13 13//13 15//13 16//13
f 16//14 15//14 17//14 18//14
f 18//15 17//15 19//15 20//15
f 20//16 19//16 21//16 22//16
f 22//17 21//17 23//17 24//17
f 24//18 23//18 25//18 26//18
f 26//19 25//19 27//19 28//19
f 28//20 27//20 29//20 30//20
f 30//21 29//21 31//21 32//21
f 32//22 31//22 33//22 34//22
f 34//23 33//23 35//23 36//23
f 36//24 35//24 37//24 38//24
f 38//25 37//25 39//25 40//25
f 40//26 39//26 41//26 42//26
f 42//27 41//27 43//27 44//27
f 44//28 43//28 45//28 46//28
f 46//29 45//29 47//29 48//29
f 48//30 47//30 49//30 50//30
f 50//31 49//31 51//31 52//31
f 52//32 51//32 53//32 54//32
f 54//33 53//33 55//33 56//33
f 56//34 55//34 57//34 58//34
f 58//35 57//35 59//35 60//35
f 60//36 59//36 61//36 62//36
f 3//2 2//2 63//2 61//2 59//2 57//2 55//2 53//2 51//2 49//2 47//2 45//2 43//2 41//2 39//2 37//2 35//2 33//2 31//2 29//2 27//2 25//2 23//2 21//2 19//2 17//2 15//2 13//2 11//2 9//2 7//2 5//2
f 64//37 63//37 2//37 1//37
f 62//38 61//38 63//38 64//38
f 1//4 4//4 6//4 8//4 10//4 12//4 14//4 16//4 18//4 20//4 22//4 24//4 26//4 28//4 30//4 32//4 34//4 36//4 38//4 40//4 42//4 44//4 46//4 48//4 50//4 52//4 54//4 56//4 58//4 60//4 62//4 64//4
f 65//7 66//7 67//7 68//7
f 68//8 67//8 69//8 70//8
f 70//39 69//39 71//39 72//39
f 72//10 71//10 73//10 74//10
f 74//11 73//11 75//11 76//11
f 76//40 75//40 77//40 78//40
f 78//13 77//13 79//13 80//13
f 80//14 79//14 81//14 82//14
f 82//15 81//15 83//15 84//15
f 84//16 83//16 85//16 86//16
f 86//17 85//17 87//17 88//17
f 88//18 87//18 89//18 90//18
f 90//19 89//19 91//19 92//19
f 92//41 91//41 93//41 94//41
f 94//21 93//21 95//21 96//21
f 96//22 95//22 97//22 98//22
f 98//23 97//23 99//23 100//23
f 100//42 99//42 101//42 102//42
f 102//25 101//25 103//25 104//25
f 104//43 103//43 105//43 106//43
f 106//44 105//44 107//44 108//44
f 108//28 107//28 109//28 110//28
f 110//29 109//29 111//29 112//29
f 112//30 111//30 113//30 114//30
f 114//31 113//31 115//31 116//31
f 116//45 115//45 117//45 118//45
f 118//33 117//33 119//33 120//33
f 120//46 119//46 121//46 122//46
f 122//47 121//47 123//47 124//47
f 124//36 123//36 125//36 126//36
f 67//2 66//2 127//2 125//2 123//2 121//2 119//2 117//2 115//2 113//2 111//2 109//2 107//2 105//2 103//2 101//2 99//2 97//2 95//2 93//2 91//2 89//2 87//2 85//2 83//2 81//2 79//2 77//2 75//2 73//2 71//2 69//2
f 128//37 127//37 66//37 65//37
f 126//38 125//38 127//38 128//38
f 65//4 68//4 70//4 72//4 74//4 76//4 78//4 80//4 82//4 84//4 86//4 88//4 90//4 92//4 94//4 96//4 98//4 100//4 102//4 104//4 106//4 108//4 110//4 112//4 114//4 116//4 118//4 120//4 122//4 124//4 126//4 128//4
f 129//7 130//7 131//7 132//7
f 132//8 131//8 133//8 134//8
f 134//39 133//39 135//39 136//39
f 136//10 135//10 137//10 138//10
f 138//11 137//11 139//11 140//11
f 140//48 139//48 141//48 142//48
f 142//13 141//13 143//13 144//13
f 144//14 143//14 145//14 146//14
f 146//15 145//15 147//15 148//15
f 148//16 147//16 149//16 150//16
f 150//49 149//49 151//49 152//49
f 152//18 151//18 153//18 154//18
f 154//19 153//19 155//19 156//19
f 156//41 155//41 157//41 158//41
f 158//21 157//21 159//21 160//21
f 160//22 159//22 161//22 162//22
f 162//23 161//23 163//23 164//23
f 164//50 163//50 165//50 166//50
f 166//25 165//25 167//25 168//25
f 168//43 167//43 169//43 170//43
f 170//44 169//44 171//44 172//44
f 172//28 171//28 173//28 174//28
f 174//51 173//51 175//51 176//51
f 176//52 175//52 177//52 178//52
f 178//53 177//53 179//53 180//53
f 180//54 179//54 181//54 182//54
f 182//33 181//33 183//33 184//33
f 184//46 183//46 185//46 186//46
f 186//47 185//47 187//47 188//47
f 188//36 187//36 189//36 190//36
f 131//2 130//2 191//2 189//2 187//2 185//2 183//2 181//2 179//2 177//2 175//2 173//2 171//2 169//2 167//2 165//2 163//2 161//2 159//2 157//2 155//2 153//2 151//2 149//2 147//2 145//2 143//2 141//2 139//2 137//2 135//2 133//2
f 192//37 191//37 130//37 129//37
f 190//55 189//55 191//55 192//55
f 129//4 132//4 134//4 136//4 138//4 140//4 142//4 144//4 146//4 148//4 150//4 152//4 154//4 156//4 158//4 160//4 162//4 164//4 166//4 168//4 170//4 172//4 174//4 176//4 178//4 180//4 182//4 184//4 186//4 188//4 190//4 192//4
f 193//7 194//7 195//7 196//7
f 196//8 195//8 197//8 198//8
f 198//39 197//39 199//39 200//39
f 200//10 199//10 201//10 202//10
f 202//11 201//11 203//11 204//11
f 204//56 203//56 205//56 206//56
f 206//13 205//13 207//13 208//13
f 208//14 207//14 209//14 210//14
f 210//15 209//15 211//15 212//15
f 212//16 211//16 213//16 214//16
f 214//49 213//49 215//49 216//49
f 216//18 215//18 217//18 218//18
f 218//19 217//19 219//19 220//19
f 220//41 219//41 221//41 222//41
f 222//57 221//57 223//57 224//57
f 224//22 223//22 225//22 226//22
f 226//23 225//23 227//23 228//23
f 228//42 227//42 229//42 230//42
f 230//25 229//25 231//25 232//25
f 232//43 231//43 233//43 234//43
f 234//44 233//44 235//44 236//44
f 236//28 235//28 237//28 238//28
f 238//51 237//51 239//51 240//51
f 240//52 239//52 241//52 242//52
f 242//53 241//53 243//53 244//53
f 244//54 243//54 245//54 246//54
f 246//33 245//33 247//33 248//33
f 248//46 247//46 249//46 250//46
f 250//47 249//47 251//47 252//47
f 252//36 251//36 253//36 254//36
f 195//2 194//2 255//2 253//2 251//2 249//2 247//2 245//2 243//2 241//2 239//2 237//2 235//2 233//2 231//2 229//2 227//2 225//2 223//2 221//2 219//2 217//2 215//2 213//2 211//2 209//2 207//2 205//2 203//2 201//2 199//2 197//2
f 256//37 255//37 194//37 193//37
f 254//55 253//55 255//55 256//55
f 193//4 196//4 198//4 200//4 202//4 204//4 206//4 208//4 210//4 212//4 214//4 216//4 218//4 220//4 222//4 224//4 226//4 228//4 230//4 232//4 234//4 236//4 238//4 240//4 242//4 244//4 246//4 248//4 250//4 252//4 254//4 256//4
f 257//4 258//4 259//4 260//4
f 261//4 262//4 263//4 264//4
f 265//4 266//4 267//4 268//4
f 269//4 270//4 271//4 272//4
f 273//4 274//4 275//4 276//4
f 277//4 278//4 279//4 280//4
f 281//4 282//4 283//4 284//4
f 285//4 286//4 287//4 288//4
f 289//4 290//4 291//4 292//4
f 293//4 294//4 295//4 296//4
f 297//4 298//4 299//4 300//4
f 301//4 302//4 303//4 304//4
f 305//4 306//4 307//4 308//4
f 309//4 310//4 311//4 312//4
f 313//4 314//4 315//4 316//4
f 317//4 318//4 319//4 320//4
f 314//4 317//4 320//4 315//4
f 275//4 272//4 317//4 314//4
f 272//4 271//4 318//4 317//4
f 306//4 313//4 316//4 307//4
f 267//4 276//4 313//4 306//4
f 276//4 275//4 314//4 313//4
f 262//4 309//4 312//4 263//4
f 307//4 316//4 309//4 262//4
f 316//4 315//4 310//4 309//4
f 302//4 305//4 308//4 303//4
f 287//4 268//4 305//4 302//4
f 268//4 267//4 306//4 305//4
f 321//4 301//4 304//4 322//4
f 323//4 288//4 301//4 321//4
f 288//4 287//4 302//4 301//4
f 324//4 297//4 300//4 325//4
f 322//4 304//4 297//4 324//4
f 304//4 303//4 298//4 297//4
f 290//4 293//4 296//4 291//4
f 326//4 327//4 293//4 290//4
f 327//4 328//4 294//4 293//4
f 329//4 289//4 292//4 330//4
f 331//4 332//4 289//4 329//4
f 332//4 326//4 290//4 289//4
f 333//4 285//4 288//4 323//4
f 330//4 292//4 285//4 333//4
f 292//4 291//4 286//4 285//4
f 278//4 281//4 284//4 279//4
f 334//4 335//4 281//4 278//4
f 335//4 336//4 282//4 281//4
f 294//4 277//4 280//4 295//4
f 328//4 337//4 277//4 294//4
f 337//4 334//4 278//4 277//4
f 266//4 273//4 276//4 267//4
f 295//4 280//4 273//4 266//4
f 280//4 279//4 274//4 273//4
f 274//4 269//4 272//4 275//4
f 279//4 284//4 269//4 274//4
f 284//4 283//4 270//4 269//4
f 286//4 265//4 268//4 287//4
f 291//4 296//4 265//4 286//4
f 296//4 295//4 266//4 265//4
f 298//4 261//4 264//4 299//4
f 303//4 308//4 261//4 298//4
f 308//4 307//4 262//4 261//4
f 310//4 257//4 260//4 311//4
f 315//4 320//4 257//4 310//4
f 320//4 319//4 258//4 257//4
