# Blender v2.76 (sub 0) OBJ File: 'snowytree.blend'
# www.blender.org
mtllib sign.mtl
o Sign_Cube
v -0.009843 1.970907 -0.801430
v -0.014697 1.970907 -0.801430
v -0.009843 1.970546 -0.797767
v -0.014697 1.970546 -0.797767
v -0.009843 1.969477 -0.794245
v -0.014697 1.969477 -0.794245
v -0.009843 1.967742 -0.790998
v -0.014697 1.967742 -0.790998
v -0.009843 1.965407 -0.788154
v -0.014697 1.965407 -0.788154
v -0.009843 1.962562 -0.785818
v -0.014697 1.962562 -0.785818
v -0.009843 1.959316 -0.784084
v -0.014697 1.959316 -0.784084
v -0.009843 1.955794 -0.783015
v -0.014697 1.955794 -0.783015
v -0.009843 1.952132 -0.782654
v -0.014697 1.952132 -0.782654
v -0.009843 1.948469 -0.783015
v -0.014697 1.948469 -0.783015
v -0.009843 1.944947 -0.784084
v -0.014697 1.944947 -0.784084
v -0.009843 1.941700 -0.785818
v -0.014697 1.941700 -0.785818
v -0.009843 1.938855 -0.788154
v -0.014697 1.938855 -0.788154
v -0.009843 1.936520 -0.790998
v -0.014697 1.936520 -0.790998
v -0.009843 1.934785 -0.794245
v -0.014697 1.934785 -0.794245
v -0.009843 1.933717 -0.797767
v -0.014697 1.933717 -0.797767
v -0.009843 1.933356 -0.801430
v -0.014697 1.933356 -0.801430
v -0.009843 1.933717 -0.805092
v -0.014697 1.933717 -0.805092
v -0.009843 1.934785 -0.808615
v -0.014697 1.934785 -0.808615
v -0.009843 1.936520 -0.811860
v -0.014697 1.936520 -0.811860
v -0.009843 1.938855 -0.814706
v -0.014697 1.938855 -0.814706
v -0.009843 1.941700 -0.817040
v -0.014697 1.941700 -0.817040
v -0.009843 1.944947 -0.818776
v -0.014697 1.944947 -0.818776
v -0.009843 1.948469 -0.819844
v -0.014697 1.948469 -0.819844
v -0.009843 1.952132 -0.820204
v -0.014697 1.952132 -0.820204
v -0.009843 1.955794 -0.819844
v -0.014697 1.955794 -0.819844
v -0.009843 1.959316 -0.818776
v -0.014697 1.959316 -0.818776
v -0.009843 1.962562 -0.817040
v -0.014697 1.962562 -0.817040
v -0.009843 1.965408 -0.814706
v -0.014697 1.965408 -0.814706
v -0.009843 1.967742 -0.811860
v -0.014697 1.967742 -0.811860
v -0.009843 1.969477 -0.808615
v -0.014697 1.969477 -0.808615
v -0.009843 1.970546 -0.805092
v -0.014697 1.970546 -0.805092
v -0.009843 1.204148 -0.777231
v -0.014697 1.204148 -0.777231
v -0.009843 1.203788 -0.773568
v -0.014697 1.203788 -0.773568
v -0.009843 1.202719 -0.770047
v -0.014697 1.202719 -0.770047
v -0.009843 1.200984 -0.766800
v -0.014697 1.200984 -0.766800
v -0.009843 1.198649 -0.763955
v -0.014697 1.198649 -0.763955
v -0.009843 1.195804 -0.761620
v -0.014697 1.195804 -0.761620
v -0.009843 1.192558 -0.759886
v -0.014697 1.192558 -0.759886
v -0.009843 1.189036 -0.758817
v -0.014697 1.189036 -0.758817
v -0.009843 1.185373 -0.758456
v -0.014697 1.185373 -0.758456
v -0.009843 1.181710 -0.758817
v -0.014697 1.181710 -0.758817
v -0.009843 1.178188 -0.759886
v -0.014697 1.178188 -0.759886
v -0.009843 1.174942 -0.761620
v -0.014697 1.174942 -0.761620
v -0.009843 1.172097 -0.763955
v -0.014697 1.172097 -0.763955
v -0.009843 1.169762 -0.766800
v -0.014697 1.169762 -0.766800
v -0.009843 1.168027 -0.770047
v -0.014697 1.168027 -0.770047
v -0.009843 1.166959 -0.773568
v -0.014697 1.166959 -0.773568
v -0.009843 1.166598 -0.777231
v -0.014697 1.166598 -0.777231
v -0.009843 1.166959 -0.780894
v -0.014697 1.166959 -0.780894
v -0.009843 1.168027 -0.784417
v -0.014697 1.168027 -0.784417
v -0.009843 1.169762 -0.787662
v -0.014697 1.169762 -0.787662
v -0.009843 1.172097 -0.790508
v -0.014697 1.172097 -0.790508
v -0.009843 1.174942 -0.792842
v -0.014697 1.174942 -0.792842
v -0.009843 1.178188 -0.794577
v -0.014697 1.178188 -0.794577
v -0.009843 1.181710 -0.795646
v -0.014697 1.181710 -0.795646
v -0.009843 1.185373 -0.796007
v -0.014697 1.185373 -0.796007
v -0.009843 1.189036 -0.795646
v -0.014697 1.189036 -0.795646
v -0.009843 1.192558 -0.794577
v -0.014697 1.192558 -0.794577
v -0.009843 1.195804 -0.792842
v -0.014697 1.195804 -0.792842
v -0.009843 1.198649 -0.790508
v -0.014697 1.198649 -0.790508
v -0.009843 1.200984 -0.787662
v -0.014697 1.200984 -0.787662
v -0.009843 1.202719 -0.784417
v -0.014697 1.202719 -0.784417
v -0.009843 1.203788 -0.780894
v -0.014697 1.203788 -0.780894
v -0.009843 1.204148 0.782440
v -0.014697 1.204148 0.782440
v -0.009843 1.203788 0.786103
v -0.014697 1.203788 0.786103
v -0.009843 1.202719 0.789625
v -0.014697 1.202719 0.789625
v -0.009843 1.200984 0.792871
v -0.014697 1.200984 0.792871
v -0.009843 1.198649 0.795716
v -0.014697 1.198649 0.795716
v -0.009843 1.195804 0.798051
v -0.014697 1.195804 0.798051
v -0.009843 1.192558 0.799786
v -0.014697 1.192558 0.799786
v -0.009843 1.189036 0.800855
v -0.014697 1.189036 0.800855
v -0.009843 1.185373 0.801215
v -0.014697 1.185373 0.801215
v -0.009843 1.181710 0.800855
v -0.014697 1.181710 0.800855
v -0.009843 1.178188 0.799786
v -0.014697 1.178188 0.799786
v -0.009843 1.174942 0.798051
v -0.014697 1.174942 0.798051
v -0.009843 1.172097 0.795716
v -0.014697 1.172097 0.795716
v -0.009843 1.169762 0.792871
v -0.014697 1.169762 0.792871
v -0.009843 1.168027 0.789625
v -0.014697 1.168027 0.789625
v -0.009843 1.166959 0.786103
v -0.014697 1.166959 0.786103
v -0.009843 1.166598 0.782440
v -0.014697 1.166598 0.782440
v -0.009843 1.166959 0.778777
v -0.014697 1.166959 0.778777
v -0.009843 1.168027 0.775255
v -0.014697 1.168027 0.775255
v -0.009843 1.169762 0.772009
v -0.014697 1.169762 0.772009
v -0.009843 1.172097 0.769164
v -0.014697 1.172097 0.769164
v -0.009843 1.174942 0.766829
v -0.014697 1.174942 0.766829
v -0.009843 1.178188 0.765094
v -0.014697 1.178188 0.765094
v -0.009843 1.181710 0.764025
v -0.014697 1.181710 0.764025
v -0.009843 1.185373 0.763665
v -0.014697 1.185373 0.763665
v -0.009843 1.189036 0.764025
v -0.014697 1.189036 0.764025
v -0.009843 1.192558 0.765094
v -0.014697 1.192558 0.765094
v -0.009843 1.195804 0.766829
v -0.014697 1.195804 0.766829
v -0.009843 1.198649 0.769164
v -0.014697 1.198649 0.769164
v -0.009843 1.200984 0.772009
v -0.014697 1.200984 0.772009
v -0.009843 1.202719 0.775255
v -0.014697 1.202719 0.775255
v -0.009843 1.203788 0.778777
v -0.014697 1.203788 0.778777
v -0.009843 1.964329 0.782440
v -0.014697 1.964329 0.782440
v -0.009843 1.963968 0.786103
v -0.014697 1.963968 0.786103
v -0.009843 1.962900 0.789625
v -0.014697 1.962900 0.789625
v -0.009843 1.961165 0.792871
v -0.014697 1.961165 0.792871
v -0.009843 1.958830 0.795716
v -0.014697 1.958830 0.795716
v -0.009843 1.955985 0.798051
v -0.014697 1.955985 0.798051
v -0.009843 1.952739 0.799786
v -0.014697 1.952739 0.799786
v -0.009843 1.949217 0.800855
v -0.014697 1.949217 0.800855
v -0.009843 1.945554 0.801215
v -0.014697 1.945554 0.801215
v -0.009843 1.941891 0.800855
v -0.014697 1.941891 0.800855
v -0.009843 1.938369 0.799786
v -0.014697 1.938369 0.799786
v -0.009843 1.935123 0.798051
v -0.014697 1.935123 0.798051
v -0.009843 1.932278 0.795716
v -0.014697 1.932278 0.795716
v -0.009843 1.929943 0.792871
v -0.014697 1.929943 0.792871
v -0.009843 1.928208 0.789625
v -0.014697 1.928208 0.789625
v -0.009843 1.927139 0.786103
v -0.014697 1.927139 0.786103
v -0.009843 1.926779 0.782440
v -0.014697 1.926779 0.782440
v -0.009843 1.927139 0.778777
v -0.014697 1.927139 0.778777
v -0.009843 1.928208 0.775255
v -0.014697 1.928208 0.775255
v -0.009843 1.929943 0.772009
v -0.014697 1.929943 0.772009
v -0.009843 1.932278 0.769164
v -0.014697 1.932278 0.769164
v -0.009843 1.935123 0.766829
v -0.014697 1.935123 0.766829
v -0.009843 1.938369 0.765094
v -0.014697 1.938369 0.765094
v -0.009843 1.941891 0.764025
v -0.014697 1.941891 0.764025
v -0.009843 1.945554 0.763665
v -0.014697 1.945554 0.763665
v -0.009843 1.949217 0.764025
v -0.014697 1.949217 0.764025
v -0.009843 1.952739 0.765094
v -0.014697 1.952739 0.765094
v -0.009843 1.955985 0.766829
v -0.014697 1.955985 0.766829
v -0.009843 1.958830 0.769164
v -0.014697 1.958830 0.769164
v -0.009843 1.961165 0.772009
v -0.014697 1.961165 0.772009
v -0.009843 1.962900 0.775255
v -0.014697 1.962900 0.775255
v -0.009843 1.963968 0.778777
v -0.014697 1.963968 0.778777
v 0.071313 -0.015539 0.048641
v 0.071313 2.055431 0.048641
v 0.133963 -0.015539 0.048641
v 0.133963 2.055431 0.048641
v 0.071313 -0.015539 -0.097335
v 0.071313 2.055431 -0.097335
v 0.133963 -0.015539 -0.097335
v 0.133963 2.055431 -0.097335
v 0.047416 2.046176 -0.931861
v 0.047416 2.046176 0.909191
v 0.047416 1.885669 -0.931861
v 0.047416 1.885669 0.909191
v 0.089122 1.885669 0.909191
v 0.089122 1.885669 -0.931861
v 0.089121 2.046176 0.909191
v 0.089121 2.046176 -0.931861
v 0.026452 1.885057 -0.938953
v 0.026452 1.885057 0.902098
v 0.026452 1.724550 -0.938953
v 0.026452 1.724550 0.902098
v 0.068158 1.724550 0.902098
v 0.068158 1.724550 -0.938953
v 0.068158 1.885057 0.902098
v 0.068158 1.885057 -0.938953
v 0.047416 1.726583 -0.931337
v 0.047416 1.726583 0.909715
v 0.047416 1.566076 -0.931337
v 0.047416 1.566076 0.909715
v 0.089122 1.566076 0.909715
v 0.089122 1.566076 -0.931337
v 0.089121 1.726583 0.909715
v 0.089121 1.726583 -0.931337
v 0.018628 1.566964 -0.938953
v 0.018628 1.566964 0.902098
v 0.018628 1.406457 -0.938953
v 0.018628 1.406457 0.902098
v 0.060334 1.406457 0.902098
v 0.060334 1.406457 -0.938953
v 0.060334 1.566964 0.902098
v 0.060334 1.566964 -0.938953
v 0.047416 1.413521 -0.946809
v 0.047416 1.413521 0.894243
v 0.047416 1.253014 -0.946809
v 0.047416 1.253014 0.894243
v 0.089122 1.253014 0.894243
v 0.089122 1.253014 -0.946809
v 0.089121 1.413521 0.894243
v 0.089121 1.413521 -0.946809
v 0.047416 1.247567 -0.938953
v 0.047416 1.247567 0.902098
v 0.089122 1.247567 0.902098
v 0.089122 1.247567 -0.938953
v 0.025527 1.254631 -0.938953
v 0.025527 1.254631 0.902098
v 0.025528 1.094124 -0.938953
v 0.025528 1.094124 0.902098
v 0.067233 1.094124 0.902098
v 0.067233 1.094124 -0.938953
v 0.067233 1.254631 0.902098
v 0.067233 1.254631 -0.938953
v 0.047416 1.961428 0.909191
v 0.047416 1.961428 -0.931861
v 0.089122 1.961428 -0.931861
v 0.089122 1.961428 0.909191
v 0.004159 1.134644 0.837625
v 0.004159 1.132482 -0.825676
v 0.004159 1.994690 0.837625
v 0.004159 1.983451 -0.836776
v 0.004159 1.564481 0.837625
v 0.004159 1.169658 0.000235
v 0.004159 1.556596 -0.828521
v 0.004159 1.964335 -0.000698
v 0.004159 1.568131 -0.000316
v 0.004159 1.350690 0.837625
v 0.004159 1.154178 -0.411484
v 0.004159 1.769267 -0.832749
v 0.004159 1.967727 0.418464
v 0.004159 1.779320 0.837625
v 0.004159 1.152709 0.418464
v 0.004159 1.345338 -0.825670
v 0.004159 1.977720 -0.419013
v 0.004159 1.762565 -0.000692
v 0.004159 1.373853 0.000150
v 0.004159 1.560337 0.418464
v 0.004159 1.567798 -0.413640
v 0.004159 1.363814 -0.411678
v 0.004159 1.359298 0.418464
v 0.004159 1.760878 0.418464
v 0.004159 1.770113 -0.416463
v 0.004159 1.243132 0.837625
v 0.004159 1.141895 -0.617525
v 0.004159 1.876181 -0.834889
v 0.004159 1.980251 0.628045
v 0.004159 1.671681 0.837625
v 0.004159 1.163887 0.208883
v 0.004159 1.450982 -0.826830
v 0.004159 1.971376 -0.210229
v 0.004159 1.862110 -0.000698
v 0.004159 1.471484 -0.000058
v 0.004159 1.560040 0.628045
v 0.004159 1.571276 -0.207491
v 0.004159 1.457656 0.837625
v 0.004159 1.165067 -0.206074
v 0.004159 1.662642 -0.830557
v 0.004159 1.962762 0.208883
v 0.004159 1.887049 0.837625
v 0.004159 1.142218 0.628045
v 0.004159 1.239272 -0.825238
v 0.004159 1.980896 -0.627598
v 0.004159 1.664864 -0.000556
v 0.004159 1.273662 0.000259
v 0.004159 1.563656 0.208883
v 0.004159 1.560341 -0.620182
v 0.004159 1.466373 -0.412487
v 0.004159 1.259893 -0.411321
v 0.004159 1.372906 -0.206259
v 0.004159 1.352888 -0.617634
v 0.004159 1.460250 0.418464
v 0.004159 1.256945 0.418464
v 0.004159 1.353130 0.628045
v 0.004159 1.367346 0.208883
v 0.004159 1.863050 0.418464
v 0.004159 1.660267 0.418464
v 0.004159 1.767461 0.628045
v 0.004159 1.759712 0.208883
v 0.004159 1.872821 -0.417853
v 0.004159 1.668736 -0.415010
v 0.004159 1.768044 -0.209118
v 0.004159 1.768191 -0.623965
v 0.004159 1.663926 -0.622002
v 0.004159 1.669332 -0.208304
v 0.004159 1.868418 -0.209810
v 0.004159 1.661268 0.208883
v 0.004159 1.663362 0.628045
v 0.004159 1.873013 0.628045
v 0.004159 1.266923 0.208883
v 0.004159 1.248393 0.628045
v 0.004159 1.456834 0.628045
v 0.004159 1.248024 -0.617222
v 0.004159 1.270565 -0.206005
v 0.004159 1.472810 -0.206779
v 0.004159 1.456841 -0.618671
v 0.004159 1.465975 0.208883
v 0.004159 1.859910 0.208883
v 0.004159 1.873772 -0.625895
vn 0.000000 0.995200 0.098000
vn 0.000000 0.956900 0.290300
vn 0.000000 0.881900 0.471300
vn 0.000000 0.773000 0.634400
vn 0.000000 0.634400 0.773000
vn 0.000000 0.471300 0.882000
vn 0.000000 0.290300 0.956900
vn 0.000000 0.098100 0.995200
vn 0.000000 -0.098100 0.995200
vn 0.000000 -0.290300 0.956900
vn 0.000000 -0.471300 0.882000
vn 0.000000 -0.634400 0.773000
vn 0.000000 -0.773000 0.634400
vn 0.000000 -0.881900 0.471300
vn 0.000000 -0.956900 0.290300
vn 0.000000 -0.995200 0.098100
vn 0.000000 -0.995200 -0.098100
vn 0.000000 -0.957000 -0.290200
vn 0.000000 -0.881900 -0.471400
vn 0.000000 -0.773000 -0.634400
vn 0.000000 -0.634400 -0.773000
vn 0.000000 -0.471400 -0.881900
vn 0.000000 -0.290300 -0.956900
vn 0.000000 -0.097900 -0.995200
vn 0.000000 0.097900 -0.995200
vn 0.000000 0.290300 -0.956900
vn 0.000000 0.471400 -0.881900
vn 0.000000 0.634300 -0.773100
vn 0.000000 0.773100 -0.634300
vn 0.000000 0.881900 -0.471400
vn -1.000000 0.000000 0.000000
vn 0.000000 0.995200 -0.098000
vn 0.000000 0.956900 -0.290300
vn 1.000000 -0.000000 -0.000000
vn 0.000000 0.773000 0.634500
vn 0.000000 -0.772900 0.634500
vn 0.000000 -0.882000 0.471300
vn 0.000000 -0.995200 0.098000
vn 0.000000 -0.995200 -0.098000
vn 0.000000 -0.098000 -0.995200
vn 0.000000 0.098000 -0.995200
vn 0.000000 0.471500 -0.881900
vn 0.000000 0.773000 -0.634400
vn 0.000000 0.957000 -0.290200
vn 0.000000 -0.881900 0.471400
vn 0.000000 0.881900 0.471400
vn 0.000000 -0.634300 -0.773100
vn 0.000000 0.000000 -1.000000
vn 0.000000 0.000000 1.000000
vn 0.000000 1.000000 0.000000
vn 0.000000 -1.000000 0.000000
usemtl Snow
s off
f 1//1 2//1 4//1 3//1
f 3//2 4//2 6//2 5//2
f 5//3 6//3 8//3 7//3
f 7//4 8//4 10//4 9//4
f 9//5 10//5 12//5 11//5
f 11//6 12//6 14//6 13//6
f 13//7 14//7 16//7 15//7
f 15//8 16//8 18//8 17//8
f 17//9 18//9 20//9 19//9
f 19//10 20//10 22//10 21//10
f 21//11 22//11 24//11 23//11
f 23//12 24//12 26//12 25//12
f 25//13 26//13 28//13 27//13
f 27//14 28//14 30//14 29//14
f 29//15 30//15 32//15 31//15
f 31//16 32//16 34//16 33//16
f 33//17 34//17 36//17 35//17
f 35//18 36//18 38//18 37//18
f 37//19 38//19 40//19 39//19
f 39//20 40//20 42//20 41//20
f 41//21 42//21 44//21 43//21
f 43//22 44//22 46//22 45//22
f 45//23 46//23 48//23 47//23
f 47//24 48//24 50//24 49//24
f 49//25 50//25 52//25 51//25
f 51//26 52//26 54//26 53//26
f 53//27 54//27 56//27 55//27
f 55//28 56//28 58//28 57//28
f 57//29 58//29 60//29 59//29
f 59//30 60//30 62//30 61//30
f 4//31 2//31 64//31 62//31 60//31 58//31 56//31 54//31 52//31 50//31 48//31 46//31 44//31 42//31 40//31 38//31 36//31 34//31 32//31 30//31 28//31 26//31 24//31 22//31 20//31 18//31 16//31 14//31 12//31 10//31 8//31 6//31
f 63//32 64//32 2//32 1//32
f 61//33 62//33 64//33 63//33
f 1//34 3//34 5//34 7//34 9//34 11//34 13//34 15//34 17//34 19//34 21//34 23//34 25//34 27//34 29//34 31//34 33//34 35//34 37//34 39//34 41//34 43//34 45//34 47//34 49//34 51//34 53//34 55//34 57//34 59//34 61//34 63//34
f 65//1 66//1 68//1 67//1
f 67//2 68//2 70//2 69//2
f 69//3 70//3 72//3 71//3
f 71//35 72//35 74//35 73//35
f 73//5 74//5 76//5 75//5
f 75//6 76//6 78//6 77//6
f 77//7 78//7 80//7 79//7
f 79//8 80//8 82//8 81//8
f 81//9 82//9 84//9 83//9
f 83//10 84//10 86//10 85//10
f 85//11 86//11 88//11 87//11
f 87//12 88//12 90//12 89//12
f 89//36 90//36 92//36 91//36
f 91//37 92//37 94//37 93//37
f 93//15 94//15 96//15 95//15
f 95//38 96//38 98//38 97//38
f 97//39 98//39 100//39 99//39
f 99//18 100//18 102//18 101//18
f 101//19 102//19 104//19 103//19
f 103//20 104//20 106//20 105//20
f 105//21 106//21 108//21 107//21
f 107//22 108//22 110//22 109//22
f 109//23 110//23 112//23 111//23
f 111//40 112//40 114//40 113//40
f 113//41 114//41 116//41 115//41
f 115//26 116//26 118//26 117//26
f 117//42 118//42 120//42 119//42
f 119//28 120//28 122//28 121//28
f 121//43 122//43 124//43 123//43
f 123//30 124//30 126//30 125//30
f 68//31 66//31 128//31 126//31 124//31 122//31 120//31 118//31 116//31 114//31 112//31 110//31 108//31 106//31 104//31 102//31 100//31 98//31 96//31 94//31 92//31 90//31 88//31 86//31 84//31 82//31 80//31 78//31 76//31 74//31 72//31 70//31
f 127//32 128//32 66//32 65//32
f 125//44 126//44 128//44 127//44
f 65//34 67//34 69//34 71//34 73//34 75//34 77//34 79//34 81//34 83//34 85//34 87//34 89//34 91//34 93//34 95//34 97//34 99//34 101//34 103//34 105//34 107//34 109//34 111//34 113//34 115//34 117//34 119//34 121//34 123//34 125//34 127//34
f 129//1 130//1 132//1 131//1
f 131//2 132//2 134//2 133//2
f 133//3 134//3 136//3 135//3
f 135//35 136//35 138//35 137//35
f 137//5 138//5 140//5 139//5
f 139//6 140//6 142//6 141//6
f 141//7 142//7 144//7 143//7
f 143//8 144//8 146//8 145//8
f 145//9 146//9 148//9 147//9
f 147//10 148//10 150//10 149//10
f 149//11 150//11 152//11 151//11
f 151//12 152//12 154//12 153//12
f 153//13 154//13 156//13 155//13
f 155//45 156//45 158//45 157//45
f 157//15 158//15 160//15 159//15
f 159//38 160//38 162//38 161//38
f 161//39 162//39 164//39 163//39
f 163//18 164//18 166//18 165//18
f 165//19 166//19 168//19 167//19
f 167//20 168//20 170//20 169//20
f 169//21 170//21 172//21 171//21
f 171//22 172//22 174//22 173//22
f 173//23 174//23 176//23 175//23
f 175//24 176//24 178//24 177//24
f 177//25 178//25 180//25 179//25
f 179//26 180//26 182//26 181//26
f 181//42 182//42 184//42 183//42
f 183//28 184//28 186//28 185//28
f 185//43 186//43 188//43 187//43
f 187//30 188//30 190//30 189//30
f 132//31 130//31 192//31 190//31 188//31 186//31 184//31 182//31 180//31 178//31 176//31 174//31 172//31 170//31 168//31 166//31 164//31 162//31 160//31 158//31 156//31 154//31 152//31 150//31 148//31 146//31 144//31 142//31 140//31 138//31 136//31 134//31
f 191//32 192//32 130//32 129//32
f 189//33 190//33 192//33 191//33
f 129//34 131//34 133//34 135//34 137//34 139//34 141//34 143//34 145//34 147//34 149//34 151//34 153//34 155//34 157//34 159//34 161//34 163//34 165//34 167//34 169//34 171//34 173//34 175//34 177//34 179//34 181//34 183//34 185//34 187//34 189//34 191//34
f 193//1 194//1 196//1 195//1
f 195//2 196//2 198//2 197//2
f 197//46 198//46 200//46 199//46
f 199//4 200//4 202//4 201//4
f 201//5 202//5 204//5 203//5
f 203//6 204//6 206//6 205//6
f 205//7 206//7 208//7 207//7
f 207//8 208//8 210//8 209//8
f 209//9 210//9 212//9 211//9
f 211//10 212//10 214//10 213//10
f 213//11 214//11 216//11 215//11
f 215//12 216//12 218//12 217//12
f 217//13 218//13 220//13 219//13
f 219//45 220//45 222//45 221//45
f 221//15 222//15 224//15 223//15
f 223//38 224//38 226//38 225//38
f 225//39 226//39 228//39 227//39
f 227//18 228//18 230//18 229//18
f 229//19 230//19 232//19 231//19
f 231//20 232//20 234//20 233//20
f 233//47 234//47 236//47 235//47
f 235//22 236//22 238//22 237//22
f 237//23 238//23 240//23 239//23
f 239//24 240//24 242//24 241//24
f 241//25 242//25 244//25 243//25
f 243//26 244//26 246//26 245//26
f 245//42 246//42 248//42 247//42
f 247//28 248//28 250//28 249//28
f 249//43 250//43 252//43 251//43
f 251//30 252//30 254//30 253//30
f 196//31 194//31 256//31 254//31 252//31 250//31 248//31 246//31 244//31 242//31 240//31 238//31 236//31 234//31 232//31 230//31 228//31 226//31 224//31 222//31 220//31 218//31 216//31 214//31 212//31 210//31 208//31 206//31 204//31 202//31 200//31 198//31
f 255//32 256//32 194//32 193//32
f 253//44 254//44 256//44 255//44
f 193//34 195//34 197//34 199//34 201//34 203//34 205//34 207//34 209//34 211//34 213//34 215//34 217//34 219//34 221//34 223//34 225//34 227//34 229//34 231//34 233//34 235//34 237//34 239//34 241//34 243//34 245//34 247//34 249//34 251//34 253//34 255//34
f 401//34 348//34 324//34 365//34
f 400//34 354//34 328//34 361//34
f 399//34 355//34 329//34 368//34
f 398//34 352//34 327//34 369//34
f 397//34 370//34 341//34 357//34
f 396//34 371//34 342//34 372//34
f 395//34 364//34 336//34 373//34
f 394//34 374//34 340//34 356//34
f 393//34 375//34 343//34 376//34
f 392//34 367//34 339//34 377//34
f 391//34 378//34 333//34 349//34
f 390//34 379//34 344//34 380//34
f 389//34 366//34 338//34 381//34
f 388//34 382//34 337//34 353//34
f 387//34 383//34 345//34 384//34
f 386//34 360//34 332//34 385//34
f 383//34 386//34 385//34 345//34
f 341//34 369//34 386//34 383//34
f 369//34 327//34 360//34 386//34
f 366//34 387//34 384//34 338//34
f 329//34 357//34 387//34 366//34
f 357//34 341//34 383//34 387//34
f 354//34 388//34 353//34 328//34
f 338//34 384//34 388//34 354//34
f 384//34 345//34 382//34 388//34
f 379//34 389//34 381//34 344//34
f 340//34 368//34 389//34 379//34
f 368//34 329//34 366//34 389//34
f 350//34 390//34 380//34 334//34
f 325//34 356//34 390//34 350//34
f 356//34 340//34 379//34 390//34
f 362//34 391//34 349//34 323//34
f 334//34 380//34 391//34 362//34
f 380//34 344//34 378//34 391//34
f 375//34 392//34 377//34 343//34
f 335//34 351//34 392//34 375//34
f 351//34 326//34 367//34 392//34
f 346//34 393//34 376//34 330//34
f 321//34 363//34 393//34 346//34
f 363//34 335//34 375//34 393//34
f 358//34 394//34 356//34 325//34
f 330//34 376//34 394//34 358//34
f 376//34 343//34 374//34 394//34
f 371//34 395//34 373//34 342//34
f 331//34 347//34 395//34 371//34
f 347//34 322//34 364//34 395//34
f 367//34 396//34 372//34 339//34
f 326//34 359//34 396//34 367//34
f 359//34 331//34 371//34 396//34
f 355//34 397//34 357//34 329//34
f 339//34 372//34 397//34 355//34
f 372//34 342//34 370//34 397//34
f 370//34 398//34 369//34 341//34
f 342//34 373//34 398//34 370//34
f 373//34 336//34 352//34 398//34
f 374//34 399//34 368//34 340//34
f 343//34 377//34 399//34 374//34
f 377//34 339//34 355//34 399//34
f 378//34 400//34 361//34 333//34
f 344//34 381//34 400//34 378//34
f 381//34 338//34 354//34 400//34
f 382//34 401//34 365//34 337//34
f 345//34 385//34 401//34 382//34
f 385//34 332//34 348//34 401//34
usemtl Bark
f 258//48 260//48 259//48 257//48
f 260//31 264//31 263//31 259//31
f 264//49 262//49 261//49 263//49
f 262//34 258//34 257//34 261//34
f 257//50 259//50 263//50 261//50
f 262//51 264//51 260//51 258//51
f 318//34 317//34 268//34 267//34
f 319//31 270//31 269//31 320//31
f 272//51 271//51 266//51 265//51
f 320//48 269//48 268//48 317//48
f 269//50 270//50 267//50 268//50
f 319//49 272//49 265//49 318//49
f 273//34 274//34 276//34 275//34
f 280//31 278//31 277//31 279//31
f 280//51 279//51 274//51 273//51
f 279//48 277//48 276//48 274//48
f 277//50 278//50 275//50 276//50
f 278//49 280//49 273//49 275//49
f 281//34 282//34 284//34 283//34
f 288//31 286//31 285//31 287//31
f 288//51 287//51 282//51 281//51
f 287//48 285//48 284//48 282//48
f 285//50 286//50 283//50 284//50
f 286//49 288//49 281//49 283//49
f 289//34 290//34 292//34 291//34
f 296//31 294//31 293//31 295//31
f 296//51 295//51 290//51 289//51
f 295//48 293//48 292//48 290//48
f 293//50 294//50 291//50 292//50
f 294//49 296//49 289//49 291//49
f 297//34 298//34 300//34 299//34
f 304//31 302//31 301//31 303//31
f 304//51 303//51 298//51 297//51
f 303//48 301//48 300//48 298//48
f 301//50 302//50 299//50 300//50
f 302//49 304//49 297//49 299//49
f 307//50 308//50 305//50 306//50
f 309//34 310//34 312//34 311//34
f 316//31 314//31 313//31 315//31
f 316//51 315//51 310//51 309//51
f 315//48 313//48 312//48 310//48
f 313//50 314//50 311//50 312//50
f 314//49 316//49 309//49 311//49
f 270//49 319//49 318//49 267//49
f 271//48 320//48 317//48 266//48
f 272//31 319//31 320//31 271//31
f 265//34 266//34 317//34 318//34
