# Blender v2.76 (sub 0) OBJ File: 'snowytree.blend'
# www.blender.org
mtllib sign.mtl
o Sign_Cube
v -0.777082 0.961799 0.112481
v -0.777082 0.961799 0.117335
v -0.773419 0.961438 0.112481
v -0.773419 0.961438 0.117335
v -0.769898 0.960370 0.112481
v -0.769898 0.960370 0.117335
v -0.766651 0.958635 0.112481
v -0.766651 0.958635 0.117335
v -0.763806 0.956300 0.112481
v -0.763806 0.956300 0.117335
v -0.761471 0.953455 0.112481
v -0.761471 0.953455 0.117335
v -0.759737 0.950209 0.112481
v -0.759737 0.950209 0.117335
v -0.758668 0.946687 0.112481
v -0.758668 0.946687 0.117335
v -0.758307 0.943024 0.112481
v -0.758307 0.943024 0.117335
v -0.758668 0.939361 0.112481
v -0.758668 0.939361 0.117335
v -0.759737 0.935839 0.112481
v -0.759737 0.935839 0.117335
v -0.761471 0.932593 0.112481
v -0.761471 0.932593 0.117335
v -0.763806 0.929748 0.112481
v -0.763806 0.929748 0.117335
v -0.766651 0.927413 0.112481
v -0.766651 0.927413 0.117335
v -0.769898 0.925678 0.112481
v -0.769898 0.925678 0.117335
v -0.773419 0.924609 0.112481
v -0.773419 0.924609 0.117335
v -0.777082 0.924249 0.112481
v -0.777082 0.924249 0.117335
v -0.780745 0.924609 0.112481
v -0.780745 0.924609 0.117335
v -0.784267 0.925678 0.112481
v -0.784267 0.925678 0.117335
v -0.787513 0.927413 0.112481
v -0.787513 0.927413 0.117335
v -0.790359 0.929748 0.112481
v -0.790359 0.929748 0.117335
v -0.792693 0.932593 0.112481
v -0.792693 0.932593 0.117335
v -0.794428 0.935839 0.112481
v -0.794428 0.935839 0.117335
v -0.795497 0.939361 0.112481
v -0.795497 0.939361 0.117335
v -0.795857 0.943024 0.112481
v -0.795857 0.943024 0.117335
v -0.795497 0.946687 0.112481
v -0.795497 0.946687 0.117335
v -0.794428 0.950209 0.112481
v -0.794428 0.950209 0.117335
v -0.792693 0.953455 0.112481
v -0.792693 0.953455 0.117335
v -0.790359 0.956300 0.112481
v -0.790359 0.956300 0.117335
v -0.787513 0.958635 0.112481
v -0.787513 0.958635 0.117335
v -0.784267 0.960370 0.112481
v -0.784267 0.960370 0.117335
v -0.780745 0.961438 0.112481
v -0.780745 0.961438 0.117335
v -0.752884 0.195041 0.112481
v -0.752884 0.195041 0.117335
v -0.749221 0.194680 0.112481
v -0.749221 0.194680 0.117335
v -0.745699 0.193612 0.112481
v -0.745699 0.193612 0.117335
v -0.742453 0.191877 0.112481
v -0.742453 0.191877 0.117335
v -0.739608 0.189542 0.112481
v -0.739608 0.189542 0.117335
v -0.737273 0.186697 0.112481
v -0.737273 0.186697 0.117335
v -0.735539 0.183450 0.112481
v -0.735539 0.183450 0.117335
v -0.734470 0.179928 0.112481
v -0.734470 0.179928 0.117335
v -0.734109 0.176266 0.112481
v -0.734109 0.176266 0.117335
v -0.734470 0.172603 0.112481
v -0.734470 0.172603 0.117335
v -0.735539 0.169081 0.112481
v -0.735539 0.169081 0.117335
v -0.737273 0.165835 0.112481
v -0.737273 0.165835 0.117335
v -0.739608 0.162990 0.112481
v -0.739608 0.162990 0.117335
v -0.742453 0.160655 0.112481
v -0.742453 0.160655 0.117335
v -0.745699 0.158920 0.112481
v -0.745699 0.158920 0.117335
v -0.749221 0.157851 0.112481
v -0.749221 0.157851 0.117335
v -0.752884 0.157490 0.112481
v -0.752884 0.157490 0.117335
v -0.756547 0.157851 0.112481
v -0.756547 0.157851 0.117335
v -0.760069 0.158920 0.112481
v -0.760069 0.158920 0.117335
v -0.763315 0.160655 0.112481
v -0.763315 0.160655 0.117335
v -0.766160 0.162990 0.112481
v -0.766160 0.162990 0.117335
v -0.768495 0.165835 0.112481
v -0.768495 0.165835 0.117335
v -0.770230 0.169081 0.112481
v -0.770230 0.169081 0.117335
v -0.771299 0.172603 0.112481
v -0.771299 0.172603 0.117335
v -0.771659 0.176266 0.112481
v -0.771659 0.176266 0.117335
v -0.771299 0.179929 0.112481
v -0.771299 0.179929 0.117335
v -0.770230 0.183451 0.112481
v -0.770230 0.183451 0.117335
v -0.768495 0.186697 0.112481
v -0.768495 0.186697 0.117335
v -0.766160 0.189542 0.112481
v -0.766160 0.189542 0.117335
v -0.763315 0.191877 0.112481
v -0.763315 0.191877 0.117335
v -0.760069 0.193612 0.112481
v -0.760069 0.193612 0.117335
v -0.756547 0.194680 0.112481
v -0.756547 0.194680 0.117335
v 0.806787 0.195041 0.112481
v 0.806787 0.195041 0.117335
v 0.810450 0.194680 0.112481
v 0.810450 0.194680 0.117335
v 0.813972 0.193612 0.112481
v 0.813972 0.193612 0.117335
v 0.817218 0.191877 0.112481
v 0.817218 0.191877 0.117335
v 0.820063 0.189542 0.112481
v 0.820063 0.189542 0.117335
v 0.822398 0.186697 0.112481
v 0.822398 0.186697 0.117335
v 0.824133 0.183450 0.112481
v 0.824133 0.183450 0.117335
v 0.825202 0.179928 0.112481
v 0.825202 0.179928 0.117335
v 0.825563 0.176266 0.112481
v 0.825563 0.176266 0.117335
v 0.825202 0.172603 0.112481
v 0.825202 0.172603 0.117335
v 0.824133 0.169081 0.112481
v 0.824133 0.169081 0.117335
v 0.822398 0.165835 0.112481
v 0.822398 0.165835 0.117335
v 0.820063 0.162990 0.112481
v 0.820063 0.162990 0.117335
v 0.817218 0.160655 0.112481
v 0.817218 0.160655 0.117335
v 0.813972 0.158920 0.112481
v 0.813972 0.158920 0.117335
v 0.810450 0.157851 0.112481
v 0.810450 0.157851 0.117335
v 0.806787 0.157490 0.112481
v 0.806787 0.157490 0.117335
v 0.803125 0.157851 0.112481
v 0.803125 0.157851 0.117335
v 0.799602 0.158920 0.112481
v 0.799602 0.158920 0.117335
v 0.796356 0.160655 0.112481
v 0.796356 0.160655 0.117335
v 0.793511 0.162990 0.112481
v 0.793511 0.162990 0.117335
v 0.791176 0.165835 0.112481
v 0.791176 0.165835 0.117335
v 0.789441 0.169081 0.112481
v 0.789441 0.169081 0.117335
v 0.788373 0.172603 0.112481
v 0.788373 0.172603 0.117335
v 0.788012 0.176266 0.112481
v 0.788012 0.176266 0.117335
v 0.788373 0.179929 0.112481
v 0.788373 0.179929 0.117335
v 0.789441 0.183451 0.112481
v 0.789441 0.183451 0.117335
v 0.791176 0.186697 0.112481
v 0.791176 0.186697 0.117335
v 0.793511 0.189542 0.112481
v 0.793511 0.189542 0.117335
v 0.796356 0.191877 0.112481
v 0.796356 0.191877 0.117335
v 0.799602 0.193612 0.112481
v 0.799602 0.193612 0.117335
v 0.803125 0.194680 0.112481
v 0.803125 0.194680 0.117335
v 0.806787 0.955221 0.112481
v 0.806787 0.955221 0.117335
v 0.810450 0.954860 0.112481
v 0.810450 0.954860 0.117335
v 0.813972 0.953792 0.112481
v 0.813972 0.953792 0.117335
v 0.817218 0.952057 0.112481
v 0.817218 0.952057 0.117335
v 0.820063 0.949722 0.112481
v 0.820063 0.949722 0.117335
v 0.822398 0.946877 0.112481
v 0.822398 0.946877 0.117335
v 0.824133 0.943631 0.112481
v 0.824133 0.943631 0.117335
v 0.825202 0.940109 0.112481
v 0.825202 0.940109 0.117335
v 0.825563 0.936446 0.112481
v 0.825563 0.936446 0.117335
v 0.825202 0.932783 0.112481
v 0.825202 0.932783 0.117335
v 0.824133 0.929261 0.112481
v 0.824133 0.929261 0.117335
v 0.822398 0.926015 0.112481
v 0.822398 0.926015 0.117335
v 0.820063 0.923170 0.112481
v 0.820063 0.923170 0.117335
v 0.817218 0.920835 0.112481
v 0.817218 0.920835 0.117335
v 0.813972 0.919100 0.112481
v 0.813972 0.919100 0.117335
v 0.810450 0.918032 0.112481
v 0.810450 0.918032 0.117335
v 0.806787 0.917671 0.112481
v 0.806787 0.917671 0.117335
v 0.803125 0.918032 0.112481
v 0.803125 0.918032 0.117335
v 0.799602 0.919100 0.112481
v 0.799602 0.919100 0.117335
v 0.796356 0.920835 0.112481
v 0.796356 0.920835 0.117335
v 0.793511 0.923170 0.112481
v 0.793511 0.923170 0.117335
v 0.791176 0.926015 0.112481
v 0.791176 0.926015 0.117335
v 0.789441 0.929261 0.112481
v 0.789441 0.929261 0.117335
v 0.788373 0.932783 0.112481
v 0.788373 0.932783 0.117335
v 0.788012 0.936446 0.112481
v 0.788012 0.936446 0.117335
v 0.788373 0.940109 0.112481
v 0.788373 0.940109 0.117335
v 0.789441 0.943631 0.112481
v 0.789441 0.943631 0.117335
v 0.791176 0.946877 0.112481
v 0.791176 0.946877 0.117335
v 0.793511 0.949722 0.112481
v 0.793511 0.949722 0.117335
v 0.796356 0.952057 0.112481
v 0.796356 0.952057 0.117335
v 0.799602 0.953792 0.112481
v 0.799602 0.953792 0.117335
v 0.803125 0.954860 0.112481
v 0.803125 0.954860 0.117335
v 0.072988 -1.024647 0.031325
v 0.072988 1.046323 0.031325
v 0.072988 -1.024647 -0.031325
v 0.072988 1.046323 -0.031325
v -0.072988 -1.024647 0.031325
v -0.072988 1.046323 0.031325
v -0.072988 -1.024647 -0.031325
v -0.072988 1.046323 -0.031325
v -0.907514 1.037069 0.055223
v 0.933538 1.037069 0.055223
v -0.907514 0.876562 0.055222
v 0.933538 0.876562 0.055222
v 0.933538 0.876562 0.013517
v -0.907514 0.876562 0.013517
v 0.933538 1.037069 0.013517
v -0.907514 1.037069 0.013517
v -0.914606 0.875950 0.076186
v 0.926446 0.875950 0.076186
v -0.914606 0.715443 0.076186
v 0.926446 0.715443 0.076186
v 0.926446 0.715443 0.034480
v -0.914606 0.715443 0.034480
v 0.926446 0.875950 0.034481
v -0.914606 0.875950 0.034481
v -0.906990 0.717476 0.055223
v 0.934062 0.717476 0.055223
v -0.906990 0.556969 0.055222
v 0.934062 0.556969 0.055222
v 0.934062 0.556969 0.013517
v -0.906990 0.556969 0.013517
v 0.934062 0.717476 0.013517
v -0.906990 0.717476 0.013517
v -0.914606 0.557857 0.084010
v 0.926446 0.557857 0.084010
v -0.914606 0.397350 0.084010
v 0.926446 0.397350 0.084010
v 0.926446 0.397350 0.042304
v -0.914606 0.397350 0.042304
v 0.926446 0.557857 0.042304
v -0.914606 0.557857 0.042304
v -0.922462 0.404414 0.055223
v 0.918590 0.404414 0.055223
v -0.922462 0.243907 0.055222
v 0.918590 0.243907 0.055222
v 0.918590 0.243907 0.013517
v -0.922462 0.243907 0.013517
v 0.918590 0.404414 0.013517
v -0.922462 0.404414 0.013517
v -0.914606 0.238460 0.055222
v 0.926446 0.238460 0.055222
v 0.926446 0.238460 0.013517
v -0.914606 0.238460 0.013517
v -0.914606 0.245524 0.077111
v 0.926446 0.245524 0.077111
v -0.914606 0.085017 0.077111
v 0.926446 0.085017 0.077111
v 0.926446 0.085017 0.035405
v -0.914606 0.085017 0.035405
v 0.926446 0.245524 0.035405
v -0.914606 0.245524 0.035405
v 0.933538 0.952320 0.055222
v -0.907514 0.952320 0.055222
v -0.907514 0.952320 0.013517
v 0.933538 0.952320 0.013517
v 0.861973 0.125537 0.098480
v -0.801329 0.123375 0.098480
v 0.861973 0.985582 0.098480
v -0.812429 0.974343 0.098480
v 0.861973 0.555374 0.098480
v 0.024582 0.160550 0.098480
v -0.804173 0.547488 0.098480
v 0.023649 0.955227 0.098480
v 0.024032 0.559023 0.098480
v 0.861973 0.341582 0.098480
v -0.387137 0.145070 0.098480
v -0.808402 0.760160 0.098480
v 0.442811 0.958619 0.098480
v 0.861973 0.770212 0.098480
v 0.442811 0.143601 0.098480
v -0.801323 0.336230 0.098480
v -0.394665 0.968612 0.098480
v 0.023655 0.753457 0.098480
v 0.024497 0.364746 0.098480
v 0.442811 0.551230 0.098480
v -0.389293 0.558690 0.098480
v -0.387331 0.354706 0.098480
v 0.442811 0.350191 0.098480
v 0.442811 0.751770 0.098480
v -0.392116 0.761006 0.098480
v 0.861973 0.234025 0.098480
v -0.593178 0.132787 0.098480
v -0.810542 0.867074 0.098480
v 0.652392 0.971143 0.098480
v 0.861973 0.662573 0.098480
v 0.233230 0.154779 0.098480
v -0.802482 0.441874 0.098480
v -0.185882 0.962268 0.098480
v 0.023649 0.853003 0.098480
v 0.024289 0.462377 0.098480
v 0.652392 0.550932 0.098480
v -0.183143 0.562168 0.098480
v 0.861973 0.448549 0.098480
v -0.181727 0.155960 0.098480
v -0.806210 0.653534 0.098480
v 0.233230 0.953654 0.098480
v 0.861973 0.877942 0.098480
v 0.652392 0.133110 0.098480
v -0.800891 0.230164 0.098480
v -0.603251 0.971788 0.098480
v 0.023792 0.655756 0.098480
v 0.024606 0.264554 0.098480
v 0.233230 0.554549 0.098480
v -0.595835 0.551234 0.098480
v -0.388140 0.457265 0.098480
v -0.386974 0.250785 0.098480
v -0.181912 0.363798 0.098480
v -0.593286 0.343780 0.098480
v 0.442811 0.451142 0.098480
v 0.442811 0.247837 0.098480
v 0.652392 0.344022 0.098480
v 0.233230 0.358238 0.098480
v 0.442811 0.853942 0.098480
v 0.442811 0.651159 0.098480
v 0.652392 0.758354 0.098480
v 0.233230 0.750605 0.098480
v -0.393506 0.863714 0.098480
v -0.390663 0.659629 0.098480
v -0.184771 0.758937 0.098480
v -0.599617 0.759083 0.098480
v -0.597655 0.654818 0.098480
v -0.183957 0.660224 0.098480
v -0.185463 0.859311 0.098480
v 0.233230 0.652160 0.098480
v 0.652392 0.654254 0.098480
v 0.652392 0.863905 0.098480
v 0.233230 0.257816 0.098480
v 0.652392 0.239285 0.098480
v 0.652392 0.447727 0.098480
v -0.592875 0.238916 0.098480
v -0.181658 0.261457 0.098480
v -0.182432 0.463702 0.098480
v -0.594324 0.447734 0.098480
v 0.233230 0.456868 0.098480
v 0.233230 0.850802 0.098480
v -0.601548 0.864664 0.098480
vn 0.098000 0.995200 0.000000
vn 0.290300 0.956900 0.000000
vn 0.471300 0.881900 0.000000
vn 0.634500 0.773000 0.000000
vn 0.773000 0.634400 0.000000
vn 0.882000 0.471300 0.000000
vn 0.956900 0.290300 0.000000
vn 0.995200 0.098100 0.000000
vn 0.995200 -0.098100 0.000000
vn 0.956900 -0.290300 0.000000
vn 0.882000 -0.471300 0.000000
vn 0.773000 -0.634400 0.000000
vn 0.634500 -0.773000 0.000000
vn 0.471300 -0.881900 0.000000
vn 0.290300 -0.956900 0.000000
vn 0.098000 -0.995200 0.000000
vn -0.098000 -0.995200 0.000000
vn -0.290300 -0.956900 0.000000
vn -0.471400 -0.881900 0.000000
vn -0.634300 -0.773100 0.000000
vn -0.773000 -0.634400 0.000000
vn -0.881900 -0.471400 0.000000
vn -0.956900 -0.290300 0.000000
vn -0.995200 -0.097900 0.000000
vn -0.995200 0.097900 0.000000
vn -0.956900 0.290300 0.000000
vn -0.881900 0.471400 0.000000
vn -0.773000 0.634300 0.000000
vn -0.634300 0.773100 0.000000
vn -0.471400 0.881900 0.000000
vn -0.000000 0.000000 1.000000
vn -0.098000 0.995200 0.000000
vn -0.290300 0.956900 0.000000
vn -0.000000 0.000000 -1.000000
vn 0.471300 0.882000 0.000000
vn 0.634500 0.772900 0.000000
vn 0.634500 -0.772900 0.000000
vn 0.471300 -0.882000 0.000000
vn -0.290200 -0.957000 0.000000
vn -0.634400 -0.773000 0.000000
vn -0.995200 -0.098000 0.000000
vn -0.995200 0.098000 0.000000
vn -0.773100 0.634300 0.000000
vn -0.634400 0.773000 0.000000
vn -0.290200 0.957000 0.000000
vn 0.471400 0.881900 0.000000
vn 0.634400 0.773000 0.000000
vn 0.634400 -0.773000 0.000000
vn 0.471400 -0.881900 0.000000
vn -0.773000 -0.634300 0.000000
vn -0.881900 0.471500 0.000000
vn -1.000000 0.000000 0.000000
vn 1.000000 0.000000 0.000000
vn 0.000000 1.000000 0.000000
vn 0.000000 -1.000000 0.000000
usemtl Snow
s off
f 1//1 2//1 4//1 3//1
f 3//2 4//2 6//2 5//2
f 5//3 6//3 8//3 7//3
f 7//4 8//4 10//4 9//4
f 9//5 10//5 12//5 11//5
f 11//6 12//6 14//6 13//6
f 13//7 14//7 16//7 15//7
f 15//8 16//8 18//8 17//8
f 17//9 18//9 20//9 19//9
f 19//10 20//10 22//10 21//10
f 21//11 22//11 24//11 23//11
f 23//12 24//12 26//12 25//12
f 25//13 26//13 28//13 27//13
f 27//14 28//14 30//14 29//14
f 29//15 30//15 32//15 31//15
f 31//16 32//16 34//16 33//16
f 33//17 34//17 36//17 35//17
f 35//18 36//18 38//18 37//18
f 37//19 38//19 40//19 39//19
f 39//20 40//20 42//20 41//20
f 41//21 42//21 44//21 43//21
f 43//22 44//22 46//22 45//22
f 45//23 46//23 48//23 47//23
f 47//24 48//24 50//24 49//24
f 49//25 50//25 52//25 51//25
f 51//26 52//26 54//26 53//26
f 53//27 54//27 56//27 55//27
f 55//28 56//28 58//28 57//28
f 57//29 58//29 60//29 59//29
f 59//30 60//30 62//30 61//30
f 4//31 2//31 64//31 62//31 60//31 58//31 56//31 54//31 52//31 50//31 48//31 46//31 44//31 42//31 40//31 38//31 36//31 34//31 32//31 30//31 28//31 26//31 24//31 22//31 20//31 18//31 16//31 14//31 12//31 10//31 8//31 6//31
f 63//32 64//32 2//32 1//32
f 61//33 62//33 64//33 63//33
f 1//34 3//34 5//34 7//34 9//34 11//34 13//34 15//34 17//34 19//34 21//34 23//34 25//34 27//34 29//34 31//34 33//34 35//34 37//34 39//34 41//34 43//34 45//34 47//34 49//34 51//34 53//34 55//34 57//34 59//34 61//34 63//34
f 65//1 66//1 68//1 67//1
f 67//2 68//2 70//2 69//2
f 69//35 70//35 72//35 71//35
f 71//36 72//36 74//36 73//36
f 73//5 74//5 76//5 75//5
f 75//6 76//6 78//6 77//6
f 77//7 78//7 80//7 79//7
f 79//8 80//8 82//8 81//8
f 81//9 82//9 84//9 83//9
f 83//10 84//10 86//10 85//10
f 85//11 86//11 88//11 87//11
f 87//12 88//12 90//12 89//12
f 89//37 90//37 92//37 91//37
f 91//38 92//38 94//38 93//38
f 93//15 94//15 96//15 95//15
f 95//16 96//16 98//16 97//16
f 97//17 98//17 100//17 99//17
f 99//39 100//39 102//39 101//39
f 101//19 102//19 104//19 103//19
f 103//40 104//40 106//40 105//40
f 105//21 106//21 108//21 107//21
f 107//22 108//22 110//22 109//22
f 109//23 110//23 112//23 111//23
f 111//41 112//41 114//41 113//41
f 113//42 114//42 116//42 115//42
f 115//26 116//26 118//26 117//26
f 117//27 118//27 120//27 119//27
f 119//43 120//43 122//43 121//43
f 121//44 122//44 124//44 123//44
f 123//30 124//30 126//30 125//30
f 68//31 66//31 128//31 126//31 124//31 122//31 120//31 118//31 116//31 114//31 112//31 110//31 108//31 106//31 104//31 102//31 100//31 98//31 96//31 94//31 92//31 90//31 88//31 86//31 84//31 82//31 80//31 78//31 76//31 74//31 72//31 70//31
f 127//32 128//32 66//32 65//32
f 125//45 126//45 128//45 127//45
f 65//34 67//34 69//34 71//34 73//34 75//34 77//34 79//34 81//34 83//34 85//34 87//34 89//34 91//34 93//34 95//34 97//34 99//34 101//34 103//34 105//34 107//34 109//34 111//34 113//34 115//34 117//34 119//34 121//34 123//34 125//34 127//34
f 129//1 130//1 132//1 131//1
f 131//2 132//2 134//2 133//2
f 133//46 134//46 136//46 135//46
f 135//47 136//47 138//47 137//47
f 137//5 138//5 140//5 139//5
f 139//6 140//6 142//6 141//6
f 141//7 142//7 144//7 143//7
f 143//8 144//8 146//8 145//8
f 145//9 146//9 148//9 147//9
f 147//10 148//10 150//10 149//10
f 149//11 150//11 152//11 151//11
f 151//12 152//12 154//12 153//12
f 153//48 154//48 156//48 155//48
f 155//49 156//49 158//49 157//49
f 157//15 158//15 160//15 159//15
f 159//16 160//16 162//16 161//16
f 161//17 162//17 164//17 163//17
f 163//39 164//39 166//39 165//39
f 165//19 166//19 168//19 167//19
f 167//40 168//40 170//40 169//40
f 169//50 170//50 172//50 171//50
f 171//22 172//22 174//22 173//22
f 173//23 174//23 176//23 175//23
f 175//24 176//24 178//24 177//24
f 177//25 178//25 180//25 179//25
f 179//26 180//26 182//26 181//26
f 181//51 182//51 184//51 183//51
f 183//43 184//43 186//43 185//43
f 185//44 186//44 188//44 187//44
f 187//30 188//30 190//30 189//30
f 132//31 130//31 192//31 190//31 188//31 186//31 184//31 182//31 180//31 178//31 176//31 174//31 172//31 170//31 168//31 166//31 164//31 162//31 160//31 158//31 156//31 154//31 152//31 150//31 148//31 146//31 144//31 142//31 140//31 138//31 136//31 134//31
f 191//32 192//32 130//32 129//32
f 189//45 190//45 192//45 191//45
f 129//34 131//34 133//34 135//34 137//34 139//34 141//34 143//34 145//34 147//34 149//34 151//34 153//34 155//34 157//34 159//34 161//34 163//34 165//34 167//34 169//34 171//34 173//34 175//34 177//34 179//34 181//34 183//34 185//34 187//34 189//34 191//34
f 193//1 194//1 196//1 195//1
f 195//2 196//2 198//2 197//2
f 197//46 198//46 200//46 199//46
f 199//47 200//47 202//47 201//47
f 201//5 202//5 204//5 203//5
f 203//6 204//6 206//6 205//6
f 205//7 206//7 208//7 207//7
f 207//8 208//8 210//8 209//8
f 209//9 210//9 212//9 211//9
f 211//10 212//10 214//10 213//10
f 213//11 214//11 216//11 215//11
f 215//12 216//12 218//12 217//12
f 217//48 218//48 220//48 219//48
f 219//49 220//49 222//49 221//49
f 221//15 222//15 224//15 223//15
f 223//16 224//16 226//16 225//16
f 225//17 226//17 228//17 227//17
f 227//39 228//39 230//39 229//39
f 229//19 230//19 232//19 231//19
f 231//40 232//40 234//40 233//40
f 233//50 234//50 236//50 235//50
f 235//22 236//22 238//22 237//22
f 237//23 238//23 240//23 239//23
f 239//24 240//24 242//24 241//24
f 241//25 242//25 244//25 243//25
f 243//26 244//26 246//26 245//26
f 245//51 246//51 248//51 247//51
f 247//43 248//43 250//43 249//43
f 249//44 250//44 252//44 251//44
f 251//30 252//30 254//30 253//30
f 196//31 194//31 256//31 254//31 252//31 250//31 248//31 246//31 244//31 242//31 240//31 238//31 236//31 234//31 232//31 230//31 228//31 226//31 224//31 222//31 220//31 218//31 216//31 214//31 212//31 210//31 208//31 206//31 204//31 202//31 200//31 198//31
f 255//32 256//32 194//32 193//32
f 253//45 254//45 256//45 255//45
f 193//34 195//34 197//34 199//34 201//34 203//34 205//34 207//34 209//34 211//34 213//34 215//34 217//34 219//34 221//34 223//34 225//34 227//34 229//34 231//34 233//34 235//34 237//34 239//34 241//34 243//34 245//34 247//34 249//34 251//34 253//34 255//34
f 401//34 348//34 324//34 365//34
f 400//34 354//34 328//34 361//34
f 399//34 355//34 329//34 368//34
f 398//34 352//34 327//34 369//34
f 397//34 370//34 341//34 357//34
f 396//34 371//34 342//34 372//34
f 395//34 364//34 336//34 373//34
f 394//34 374//34 340//34 356//34
f 393//34 375//34 343//34 376//34
f 392//34 367//34 339//34 377//34
f 391//34 378//34 333//34 349//34
f 390//34 379//34 344//34 380//34
f 389//34 366//34 338//34 381//34
f 388//34 382//34 337//34 353//34
f 387//34 383//34 345//34 384//34
f 386//34 360//34 332//34 385//34
f 383//34 386//34 385//34 345//34
f 341//34 369//34 386//34 383//34
f 369//34 327//34 360//34 386//34
f 366//34 387//34 384//34 338//34
f 329//34 357//34 387//34 366//34
f 357//34 341//34 383//34 387//34
f 354//34 388//34 353//34 328//34
f 338//34 384//34 388//34 354//34
f 384//34 345//34 382//34 388//34
f 379//34 389//34 381//34 344//34
f 340//34 368//34 389//34 379//34
f 368//34 329//34 366//34 389//34
f 350//34 390//34 380//34 334//34
f 325//34 356//34 390//34 350//34
f 356//34 340//34 379//34 390//34
f 362//34 391//34 349//34 323//34
f 334//34 380//34 391//34 362//34
f 380//34 344//34 378//34 391//34
f 375//34 392//34 377//34 343//34
f 335//34 351//34 392//34 375//34
f 351//34 326//34 367//34 392//34
f 346//34 393//34 376//34 330//34
f 321//34 363//34 393//34 346//34
f 363//34 335//34 375//34 393//34
f 358//34 394//34 356//34 325//34
f 330//34 376//34 394//34 358//34
f 376//34 343//34 374//34 394//34
f 371//34 395//34 373//34 342//34
f 331//34 347//34 395//34 371//34
f 347//34 322//34 364//34 395//34
f 367//34 396//34 372//34 339//34
f 326//34 359//34 396//34 367//34
f 359//34 331//34 371//34 396//34
f 355//34 397//34 357//34 329//34
f 339//34 372//34 397//34 355//34
f 372//34 342//34 370//34 397//34
f 370//34 398//34 369//34 341//34
f 342//34 373//34 398//34 370//34
f 373//34 336//34 352//34 398//34
f 374//34 399//34 368//34 340//34
f 343//34 377//34 399//34 374//34
f 377//34 339//34 355//34 399//34
f 378//34 400//34 361//34 333//34
f 344//34 381//34 400//34 378//34
f 381//34 338//34 354//34 400//34
f 382//34 401//34 365//34 337//34
f 345//34 385//34 401//34 382//34
f 385//34 332//34 348//34 401//34
usemtl Bark
f 258//52 260//52 259//52 257//52
f 260//31 264//31 263//31 259//31
f 264//53 262//53 261//53 263//53
f 262//34 258//34 257//34 261//34
f 257//54 259//54 263//54 261//54
f 262//55 264//55 260//55 258//55
f 318//34 317//34 268//34 267//34
f 319//31 270//31 269//31 320//31
f 272//55 271//55 266//55 265//55
f 320//52 269//52 268//52 317//52
f 269//54 270//54 267//54 268//54
f 319//53 272//53 265//53 318//53
f 273//34 274//34 276//34 275//34
f 280//31 278//31 277//31 279//31
f 280//55 279//55 274//55 273//55
f 279//52 277//52 276//52 274//52
f 277//54 278//54 275//54 276//54
f 278//53 280//53 273//53 275//53
f 281//34 282//34 284//34 283//34
f 288//31 286//31 285//31 287//31
f 288//55 287//55 282//55 281//55
f 287//52 285//52 284//52 282//52
f 285//54 286//54 283//54 284//54
f 286//53 288//53 281//53 283//53
f 289//34 290//34 292//34 291//34
f 296//31 294//31 293//31 295//31
f 296//55 295//55 290//55 289//55
f 295//52 293//52 292//52 290//52
f 293//54 294//54 291//54 292//54
f 294//53 296//53 289//53 291//53
f 297//34 298//34 300//34 299//34
f 304//31 302//31 301//31 303//31
f 304//55 303//55 298//55 297//55
f 303//52 301//52 300//52 298//52
f 301//54 302//54 299//54 300//54
f 302//53 304//53 297//53 299//53
f 307//54 308//54 305//54 306//54
f 309//34 310//34 312//34 311//34
f 316//31 314//31 313//31 315//31
f 316//55 315//55 310//55 309//55
f 315//52 313//52 312//52 310//52
f 313//54 314//54 311//54 312//54
f 314//53 316//53 309//53 311//53
f 270//53 319//53 318//53 267//53
f 271//52 320//52 317//52 266//52
f 272//31 319//31 320//31 271//31
f 265//34 266//34 317//34 318//34
