# Blender v2.76 (sub 0) OBJ File: 'snowytree.blend'
# www.blender.org
mtllib tree-snow.mtl
o Tree_-_Snow_Cylinder.000
v -0.080591 0.064371 0.191311
v -0.080591 1.242094 0.191311
v -0.234897 0.064371 0.127395
v -0.234897 1.242094 0.127395
v -0.298813 0.064371 -0.026912
v -0.298813 1.242094 -0.026912
v -0.234897 0.064371 -0.181218
v -0.234897 1.242094 -0.181218
v -0.080591 0.064371 -0.245134
v -0.080591 1.242094 -0.245134
v 0.073716 0.064371 -0.181218
v 0.073716 1.242094 -0.181218
v 0.137632 0.064371 -0.026912
v 0.137632 1.242094 -0.026912
v 0.073716 0.064371 0.127395
v 0.073716 1.242094 0.127395
v -0.080591 0.543312 0.165270
v -0.216484 0.543312 0.108981
v -0.272772 0.543312 -0.026912
v -0.216484 0.543312 -0.162805
v -0.080591 0.543312 -0.219093
v 0.055302 0.543312 -0.162805
v 0.111591 0.543312 -0.026912
v 0.055302 0.543312 0.108981
v 0.015020 4.567276 -0.026516
v 0.015924 0.990204 -1.013869
v 0.033060 4.567276 -0.008476
v 1.070935 1.016258 -0.006938
v 0.015020 4.567276 0.009565
v 0.015924 1.042209 1.174453
v -0.003021 4.567276 -0.008476
v -1.124884 1.042209 -0.020512
v 0.015102 3.500515 -0.546368
v 0.015985 2.288700 -0.977548
v 0.986724 2.288700 -0.006809
v 0.553158 3.500515 -0.008312
v 0.015985 2.288700 0.963931
v 0.015102 3.500515 0.529744
v -0.954754 2.288700 -0.006809
v -0.522954 3.500515 -0.008312
v 0.832552 3.663852 -0.008476
v 0.015020 3.663410 0.809057
v -0.802512 3.665514 -0.008476
v 0.015020 3.637774 -0.826008
v 0.015102 2.545233 -1.490328
v 1.497118 2.477222 -0.008312
v 0.015102 2.477484 1.473705
v -1.466914 2.533016 -0.008312
v 0.015924 1.268688 -1.809870
v 1.818856 1.334051 -0.006938
v 0.015923 1.323427 1.795995
v -1.787009 1.294654 -0.006938
v 0.545966 4.019457 -0.008476
v 0.071277 4.019457 0.522471
v -0.562349 4.019457 -0.008476
v 0.015020 4.019457 -0.539422
v 1.190508 2.842504 -0.008312
v 0.015102 2.842504 1.265042
v -1.207247 2.842504 -0.008312
v 0.015102 2.842505 -1.225031
v 1.568319 1.680548 -0.006938
v 0.015924 1.680548 1.429033
v -1.500031 1.680548 -0.006938
v 0.015924 1.680548 -1.533030
v 0.024380 4.617081 -0.017633
v 0.513707 1.000812 -0.571399
v 0.005862 4.617081 0.000884
v -0.541444 1.027894 0.507898
v -0.266405 3.522067 0.262467
v -0.492145 2.280178 0.481471
v 0.285880 3.522067 -0.289818
v 0.504265 2.280178 -0.514939
v 0.426304 3.659021 -0.436343
v -0.412848 3.644520 0.402809
v 0.760433 2.441271 -0.784189
v -0.760775 2.455106 0.737019
v -0.928037 1.252201 0.899713
v 0.922574 1.252380 -0.950898
v -0.262757 4.054775 0.258735
v 0.282230 4.054775 -0.286252
v -0.562951 2.846655 0.547126
v 0.570539 2.846655 -0.586365
v 0.738093 1.656032 -0.758713
v -0.735852 1.656032 0.715232
v 0.024657 4.685389 0.001161
v 0.491583 0.970218 0.671209
v 0.005479 4.685389 -0.018016
v -0.576577 0.998843 -0.636230
v -0.277545 3.569726 -0.301040
v -0.499934 2.267840 -0.522729
v 0.301135 3.551298 0.277721
v 0.531993 2.267840 0.509199
v 0.449600 3.703570 0.426104
v -0.419464 3.648570 -0.442959
v 0.750247 2.422457 0.727453
v -0.772567 2.470456 -0.795980
v -0.942319 1.245265 -0.965181
v 0.974256 1.232882 0.951395
v -0.267139 4.103040 -0.290634
v 0.297275 4.103040 0.273779
v -0.571798 2.851811 -0.595212
v 0.602096 2.851811 0.578683
v 0.779211 1.621554 0.756349
v -0.747274 1.621554 -0.770135
v 0.015175 4.738334 -0.008320
v -0.000807 0.898973 -0.023669
v 0.014874 4.691941 -0.026091
v 0.015756 1.203313 -0.989031
v 0.032468 4.691941 -0.008497
v 1.044681 1.228722 -0.006997
v 0.014874 4.691941 0.009098
v 0.015755 1.254032 1.145183
v -0.002720 4.691941 -0.008497
v -1.096845 1.254032 -0.020235
v 0.014954 3.651556 -0.533089
v 0.015816 2.469703 -0.953608
v 0.962553 2.469703 -0.006871
v 0.539707 3.651556 -0.008337
v 0.015816 2.469703 0.939867
v 0.014954 3.651556 0.516416
v -0.930922 2.469703 -0.006871
v -0.509798 3.651556 -0.008337
v 0.812192 3.810854 -0.008497
v 0.014874 3.810423 0.788822
v -0.782444 3.812474 -0.008497
v 0.014874 3.785421 -0.805815
v 0.014954 2.719894 -1.453710
v 1.460327 2.653564 -0.008337
v 0.014954 2.653820 1.437036
v -1.430419 2.707979 -0.008337
v 0.015756 1.474912 -1.765351
v 1.774110 1.538658 -0.006997
v 0.015755 1.528296 1.751358
v -1.742599 1.500236 -0.006997
v 0.532693 4.157667 -0.008497
v 0.069740 4.157667 0.509322
v -0.548219 4.157667 -0.008497
v 0.014874 4.157667 -0.526315
v 1.161298 3.009814 -0.008337
v 0.014954 3.009814 1.233533
v -1.177172 3.009814 -0.008337
v 0.014954 3.009815 -1.194973
v 1.529768 1.876588 -0.006997
v 0.015755 1.876588 1.393470
v -1.462717 1.876588 -0.006997
v 0.015756 1.876588 -1.495356
v 0.024002 4.740515 -0.017428
v 0.501231 1.213659 -0.557502
v 0.005943 4.740515 0.000632
v -0.527831 1.240071 0.495109
v -0.259592 3.672575 0.255747
v -0.479751 2.461391 0.469336
v 0.279038 3.672575 -0.282883
v 0.492023 2.461391 -0.502438
v 0.415989 3.806143 -0.425785
v -0.402414 3.792000 0.392619
v 0.741857 2.618502 -0.765030
v -0.741739 2.631995 0.718566
v -0.904866 1.458832 0.877236
v 0.899989 1.459007 -0.927618
v -0.256035 4.192112 0.252107
v 0.275478 4.192112 -0.279405
v -0.548807 3.013863 0.533367
v 0.556658 3.013863 -0.572098
v 0.720070 1.852678 -0.740185
v -0.717432 1.852678 0.697317
v 0.024273 4.807134 0.000902
v 0.479655 1.183821 0.654382
v 0.005569 4.807134 -0.017801
v -0.562095 1.211738 -0.620730
v -0.270457 3.719056 -0.293827
v -0.487348 2.449359 -0.510035
v 0.293915 3.701084 0.270624
v 0.519065 2.449359 0.496378
v 0.438709 3.849590 0.415338
v -0.408867 3.795950 -0.432237
v 0.731923 2.600153 0.709236
v -0.753239 2.646965 -0.776530
v -0.918795 1.452067 -0.941547
v 0.950393 1.439991 0.927641
v -0.260308 4.239183 -0.283679
v 0.290150 4.239183 0.266779
v -0.557434 3.018892 -0.580726
v 0.587435 3.018892 0.564144
v 0.760170 1.819053 0.737418
v -0.728571 1.819053 -0.751324
v 0.015026 4.858769 -0.008345
v -0.000562 1.114338 -0.023314
vn -0.349000 0.894700 0.278700
vn -0.266100 0.881800 -0.389400
vn 0.126300 0.991600 -0.029100
vn 0.258100 0.904900 0.338300
vn 0.308300 0.911000 -0.273800
vn 0.366500 -0.097100 -0.925300
vn 0.419500 0.815800 -0.398100
vn 0.375900 0.878600 -0.294600
vn 0.372900 0.870700 0.320700
vn 0.292800 0.866500 0.404300
vn -0.464600 0.782200 -0.415200
vn -0.273900 0.898800 -0.342200
vn -0.425000 0.800600 0.422400
vn -0.318600 0.908300 0.271000
vn -0.643800 -0.486900 0.590200
vn -0.563700 -0.467300 -0.681100
vn 0.550500 -0.464400 0.693700
vn 0.633600 -0.443100 -0.634200
vn -0.590300 -0.535400 0.604100
vn -0.679000 -0.402800 -0.613800
vn 0.584000 -0.569800 0.578100
vn 0.568700 -0.539400 -0.621000
vn 0.599500 -0.508200 -0.618300
vn 0.597900 -0.515500 0.613800
vn -0.563800 -0.586000 -0.582000
vn -0.589400 -0.503600 0.631600
vn 0.624600 -0.585800 -0.516400
vn 0.262100 -0.592600 0.761700
vn -0.294800 -0.601700 -0.742300
vn -0.670500 -0.578100 0.465100
vn 0.572600 -0.550800 -0.607200
vn 0.561600 -0.554400 0.614200
vn -0.582600 -0.570800 -0.578600
vn -0.592700 -0.542300 0.595600
vn -0.587700 -0.512800 0.625800
vn -0.596000 -0.482000 -0.642200
vn 0.610000 -0.509000 0.607300
vn 0.600400 -0.502400 -0.622200
vn 0.611200 -0.478500 -0.630500
vn -0.623500 -0.505300 0.596600
vn -0.605900 -0.549800 0.575000
vn 0.616900 -0.560100 -0.552900
vn -0.458900 -0.580300 0.672800
vn 0.419100 -0.570500 -0.706300
vn -0.622900 -0.491100 0.608900
vn 0.583300 -0.568000 -0.580600
vn 0.644600 -0.481400 -0.593900
vn -0.624500 -0.540400 0.563900
vn 0.559600 -0.515400 -0.649000
vn -0.583100 -0.477300 0.657400
vn -0.279400 0.881900 0.379800
vn -0.420100 0.819800 0.389100
vn 0.288200 0.900200 -0.326300
vn 0.398500 0.817100 -0.416500
vn 0.922900 -0.097800 -0.372300
vn 0.296200 0.895000 -0.333500
vn 0.074200 0.990100 -0.119400
vn -0.283900 0.907200 0.310300
vn -0.109100 0.993800 0.022500
vn -0.372300 -0.097800 0.922900
vn 0.611100 -0.506200 0.608500
vn -0.597900 -0.515800 -0.613500
vn -0.619400 -0.551900 -0.558300
vn 0.611800 -0.555500 0.563100
vn -0.761800 -0.592600 -0.261500
vn 0.720900 -0.610000 0.328800
vn -0.593800 -0.522300 -0.612100
vn 0.603100 -0.533200 0.593200
vn 0.584400 -0.560100 0.587100
vn -0.613100 -0.469800 -0.635100
vn 0.672600 -0.438800 0.595800
vn -0.688700 -0.505200 -0.520000
vn -0.341900 0.899000 -0.273900
vn -0.415800 0.781900 -0.464600
vn 0.394200 0.871500 0.291700
vn 0.365400 0.851100 0.376900
vn -0.925300 -0.097100 0.366500
vn 0.355300 0.897400 0.261600
vn -0.007200 0.995800 0.091600
vn -0.368900 0.897900 -0.240200
vn -0.382500 -0.034400 0.923300
vn -0.923300 -0.034400 0.382500
vn -0.923300 -0.034400 -0.382500
vn -0.382500 -0.034400 -0.923300
vn 0.382500 -0.034400 -0.923300
vn 0.923300 -0.034400 -0.382500
vn 0.000000 1.000000 0.000000
vn 0.382500 -0.034400 0.923300
vn 0.923300 -0.034400 0.382500
vn 0.000000 -1.000000 -0.000000
vn 0.922700 0.050200 0.382200
vn 0.382200 0.050200 0.922700
vn 0.922700 0.050200 -0.382200
vn 0.382200 0.050200 -0.922700
vn -0.382200 0.050200 -0.922700
vn -0.922700 0.050200 -0.382200
vn -0.922700 0.050200 0.382200
vn -0.382200 0.050200 0.922700
usemtl Leaves
s off
f 78//1 66//1 28//1 50//1
f 98//2 86//2 30//2 51//2
f 106//3 88//3 32//3 68//3
f 97//4 88//4 26//4 49//4
f 77//5 68//5 32//5 52//5
f 105//6 85//6 29//6 67//6
f 74//7 69//7 40//7 43//7
f 76//8 70//8 39//8 48//8
f 94//9 89//9 33//9 44//9
f 96//10 90//10 34//10 45//10
f 93//11 91//11 38//11 42//11
f 95//12 92//12 37//12 47//12
f 73//13 71//13 36//13 41//13
f 75//14 72//14 35//14 46//14
f 80//15 73//15 41//15 53//15
f 100//16 93//16 42//16 54//16
f 99//17 94//17 44//17 56//17
f 79//18 74//18 43//18 55//18
f 82//19 75//19 46//19 57//19
f 102//20 95//20 47//20 58//20
f 101//21 96//21 45//21 60//21
f 81//22 76//22 48//22 59//22
f 84//23 77//23 52//23 63//23
f 104//24 97//24 49//24 64//24
f 103//25 98//25 51//25 62//25
f 83//26 78//26 50//26 61//26
f 67//27 79//27 55//27 31//27
f 87//28 99//28 56//28 25//28
f 85//29 100//29 54//29 29//29
f 65//30 80//30 53//30 27//30
f 69//31 81//31 59//31 40//31
f 89//32 101//32 60//32 33//32
f 91//33 102//33 58//33 38//33
f 71//34 82//34 57//34 36//34
f 72//35 83//35 61//35 35//35
f 92//36 103//36 62//36 37//36
f 90//37 104//37 64//37 34//37
f 70//38 84//38 63//38 39//38
f 37//39 62//39 84//39 70//39
f 34//40 64//40 83//40 72//40
f 33//41 60//41 82//41 71//41
f 38//42 58//42 81//42 69//42
f 25//43 56//43 80//43 65//43
f 29//44 54//44 79//44 67//44
f 64//45 49//45 78//45 83//45
f 62//46 51//46 77//46 84//46
f 58//47 47//47 76//47 81//47
f 60//48 45//48 75//48 82//48
f 54//49 42//49 74//49 79//49
f 56//50 44//50 73//50 80//50
f 45//51 34//51 72//51 75//51
f 44//52 33//52 71//52 73//52
f 47//53 37//53 70//53 76//53
f 42//54 38//54 69//54 74//54
f 87//55 105//55 67//55 31//55
f 51//56 30//56 68//56 77//56
f 86//57 106//57 68//57 30//57
f 49//58 26//58 66//58 78//58
f 28//59 66//59 106//59 86//59
f 25//60 65//60 105//60 87//60
f 39//61 63//61 104//61 90//61
f 35//62 61//62 103//62 92//62
f 36//63 57//63 102//63 91//63
f 40//64 59//64 101//64 89//64
f 27//65 53//65 100//65 85//65
f 31//66 55//66 99//66 87//66
f 61//67 50//67 98//67 103//67
f 63//68 52//68 97//68 104//68
f 59//69 48//69 96//69 101//69
f 57//70 46//70 95//70 102//70
f 55//71 43//71 94//71 99//71
f 53//72 41//72 93//72 100//72
f 46//73 35//73 92//73 95//73
f 41//74 36//74 91//74 93//74
f 48//75 39//75 90//75 96//75
f 43//76 40//76 89//76 94//76
f 65//77 27//77 85//77 105//77
f 52//78 32//78 88//78 97//78
f 66//79 26//79 88//79 106//79
f 50//80 28//80 86//80 98//80
usemtl Bark
f 17//81 2//81 4//81 18//81
f 18//82 4//82 6//82 19//82
f 19//83 6//83 8//83 20//83
f 20//84 8//84 10//84 21//84
f 21//85 10//85 12//85 22//85
f 22//86 12//86 14//86 23//86
f 4//87 2//87 16//87 14//87 12//87 10//87 8//87 6//87
f 24//88 16//88 2//88 17//88
f 23//89 14//89 16//89 24//89
f 1//90 3//90 5//90 7//90 9//90 11//90 13//90 15//90
f 13//91 23//91 24//91 15//91
f 15//92 24//92 17//92 1//92
f 11//93 22//93 23//93 13//93
f 9//94 21//94 22//94 11//94
f 7//95 20//95 21//95 9//95
f 5//96 19//96 20//96 7//96
f 3//97 18//97 19//97 5//97
f 1//98 17//98 18//98 3//98
usemtl Snow
f 160//1 148//1 110//1 132//1
f 180//2 168//2 112//2 133//2
f 188//3 170//3 114//3 150//3
f 179//4 170//4 108//4 131//4
f 159//5 150//5 114//5 134//5
f 187//6 167//6 111//6 149//6
f 156//7 151//7 122//7 125//7
f 158//8 152//8 121//8 130//8
f 176//9 171//9 115//9 126//9
f 178//10 172//10 116//10 127//10
f 175//11 173//11 120//11 124//11
f 177//12 174//12 119//12 129//12
f 155//13 153//13 118//13 123//13
f 157//14 154//14 117//14 128//14
f 162//15 155//15 123//15 135//15
f 182//16 175//16 124//16 136//16
f 181//17 176//17 126//17 138//17
f 161//18 156//18 125//18 137//18
f 164//19 157//19 128//19 139//19
f 184//20 177//20 129//20 140//20
f 183//21 178//21 127//21 142//21
f 163//22 158//22 130//22 141//22
f 166//23 159//23 134//23 145//23
f 186//24 179//24 131//24 146//24
f 185//25 180//25 133//25 144//25
f 165//26 160//26 132//26 143//26
f 149//27 161//27 137//27 113//27
f 169//28 181//28 138//28 107//28
f 167//29 182//29 136//29 111//29
f 147//30 162//30 135//30 109//30
f 151//31 163//31 141//31 122//31
f 171//32 183//32 142//32 115//32
f 173//33 184//33 140//33 120//33
f 153//34 164//34 139//34 118//34
f 154//35 165//35 143//35 117//35
f 174//36 185//36 144//36 119//36
f 172//37 186//37 146//37 116//37
f 152//38 166//38 145//38 121//38
f 119//39 144//39 166//39 152//39
f 116//40 146//40 165//40 154//40
f 115//41 142//41 164//41 153//41
f 120//42 140//42 163//42 151//42
f 107//43 138//43 162//43 147//43
f 111//44 136//44 161//44 149//44
f 146//45 131//45 160//45 165//45
f 144//46 133//46 159//46 166//46
f 140//47 129//47 158//47 163//47
f 142//48 127//48 157//48 164//48
f 136//49 124//49 156//49 161//49
f 138//50 126//50 155//50 162//50
f 127//51 116//51 154//51 157//51
f 126//52 115//52 153//52 155//52
f 129//53 119//53 152//53 158//53
f 124//54 120//54 151//54 156//54
f 169//55 187//55 149//55 113//55
f 133//56 112//56 150//56 159//56
f 168//57 188//57 150//57 112//57
f 131//58 108//58 148//58 160//58
f 110//59 148//59 188//59 168//59
f 107//60 147//60 187//60 169//60
f 121//61 145//61 186//61 172//61
f 117//62 143//62 185//62 174//62
f 118//63 139//63 184//63 173//63
f 122//64 141//64 183//64 171//64
f 109//65 135//65 182//65 167//65
f 113//66 137//66 181//66 169//66
f 143//67 132//67 180//67 185//67
f 145//68 134//68 179//68 186//68
f 141//69 130//69 178//69 183//69
f 139//70 128//70 177//70 184//70
f 137//71 125//71 176//71 181//71
f 135//72 123//72 175//72 182//72
f 128//73 117//73 174//73 177//73
f 123//74 118//74 173//74 175//74
f 130//75 121//75 172//75 178//75
f 125//76 122//76 171//76 176//76
f 147//77 109//77 167//77 187//77
f 134//78 114//78 170//78 179//78
f 148//79 108//79 170//79 188//79
f 132//80 110//80 168//80 180//80
